<svg xmlns="http://www.w3.org/2000/svg" viewBox="0 0 924.96 821.87"><defs><style>.a{fill:#486ab3;}</style></defs><title>heroAsset 4</title><path class="a" d="M433.43,483.35a.08.08,0,0,0,0-.16.08.08,0,1,0,0,.16Z"/><path class="a" d="M363.51,433.24a.24.24,0,0,0,0-.48.24.24,0,0,0,0,.48Z"/><path class="a" d="M689.66,459.79a.09.09,0,0,0,.09-.08.1.1,0,0,0-.09-.08.09.09,0,0,0-.08.08A.08.08,0,0,0,689.66,459.79Z"/><path class="a" d="M673.35,474.05a.08.08,0,0,0,0-.16.08.08,0,0,0,0,.16Z"/><path class="a" d="M655.82,486.78a.08.08,0,0,0,.08-.07.09.09,0,0,0-.08-.09.08.08,0,0,0-.08.09A.07.07,0,0,0,655.82,486.78Z"/><path class="a" d="M637.22,497.9a.08.08,0,0,0,.08-.08.08.08,0,1,0-.16,0A.08.08,0,0,0,637.22,497.9Z"/><path class="a" d="M617.7,507.54a.33.33,0,0,0,0-.65.33.33,0,0,0,0,.65Z"/><path class="a" d="M597.42,515.07a.24.24,0,0,0,.24-.24.24.24,0,0,0-.24-.24.25.25,0,0,0-.25.24A.25.25,0,0,0,597.42,515.07Z"/><path class="a" d="M576.53,520.83a.23.23,0,0,0,.24-.24.24.24,0,0,0-.24-.24.24.24,0,0,0-.24.24A.24.24,0,0,0,576.53,520.83Z"/><circle class="a" cx="555.22" cy="524.46" r="0.24"/><path class="a" d="M533.64,526.64a.23.23,0,0,0,.24-.23.25.25,0,0,0-.24-.25.25.25,0,0,0-.25.25A.24.24,0,0,0,533.64,526.64Z"/><path class="a" d="M512,526.64a.24.24,0,0,0,.25-.23.25.25,0,0,0-.25-.25.25.25,0,0,0-.24.25A.23.23,0,0,0,512,526.64Z"/><path class="a" d="M490.39,524.7a.24.24,0,1,0,0-.48.24.24,0,0,0,0,.48Z"/><path class="a" d="M469.08,520.83a.24.24,0,0,0,.24-.24.24.24,0,0,0-.24-.24.24.24,0,0,0-.24.24A.23.23,0,0,0,469.08,520.83Z"/><path class="a" d="M448.19,515.07a.25.25,0,0,0,.25-.24.25.25,0,0,0-.25-.24.24.24,0,0,0-.24.24A.24.24,0,0,0,448.19,515.07Z"/><path class="a" d="M427.91,507.7a.49.49,0,0,0,0-1,.49.49,0,0,0,0,1Z"/><path class="a" d="M408.39,498.14a.32.32,0,0,0,.32-.32.32.32,0,1,0-.64,0A.32.32,0,0,0,408.39,498.14Z"/><path class="a" d="M389.79,487.18a.47.47,0,0,0,.48-.47.48.48,0,1,0-1,0A.47.47,0,0,0,389.79,487.18Z"/><path class="a" d="M372.26,474.21a.24.24,0,0,0,.24-.24.23.23,0,0,0-.24-.24.24.24,0,0,0-.24.24A.24.24,0,0,0,372.26,474.21Z"/><path class="a" d="M356,460.28a.57.57,0,1,0-.57-.57A.56.56,0,0,0,356,460.28Z"/><path class="a" d="M341,444.62a.57.57,0,0,0,.57-.57.57.57,0,0,0-1.13,0A.57.57,0,0,0,341,444.62Z"/><path class="a" d="M327.46,427.35a.24.24,0,1,0,0-.47.23.23,0,0,0-.23.23A.23.23,0,0,0,327.46,427.35Z"/><path class="a" d="M315.54,409.6A.57.57,0,1,0,315,409,.56.56,0,0,0,315.54,409.6Z"/><path class="a" d="M305.26,390.2a.25.25,0,0,0,.25-.25.24.24,0,0,0-.25-.23.23.23,0,0,0-.23.23A.24.24,0,0,0,305.26,390.2Z"/><path class="a" d="M296.76,370.52a.49.49,0,1,0-.49-.49A.48.48,0,0,0,296.76,370.52Z"/><path class="a" d="M290.06,349.67a.24.24,0,0,0,0-.48.24.24,0,1,0,0,.48Z"/><path class="a" d="M285.24,328.39a.09.09,0,0,0,.08-.08.08.08,0,0,0-.08-.08.07.07,0,0,0-.08.08A.08.08,0,0,0,285.24,328.39Z"/><path class="a" d="M296.76,200.44a.08.08,0,0,0,.07-.08.08.08,0,0,0-.07-.09.09.09,0,0,0-.09.09A.09.09,0,0,0,296.76,200.44Z"/><circle class="a" cx="788.4" cy="285.19" r="0.08"/><path class="a" d="M787.52,306.92a.08.08,0,0,0,.08-.08.08.08,0,0,0-.16,0A.08.08,0,0,0,787.52,306.92Z"/><path class="a" d="M784.87,328.43a.08.08,0,0,0,.08-.08.07.07,0,0,0-.08-.08.08.08,0,0,0-.08.08A.09.09,0,0,0,784.87,328.43Z"/><path class="a" d="M780.48,349.65a.08.08,0,0,0,.08-.09.08.08,0,0,0-.08-.08.09.09,0,0,0-.08.08A.09.09,0,0,0,780.48,349.65Z"/><path class="a" d="M774.38,370.44a.09.09,0,0,0,.08-.09.09.09,0,0,0-.08-.08.08.08,0,0,0-.08.08A.08.08,0,0,0,774.38,370.44Z"/><path class="a" d="M766.6,390.66a.09.09,0,0,0,.08-.08.08.08,0,1,0-.16,0A.09.09,0,0,0,766.6,390.66Z"/><path class="a" d="M757.2,410.18a.08.08,0,0,0,.08-.08.08.08,0,1,0-.16,0A.08.08,0,0,0,757.2,410.18Z"/><path class="a" d="M746.24,428.87a.09.09,0,0,0,.08-.08.08.08,0,0,0-.08-.08.07.07,0,0,0-.08.08A.08.08,0,0,0,746.24,428.87Z"/><path class="a" d="M733.79,446.6a.07.07,0,0,0,.08-.08.08.08,0,0,0-.08-.08.09.09,0,0,0-.08.08A.08.08,0,0,0,733.79,446.6Z"/><path class="a" d="M719.94,463.66a.48.48,0,1,0,0-1,.48.48,0,1,0,0,1Z"/><path class="a" d="M704.78,478.74a.09.09,0,0,0,.08-.08.08.08,0,0,0-.08-.08.08.08,0,0,0-.09.08A.09.09,0,0,0,704.78,478.74Z"/><path class="a" d="M688.4,493.17a.33.33,0,1,0,0-.65.33.33,0,0,0,0,.65Z"/><path class="a" d="M670.92,506.13a.48.48,0,0,0,.49-.48.49.49,0,0,0-1,0A.48.48,0,0,0,670.92,506.13Z"/><path class="a" d="M652.46,517.47A.48.48,0,1,0,652,517,.48.48,0,0,0,652.46,517.47Z"/><path class="a" d="M633.14,527.11a.32.32,0,0,0,0-.64.32.32,0,0,0,0,.64Z"/><path class="a" d="M613.08,535.78a.81.81,0,1,0-.8-.8A.8.8,0,0,0,613.08,535.78Z"/><path class="a" d="M592.42,542.31a.81.81,0,0,0,0-1.61.81.81,0,0,0,0,1.61Z"/><circle class="a" cx="571.3" cy="546.33" r="0.96"/><path class="a" d="M549.85,550.13a.72.72,0,1,0-.72-.72A.72.72,0,0,0,549.85,550.13Z"/><path class="a" d="M528.23,551.54a.81.81,0,0,0,0-1.61.81.81,0,1,0,0,1.61Z"/><circle class="a" cx="506.56" cy="550.29" r="0.72"/><path class="a" d="M485,548.89a.8.8,0,0,0,.8-.8.8.8,0,1,0-1.6,0A.8.8,0,0,0,485,548.89Z"/><path class="a" d="M463.71,545.34a1.21,1.21,0,1,0-1.21-1.21A1.21,1.21,0,0,0,463.71,545.34Z"/><path class="a" d="M442.79,539.9a1.45,1.45,0,1,0-1.44-1.45A1.45,1.45,0,0,0,442.79,539.9Z"/><path class="a" d="M422.42,532.53a1.45,1.45,0,1,0-1.45-1.44A1.44,1.44,0,0,0,422.42,532.53Z"/><path class="a" d="M402.71,522.89a.81.81,0,1,0-.8-.8A.8.8,0,0,0,402.71,522.89Z"/><path class="a" d="M383.8,512.56a1,1,0,1,0-1.05-1A1,1,0,0,0,383.8,512.56Z"/><path class="a" d="M365.81,500.39a1,1,0,1,0-1-1A1,1,0,0,0,365.81,500.39Z"/><path class="a" d="M348.88,486.88a1,1,0,1,0-1-1A1,1,0,0,0,348.88,486.88Z"/><path class="a" d="M333.09,472.12a1,1,0,1,0-1-1.05A1,1,0,0,0,333.09,472.12Z"/><path class="a" d="M318.58,455.71a.72.72,0,0,0,0-1.44.72.72,0,1,0,0,1.44Z"/><path class="a" d="M305.41,438.5a.72.72,0,1,0-.72-.72A.73.73,0,0,0,305.41,438.5Z"/><path class="a" d="M293.7,420.52a1,1,0,1,0-1-1A1,1,0,0,0,293.7,420.52Z"/><path class="a" d="M283.51,401.23a.8.8,0,1,0,0-1.6.8.8,0,0,0,0,1.6Z"/><path class="a" d="M274.91,381.27a.73.73,0,1,0,0-1.45.73.73,0,0,0,0,1.45Z"/><path class="a" d="M268,360.58a.56.56,0,1,0,0-1.12.56.56,0,1,0,0,1.12Z"/><path class="a" d="M262.72,339.56a.56.56,0,1,0,0-1.12.56.56,0,1,0,0,1.12Z"/><path class="a" d="M259.19,318.1a.48.48,0,0,0,.49-.48.49.49,0,0,0-1,0A.48.48,0,0,0,259.19,318.1Z"/><path class="a" d="M257.43,296.35a.32.32,0,0,0,.32-.33.31.31,0,0,0-.32-.31.32.32,0,0,0-.33.31A.33.33,0,0,0,257.43,296.35Z"/><path class="a" d="M257.43,274.6a.24.24,0,0,0,.24-.24.24.24,0,0,0-.24-.24.24.24,0,0,0-.24.24A.23.23,0,0,0,257.43,274.6Z"/><path class="a" d="M259.19,252.85a.08.08,0,0,0,.08-.08.07.07,0,0,0-.08-.08.07.07,0,0,0-.07.08A.08.08,0,0,0,259.19,252.85Z"/><path class="a" d="M262.72,231.47a.08.08,0,0,0,0-.16.08.08,0,1,0,0,.16Z"/><path class="a" d="M268,210.45a.08.08,0,0,0,0-.16.08.08,0,0,0,0,.16Z"/><path class="a" d="M274.91,189.92a.08.08,0,0,0,.09-.07.09.09,0,0,0-.09-.09.08.08,0,0,0-.07.09A.07.07,0,0,0,274.91,189.92Z"/><path class="a" d="M318.58,115.48a.08.08,0,0,0,.07-.08.07.07,0,0,0-.07-.08.07.07,0,0,0-.08.08A.08.08,0,0,0,318.58,115.48Z"/><path class="a" d="M784.87,242.12a.08.08,0,1,0,0-.16.08.08,0,1,0,0,.16Z"/><path class="a" d="M787.52,263.62a.08.08,0,0,0,.08-.08.08.08,0,0,0-.16,0A.08.08,0,0,0,787.52,263.62Z"/><path class="a" d="M811.74,306.93a.09.09,0,0,0,.08-.08.08.08,0,0,0-.08-.08.07.07,0,0,0-.08.08A.08.08,0,0,0,811.74,306.93Z"/><path class="a" d="M809.31,328.46a.08.08,0,0,0,.08-.08.08.08,0,0,0-.16,0A.08.08,0,0,0,809.31,328.46Z"/><path class="a" d="M805.28,349.75a.08.08,0,0,0,.08-.08.07.07,0,0,0-.08-.08.08.08,0,0,0-.08.08A.09.09,0,0,0,805.28,349.75Z"/><path class="a" d="M799.68,370.68a.09.09,0,0,0,.08-.08.08.08,0,0,0-.08-.08.07.07,0,0,0-.08.08A.08.08,0,0,0,799.68,370.68Z"/><path class="a" d="M792.52,391.13a.09.09,0,0,0,.08-.09.08.08,0,0,0-.08-.07.07.07,0,0,0-.08.07A.08.08,0,0,0,792.52,391.13Z"/><path class="a" d="M783.86,411a.07.07,0,0,0,.07-.07.08.08,0,0,0-.07-.08.09.09,0,0,0-.09.08A.08.08,0,0,0,783.86,411Z"/><path class="a" d="M773.73,430.15a.09.09,0,0,0,.08-.08.09.09,0,0,0-.08-.09.08.08,0,0,0-.08.09A.08.08,0,0,0,773.73,430.15Z"/><path class="a" d="M762.2,448.65a.24.24,0,1,0-.24-.24A.24.24,0,0,0,762.2,448.65Z"/><path class="a" d="M749.33,466.16a.32.32,0,0,0,.32-.32.32.32,0,1,0-.63,0A.31.31,0,0,0,749.33,466.16Z"/><path class="a" d="M735.2,482.83a.56.56,0,1,0,0-1.12.56.56,0,0,0,0,1.12Z"/><path class="a" d="M719.88,498.15a.56.56,0,1,0,0-1.12.56.56,0,1,0,0,1.12Z"/><path class="a" d="M703.46,512.21a.49.49,0,1,0-.49-.49A.49.49,0,0,0,703.46,512.21Z"/><path class="a" d="M686,525.07a.48.48,0,0,0,.48-.48.48.48,0,0,0-1,0A.48.48,0,0,0,686,525.07Z"/><path class="a" d="M667.67,537.8a1.69,1.69,0,1,0-1.68-1.68A1.68,1.68,0,0,0,667.67,537.8Z"/><path class="a" d="M648.52,547.45a1.21,1.21,0,1,0-1.2-1.21A1.2,1.2,0,0,0,648.52,547.45Z"/><path class="a" d="M628.66,555.63a.73.73,0,1,0,0-1.45.73.73,0,0,0,0,1.45Z"/><path class="a" d="M608.21,563.11a1,1,0,1,0,0-2.09,1,1,0,0,0,0,2.09Z"/><path class="a" d="M587.28,569a1.29,1.29,0,1,0-1.29-1.29A1.28,1.28,0,0,0,587.28,569Z"/><path class="a" d="M566,573a1.29,1.29,0,1,0-1.29-1.29A1.29,1.29,0,0,0,566,573Z"/><path class="a" d="M544.46,575.09a1,1,0,1,0-1-1A1,1,0,0,0,544.46,575.09Z"/><path class="a" d="M522.81,575.9a1,1,0,1,0-1-1A1,1,0,0,0,522.81,575.9Z"/><path class="a" d="M501.15,575.57a1.45,1.45,0,1,0-1.44-1.44A1.45,1.45,0,0,0,501.15,575.57Z"/><path class="a" d="M479.62,572.91a1.21,1.21,0,1,0-1.2-1.21A1.21,1.21,0,0,0,479.62,572.91Z"/><path class="a" d="M458.33,569.2a1.53,1.53,0,1,0-1.52-1.53A1.52,1.52,0,0,0,458.33,569.2Z"/><path class="a" d="M437.4,564.15a2.09,2.09,0,1,0-2.09-2.09A2.08,2.08,0,0,0,437.4,564.15Z"/><path class="a" d="M417,556.91a2,2,0,1,0-2-2A2,2,0,0,0,417,556.91Z"/><path class="a" d="M397.1,547.69a1.45,1.45,0,1,0-1.45-1.45A1.45,1.45,0,0,0,397.1,547.69Z"/><path class="a" d="M377.94,538.21a2.09,2.09,0,1,0-2.09-2.09A2.1,2.1,0,0,0,377.94,538.21Z"/><circle class="a" cx="359.59" cy="524.59" r="1.45"/><path class="a" d="M342.15,513.49a1.77,1.77,0,1,0-1.76-1.77A1.77,1.77,0,0,0,342.15,513.49Z"/><path class="a" d="M325.73,499.12a1.53,1.53,0,1,0-1.52-1.53A1.53,1.53,0,0,0,325.73,499.12Z"/><path class="a" d="M310.41,483.55a1.29,1.29,0,1,0-1.29-1.28A1.28,1.28,0,0,0,310.41,483.55Z"/><path class="a" d="M296.28,466.65a.81.81,0,0,0,0-1.61.81.81,0,0,0,0,1.61Z"/><path class="a" d="M283.41,449.37a1,1,0,1,0,0-1.92,1,1,0,1,0,0,1.92Z"/><path class="a" d="M271.88,430.87a.81.81,0,0,0,0-1.61.81.81,0,0,0,0,1.61Z"/><path class="a" d="M261.75,411.71a.81.81,0,0,0,.82-.8.82.82,0,0,0-.82-.81.81.81,0,0,0-.8.81A.8.8,0,0,0,261.75,411.71Z"/><path class="a" d="M253.09,391.77a.73.73,0,0,0,.73-.72.73.73,0,0,0-.73-.73.73.73,0,0,0-.72.73A.72.72,0,0,0,253.09,391.77Z"/><path class="a" d="M245.94,371.4a.8.8,0,1,0-.81-.8A.8.8,0,0,0,245.94,371.4Z"/><path class="a" d="M240.33,350.47a.81.81,0,0,0,.81-.8.82.82,0,0,0-.81-.81.8.8,0,0,0-.8.81A.8.8,0,0,0,240.33,350.47Z"/><path class="a" d="M236.3,329.1a.72.72,0,1,0-.72-.72A.72.72,0,0,0,236.3,329.1Z"/><path class="a" d="M233.87,307.57a.72.72,0,0,0,.73-.72.73.73,0,1,0-1.45,0A.72.72,0,0,0,233.87,307.57Z"/><path class="a" d="M233.06,285.68a.49.49,0,1,0,0-1,.49.49,0,0,0,0,1Z"/><path class="a" d="M233.87,263.87a.33.33,0,0,0,0-.65.33.33,0,0,0,0,.65Z"/><path class="a" d="M236.3,242.33a.32.32,0,1,0,0-.64.32.32,0,1,0,0,.64Z"/><path class="a" d="M240.33,221a.24.24,0,1,0-.24-.24A.24.24,0,0,0,240.33,221Z"/><path class="a" d="M245.93,199.87a.08.08,0,1,0,0-.16.08.08,0,1,0,0,.16Z"/><path class="a" d="M253.09,179.42a.08.08,0,1,0,0-.16.08.08,0,0,0,0,.16Z"/><path class="a" d="M261.75,159.56a.08.08,0,1,0,0-.16.08.08,0,0,0,0,.16Z"/><path class="a" d="M271.88,140.41a.08.08,0,0,0,.08-.09.08.08,0,0,0-.08-.08.09.09,0,0,0-.08.08A.09.09,0,0,0,271.88,140.41Z"/><path class="a" d="M283.41,122.06a.08.08,0,0,0,.08-.08.07.07,0,0,0-.08-.08.08.08,0,0,0-.08.08A.09.09,0,0,0,283.41,122.06Z"/><path class="a" d="M296.28,104.62a.08.08,0,0,0,.08-.07.09.09,0,0,0-.08-.09.08.08,0,0,0-.08.09A.07.07,0,0,0,296.28,104.62Z"/><path class="a" d="M310.41,88.2a.08.08,0,1,0-.08-.08A.09.09,0,0,0,310.41,88.2Z"/><path class="a" d="M325.73,72.88a.08.08,0,0,0,.08-.08.07.07,0,0,0-.08-.08.08.08,0,0,0-.08.08A.09.09,0,0,0,325.73,72.88Z"/><path class="a" d="M342.15,58.75a.09.09,0,0,0,.09-.08.09.09,0,0,0-.09-.09.08.08,0,0,0-.07.09A.08.08,0,0,0,342.15,58.75Z"/><path class="a" d="M359.58,45.88a.09.09,0,0,0,.09-.08.08.08,0,0,0-.09-.08.07.07,0,0,0-.07.08A.08.08,0,0,0,359.58,45.88Z"/><path class="a" d="M377.94,34.35a.07.07,0,0,0,.07-.08.08.08,0,0,0-.07-.08.09.09,0,0,0-.09.08A.08.08,0,0,0,377.94,34.35Z"/><path class="a" d="M417,15.56a.08.08,0,0,0,.08-.08.09.09,0,0,0-.08-.08.07.07,0,0,0-.07.08S416.9,15.56,417,15.56Z"/><path class="a" d="M809.31,242.09a.08.08,0,1,0-.08-.08A.08.08,0,0,0,809.31,242.09Z"/><path class="a" d="M811.74,263.62a.08.08,0,0,0,.08-.08.09.09,0,0,0-.08-.08.08.08,0,0,0-.08.08A.07.07,0,0,0,811.74,263.62Z"/><path class="a" d="M836.69,285.27a.07.07,0,0,0,.08-.08.08.08,0,1,0-.16,0A.07.07,0,0,0,836.69,285.27Z"/><path class="a" d="M836,306.93a.08.08,0,0,0,0-.16.08.08,0,1,0,0,.16Z"/><path class="a" d="M833.71,328.48a.08.08,0,0,0,.08-.08.09.09,0,0,0-.08-.08.09.09,0,0,0-.09.08A.08.08,0,0,0,833.71,328.48Z"/><path class="a" d="M830,350a.25.25,0,0,0,.25-.24.25.25,0,0,0-.25-.24.24.24,0,0,0-.24.24A.24.24,0,0,0,830,350Z"/><path class="a" d="M824.79,371a.25.25,0,0,0,.25-.24.25.25,0,0,0-.25-.25.25.25,0,0,0-.23.25A.24.24,0,0,0,824.79,371Z"/><path class="a" d="M818.17,391.66a.24.24,0,0,0,.24-.25.23.23,0,0,0-.24-.23.23.23,0,0,0-.24.23A.25.25,0,0,0,818.17,391.66Z"/><path class="a" d="M810.14,411.78a.24.24,0,1,0-.24-.24A.24.24,0,0,0,810.14,411.78Z"/><path class="a" d="M800.73,431.14a.08.08,0,0,0,.09-.07.09.09,0,0,0-.09-.09.08.08,0,0,0-.07.09A.07.07,0,0,0,800.73,431.14Z"/><path class="a" d="M790,450.13a.23.23,0,0,0,.24-.24.24.24,0,0,0-.24-.24.24.24,0,0,0-.24.24A.24.24,0,0,0,790,450.13Z"/><path class="a" d="M778,468.42a.49.49,0,0,0,0-1,.49.49,0,0,0,0,1Z"/><path class="a" d="M764.8,485.59a.49.49,0,1,0-.49-.48A.49.49,0,0,0,764.8,485.59Z"/><path class="a" d="M750.43,501.89a.57.57,0,1,0-.57-.56A.57.57,0,0,0,750.43,501.89Z"/><path class="a" d="M735,517a.48.48,0,0,0,.48-.48.49.49,0,1,0-.48.48Z"/><path class="a" d="M718.51,531.64a1,1,0,1,0-1-1A1,1,0,0,0,718.51,531.64Z"/><path class="a" d="M701.12,545a1.53,1.53,0,1,0-1.54-1.52A1.53,1.53,0,0,0,701.12,545Z"/><path class="a" d="M682.87,557.86a2.65,2.65,0,1,0-2.65-2.65A2.65,2.65,0,0,0,682.87,557.86Z"/><path class="a" d="M663.86,568.25a2.65,2.65,0,1,0-2.65-2.65A2.65,2.65,0,0,0,663.86,568.25Z"/><path class="a" d="M644.17,576.43a1.77,1.77,0,1,0-1.77-1.76A1.76,1.76,0,0,0,644.17,576.43Z"/><path class="a" d="M623.91,584.2a1.85,1.85,0,1,0-1.85-1.85A1.85,1.85,0,0,0,623.91,584.2Z"/><path class="a" d="M603.17,590.14a1.53,1.53,0,1,0-1.53-1.52A1.53,1.53,0,0,0,603.17,590.14Z"/><path class="a" d="M582.05,594.49a1,1,0,1,0-1-1A1,1,0,0,0,582.05,594.49Z"/><path class="a" d="M560.64,598.48a1.69,1.69,0,1,0-1.69-1.69A1.69,1.69,0,0,0,560.64,598.48Z"/><path class="a" d="M539.05,600a1.29,1.29,0,1,0-1.29-1.29A1.29,1.29,0,0,0,539.05,600Z"/><path class="a" d="M517.39,600.32A1.29,1.29,0,1,0,516.1,599,1.29,1.29,0,0,0,517.39,600.32Z"/><path class="a" d="M495.75,599.6a1.69,1.69,0,1,0-1.69-1.69A1.69,1.69,0,0,0,495.75,599.6Z"/><path class="a" d="M474.24,597.39a2.09,2.09,0,1,0-2.09-2.09A2.1,2.1,0,0,0,474.24,597.39Z"/><path class="a" d="M453,593a1.77,1.77,0,1,0-1.77-1.77A1.77,1.77,0,0,0,453,593Z"/><path class="a" d="M432,588.48a2.82,2.82,0,1,0-2.81-2.82A2.82,2.82,0,0,0,432,588.48Z"/><path class="a" d="M411.5,582.14a3.46,3.46,0,1,0-3.46-3.46A3.45,3.45,0,0,0,411.5,582.14Z"/><path class="a" d="M391.52,573.12a2.82,2.82,0,1,0-2.82-2.82A2.81,2.81,0,0,0,391.52,573.12Z"/><path class="a" d="M372.16,563.38a2.81,2.81,0,1,0-2.82-2.81A2.81,2.81,0,0,0,372.16,563.38Z"/><path class="a" d="M353.52,552.65a3.13,3.13,0,1,0-3.14-3.13A3.13,3.13,0,0,0,353.52,552.65Z"/><path class="a" d="M335.69,541.07a3.86,3.86,0,1,0-3.86-3.86A3.86,3.86,0,0,0,335.69,541.07Z"/><path class="a" d="M318.74,525.78a2.09,2.09,0,1,0-2.09-2.08A2.08,2.08,0,0,0,318.74,525.78Z"/><path class="a" d="M302.78,511.14a2.09,2.09,0,1,0-2.09-2.09A2.08,2.08,0,0,0,302.78,511.14Z"/><path class="a" d="M287.85,495a1.69,1.69,0,1,0,0-3.38,1.69,1.69,0,0,0,0,3.38Z"/><path class="a" d="M274.06,478.16a1.53,1.53,0,1,0-1.53-1.53A1.52,1.52,0,0,0,274.06,478.16Z"/><path class="a" d="M261.44,460.54a1.53,1.53,0,1,0-1.52-1.52A1.52,1.52,0,0,0,261.44,460.54Z"/><path class="a" d="M250.07,442.34a1.77,1.77,0,1,0-1.77-1.77A1.77,1.77,0,0,0,250.07,442.34Z"/><path class="a" d="M240,422.59a1.21,1.21,0,1,0-1.2-1.21A1.21,1.21,0,0,0,240,422.59Z"/><path class="a" d="M231.28,402.35a.8.8,0,1,0,0-1.6.8.8,0,0,0,0,1.6Z"/><path class="a" d="M224,382.12a1,1,0,0,0,0-1.93,1,1,0,1,0,0,1.93Z"/><path class="a" d="M218,361.28a1,1,0,1,0,0-1.93,1,1,0,0,0,0,1.93Z"/><path class="a" d="M213.59,340.07a1,1,0,0,0,0-1.93,1,1,0,1,0,0,1.93Z"/><path class="a" d="M210.6,318.45a.81.81,0,1,0,0-1.61.81.81,0,0,0,0,1.61Z"/><path class="a" d="M209.11,296.51a.49.49,0,0,0,.48-.49.49.49,0,0,0-1,0A.49.49,0,0,0,209.11,296.51Z"/><path class="a" d="M209.11,275.08a.72.72,0,1,0-.72-.72A.72.72,0,0,0,209.11,275.08Z"/><path class="a" d="M210.6,253.47a.73.73,0,0,0,.72-.73.72.72,0,0,0-.72-.72.73.73,0,0,0-.73.72A.73.73,0,0,0,210.6,253.47Z"/><path class="a" d="M213.59,231.6a.32.32,0,0,0,.32-.32.33.33,0,0,0-.32-.32.32.32,0,0,0-.32.32A.32.32,0,0,0,213.59,231.6Z"/><path class="a" d="M218,210.56a.49.49,0,0,0,0-1,.49.49,0,0,0,0,1Z"/><path class="a" d="M224,189.55a.32.32,0,0,0,0-.64.32.32,0,0,0,0,.64Z"/><path class="a" d="M231.28,168.92a.08.08,0,0,0,.08-.08.08.08,0,0,0-.16,0A.08.08,0,0,0,231.28,168.92Z"/><path class="a" d="M240,149.08a.08.08,0,0,0,.09-.08.09.09,0,0,0-.09-.08.08.08,0,0,0-.07.08A.07.07,0,0,0,240,149.08Z"/><path class="a" d="M250.08,130.06a.25.25,0,0,0,.24-.25.23.23,0,0,0-.24-.23.24.24,0,0,0-.25.23A.25.25,0,0,0,250.08,130.06Z"/><path class="a" d="M261.44,111.61a.24.24,0,1,0-.24-.24A.24.24,0,0,0,261.44,111.61Z"/><path class="a" d="M274.06,94.08a.33.33,0,1,0-.32-.33A.32.32,0,0,0,274.06,94.08Z"/><path class="a" d="M287.85,77.29a.24.24,0,1,0,0-.48.24.24,0,0,0,0,.48Z"/><path class="a" d="M302.78,61.57a.23.23,0,0,0,.24-.23.24.24,0,0,0-.24-.25.25.25,0,0,0-.24.25A.23.23,0,0,0,302.78,61.57Z"/><path class="a" d="M318.74,46.93a.24.24,0,1,0,0-.48.24.24,0,0,0,0,.48Z"/><path class="a" d="M335.69,33.26a.09.09,0,0,0,.08-.08.08.08,0,0,0-.08-.08.07.07,0,0,0-.08.08A.08.08,0,0,0,335.69,33.26Z"/><path class="a" d="M353.52,21a.08.08,0,0,0,.08-.08.09.09,0,0,0-.08-.08.08.08,0,0,0-.08.08A.07.07,0,0,0,353.52,21Z"/><path class="a" d="M372.16,9.9a.08.08,0,1,0,0-.16.08.08,0,1,0,0,.16Z"/><path class="a" d="M391.52.16a.08.08,0,0,0,.08-.08.09.09,0,0,0-.08-.08.08.08,0,0,0-.08.08A.07.07,0,0,0,391.52.16Z"/><path class="a" d="M824.79,199.68a.08.08,0,0,0,.09-.08.09.09,0,0,0-.09-.08.08.08,0,0,0-.07.08A.07.07,0,0,0,824.79,199.68Z"/><path class="a" d="M830,220.72a.07.07,0,0,0,.08-.08.08.08,0,0,0-.08-.08.09.09,0,0,0-.08.08A.08.08,0,0,0,830,220.72Z"/><path class="a" d="M833.71,242.07a.09.09,0,0,0,.08-.08.08.08,0,0,0-.08-.08.08.08,0,0,0-.09.08A.09.09,0,0,0,833.71,242.07Z"/><path class="a" d="M836,263.62a.08.08,0,0,0,0-.16.08.08,0,1,0,0,.16Z"/><path class="a" d="M860.84,285.44a.25.25,0,0,0,0-.49.24.24,0,0,0-.24.24A.24.24,0,0,0,860.84,285.44Z"/><path class="a" d="M860.14,307.09a.23.23,0,0,0,.24-.24.24.24,0,0,0-.24-.24.24.24,0,0,0-.24.24A.24.24,0,0,0,860.14,307.09Z"/><circle class="a" cx="858.06" cy="328.42" r="0.24"/><path class="a" d="M854.6,350.13a.32.32,0,1,0,0-.64.32.32,0,0,0,0,.64Z"/><path class="a" d="M849.78,371.26a.32.32,0,0,0,.32-.32.32.32,0,0,0-.32-.33.33.33,0,0,0-.32.33A.32.32,0,0,0,849.78,371.26Z"/><path class="a" d="M843.62,392.44a.73.73,0,0,0,.72-.73.72.72,0,1,0-.72.73Z"/><path class="a" d="M836.13,413a1,1,0,1,0-1-1A1,1,0,0,0,836.13,413Z"/><path class="a" d="M827.36,432.1a.24.24,0,1,0-.24-.24A.24.24,0,0,0,827.36,432.1Z"/><path class="a" d="M817.34,451.31a.24.24,0,0,0,.24-.24.24.24,0,0,0-.24-.24.24.24,0,0,0-.24.24A.23.23,0,0,0,817.34,451.31Z"/><path class="a" d="M806.1,470.09a.49.49,0,1,0-.48-.49A.49.49,0,0,0,806.1,470.09Z"/><path class="a" d="M793.71,487.69a.32.32,0,1,0-.32-.32A.32.32,0,0,0,793.71,487.69Z"/><path class="a" d="M780.2,504.8a.49.49,0,1,0-.48-.48A.48.48,0,0,0,780.2,504.8Z"/><path class="a" d="M765.63,521.4a1,1,0,1,0-1-1A1,1,0,0,0,765.63,521.4Z"/><path class="a" d="M750.06,536.88a1.45,1.45,0,1,0-1.44-1.45A1.45,1.45,0,0,0,750.06,536.88Z"/><path class="a" d="M733.56,550.52a1,1,0,1,0-1-1A1,1,0,0,0,733.56,550.52Z"/><path class="a" d="M716.2,564.13a1.69,1.69,0,1,0-1.69-1.69A1.69,1.69,0,0,0,716.2,564.13Z"/><circle class="a" cx="698.04" cy="574.26" r="2.33"/><path class="a" d="M679.16,588.11a3.22,3.22,0,1,0-3.22-3.22A3.21,3.21,0,0,0,679.16,588.11Z"/><path class="a" d="M659.63,596.63a2.33,2.33,0,1,0-2.33-2.33A2.34,2.34,0,0,0,659.63,596.63Z"/><path class="a" d="M639.55,605.88a3.46,3.46,0,1,0-3.45-3.45A3.46,3.46,0,0,0,639.55,605.88Z"/><path class="a" d="M619,612.71a3.46,3.46,0,1,0-3.45-3.46A3.46,3.46,0,0,0,619,612.71Z"/><path class="a" d="M598,616.84a2.09,2.09,0,1,0-2.09-2.09A2.1,2.1,0,0,0,598,616.84Z"/><path class="a" d="M576.76,621.14a2.25,2.25,0,1,0-2.25-2.25A2.25,2.25,0,0,0,576.76,621.14Z"/><path class="a" d="M555.27,624.31a2.65,2.65,0,1,0-2.66-2.65A2.64,2.64,0,0,0,555.27,624.31Z"/><path class="a" d="M533.64,624.9a1.85,1.85,0,1,0-1.85-1.85A1.85,1.85,0,0,0,533.64,624.9Z"/><path class="a" d="M512,625.62a2.57,2.57,0,1,0-2.57-2.57A2.57,2.57,0,0,0,512,625.62Z"/><path class="a" d="M490.35,624.56a2.9,2.9,0,1,0-2.89-2.9A2.89,2.89,0,0,0,490.35,624.56Z"/><path class="a" d="M468.85,621.79a2.9,2.9,0,1,0-2.88-2.9A2.9,2.9,0,0,0,468.85,621.79Z"/><path class="a" d="M447.59,617.8a3.05,3.05,0,1,0-3.06-3A3,3,0,0,0,447.59,617.8Z"/><path class="a" d="M426.63,613.27a4,4,0,1,0-4-4A4,4,0,0,0,426.63,613.27Z"/><path class="a" d="M406.06,607a4.58,4.58,0,1,0-4.57-4.57A4.57,4.57,0,0,0,406.06,607Z"/><path class="a" d="M386,598.07a3.78,3.78,0,1,0-3.78-3.77A3.77,3.77,0,0,0,386,598.07Z"/><path class="a" d="M366.46,590.44a5.55,5.55,0,1,0-5.55-5.55A5.53,5.53,0,0,0,366.46,590.44Z"/><path class="a" d="M347.57,579.08a4.82,4.82,0,1,0-4.82-4.82A4.82,4.82,0,0,0,347.57,579.08Z"/><path class="a" d="M329.41,567.5a5.06,5.06,0,1,0-5.06-5.06A5.07,5.07,0,0,0,329.41,567.5Z"/><path class="a" d="M312.05,553.9a4.42,4.42,0,1,0-4.42-4.42A4.42,4.42,0,0,0,312.05,553.9Z"/><path class="a" d="M295.55,540.09a4.66,4.66,0,1,0-4.66-4.66A4.66,4.66,0,0,0,295.55,540.09Z"/><path class="a" d="M280,523.41a3.06,3.06,0,1,0-3.05-3.06A3.05,3.05,0,0,0,280,523.41Z"/><path class="a" d="M265.41,506.88a2.57,2.57,0,1,0-2.57-2.56A2.56,2.56,0,0,0,265.41,506.88Z"/><path class="a" d="M251.9,489.94a2.57,2.57,0,1,0-2.56-2.56A2.57,2.57,0,0,0,251.9,489.94Z"/><path class="a" d="M239.51,471.85a2.25,2.25,0,1,0-2.26-2.25A2.25,2.25,0,0,0,239.51,471.85Z"/><path class="a" d="M228.28,452.84a1.77,1.77,0,1,0-1.77-1.77A1.76,1.76,0,0,0,228.28,452.84Z"/><path class="a" d="M218.25,433.87a2,2,0,1,0-2-2A2,2,0,0,0,218.25,433.87Z"/><path class="a" d="M209.48,414.06a2,2,0,1,0-2-2A2,2,0,0,0,209.48,414.06Z"/><path class="a" d="M202,393.8a2.09,2.09,0,1,0-2.09-2.09A2.09,2.09,0,0,0,202,393.8Z"/><path class="a" d="M195.83,372.46a1.53,1.53,0,1,0-1.53-1.52A1.53,1.53,0,0,0,195.83,372.46Z"/><circle class="a" cx="191.01" cy="349.81" r="1.45"/><path class="a" d="M187.54,330.11a1.69,1.69,0,1,0-1.68-1.69A1.69,1.69,0,0,0,187.54,330.11Z"/><path class="a" d="M185.47,308.14a1.29,1.29,0,1,0-1.28-1.29A1.28,1.28,0,0,0,185.47,308.14Z"/><path class="a" d="M184.77,286.4a1.21,1.21,0,1,0-1.2-1.21A1.21,1.21,0,0,0,184.77,286.4Z"/><path class="a" d="M185.47,264.58a1,1,0,0,0,0-2.09,1,1,0,1,0,0,2.09Z"/><path class="a" d="M187.54,243a1,1,0,1,0-1-1A1,1,0,0,0,187.54,243Z"/><path class="a" d="M191,221.38a.81.81,0,1,0-.8-.8A.8.8,0,0,0,191,221.38Z"/><path class="a" d="M195.83,199.94a.49.49,0,0,0,0-1,.49.49,0,0,0,0,1Z"/><circle class="a" cx="201.99" cy="178.68" r="0.8"/><path class="a" d="M209.48,158.66a.32.32,0,0,0,.32-.32.32.32,0,1,0-.64,0A.32.32,0,0,0,209.48,158.66Z"/><path class="a" d="M218.25,139a.47.47,0,0,0,.48-.48.48.48,0,0,0-.48-.49.49.49,0,0,0-.48.49A.48.48,0,0,0,218.25,139Z"/><path class="a" d="M228.28,119.56a.24.24,0,0,0,.23-.24.24.24,0,0,0-.23-.25.25.25,0,1,0,0,.49Z"/><path class="a" d="M239.51,101.27a.48.48,0,0,0,.48-.48.49.49,0,1,0-1,0A.48.48,0,0,0,239.51,101.27Z"/><path class="a" d="M251.9,83.33a.32.32,0,1,0,0-.63.32.32,0,1,0,0,.63Z"/><path class="a" d="M265.41,66.31a.25.25,0,0,0,.25-.24.25.25,0,0,0-.25-.24.24.24,0,0,0-.24.24A.24.24,0,0,0,265.41,66.31Z"/><path class="a" d="M280,50.27a.24.24,0,1,0,0-.48.24.24,0,1,0,0,.48Z"/><path class="a" d="M295.55,35a.09.09,0,0,0,.08-.08.08.08,0,0,0-.08-.08.07.07,0,0,0-.08.08A.08.08,0,0,0,295.55,35Z"/><path class="a" d="M854.6,220.66a.08.08,0,0,0,.08-.08.08.08,0,0,0-.08-.09.09.09,0,0,0-.08.09A.09.09,0,0,0,854.6,220.66Z"/><path class="a" d="M858.06,242.05a.09.09,0,0,0,.08-.08.08.08,0,1,0-.16,0A.09.09,0,0,0,858.06,242.05Z"/><path class="a" d="M860.14,263.62a.08.08,0,0,0,.08-.09.07.07,0,0,0-.08-.07.08.08,0,0,0-.08.07A.09.09,0,0,0,860.14,263.62Z"/><path class="a" d="M885,285.44a.25.25,0,1,0-.24-.25A.25.25,0,0,0,885,285.44Z"/><path class="a" d="M884.33,307.57a.72.72,0,1,0-.72-.72A.72.72,0,0,0,884.33,307.57Z"/><path class="a" d="M882.39,329a.57.57,0,1,0-.56-.56A.56.56,0,0,0,882.39,329Z"/><path class="a" d="M879.16,350.43a.56.56,0,0,0,.56-.57.55.55,0,0,0-.56-.56.56.56,0,0,0-.56.56A.57.57,0,0,0,879.16,350.43Z"/><path class="a" d="M874.65,371.54a.48.48,0,0,0,.49-.48.49.49,0,1,0-.49.48Z"/><path class="a" d="M868.89,393.47a1.53,1.53,0,1,0-1.52-1.52A1.52,1.52,0,0,0,868.89,393.47Z"/><path class="a" d="M861.89,415.11a2.66,2.66,0,1,0-2.65-2.66A2.66,2.66,0,0,0,861.89,415.11Z"/><path class="a" d="M853.67,433.47a1,1,0,1,0-1-1A1,1,0,0,0,853.67,433.47Z"/><path class="a" d="M844.27,454.12a2.09,2.09,0,1,0-2.09-2.09A2.1,2.1,0,0,0,844.27,454.12Z"/><path class="a" d="M833.72,472.64A1.69,1.69,0,1,0,832,471,1.69,1.69,0,0,0,833.72,472.64Z"/><path class="a" d="M822.05,489.94a.73.73,0,1,0-.72-.72A.72.72,0,0,0,822.05,489.94Z"/><path class="a" d="M809.31,508a1.29,1.29,0,1,0-1.28-1.28A1.28,1.28,0,0,0,809.31,508Z"/><path class="a" d="M795.55,524.69a1.21,1.21,0,1,0-1.21-1.21A1.21,1.21,0,0,0,795.55,524.69Z"/><path class="a" d="M780.81,540.58a1.21,1.21,0,0,0,1.21-1.21,1.21,1.21,0,1,0-1.21,1.21Z"/><path class="a" d="M765.15,556.35a2,2,0,1,0-2-2A2,2,0,0,0,765.15,556.35Z"/><path class="a" d="M748.62,570.6a2.25,2.25,0,1,0-2.25-2.25A2.25,2.25,0,0,0,748.62,570.6Z"/><path class="a" d="M731.28,584.41a3.06,3.06,0,1,0-3-3A3,3,0,0,0,731.28,584.41Z"/><path class="a" d="M713.2,596.35a3.06,3.06,0,1,0-3.06-3.06A3.06,3.06,0,0,0,713.2,596.35Z"/><path class="a" d="M694.43,608.7a4.58,4.58,0,1,0-4.58-4.58A4.59,4.59,0,0,0,694.43,608.7Z"/><circle class="a" cx="675.05" cy="613.82" r="4.1"/><path class="a" d="M655.12,625.79a3.46,3.46,0,1,0-3.45-3.46A3.46,3.46,0,0,0,655.12,625.79Z"/><path class="a" d="M634.73,633.1a3.46,3.46,0,1,0-3.46-3.45A3.45,3.45,0,0,0,634.73,633.1Z"/><path class="a" d="M613.93,639.17a3.45,3.45,0,1,0-3.46-3.45A3.44,3.44,0,0,0,613.93,639.17Z"/><path class="a" d="M592.8,643.36a2.82,2.82,0,1,0-2.81-2.82A2.81,2.81,0,0,0,592.8,643.36Z"/><path class="a" d="M571.42,646.74a2.65,2.65,0,1,0-2.65-2.65A2.64,2.64,0,0,0,571.42,646.74Z"/><path class="a" d="M549.87,649.25a2.89,2.89,0,1,0-2.89-2.89A2.89,2.89,0,0,0,549.87,649.25Z"/><path class="a" d="M528.23,650.55a3.22,3.22,0,1,0-3.22-3.22A3.22,3.22,0,0,0,528.23,650.55Z"/><path class="a" d="M506.56,651.1a4.1,4.1,0,1,0-4.1-4.09A4.09,4.09,0,0,0,506.56,651.1Z"/><path class="a" d="M485,649.48a4.1,4.1,0,1,0-4.1-4.09A4.09,4.09,0,0,0,485,649.48Z"/><path class="a" d="M463.48,647a4.5,4.5,0,1,0-4.51-4.49A4.49,4.49,0,0,0,463.48,647Z"/><path class="a" d="M442.21,643.27a5,5,0,1,0-5-5A5,5,0,0,0,442.21,643.27Z"/><path class="a" d="M421.24,637.82a5,5,0,1,0-5-5A5,5,0,0,0,421.24,637.82Z"/><path class="a" d="M400.63,631.77a5.63,5.63,0,1,0-5.62-5.63A5.62,5.62,0,0,0,400.63,631.77Z"/><path class="a" d="M380.46,623.61a5.39,5.39,0,1,0-5.38-5.39A5.39,5.39,0,0,0,380.46,623.61Z"/><path class="a" d="M360.8,615.38a6.27,6.27,0,1,0-6.26-6.26A6.27,6.27,0,0,0,360.8,615.38Z"/><path class="a" d="M341.71,604.47a5.63,5.63,0,1,0-5.62-5.62A5.63,5.63,0,0,0,341.71,604.47Z"/><path class="a" d="M323.28,593.4a5.95,5.95,0,1,0-5.94-5.94A5.94,5.94,0,0,0,323.28,593.4Z"/><circle class="a" cx="305.56" cy="574.99" r="5.38"/><path class="a" d="M288.62,568a6.51,6.51,0,1,0-6.51-6.51A6.5,6.5,0,0,0,288.62,568Z"/><path class="a" d="M272.52,552.92a5.95,5.95,0,1,0-5.95-5.95A5.94,5.94,0,0,0,272.52,552.92Z"/><path class="a" d="M257.31,537.48a5.95,5.95,0,1,0-5.95-5.94A5.95,5.95,0,0,0,257.31,537.48Z"/><path class="a" d="M243.05,519.48a4.26,4.26,0,1,0-4.26-4.26A4.27,4.27,0,0,0,243.05,519.48Z"/><path class="a" d="M229.79,501.53a3.46,3.46,0,1,0-3.45-3.45A3.47,3.47,0,0,0,229.79,501.53Z"/><circle class="a" cx="217.59" cy="480.17" r="3.7"/><path class="a" d="M206.48,465.27a3.7,3.7,0,1,0-3.7-3.7A3.7,3.7,0,0,0,206.48,465.27Z"/><path class="a" d="M196.5,445.47a3.14,3.14,0,1,0-3.14-3.13A3.13,3.13,0,0,0,196.5,445.47Z"/><path class="a" d="M187.68,425.11a2.57,2.57,0,1,0-2.56-2.57A2.57,2.57,0,0,0,187.68,425.11Z"/><path class="a" d="M180.07,404.34a2.09,2.09,0,1,0-2.09-2.09A2.09,2.09,0,0,0,180.07,404.34Z"/><path class="a" d="M173.68,384.11a2.57,2.57,0,1,0-2.57-2.56A2.56,2.56,0,0,0,173.68,384.11Z"/><path class="a" d="M168.55,362.18a1.69,1.69,0,1,0-1.69-1.69A1.68,1.68,0,0,0,168.55,362.18Z"/><path class="a" d="M164.67,340.86a1.69,1.69,0,1,0-1.68-1.69A1.69,1.69,0,0,0,164.67,340.86Z"/><path class="a" d="M162.08,319.43a1.77,1.77,0,1,0-1.76-1.77A1.77,1.77,0,0,0,162.08,319.43Z"/><path class="a" d="M160.79,297.72a1.69,1.69,0,1,0,0-3.38,1.69,1.69,0,0,0,0,3.38Z"/><path class="a" d="M160.79,275.89a1.53,1.53,0,1,0-1.52-1.53A1.53,1.53,0,0,0,160.79,275.89Z"/><path class="a" d="M162.08,253.93a1.21,1.21,0,1,0,0-2.41,1.21,1.21,0,0,0,0,2.41Z"/><path class="a" d="M164.67,232.5a1.29,1.29,0,1,0-1.28-1.29A1.29,1.29,0,0,0,164.67,232.5Z"/><path class="a" d="M168.55,211.1a1.21,1.21,0,1,0-1.21-1.21A1.21,1.21,0,0,0,168.55,211.1Z"/><path class="a" d="M173.68,190.05a1.21,1.21,0,1,0-1.2-1.21A1.21,1.21,0,0,0,173.68,190.05Z"/><path class="a" d="M180.07,168.94a.81.81,0,0,0,0-1.61.81.81,0,1,0,0,1.61Z"/><path class="a" d="M187.68,148.81a1,1,0,1,0-1-1A1,1,0,0,0,187.68,148.81Z"/><path class="a" d="M196.5,129.5a1.45,1.45,0,1,0-1.45-1.45A1.45,1.45,0,0,0,196.5,129.5Z"/><path class="a" d="M206.48,109.54a.72.72,0,1,0-.72-.72A.72.72,0,0,0,206.48,109.54Z"/><path class="a" d="M217.59,90.94a.73.73,0,1,0-.72-.72A.72.72,0,0,0,217.59,90.94Z"/><path class="a" d="M229.79,72.55a.24.24,0,0,0,.25-.24.25.25,0,0,0-.25-.24.24.24,0,0,0-.23.24A.23.23,0,0,0,229.79,72.55Z"/><path class="a" d="M243.06,55.49a.33.33,0,0,0,.32-.32.32.32,0,0,0-.32-.32.32.32,0,0,0-.32.32A.32.32,0,0,0,243.06,55.49Z"/><path class="a" d="M906.7,328.93a.5.5,0,0,0,.49-.48.49.49,0,0,0-.49-.48.48.48,0,0,0-.49.48A.49.49,0,0,0,906.7,328.93Z"/><path class="a" d="M903.67,350.63a.73.73,0,0,0,0-1.45.73.73,0,1,0,0,1.45Z"/><path class="a" d="M899.44,371.72a.56.56,0,1,0,0-1.12.56.56,0,0,0,0,1.12Z"/><path class="a" d="M894,393.11a1,1,0,1,0-1-1A1,1,0,0,0,894,393.11Z"/><path class="a" d="M887.45,414.63a1.85,1.85,0,1,0-1.85-1.84A1.84,1.84,0,0,0,887.45,414.63Z"/><path class="a" d="M879.72,435.84a2.81,2.81,0,1,0-2.81-2.81A2.81,2.81,0,0,0,879.72,435.84Z"/><path class="a" d="M870.87,455.94a3.13,3.13,0,1,0-3.13-3.13A3.13,3.13,0,0,0,870.87,455.94Z"/><path class="a" d="M860.93,476.48a4.42,4.42,0,1,0-4.42-4.41A4.4,4.4,0,0,0,860.93,476.48Z"/><path class="a" d="M849.92,492.58a1.85,1.85,0,1,0-1.86-1.85A1.85,1.85,0,0,0,849.92,492.58Z"/><path class="a" d="M837.88,510.84a2.09,2.09,0,1,0-2.1-2.1A2.08,2.08,0,0,0,837.88,510.84Z"/><path class="a" d="M824.84,527.35a1.29,1.29,0,1,0-1.28-1.29A1.29,1.29,0,0,0,824.84,527.35Z"/><path class="a" d="M810.87,544.71a2.09,2.09,0,1,0-2.09-2.09A2.09,2.09,0,0,0,810.87,544.71Z"/><circle class="a" cx="795.97" cy="558.37" r="2.65"/><path class="a" d="M780.23,575.26a2,2,0,1,0-2-2A2,2,0,0,0,780.23,575.26Z"/><path class="a" d="M763.67,591.25a4,4,0,1,0-4-4A4,4,0,0,0,763.67,591.25Z"/><path class="a" d="M746.36,604.28a4,4,0,1,0-4-4A4,4,0,0,0,746.36,604.28Z"/><path class="a" d="M728.34,616.4a4.1,4.1,0,1,0-4.1-4.1A4.09,4.09,0,0,0,728.34,616.4Z"/><path class="a" d="M709.67,627.89a4.58,4.58,0,1,0-4.58-4.58A4.59,4.59,0,0,0,709.67,627.89Z"/><path class="a" d="M690.42,638.88a5.63,5.63,0,1,0-5.62-5.62A5.62,5.62,0,0,0,690.42,638.88Z"/><path class="a" d="M670.64,646.77a4.66,4.66,0,1,0-4.66-4.66A4.67,4.67,0,0,0,670.64,646.77Z"/><path class="a" d="M650.4,654.09a4.26,4.26,0,1,0-4.26-4.25A4.25,4.25,0,0,0,650.4,654.09Z"/><path class="a" d="M629.75,661a4.58,4.58,0,1,0-4.57-4.58A4.58,4.58,0,0,0,629.75,661Z"/><path class="a" d="M608.77,666.81a5,5,0,1,0-5-5A5,5,0,0,0,608.77,666.81Z"/><path class="a" d="M587.52,670.72a4.66,4.66,0,1,0-4.67-4.66A4.66,4.66,0,0,0,587.52,670.72Z"/><circle class="a" cx="566.06" cy="669.09" r="4.66"/><path class="a" d="M544.46,676.29a5.39,5.39,0,1,0-5.37-5.38A5.38,5.38,0,0,0,544.46,676.29Z"/><path class="a" d="M522.81,676.9a5.39,5.39,0,1,0-5.39-5.39A5.38,5.38,0,0,0,522.81,676.9Z"/><path class="a" d="M501.14,676.61a5.71,5.71,0,1,0-5.7-5.7A5.71,5.71,0,0,0,501.14,676.61Z"/><path class="a" d="M479.55,674.63a5.55,5.55,0,1,0-5.54-5.54A5.54,5.54,0,0,0,479.55,674.63Z"/><path class="a" d="M458.09,672.33a6.27,6.27,0,1,0-6.26-6.27A6.27,6.27,0,0,0,458.09,672.33Z"/><path class="a" d="M436.84,667.69a5.86,5.86,0,1,0-5.86-5.86A5.86,5.86,0,0,0,436.84,667.69Z"/><path class="a" d="M415.86,662.44a6,6,0,1,0-6-6A6,6,0,0,0,415.86,662.44Z"/><path class="a" d="M395.21,655.7a5.87,5.87,0,1,0-5.86-5.86A5.87,5.87,0,0,0,395.21,655.7Z"/><path class="a" d="M375,648a5.87,5.87,0,1,0-5.87-5.86A5.86,5.86,0,0,0,375,648Z"/><path class="a" d="M355.19,639.52a6.27,6.27,0,1,0-6.27-6.26A6.26,6.26,0,0,0,355.19,639.52Z"/><path class="a" d="M335.94,629.58a6.27,6.27,0,1,0-6.27-6.27A6.27,6.27,0,0,0,335.94,629.58Z"/><path class="a" d="M317.27,619.05a6.75,6.75,0,1,0-6.75-6.75A6.75,6.75,0,0,0,317.27,619.05Z"/><path class="a" d="M299.25,606.21a5.95,5.95,0,1,0-5.94-6A5.94,5.94,0,0,0,299.25,606.21Z"/><path class="a" d="M281.94,593.5a6.27,6.27,0,1,0-6.27-6.26A6.26,6.26,0,0,0,281.94,593.5Z"/><circle class="a" cx="265.38" cy="573.25" r="6.67"/><path class="a" d="M249.64,565.27a6.91,6.91,0,1,0-6.92-6.9A6.91,6.91,0,0,0,249.64,565.27Z"/><path class="a" d="M234.74,549.29a6.67,6.67,0,1,0-6.66-6.67A6.66,6.66,0,0,0,234.74,549.29Z"/><path class="a" d="M220.77,531.77a5.71,5.71,0,1,0-5.71-5.71A5.71,5.71,0,0,0,220.77,531.77Z"/><path class="a" d="M207.73,514.45a5.71,5.71,0,1,0-5.7-5.71A5.7,5.7,0,0,0,207.73,514.45Z"/><path class="a" d="M195.7,496.35a5.62,5.62,0,1,0-5.63-5.62A5.61,5.61,0,0,0,195.7,496.35Z"/><path class="a" d="M184.68,476.16a4.1,4.1,0,1,0-4.09-4.09A4.1,4.1,0,0,0,184.68,476.16Z"/><path class="a" d="M174.74,457.23a4.42,4.42,0,1,0-4.42-4.42A4.43,4.43,0,0,0,174.74,457.23Z"/><path class="a" d="M165.89,437.45a4.42,4.42,0,1,0-4.42-4.42A4.42,4.42,0,0,0,165.89,437.45Z"/><path class="a" d="M158.16,416.33a3.54,3.54,0,1,0-3.53-3.54A3.55,3.55,0,0,0,158.16,416.33Z"/><path class="a" d="M151.58,396a3.86,3.86,0,1,0-3.85-3.86A3.86,3.86,0,0,0,151.58,396Z"/><path class="a" d="M146.17,374a2.81,2.81,0,1,0-2.82-2.81A2.81,2.81,0,0,0,146.17,374Z"/><path class="a" d="M141.94,352.48a2.57,2.57,0,1,0-2.57-2.58A2.58,2.58,0,0,0,141.94,352.48Z"/><path class="a" d="M138.91,331.1a2.65,2.65,0,1,0-2.65-2.65A2.65,2.65,0,0,0,138.91,331.1Z"/><path class="a" d="M137.1,309.43a2.58,2.58,0,1,0-2.58-2.58A2.57,2.57,0,0,0,137.1,309.43Z"/><path class="a" d="M136.48,287.84a2.65,2.65,0,1,0-2.65-2.65A2.65,2.65,0,0,0,136.48,287.84Z"/><path class="a" d="M137.1,265.54a2,2,0,1,0-2-2A2,2,0,0,0,137.1,265.54Z"/><path class="a" d="M138.91,244a2,2,0,1,0-2-2A2,2,0,0,0,138.91,244Z"/><path class="a" d="M141.94,222.49a2,2,0,1,0-2-2A2,2,0,0,0,141.94,222.49Z"/><circle class="a" cx="146.17" cy="199.23" r="1.45"/><path class="a" d="M151.58,180a1.77,1.77,0,1,0-1.77-1.77A1.77,1.77,0,0,0,151.58,180Z"/><path class="a" d="M158.16,158.64a1,1,0,1,0-1-1A1,1,0,0,0,158.16,158.64Z"/><path class="a" d="M165.89,138.16a.81.81,0,1,0-.8-.81A.8.8,0,0,0,165.89,138.16Z"/><path class="a" d="M174.74,118.62a1,1,0,1,0-1-1A1,1,0,0,0,174.74,118.62Z"/><path class="a" d="M184.68,99.37a1,1,0,1,0,0-2.09,1,1,0,0,0,0,2.09Z"/><path class="a" d="M195.7,80a.32.32,0,0,0,0-.64.32.32,0,1,0,0,.64Z"/><path class="a" d="M207.73,61.72a.08.08,0,1,0,0-.16.08.08,0,0,0,0,.16Z"/><path class="a" d="M924.15,372.05a.81.81,0,0,0,.81-.81.81.81,0,1,0-.81.81Z"/><path class="a" d="M919.05,393a.73.73,0,0,0,.72-.73.72.72,0,0,0-1.44,0A.73.73,0,0,0,919.05,393Z"/><path class="a" d="M912.85,413.55a.49.49,0,0,0,0-1,.49.49,0,0,0,0,1Z"/><path class="a" d="M905.56,434a.48.48,0,1,0-.49-.48A.48.48,0,0,0,905.56,434Z"/><path class="a" d="M897.19,456.28a2.82,2.82,0,1,0-2.81-2.81A2.81,2.81,0,0,0,897.19,456.28Z"/><path class="a" d="M887.79,477.49a4.5,4.5,0,1,0-4.5-4.5A4.5,4.5,0,0,0,887.79,477.49Z"/><path class="a" d="M877.37,495.68a3.7,3.7,0,1,0-3.69-3.69A3.7,3.7,0,0,0,877.37,495.68Z"/><path class="a" d="M866,514.11a3.7,3.7,0,1,0-3.69-3.69A3.69,3.69,0,0,0,866,514.11Z"/><path class="a" d="M853.6,530.3a2.09,2.09,0,1,0-2.08-2.09A2.1,2.1,0,0,0,853.6,530.3Z"/><path class="a" d="M840.32,548.54a3.21,3.21,0,1,0-3.22-3.21A3.21,3.21,0,0,0,840.32,548.54Z"/><path class="a" d="M826.14,564.94a3.22,3.22,0,1,0-3.21-3.22A3.22,3.22,0,0,0,826.14,564.94Z"/><path class="a" d="M811.13,580.56a3.22,3.22,0,1,0-3.21-3.21A3.21,3.21,0,0,0,811.13,580.56Z"/><path class="a" d="M795.3,596.18a4,4,0,1,0-4-4A4,4,0,0,0,795.3,596.18Z"/><path class="a" d="M778.72,611.33a5.22,5.22,0,1,0-5.22-5.22A5.23,5.23,0,0,0,778.72,611.33Z"/><path class="a" d="M761.43,624.39a5.23,5.23,0,1,0-5.22-5.22A5.23,5.23,0,0,0,761.43,624.39Z"/><path class="a" d="M743.48,637.16a5.87,5.87,0,1,0-5.87-5.86A5.86,5.86,0,0,0,743.48,637.16Z"/><path class="a" d="M724.9,648.41a6,6,0,1,0-5.94-5.95A5.95,5.95,0,0,0,724.9,648.41Z"/><path class="a" d="M705.76,659a6.35,6.35,0,1,0-6.34-6.35A6.35,6.35,0,0,0,705.76,659Z"/><path class="a" d="M686.12,668.12a6.35,6.35,0,1,0-6.34-6.35A6.35,6.35,0,0,0,686.12,668.12Z"/><path class="a" d="M666,676.29a6.43,6.43,0,1,0-6.43-6.43A6.42,6.42,0,0,0,666,676.29Z"/><path class="a" d="M645.52,684.12a7.23,7.23,0,1,0-7.23-7.23A7.23,7.23,0,0,0,645.52,684.12Z"/><path class="a" d="M624.67,689.65a6.83,6.83,0,1,0-6.83-6.83A6.83,6.83,0,0,0,624.67,689.65Z"/><path class="a" d="M603.54,694.07a6.43,6.43,0,1,0-6.41-6.43A6.43,6.43,0,0,0,603.54,694.07Z"/><path class="a" d="M582.2,697a5.63,5.63,0,1,0-5.63-5.63A5.63,5.63,0,0,0,582.2,697Z"/><path class="a" d="M560.68,700.26a6.35,6.35,0,1,0-6.35-6.35A6.35,6.35,0,0,0,560.68,700.26Z"/><path class="a" d="M539.05,701.93a6.59,6.59,0,1,0-6.59-6.59A6.59,6.59,0,0,0,539.05,701.93Z"/><path class="a" d="M517.39,702.22a6.59,6.59,0,1,0-6.59-6.59A6.6,6.6,0,0,0,517.39,702.22Z"/><path class="a" d="M495.74,701.76a7,7,0,1,0-7-7A7,7,0,0,0,495.74,701.76Z"/><path class="a" d="M474.16,698.87a6.11,6.11,0,1,0-6.11-6.1A6.1,6.1,0,0,0,474.16,698.87Z"/><path class="a" d="M452.72,695.66a6,6,0,1,0-6-6A6,6,0,0,0,452.72,695.66Z"/><path class="a" d="M431.47,692a6.67,6.67,0,1,0-6.67-6.67A6.67,6.67,0,0,0,431.47,692Z"/><path class="a" d="M410.48,687.46A7.47,7.47,0,1,0,403,680,7.47,7.47,0,0,0,410.48,687.46Z"/><path class="a" d="M389.8,680.5a7,7,0,1,0-7-7A7,7,0,0,0,389.8,680.5Z"/><path class="a" d="M369.48,672.78a6.83,6.83,0,1,0-6.82-6.83A6.83,6.83,0,0,0,369.48,672.78Z"/><path class="a" d="M349.61,664.16a6.83,6.83,0,1,0-6.83-6.83A6.83,6.83,0,0,0,349.61,664.16Z"/><path class="a" d="M330.21,654.34a6.67,6.67,0,1,0-6.67-6.67A6.67,6.67,0,0,0,330.21,654.34Z"/><path class="a" d="M311.35,644.72a7.72,7.72,0,1,0-7.71-7.72A7.72,7.72,0,0,0,311.35,644.72Z"/><path class="a" d="M293.08,632.58a7.23,7.23,0,1,0-7.23-7.23A7.23,7.23,0,0,0,293.08,632.58Z"/><path class="a" d="M275.44,620a7.23,7.23,0,1,0-7.23-7.23A7.23,7.23,0,0,0,275.44,620Z"/><path class="a" d="M258.5,605.75a6.51,6.51,0,1,0-6.51-6.51A6.5,6.5,0,0,0,258.5,605.75Z"/><path class="a" d="M242.3,591.77a6.91,6.91,0,1,0-6.91-6.91A6.91,6.91,0,0,0,242.3,591.77Z"/><path class="a" d="M226.87,576.54a6.91,6.91,0,1,0-6.91-6.9A6.9,6.9,0,0,0,226.87,576.54Z"/><path class="a" d="M212.27,559.81a6.19,6.19,0,1,0-6.19-6.19A6.19,6.19,0,0,0,212.27,559.81Z"/><path class="a" d="M198.54,543.69a6.83,6.83,0,1,0-6.83-6.83A6.83,6.83,0,0,0,198.54,543.69Z"/><path class="a" d="M185.71,525.34a5.95,5.95,0,1,0-5.94-6A5.94,5.94,0,0,0,185.71,525.34Z"/><path class="a" d="M173.82,506.5a5.23,5.23,0,1,0-5.22-5.22A5.22,5.22,0,0,0,173.82,506.5Z"/><path class="a" d="M162.9,487.78a5.22,5.22,0,1,0-5.22-5.22A5.23,5.23,0,0,0,162.9,487.78Z"/><path class="a" d="M153,467a3.7,3.7,0,1,0-3.7-3.69A3.69,3.69,0,0,0,153,467Z"/><path class="a" d="M144.1,447.54a4,4,0,1,0-4-4A4,4,0,0,0,144.1,447.54Z"/><path class="a" d="M136.28,426.37a3.06,3.06,0,1,0-3.06-3.05A3.06,3.06,0,0,0,136.28,426.37Z"/><path class="a" d="M129.52,405.22a2.49,2.49,0,1,0-2.49-2.5A2.49,2.49,0,0,0,129.52,405.22Z"/><path class="a" d="M123.87,383.81a2,2,0,0,0,0-4,2,2,0,1,0,0,4Z"/><path class="a" d="M119.32,362.63a2,2,0,1,0-2-2A2,2,0,0,0,119.32,362.63Z"/><path class="a" d="M115.91,342a2.81,2.81,0,1,0-2.82-2.81A2.81,2.81,0,0,0,115.91,342Z"/><path class="a" d="M113.62,319.92a2.25,2.25,0,1,0-2.25-2.25A2.26,2.26,0,0,0,113.62,319.92Z"/><path class="a" d="M112.48,298a2,2,0,1,0-2-2A2,2,0,0,0,112.48,298Z"/><path class="a" d="M112.48,276.45a2.09,2.09,0,1,0-2.09-2.09A2.1,2.1,0,0,0,112.48,276.45Z"/><path class="a" d="M113.62,254.49a1.77,1.77,0,1,0-1.76-1.77A1.77,1.77,0,0,0,113.62,254.49Z"/><circle class="a" cx="115.91" cy="231.17" r="2.33"/><path class="a" d="M119.32,211.62a1.85,1.85,0,1,0-1.84-1.85A1.85,1.85,0,0,0,119.32,211.62Z"/><path class="a" d="M123.87,189.79a1.21,1.21,0,1,0-1.21-1.21A1.21,1.21,0,0,0,123.87,189.79Z"/><path class="a" d="M129.52,168.87a1.21,1.21,0,1,0-1.2-1.21A1.2,1.2,0,0,0,129.52,168.87Z"/><path class="a" d="M136.28,148.28a1.21,1.21,0,1,0-1.21-1.21A1.21,1.21,0,0,0,136.28,148.28Z"/><path class="a" d="M144.1,127.43a.57.57,0,1,0-.56-.57A.56.56,0,0,0,144.1,127.43Z"/><path class="a" d="M923.29,454.49a.49.49,0,0,0,.49-.48.5.5,0,0,0-.49-.48.48.48,0,0,0-.48.48A.47.47,0,0,0,923.29,454.49Z"/><path class="a" d="M914.38,474.33a.57.57,0,0,0,0-1.13.57.57,0,1,0,0,1.13Z"/><path class="a" d="M904.49,493.37a.32.32,0,1,0,0-.64.32.32,0,1,0,0,.64Z"/><path class="a" d="M893.66,514.15a2.33,2.33,0,1,0-2.33-2.34A2.33,2.33,0,0,0,893.66,514.15Z"/><path class="a" d="M881.9,531a1,1,0,1,0,0-1.93,1,1,0,1,0,0,1.93Z"/><path class="a" d="M869.25,551.79a4.18,4.18,0,1,0-4.18-4.17A4.18,4.18,0,0,0,869.25,551.79Z"/><path class="a" d="M855.74,567.93a3.38,3.38,0,1,0-3.38-3.37A3.37,3.37,0,0,0,855.74,567.93Z"/><path class="a" d="M841.4,585.22A4.42,4.42,0,1,0,837,580.8,4.42,4.42,0,0,0,841.4,585.22Z"/><path class="a" d="M826.27,600.82a4.5,4.5,0,1,0-4.5-4.5A4.51,4.51,0,0,0,826.27,600.82Z"/><path class="a" d="M810.38,616.28a5.22,5.22,0,1,0-5.22-5.22A5.23,5.23,0,0,0,810.38,616.28Z"/><path class="a" d="M793.79,629.49a4.5,4.5,0,1,0-4.51-4.5A4.5,4.5,0,0,0,793.79,629.49Z"/><path class="a" d="M776.51,644.66a6.59,6.59,0,1,0-6.6-6.59A6.59,6.59,0,0,0,776.51,644.66Z"/><path class="a" d="M758.6,655.83a5.55,5.55,0,1,0-5.54-5.55A5.56,5.56,0,0,0,758.6,655.83Z"/><path class="a" d="M740.11,668a6.43,6.43,0,1,0-6.43-6.42A6.42,6.42,0,0,0,740.11,668Z"/><path class="a" d="M721.08,678.21a6.27,6.27,0,1,0-6.27-6.27A6.27,6.27,0,0,0,721.08,678.21Z"/><path class="a" d="M701.56,687.77a6.43,6.43,0,1,0-6.43-6.42A6.41,6.41,0,0,0,701.56,687.77Z"/><path class="a" d="M681.59,696.67a6.91,6.91,0,1,0-6.91-6.91A6.9,6.9,0,0,0,681.59,696.67Z"/><path class="a" d="M661.23,704.4a7.23,7.23,0,1,0-7.24-7.22A7.23,7.23,0,0,0,661.23,704.4Z"/><path class="a" d="M640.52,711.19a7.63,7.63,0,1,0-7.64-7.63A7.63,7.63,0,0,0,640.52,711.19Z"/><path class="a" d="M619.51,716.62a7.71,7.71,0,1,0-7.71-7.71A7.71,7.71,0,0,0,619.51,716.62Z"/><path class="a" d="M598.28,720.19a7,7,0,1,0-7-7A7,7,0,0,0,598.28,720.19Z"/><path class="a" d="M576.85,723.5a7.07,7.07,0,1,0-7.07-7.07A7.07,7.07,0,0,0,576.85,723.5Z"/><path class="a" d="M555.29,725.82a7.23,7.23,0,1,0-7.23-7.23A7.23,7.23,0,0,0,555.29,725.82Z"/><path class="a" d="M533.64,726.58a6.91,6.91,0,1,0-6.91-6.91A6.91,6.91,0,0,0,533.64,726.58Z"/><path class="a" d="M512,727.3a7.63,7.63,0,1,0-7.63-7.63A7.62,7.62,0,0,0,512,727.3Z"/><path class="a" d="M490.32,725.66a7.07,7.07,0,1,0-7.06-7.07A7.06,7.06,0,0,0,490.32,725.66Z"/><path class="a" d="M468.77,723.5a7.07,7.07,0,1,0-7.08-7.07A7.07,7.07,0,0,0,468.77,723.5Z"/><path class="a" d="M447.33,720.12a6.92,6.92,0,1,0-6.91-6.92A6.92,6.92,0,0,0,447.33,720.12Z"/><path class="a" d="M426.1,716.38a7.48,7.48,0,1,0-7.48-7.47A7.46,7.46,0,0,0,426.1,716.38Z"/><path class="a" d="M405.09,711a7.4,7.4,0,1,0-7.39-7.4A7.39,7.39,0,0,0,405.09,711Z"/><path class="a" d="M384.38,704.81a7.64,7.64,0,1,0-7.62-7.63A7.64,7.64,0,0,0,384.38,704.81Z"/><path class="a" d="M364,697.4a7.64,7.64,0,1,0-7.63-7.64A7.63,7.63,0,0,0,364,697.4Z"/><path class="a" d="M344.06,689.14a7.8,7.8,0,1,0-7.8-7.79A7.79,7.79,0,0,0,344.06,689.14Z"/><path class="a" d="M324.53,679.34a7.4,7.4,0,1,0-7.39-7.4A7.39,7.39,0,0,0,324.53,679.34Z"/><path class="a" d="M305.5,669.38a7.8,7.8,0,1,0-7.79-7.8A7.8,7.8,0,0,0,305.5,669.38Z"/><path class="a" d="M287,658.15a7.88,7.88,0,1,0-7.88-7.87A7.87,7.87,0,0,0,287,658.15Z"/><path class="a" d="M269.1,645.46a7.39,7.39,0,1,0-7.39-7.39A7.39,7.39,0,0,0,269.1,645.46Z"/><path class="a" d="M251.83,632.14a7.15,7.15,0,1,0-7.15-7.15A7.15,7.15,0,0,0,251.83,632.14Z"/><path class="a" d="M235.23,618.45a7.39,7.39,0,1,0-7.39-7.39A7.39,7.39,0,0,0,235.23,618.45Z"/><path class="a" d="M219.34,603.15a6.83,6.83,0,1,0-6.82-6.83A6.83,6.83,0,0,0,219.34,603.15Z"/><path class="a" d="M204.21,587.63a6.83,6.83,0,1,0-6.82-6.83A6.83,6.83,0,0,0,204.21,587.63Z"/><path class="a" d="M189.88,571.79a7.23,7.23,0,1,0-7.24-7.23A7.23,7.23,0,0,0,189.88,571.79Z"/><path class="a" d="M176.36,555.09a7.48,7.48,0,1,0-7.47-7.47A7.48,7.48,0,0,0,176.36,555.09Z"/><path class="a" d="M163.71,537.5a7.48,7.48,0,1,0-7.47-7.48A7.47,7.47,0,0,0,163.71,537.5Z"/><path class="a" d="M152,518.09a6.27,6.27,0,1,0-6.26-6.28A6.28,6.28,0,0,0,152,518.09Z"/><path class="a" d="M141.12,499.07a6,6,0,1,0-6-6A6,6,0,0,0,141.12,499.07Z"/><path class="a" d="M131.23,477.46a3.7,3.7,0,1,0-3.69-3.69A3.69,3.69,0,0,0,131.23,477.46Z"/><path class="a" d="M122.32,457.15a3.14,3.14,0,1,0-3.13-3.14A3.13,3.13,0,0,0,122.32,457.15Z"/><circle class="a" cx="114.41" cy="433.84" r="3.13"/><path class="a" d="M107.5,416.43a3.13,3.13,0,1,0-3.13-3.13A3.14,3.14,0,0,0,107.5,416.43Z"/><path class="a" d="M101.63,395.25a2.81,2.81,0,1,0-2.81-2.81A2.81,2.81,0,0,0,101.63,395.25Z"/><path class="a" d="M96.81,373.8a2.49,2.49,0,1,0-2.49-2.49A2.49,2.49,0,0,0,96.81,373.8Z"/><circle class="a" cx="93.05" cy="349.97" r="1.85"/><path class="a" d="M90.36,330.47a2,2,0,1,0-2-2A2,2,0,0,0,90.36,330.47Z"/><circle class="a" cx="88.73" cy="306.86" r="1.85"/><path class="a" d="M88.2,287a1.77,1.77,0,1,0-1.77-1.77A1.76,1.76,0,0,0,88.2,287Z"/><path class="a" d="M88.73,265.22a1.69,1.69,0,1,0-1.68-1.69A1.7,1.7,0,0,0,88.73,265.22Z"/><path class="a" d="M90.36,243.61a1.69,1.69,0,1,0-1.7-1.69A1.69,1.69,0,0,0,90.36,243.61Z"/><circle class="a" cx="93.05" cy="220.42" r="1.45"/><path class="a" d="M96.81,199.8a.72.72,0,1,0,0-1.44.72.72,0,1,0,0,1.44Z"/><path class="a" d="M107.5,157.17a.07.07,0,0,0,.08-.08.08.08,0,0,0-.08-.08.09.09,0,0,0-.08.08A.08.08,0,0,0,107.5,157.17Z"/><path class="a" d="M921,513.09a.1.1,0,0,0,.09-.08.09.09,0,0,0-.09-.08.07.07,0,0,0-.08.08A.08.08,0,0,0,921,513.09Z"/><path class="a" d="M897.73,550.52a1,1,0,1,0-1-1A1,1,0,0,0,897.73,550.52Z"/><path class="a" d="M884.83,567.53a.56.56,0,1,0-.56-.56A.56.56,0,0,0,884.83,567.53Z"/><circle class="a" cx="871.12" cy="583.75" r="1.45"/><path class="a" d="M856.63,601.31a1.45,1.45,0,1,0-1.44-1.44A1.44,1.44,0,0,0,856.63,601.31Z"/><path class="a" d="M841.4,618.17a2.89,2.89,0,1,0-2.9-2.89A2.89,2.89,0,0,0,841.4,618.17Z"/><path class="a" d="M825.46,633.73a3.78,3.78,0,1,0-3.78-3.77A3.77,3.77,0,0,0,825.46,633.73Z"/><path class="a" d="M808.84,647.64a3.78,3.78,0,1,0-3.78-3.78A3.77,3.77,0,0,0,808.84,647.64Z"/><path class="a" d="M791.58,662.44a5.47,5.47,0,1,0-5.47-5.47A5.46,5.46,0,0,0,791.58,662.44Z"/><path class="a" d="M773.72,674.79a5.54,5.54,0,1,0-5.54-5.54A5.53,5.53,0,0,0,773.72,674.79Z"/><path class="a" d="M755.3,685.81a5.14,5.14,0,1,0-5.14-5.14A5.14,5.14,0,0,0,755.3,685.81Z"/><path class="a" d="M736.37,696.35a5.14,5.14,0,1,0-5.14-5.14A5.14,5.14,0,0,0,736.37,696.35Z"/><path class="a" d="M717,706.54a5.71,5.71,0,1,0-5.71-5.7A5.7,5.7,0,0,0,717,706.54Z"/><path class="a" d="M697.12,715.17a5.63,5.63,0,1,0-5.63-5.62A5.62,5.62,0,0,0,697.12,715.17Z"/><circle class="a" cx="676.88" cy="717.3" r="6.83"/><path class="a" d="M656.3,730.77a6.67,6.67,0,1,0-6.67-6.67A6.67,6.67,0,0,0,656.3,730.77Z"/><path class="a" d="M635.43,736.74a6.83,6.83,0,1,0-6.83-6.83A6.83,6.83,0,0,0,635.43,736.74Z"/><path class="a" d="M614.3,741.57a6.83,6.83,0,1,0-6.83-6.83A6.83,6.83,0,0,0,614.3,741.57Z"/><path class="a" d="M593,745.63a7.08,7.08,0,1,0-7.06-7.08A7.07,7.07,0,0,0,593,745.63Z"/><path class="a" d="M571.48,748.83a7.47,7.47,0,1,0-7.48-7.47A7.47,7.47,0,0,0,571.48,748.83Z"/><path class="a" d="M549.88,751.43a8.28,8.28,0,1,0-8.28-8.28A8.28,8.28,0,0,0,549.88,751.43Z"/><path class="a" d="M528.23,752.12a8.2,8.2,0,1,0-8.2-8.2A8.19,8.19,0,0,0,528.23,752.12Z"/><path class="a" d="M506.55,751.38a7.72,7.72,0,1,0-7.71-7.72A7.72,7.72,0,0,0,506.55,751.38Z"/><circle class="a" cx="484.92" cy="742.38" r="5.87"/><path class="a" d="M463.37,746.67a6.59,6.59,0,1,0-6.59-6.59A6.58,6.58,0,0,0,463.37,746.67Z"/><path class="a" d="M442,744.81a8,8,0,1,0-8-8A8,8,0,0,0,442,744.81Z"/><path class="a" d="M420.73,740.48a8,8,0,1,0-8-8A8,8,0,0,0,420.73,740.48Z"/><path class="a" d="M399.71,735.48a8.36,8.36,0,1,0-8.35-8.35A8.35,8.35,0,0,0,399.71,735.48Z"/><path class="a" d="M379,728.38a7.56,7.56,0,1,0-7.55-7.56A7.56,7.56,0,0,0,379,728.38Z"/><path class="a" d="M358.57,721.34a7.8,7.8,0,1,0-7.8-7.8A7.79,7.79,0,0,0,358.57,721.34Z"/><path class="a" d="M338.52,713.26a8,8,0,1,0-7.95-8A8,8,0,0,0,338.52,713.26Z"/><path class="a" d="M318.89,703.93a7.8,7.8,0,1,0-7.79-7.79A7.78,7.78,0,0,0,318.89,703.93Z"/><path class="a" d="M299.71,693.85a7.8,7.8,0,1,0-7.79-7.8A7.8,7.8,0,0,0,299.71,693.85Z"/><path class="a" d="M281,682.62a7.55,7.55,0,1,0-7.55-7.55A7.55,7.55,0,0,0,281,682.62Z"/><path class="a" d="M262.89,671a7.8,7.8,0,1,0-7.79-7.79A7.79,7.79,0,0,0,262.89,671Z"/><path class="a" d="M245.32,658.24a7.72,7.72,0,1,0-7.71-7.72A7.72,7.72,0,0,0,245.32,658.24Z"/><path class="a" d="M228.38,644.64a7.64,7.64,0,1,0-7.63-7.63A7.63,7.63,0,0,0,228.38,644.64Z"/><path class="a" d="M212.1,630.27a7.56,7.56,0,1,0-7.55-7.56A7.56,7.56,0,0,0,212.1,630.27Z"/><circle class="a" cx="196.51" cy="607.67" r="7.71"/><circle class="a" cx="181.64" cy="591.9" r="7.47"/><circle class="a" cx="167.54" cy="575.44" r="7.71"/><path class="a" d="M154.23,566.38a8,8,0,1,0-8-8A8,8,0,0,0,154.23,566.38Z"/><path class="a" d="M141.74,548.1a7.47,7.47,0,1,0-7.48-7.47A7.48,7.48,0,0,0,141.74,548.1Z"/><path class="a" d="M130.1,527.9a5.55,5.55,0,1,0-5.54-5.55A5.54,5.54,0,0,0,130.1,527.9Z"/><path class="a" d="M119.34,508a4.42,4.42,0,1,0-4.42-4.41A4.41,4.41,0,0,0,119.34,508Z"/><path class="a" d="M109.48,488.66a4.42,4.42,0,1,0-4.42-4.42A4.42,4.42,0,0,0,109.48,488.66Z"/><circle class="a" cx="100.54" cy="464.5" r="3.13"/><path class="a" d="M92.54,447.41a3.05,3.05,0,1,0-3.05-3.05A3.05,3.05,0,0,0,92.54,447.41Z"/><path class="a" d="M85.51,426.67a2.81,2.81,0,1,0-2.81-2.81A2.81,2.81,0,0,0,85.51,426.67Z"/><path class="a" d="M79.45,406.11a3.06,3.06,0,1,0-3.06-3.05A3.06,3.06,0,0,0,79.45,406.11Z"/><path class="a" d="M74.37,384.8A2.81,2.81,0,1,0,71.56,382,2.81,2.81,0,0,0,74.37,384.8Z"/><path class="a" d="M70.3,363.52a2.82,2.82,0,1,0-2.81-2.81A2.81,2.81,0,0,0,70.3,363.52Z"/><path class="a" d="M67.25,341.82a2.57,2.57,0,1,0-2.58-2.57A2.56,2.56,0,0,0,67.25,341.82Z"/><path class="a" d="M65.2,320.24a2.57,2.57,0,1,0-2.57-2.56A2.57,2.57,0,0,0,65.2,320.24Z"/><path class="a" d="M64.18,297.72A1.69,1.69,0,1,0,62.49,296,1.69,1.69,0,0,0,64.18,297.72Z"/><path class="a" d="M64.18,275.8a1.45,1.45,0,1,0-1.45-1.44A1.44,1.44,0,0,0,64.18,275.8Z"/><path class="a" d="M65.2,253.44a.73.73,0,0,0,.72-.73.72.72,0,0,0-1.44,0A.73.73,0,0,0,65.2,253.44Z"/><path class="a" d="M67.25,231.38a.24.24,0,1,0-.25-.24A.24.24,0,0,0,67.25,231.38Z"/><path class="a" d="M871.84,619.47a.56.56,0,1,0-.56-.56A.56.56,0,0,0,871.84,619.47Z"/><path class="a" d="M840.53,650.14a1.29,1.29,0,1,0-1.29-1.29A1.29,1.29,0,0,0,840.53,650.14Z"/><path class="a" d="M823.89,664.83a2.09,2.09,0,1,0-2.09-2.09A2.09,2.09,0,0,0,823.89,664.83Z"/><path class="a" d="M806.65,676.67a.8.8,0,0,0,0-1.6.8.8,0,0,0,0,1.6Z"/><path class="a" d="M788.83,691.43a3.22,3.22,0,1,0-3.21-3.22A3.22,3.22,0,0,0,788.83,691.43Z"/><path class="a" d="M770.49,704.24a4.5,4.5,0,1,0-4.5-4.5A4.49,4.49,0,0,0,770.49,704.24Z"/><path class="a" d="M751.64,714.61a4.18,4.18,0,1,0-4.18-4.17A4.17,4.17,0,0,0,751.64,714.61Z"/><path class="a" d="M732.33,726a5.71,5.71,0,1,0-5.71-5.71A5.71,5.71,0,0,0,732.33,726Z"/><circle class="a" cx="712.6" cy="729.24" r="5.06"/><path class="a" d="M692.49,743.09a5.79,5.79,0,1,0-5.79-5.79A5.78,5.78,0,0,0,692.49,743.09Z"/><path class="a" d="M672,750.57a6.11,6.11,0,1,0-6.1-6.11A6.11,6.11,0,0,0,672,750.57Z"/><circle class="a" cx="651.28" cy="750.69" r="6.03"/><path class="a" d="M630.26,762.5a6.51,6.51,0,1,0-6.5-6.51A6.52,6.52,0,0,0,630.26,762.5Z"/><path class="a" d="M609,766.2a5.87,5.87,0,1,0-5.86-5.86A5.86,5.86,0,0,0,609,766.2Z"/><path class="a" d="M587.62,770.64a6.91,6.91,0,1,0-6.9-6.92A6.92,6.92,0,0,0,587.62,770.64Z"/><path class="a" d="M566.1,773.06a6.91,6.91,0,1,0-6.91-6.91A6.9,6.9,0,0,0,566.1,773.06Z"/><path class="a" d="M544.47,774.92a7.31,7.31,0,1,0-7.31-7.31A7.31,7.31,0,0,0,544.47,774.92Z"/><path class="a" d="M522.81,775.41a7.32,7.32,0,1,0-7.31-7.32A7.32,7.32,0,0,0,522.81,775.41Z"/><path class="a" d="M501.14,774.2a6.59,6.59,0,1,0-6.59-6.59A6.59,6.59,0,0,0,501.14,774.2Z"/><path class="a" d="M479.52,773.55a7.4,7.4,0,1,0-7.4-7.4A7.4,7.4,0,0,0,479.52,773.55Z"/><path class="a" d="M458,770a6.27,6.27,0,1,0-6.27-6.27A6.27,6.27,0,0,0,458,770Z"/><path class="a" d="M436.58,768.29a8,8,0,1,0-7.95-7.95A7.94,7.94,0,0,0,436.58,768.29Z"/><path class="a" d="M415.35,765a9,9,0,1,0-9-9A9,9,0,0,0,415.35,765Z"/><path class="a" d="M394.33,759.13a8.44,8.44,0,1,0-8.43-8.44A8.44,8.44,0,0,0,394.33,759.13Z"/><circle class="a" cx="373.58" cy="744.46" r="8.52"/><path class="a" d="M353.12,744.54a7.24,7.24,0,1,0-7.23-7.24A7.24,7.24,0,0,0,353.12,744.54Z"/><circle class="a" cx="333.01" cy="729.24" r="8.36"/><path class="a" d="M313.28,728.23a8,8,0,1,0-7.95-8A8,8,0,0,0,313.28,728.23Z"/><path class="a" d="M294,717.42a7,7,0,1,0-7-7A7,7,0,0,0,294,717.42Z"/><path class="a" d="M275.12,706.73a7,7,0,1,0-7-7A7,7,0,0,0,275.12,706.73Z"/><path class="a" d="M256.78,695.77a7.56,7.56,0,1,0-7.56-7.56A7.56,7.56,0,0,0,256.78,695.77Z"/><path class="a" d="M239,683.67a7.8,7.8,0,1,0-7.8-7.8A7.8,7.8,0,0,0,239,683.67Z"/><path class="a" d="M221.72,670.7a8,8,0,1,0-7.95-8A8,8,0,0,0,221.72,670.7Z"/><path class="a" d="M205.09,656.81a8,8,0,1,0-8-8A8,8,0,0,0,205.09,656.81Z"/><path class="a" d="M189.09,642.43a8.2,8.2,0,1,0-8.2-8.2A8.19,8.19,0,0,0,189.09,642.43Z"/><circle class="a" cx="173.77" cy="618.91" r="7.87"/><path class="a" d="M159.15,610.79a7.88,7.88,0,1,0-7.88-7.88A7.87,7.87,0,0,0,159.15,610.79Z"/><path class="a" d="M145.26,594.07a7.8,7.8,0,1,0-7.8-7.79A7.79,7.79,0,0,0,145.26,594.07Z"/><path class="a" d="M132.13,577.07a8,8,0,1,0-8-8A8,8,0,0,0,132.13,577.07Z"/><path class="a" d="M119.79,556.93a5.71,5.71,0,1,0-5.7-5.71A5.71,5.71,0,0,0,119.79,556.93Z"/><path class="a" d="M108.26,538.58a5.71,5.71,0,1,0-5.7-5.71A5.7,5.7,0,0,0,108.26,538.58Z"/><path class="a" d="M97.56,519.09A5.07,5.07,0,1,0,92.5,514,5.07,5.07,0,0,0,97.56,519.09Z"/><path class="a" d="M87.73,499.38a4.66,4.66,0,1,0-4.67-4.66A4.66,4.66,0,0,0,87.73,499.38Z"/><path class="a" d="M78.76,478.85A3.86,3.86,0,1,0,74.9,475,3.86,3.86,0,0,0,78.76,478.85Z"/><path class="a" d="M70.69,458.89a4,4,0,1,0-4-4A4,4,0,0,0,70.69,458.89Z"/><path class="a" d="M63.53,438.44a4,4,0,1,0-4-4A4,4,0,0,0,63.53,438.44Z"/><path class="a" d="M57.31,414.71a1,1,0,1,0-1.05-1A1,1,0,0,0,57.31,414.71Z"/><circle class="a" cx="52.01" cy="392.65" r="1.45"/><path class="a" d="M47.66,372.38a1,1,0,1,0-1-1A1,1,0,0,0,47.66,372.38Z"/><path class="a" d="M44.27,350.74a.73.73,0,1,0-.72-.72A.72.72,0,0,0,44.27,350.74Z"/><path class="a" d="M41.85,329a.48.48,0,0,0,.48-.48.49.49,0,1,0-.48.48Z"/><path class="a" d="M40.39,307.1a.24.24,0,1,0,0-.48.24.24,0,0,0,0,.48Z"/><path class="a" d="M821.72,695.57a.81.81,0,1,0-.81-.8A.8.8,0,0,0,821.72,695.57Z"/><circle class="a" cx="803.94" cy="707.17" r="1.45"/><path class="a" d="M785.65,720.24a1.45,1.45,0,1,0-1.44-1.45A1.45,1.45,0,0,0,785.65,720.24Z"/><path class="a" d="M766.89,730.91a1.29,1.29,0,1,0-1.29-1.28A1.28,1.28,0,0,0,766.89,730.91Z"/><path class="a" d="M747.67,743.35a3.7,3.7,0,1,0-3.7-3.7A3.7,3.7,0,0,0,747.67,743.35Z"/><path class="a" d="M728.05,750.05a1.21,1.21,0,1,0,0-2.41,1.21,1.21,0,0,0,0,2.41Z"/><path class="a" d="M708.05,761a3.78,3.78,0,1,0-3.77-3.78A3.78,3.78,0,0,0,708.05,761Z"/><path class="a" d="M687.71,768.45a3.78,3.78,0,1,0-3.77-3.78A3.78,3.78,0,0,0,687.71,768.45Z"/><path class="a" d="M667.07,771.76a.47.47,0,0,0,.48-.47.48.48,0,0,0-.48-.49.49.49,0,0,0-.48.49A.48.48,0,0,0,667.07,771.76Z"/><path class="a" d="M646.17,779a2,2,0,1,0-2-2A2,2,0,0,0,646.17,779Z"/><path class="a" d="M625,785.85a4,4,0,1,0-4-4A4,4,0,0,0,625,785.85Z"/><path class="a" d="M603.73,791.45a5.71,5.71,0,1,0-5.7-5.71A5.71,5.71,0,0,0,603.73,791.45Z"/><path class="a" d="M582.27,795.89a7.15,7.15,0,1,0-7.16-7.15A7.15,7.15,0,0,0,582.27,795.89Z"/><path class="a" d="M560.7,798.13a7.31,7.31,0,1,0-7.31-7.31A7.31,7.31,0,0,0,560.7,798.13Z"/><path class="a" d="M539.06,798.81a6.83,6.83,0,1,0-6.83-6.83A6.83,6.83,0,0,0,539.06,798.81Z"/><path class="a" d="M517.39,799a6.83,6.83,0,1,0-6.83-6.83A6.82,6.82,0,0,0,517.39,799Z"/><path class="a" d="M495.73,799a7.47,7.47,0,1,0-7.48-7.47A7.48,7.48,0,0,0,495.73,799Z"/><path class="a" d="M474.12,797.85a8,8,0,1,0-8-8A7.94,7.94,0,0,0,474.12,797.85Z"/><path class="a" d="M452.6,795a7.64,7.64,0,1,0-7.64-7.63A7.64,7.64,0,0,0,452.6,795Z"/><path class="a" d="M431.2,791.29a7.39,7.39,0,1,0-7.39-7.39A7.39,7.39,0,0,0,431.2,791.29Z"/><path class="a" d="M410,787.73a8.2,8.2,0,1,0-8.2-8.2A8.2,8.2,0,0,0,410,787.73Z"/><path class="a" d="M389,782.37a8.12,8.12,0,1,0-8.11-8.11A8.11,8.11,0,0,0,389,782.37Z"/><path class="a" d="M368.18,775.72a7.63,7.63,0,1,0-7.63-7.63A7.63,7.63,0,0,0,368.18,775.72Z"/><path class="a" d="M347.69,768.67a7.63,7.63,0,1,0-7.63-7.63A7.63,7.63,0,0,0,347.69,768.67Z"/><path class="a" d="M327.52,761.4a8.28,8.28,0,1,0-8.28-8.28A8.28,8.28,0,0,0,327.52,761.4Z"/><path class="a" d="M307.7,752.14a7.79,7.79,0,1,0-7.79-7.78A7.78,7.78,0,0,0,307.7,752.14Z"/><path class="a" d="M288.27,742.78a8,8,0,1,0-8-8A8,8,0,0,0,288.27,742.78Z"/><path class="a" d="M269.28,732.42a8.11,8.11,0,1,0-8.11-8.11A8.1,8.1,0,0,0,269.28,732.42Z"/><path class="a" d="M250.75,721.43a8.36,8.36,0,1,0-8.36-8.36A8.36,8.36,0,0,0,250.75,721.43Z"/><path class="a" d="M232.72,709.42a8.36,8.36,0,1,0-8.36-8.36A8.35,8.35,0,0,0,232.72,709.42Z"/><path class="a" d="M215.21,696.72a8.44,8.44,0,1,0-8.44-8.43A8.44,8.44,0,0,0,215.21,696.72Z"/><path class="a" d="M198.27,682a7.24,7.24,0,1,0-7.23-7.24A7.24,7.24,0,0,0,198.27,682Z"/><path class="a" d="M181.91,668.34a7.79,7.79,0,1,0-7.79-7.79A7.79,7.79,0,0,0,181.91,668.34Z"/><path class="a" d="M166.19,653.84a8.2,8.2,0,1,0-8.19-8.2A8.2,8.2,0,0,0,166.19,653.84Z"/><path class="a" d="M151.11,636.34a6.27,6.27,0,1,0-6.27-6.27A6.26,6.26,0,0,0,151.11,636.34Z"/><path class="a" d="M136.72,621.67a7.79,7.79,0,1,0-7.8-7.79A7.79,7.79,0,0,0,136.72,621.67Z"/><path class="a" d="M123,603.43a6.35,6.35,0,1,0-6.35-6.35A6.35,6.35,0,0,0,123,603.43Z"/><path class="a" d="M110.07,586.06a6.35,6.35,0,1,0-6.35-6.35A6.34,6.34,0,0,0,110.07,586.06Z"/><path class="a" d="M97.86,564.94a3.14,3.14,0,1,0-3.14-3.13A3.13,3.13,0,0,0,97.86,564.94Z"/><path class="a" d="M86.43,548.22a4.83,4.83,0,1,0-4.83-4.82A4.81,4.81,0,0,0,86.43,548.22Z"/><path class="a" d="M75.79,526a1.45,1.45,0,1,0-1.45-1.45A1.45,1.45,0,0,0,75.79,526Z"/><path class="a" d="M66,508.25a3.06,3.06,0,1,0-3.06-3.06A3,3,0,0,0,66,508.25Z"/><path class="a" d="M57,485.55a.08.08,0,0,0,.08-.07.08.08,0,1,0-.16,0A.08.08,0,0,0,57,485.55Z"/><path class="a" d="M48.85,465.63a.25.25,0,1,0,0-.49.25.25,0,0,0,0,.49Z"/><path class="a" d="M41.59,445.45a.48.48,0,0,0,.48-.48.49.49,0,0,0-.48-.48.48.48,0,0,0-.48.48A.47.47,0,0,0,41.59,445.45Z"/><path class="a" d="M35.2,425.3a1,1,0,1,0-1-1A1,1,0,0,0,35.2,425.3Z"/><path class="a" d="M743.47,768.46a.08.08,0,0,0,.08-.07.09.09,0,0,0-.08-.09.08.08,0,0,0-.08.09A.07.07,0,0,0,743.47,768.46Z"/><path class="a" d="M703.35,784.85a.09.09,0,1,0,0-.17.08.08,0,0,0-.07.08A.08.08,0,0,0,703.35,784.85Z"/><path class="a" d="M682.82,792.19a.48.48,0,0,0,.49-.48.49.49,0,1,0-.49.48Z"/><path class="a" d="M598.4,811.22a.24.24,0,1,0,0-.48.24.24,0,0,0,0,.48Z"/><path class="a" d="M576.89,813.87a.25.25,0,0,0,.25-.25.24.24,0,0,0-.25-.23.23.23,0,0,0-.24.23A.25.25,0,0,0,576.89,813.87Z"/><circle class="a" cx="555.29" cy="815.39" r="0.8"/><path class="a" d="M533.65,818.76a2.49,2.49,0,1,0-2.5-2.49A2.48,2.48,0,0,0,533.65,818.76Z"/><circle class="a" cx="511.97" cy="816.27" r="2.49"/><path class="a" d="M490.32,817.4a2,2,0,1,0-2-2A2,2,0,0,0,490.32,817.4Z"/><path class="a" d="M468.72,815.63a2,2,0,1,0-2-2A2,2,0,0,0,468.72,815.63Z"/><path class="a" d="M447.21,813.23A2.25,2.25,0,1,0,445,811,2.25,2.25,0,0,0,447.21,813.23Z"/><path class="a" d="M425.82,810.35a2.89,2.89,0,1,0-2.89-2.89A2.89,2.89,0,0,0,425.82,810.35Z"/><path class="a" d="M404.6,806.93a3.86,3.86,0,1,0-3.86-3.86A3.86,3.86,0,0,0,404.6,806.93Z"/><path class="a" d="M383.58,800.39a2.57,2.57,0,1,0-2.57-2.57A2.58,2.58,0,0,0,383.58,800.39Z"/><circle class="a" cx="362.79" cy="791.71" r="8.36"/><path class="a" d="M342.26,791.11a6.35,6.35,0,1,0-6.34-6.35A6.35,6.35,0,0,0,342.26,791.11Z"/><path class="a" d="M322,780a3.06,3.06,0,1,0-3-3.06A3.06,3.06,0,0,0,322,780Z"/><path class="a" d="M302.14,777a8.6,8.6,0,1,0-8.59-8.59A8.6,8.6,0,0,0,302.14,777Z"/><path class="a" d="M282.62,766.05a7.07,7.07,0,1,0-7.07-7.07A7.06,7.06,0,0,0,282.62,766.05Z"/><path class="a" d="M263.5,751.12a2.33,2.33,0,1,0-2.34-2.33A2.32,2.32,0,0,0,263.5,751.12Z"/><path class="a" d="M244.8,742.24a4.42,4.42,0,1,0-4.43-4.41A4.41,4.41,0,0,0,244.8,742.24Z"/><path class="a" d="M226.57,727.16a1,1,0,1,0-1-1A1,1,0,0,0,226.57,727.16Z"/><path class="a" d="M208.83,721.05a7.39,7.39,0,1,0-7.39-7.39A7.39,7.39,0,0,0,208.83,721.05Z"/><path class="a" d="M191.62,704.75a4.26,4.26,0,1,0-4.27-4.25A4.25,4.25,0,0,0,191.62,704.75Z"/><path class="a" d="M175,691.55a4.91,4.91,0,1,0-4.9-4.9A4.9,4.9,0,0,0,175,691.55Z"/><path class="a" d="M158.86,679.19a7.07,7.07,0,1,0-7.07-7.07A7.07,7.07,0,0,0,158.86,679.19Z"/><path class="a" d="M143.39,658.8a1.85,1.85,0,1,0-1.85-1.85A1.84,1.84,0,0,0,143.39,658.8Z"/><path class="a" d="M128.54,641.73a.56.56,0,0,0,.56-.56.57.57,0,0,0-.56-.57.58.58,0,0,0-.57.57A.57.57,0,0,0,128.54,641.73Z"/><path class="a" d="M114.34,627.6a2.81,2.81,0,1,0-2.81-2.81A2.81,2.81,0,0,0,114.34,627.6Z"/><path class="a" d="M100.83,607.93a.08.08,0,1,0,0-.16.08.08,0,1,0,0,.16Z"/><path class="a" d="M88,591.09a.73.73,0,0,0,.73-.72.73.73,0,0,0-.73-.73.73.73,0,0,0-.72.73A.72.72,0,0,0,88,591.09Z"/><path class="a" d="M75.94,572.62a.24.24,0,0,0,.24-.24.24.24,0,0,0-.24-.24.25.25,0,0,0-.25.24A.25.25,0,0,0,75.94,572.62Z"/><path class="a" d="M64.6,554.16a.25.25,0,0,0,.24-.25.25.25,0,0,0-.49,0A.25.25,0,0,0,64.6,554.16Z"/><path class="a" d="M35.22,496a.08.08,0,0,0,.07-.08.07.07,0,0,0-.07-.08.08.08,0,0,0-.09.08A.09.09,0,0,0,35.22,496Z"/><path class="a" d="M357.39,816.05a.73.73,0,0,0,.73-.73.73.73,0,0,0-.73-.72.72.72,0,0,0-.72.72A.73.73,0,0,0,357.39,816.05Z"/><path class="a" d="M336.83,808.71a.25.25,0,0,0,.25-.25.24.24,0,0,0-.25-.23.23.23,0,0,0-.24.23A.25.25,0,0,0,336.83,808.71Z"/><path class="a" d="M316.56,800.89a.07.07,0,0,0,.08-.08.08.08,0,0,0-.16,0A.07.07,0,0,0,316.56,800.89Z"/><path class="a" d="M296.59,792.94a.57.57,0,0,0,.57-.57.57.57,0,0,0-1.13,0A.57.57,0,0,0,296.59,792.94Z"/><path class="a" d="M277,783.72a.56.56,0,1,0-.56-.56A.56.56,0,0,0,277,783.72Z"/><path class="a" d="M257.74,773.27a.08.08,0,1,0-.08-.08A.09.09,0,0,0,257.74,773.27Z"/><path class="a" d="M238.9,763a.49.49,0,0,0,.49-.48.49.49,0,1,0-.49.48Z"/><path class="a" d="M220.49,751.28a.24.24,0,1,0,0-.48.24.24,0,0,0,0,.48Z"/><path class="a" d="M202.55,739.13a.24.24,0,0,0,0-.48.24.24,0,0,0,0,.48Z"/><path class="a" d="M185.1,726.29a.24.24,0,1,0-.24-.24A.23.23,0,0,0,185.1,726.29Z"/><path class="a" d="M168.15,713a.49.49,0,0,0,0-1,.49.49,0,0,0,0,1Z"/><path class="a" d="M151.75,698.45a.08.08,0,0,0,.08-.08.09.09,0,0,0-.08-.08.08.08,0,0,0-.08.08A.07.07,0,0,0,151.75,698.45Z"/><path class="a" d="M135.91,683.66a.08.08,0,0,0,.08-.08.07.07,0,0,0-.08-.08.08.08,0,0,0-.08.08A.09.09,0,0,0,135.91,683.66Z"/><path class="a" d="M120.66,668.26a.07.07,0,0,0,.08-.08.08.08,0,0,0-.08-.08.09.09,0,0,0-.08.08A.08.08,0,0,0,120.66,668.26Z"/><path class="a" d="M106,652.28a.08.08,0,1,0,0-.16.08.08,0,0,0,0,.16Z"/><path class="a" d="M78.68,618.66a.08.08,0,0,0,.08-.07.08.08,0,0,0-.16,0A.08.08,0,0,0,78.68,618.66Z"/><path class="a" d="M271.37,807.37a.08.08,0,0,0,.09-.08.09.09,0,0,0-.09-.08.08.08,0,0,0-.07.08A.07.07,0,0,0,271.37,807.37Z"/><path class="a" d="M252,797.6a.07.07,0,0,0,.08-.07.07.07,0,0,0-.08-.08.08.08,0,0,0-.08.08A.08.08,0,0,0,252,797.6Z"/><path class="a" d="M233.06,787.13a.09.09,0,0,0,.08-.09.08.08,0,0,0-.08-.08s-.08,0-.08.08A.1.1,0,0,0,233.06,787.13Z"/><path class="a" d="M214.5,775.94a.09.09,0,0,0,.08-.09.08.08,0,0,0-.16,0A.09.09,0,0,0,214.5,775.94Z"/><path class="a" d="M196.37,764.07a.08.08,0,0,0,.08-.08.07.07,0,0,0-.08-.08c-.05,0-.07,0-.07.08A.07.07,0,0,0,196.37,764.07Z"/><path class="a" d="M178.7,751.53a.08.08,0,0,0,.07-.08.08.08,0,0,0-.07-.09.08.08,0,0,0-.08.09A.08.08,0,0,0,178.7,751.53Z"/><path class="a" d="M161.5,738.34a.08.08,0,0,0,.08-.09.07.07,0,0,0-.08-.07.07.07,0,0,0-.07.07A.08.08,0,0,0,161.5,738.34Z"/><path class="a" d="M98,679.42a.08.08,0,1,0,0-.16.08.08,0,0,0,0,.16Z"/><path class="a" d="M83.57,663.26a.08.08,0,0,0,.09-.08.09.09,0,0,0-.09-.08.09.09,0,0,0-.08.08A.08.08,0,0,0,83.57,663.26Z"/><path class="a" d="M69.75,646.57a.08.08,0,0,0,.08-.07.09.09,0,0,0-.08-.09.08.08,0,0,0-.08.09A.07.07,0,0,0,69.75,646.57Z"/><path class="a" d="M246.35,821.87a.07.07,0,0,0,.08-.07.08.08,0,0,0-.08-.09.09.09,0,0,0-.08.09A.08.08,0,0,0,246.35,821.87Z"/><path class="a" d="M138,750.62a.31.31,0,0,0,.31-.32A.31.31,0,0,0,138,750a.32.32,0,0,0-.32.32A.32.32,0,0,0,138,750.62Z"/><path class="a" d="M75.43,690.52a.08.08,0,1,0,0-.16.08.08,0,0,0,0,.16Z"/><path class="a" d="M61.18,674.2a.08.08,0,1,0,0-.16.08.08,0,1,0,0,.16Z"/><path class="a" d="M148.57,789.3a.08.08,0,0,0,.08-.08.08.08,0,0,0-.08-.07.07.07,0,0,0-.08.07A.07.07,0,0,0,148.57,789.3Z"/><path class="a" d="M131.4,776.08a.07.07,0,0,0,.07-.07.08.08,0,0,0-.07-.09.09.09,0,0,0-.09.09A.08.08,0,0,0,131.4,776.08Z"/><path class="a" d="M12.39,650.76a.08.08,0,0,0,.08-.09.07.07,0,0,0-.08-.07.08.08,0,0,0-.08.07A.09.09,0,0,0,12.39,650.76Z"/><path class="a" d="M.08,632.92a.08.08,0,0,0,.08-.08.07.07,0,0,0-.08-.08.08.08,0,0,0-.08.08A.09.09,0,0,0,.08,632.92Z"/></svg>