<svg xmlns="http://www.w3.org/2000/svg" viewBox="0 0 475.94 360.17" id="top_logo"><title>layer_logo</title><g id="Layer_1" data-name="Layer 1"><g id="top_ornament"><path d="M508.21,353.82a4,4,0,0,0-1.25-.3,2.05,2.05,0,0,0-1.13.23,1.71,1.71,0,0,0-.7.88,3.7,3.7,0,0,0-.2,1.33,4.59,4.59,0,0,0,1.12,2.58,8.21,8.21,0,0,0,2.34,1.91,12.71,12.71,0,0,0,6,1.55,8.69,8.69,0,0,0,5.72-1.9,6.51,6.51,0,0,0,1.77-2.44,8,8,0,0,0,.55-3,8.44,8.44,0,0,0-2.19-5.51,8.67,8.67,0,0,0-2.35-1.82,12.08,12.08,0,0,0-2.81-1.07,17.14,17.14,0,0,0-6-.32,23.43,23.43,0,0,0-3,.54,23.16,23.16,0,0,0-2.89.92,12.48,12.48,0,0,0-4.8,3.15,7.47,7.47,0,0,0-1.81,5,10,10,0,0,0,1.63,5.35,13.5,13.5,0,0,0,4.23,4,19.17,19.17,0,0,0,5.53,2.33,24.12,24.12,0,0,0,6.07.61c1-.06,2.07-.07,3.1-.22l1.56-.18,1.55-.26c8.3-1.41,16.39-4.21,24.66-6.33a53.5,53.5,0,0,1,6.32-1.25,47.82,47.82,0,0,1,6.45-.35c.54,0,1.08,0,1.62.06s1.08.08,1.62.17a14.93,14.93,0,0,1,3.24.76,5.27,5.27,0,0,1,2.87,2.13c.08.16.15.31.22.49a1.51,1.51,0,0,1,.06.36c0,.11,0,.22,0,.34a2.87,2.87,0,0,1-.41,1,6.06,6.06,0,0,1-1.26,1.31,13.92,13.92,0,0,1-2.91,1.72,23.55,23.55,0,0,1-3.1,1.14,32.37,32.37,0,0,1-6.45,1.17,49.83,49.83,0,0,1-13-.75,41.56,41.56,0,0,1-6.34-1.63,19.31,19.31,0,0,1-5.93-3.19,7.51,7.51,0,0,1-2.21-3,4.18,4.18,0,0,1-.23-2.06,7,7,0,0,1,.25-1,6.07,6.07,0,0,1,.48-.91,4.82,4.82,0,0,1,3.31-2,5.51,5.51,0,0,1,1.9,0,4,4,0,0,1,1,.28,2.77,2.77,0,0,1,1,.7L532,357.63a2.1,2.1,0,0,0-.89-.3,4.3,4.3,0,0,0-1.29,0,2.87,2.87,0,0,0-2,1.24,2.92,2.92,0,0,0-.25.5c0,.19-.11.4-.13.57a2.25,2.25,0,0,0,.14,1.07,5.47,5.47,0,0,0,1.64,2.05,18.28,18.28,0,0,0,5.3,2.76,40.47,40.47,0,0,0,6,1.56A54.2,54.2,0,0,0,553,368a34.05,34.05,0,0,0,6.13-.88,16.71,16.71,0,0,0,5.56-2.34,4.71,4.71,0,0,0,1-.94,1.28,1.28,0,0,0,.21-.43.13.13,0,0,1,0-.06s0,0,0,0l-.1-.24a3,3,0,0,0-.85-.93,7.45,7.45,0,0,0-1.28-.69,12.48,12.48,0,0,0-2.94-.78c-.51-.1-1-.13-1.55-.2s-1-.08-1.56-.09a44.18,44.18,0,0,0-6.29.31,53,53,0,0,0-6.18,1.28c-4.1,1.08-8.14,2.41-12.21,3.65A126.63,126.63,0,0,1,520.5,369l-1.59.31-1.6.24c-1.07.18-2.17.23-3.26.33a26.32,26.32,0,0,1-6.61-.48,21.63,21.63,0,0,1-6.26-2.42,15.68,15.68,0,0,1-5-4.64,12,12,0,0,1-2.09-6.67,10,10,0,0,1,2.42-6.7,14.22,14.22,0,0,1,5.83-3.69,23.36,23.36,0,0,1,6.54-1.29,18.33,18.33,0,0,1,6.62.83,14.16,14.16,0,0,1,3.06,1.42,10,10,0,0,1,2.51,2.26,9.74,9.74,0,0,1,2.1,6.23,8.69,8.69,0,0,1-.69,3.25,7.38,7.38,0,0,1-2,2.64,9.42,9.42,0,0,1-6.12,2.06,14.07,14.07,0,0,1-6.33-1.47,9.44,9.44,0,0,1-2.67-2,5.63,5.63,0,0,1-1.55-3.09,4.72,4.72,0,0,1,.13-1.83,3.08,3.08,0,0,1,1.12-1.66,3.4,3.4,0,0,1,1.9-.63,5.29,5.29,0,0,1,1.88.21Z" transform="translate(-257.8 -343.91)" fill="#231f20"/><path d="M506.21,354.15a2,2,0,1,1,2,2A2,2,0,0,1,506.21,354.15Z" transform="translate(-257.8 -343.91)" fill="#231f20"/><path d="M529.9,357.91a2,2,0,1,1,2,2A2,2,0,0,1,529.9,357.91Z" transform="translate(-257.8 -343.91)" fill="#231f20"/><path d="M499.18,352.16a5.29,5.29,0,0,1,1.88-.21,3.4,3.4,0,0,1,1.9.63,3.08,3.08,0,0,1,1.12,1.66,4.72,4.72,0,0,1,.13,1.83,5.63,5.63,0,0,1-1.55,3.09,9.44,9.44,0,0,1-2.67,2,14.07,14.07,0,0,1-6.33,1.47,9.42,9.42,0,0,1-6.12-2.06,7.38,7.38,0,0,1-2-2.64,8.69,8.69,0,0,1-.69-3.25,9.74,9.74,0,0,1,2.1-6.23,10,10,0,0,1,2.51-2.26,14.16,14.16,0,0,1,3.06-1.42,18.33,18.33,0,0,1,6.62-.83,23.36,23.36,0,0,1,6.54,1.29,14.22,14.22,0,0,1,5.83,3.69,10,10,0,0,1,2.42,6.7,12,12,0,0,1-2.09,6.67,15.68,15.68,0,0,1-5,4.64,21.63,21.63,0,0,1-6.26,2.42,26.32,26.32,0,0,1-6.61.48c-1.09-.1-2.19-.15-3.26-.33l-1.6-.24L487.5,369a126.63,126.63,0,0,1-12.41-3.33c-4.07-1.24-8.11-2.57-12.21-3.65a53,53,0,0,0-6.18-1.28,44.18,44.18,0,0,0-6.29-.31c-.52,0-1,.06-1.56.09s-1,.1-1.55.2a12.48,12.48,0,0,0-2.94.78,7.45,7.45,0,0,0-1.28.69,3,3,0,0,0-.85.93l-.1.24s0,0,0,0a.13.13,0,0,1,0,.06,1.28,1.28,0,0,0,.21.43,4.71,4.71,0,0,0,1,.94,16.71,16.71,0,0,0,5.56,2.34A34.05,34.05,0,0,0,455,368a54.2,54.2,0,0,0,12.44-.88,40.47,40.47,0,0,0,6-1.56,18.28,18.28,0,0,0,5.3-2.76,5.47,5.47,0,0,0,1.64-2.05,2.25,2.25,0,0,0,.14-1.07c0-.17-.09-.38-.13-.57a2.92,2.92,0,0,0-.25-.5,2.87,2.87,0,0,0-2-1.24,4.3,4.3,0,0,0-1.29,0,2.1,2.1,0,0,0-.89.3l-1.36-1.13a2.77,2.77,0,0,1,1-.7,4,4,0,0,1,1-.28,5.51,5.51,0,0,1,1.9,0,4.82,4.82,0,0,1,3.31,2,6.07,6.07,0,0,1,.48.91,7,7,0,0,1,.25,1,4.18,4.18,0,0,1-.23,2.06,7.51,7.51,0,0,1-2.21,3,19.31,19.31,0,0,1-5.93,3.19,41.56,41.56,0,0,1-6.34,1.63,49.83,49.83,0,0,1-13,.75,32.37,32.37,0,0,1-6.45-1.17,23.55,23.55,0,0,1-3.1-1.14,13.92,13.92,0,0,1-2.91-1.72,6.06,6.06,0,0,1-1.26-1.31,2.87,2.87,0,0,1-.41-1c0-.12,0-.23,0-.34a1.51,1.51,0,0,1,.06-.36c.07-.18.14-.33.21-.49a5.33,5.33,0,0,1,2.88-2.13,15,15,0,0,1,3.23-.76c.55-.09,1.09-.12,1.63-.17s1.08-.07,1.62-.06a47.82,47.82,0,0,1,6.45.35,53.5,53.5,0,0,1,6.32,1.25c8.27,2.12,16.36,4.92,24.66,6.33l1.55.26,1.56.18c1,.15,2.07.16,3.1.22a24.12,24.12,0,0,0,6.07-.61,19.17,19.17,0,0,0,5.53-2.33,13.5,13.5,0,0,0,4.23-4,10,10,0,0,0,1.63-5.35,7.47,7.47,0,0,0-1.81-5,12.48,12.48,0,0,0-4.8-3.15,23.16,23.16,0,0,0-2.89-.92,23.43,23.43,0,0,0-3-.54,17.14,17.14,0,0,0-6,.32,12.08,12.08,0,0,0-2.81,1.07,8.67,8.67,0,0,0-2.35,1.82,8.44,8.44,0,0,0-2.19,5.51,8,8,0,0,0,.55,3,6.51,6.51,0,0,0,1.77,2.44,8.69,8.69,0,0,0,5.72,1.9,12.71,12.71,0,0,0,5.95-1.55,8.21,8.21,0,0,0,2.34-1.91,4.59,4.59,0,0,0,1.12-2.58,3.7,3.7,0,0,0-.2-1.33,1.71,1.71,0,0,0-.7-.88,2.05,2.05,0,0,0-1.13-.23,4,4,0,0,0-1.25.3Z" transform="translate(-257.8 -343.91)" fill="#231f20"/><path d="M501.79,354.15a2,2,0,1,0-2,2A2,2,0,0,0,501.79,354.15Z" transform="translate(-257.8 -343.91)" fill="#231f20"/><path d="M478.1,357.91a2,2,0,1,0-2,2A2,2,0,0,0,478.1,357.91Z" transform="translate(-257.8 -343.91)" fill="#231f20"/></g><g id="base_ornament"><path d="M498.68,691.58a4.87,4.87,0,0,0,1.59.37,2.56,2.56,0,0,0,1.41-.28,2.13,2.13,0,0,0,.89-1.12,4.71,4.71,0,0,0,.26-1.67,5.92,5.92,0,0,0-1.42-3.27,10.27,10.27,0,0,0-3-2.4,16,16,0,0,0-7.52-2,10.92,10.92,0,0,0-7.22,2.4,8.28,8.28,0,0,0-2.24,3.09,9.8,9.8,0,0,0-.69,3.76,10.59,10.59,0,0,0,2.76,7,11,11,0,0,0,3,2.31,16,16,0,0,0,3.55,1.35,21.86,21.86,0,0,0,7.61.41,28.87,28.87,0,0,0,3.78-.7,27.67,27.67,0,0,0,3.65-1.15,15.63,15.63,0,0,0,6.06-4,9.48,9.48,0,0,0,2.29-6.37,12.55,12.55,0,0,0-2.07-6.76,17.07,17.07,0,0,0-5.33-5,24.24,24.24,0,0,0-7-2.94,30.65,30.65,0,0,0-7.67-.77c-1.3.08-2.6.09-3.91.28l-2,.23-2,.32c-10.48,1.79-20.69,5.32-31.14,8a66.76,66.76,0,0,1-8,1.57,59.77,59.77,0,0,1-8.14.45c-.68,0-1.36,0-2-.07s-1.37-.11-2.05-.22a19,19,0,0,1-4.08-1,6.75,6.75,0,0,1-3.64-2.69c-.09-.21-.19-.39-.27-.62a3.54,3.54,0,0,1-.08-.45c0-.14,0-.29,0-.43a3.53,3.53,0,0,1,.53-1.29,7.42,7.42,0,0,1,1.59-1.66,18.26,18.26,0,0,1,3.67-2.17,29.76,29.76,0,0,1,3.92-1.44,41.92,41.92,0,0,1,8.14-1.48,63.23,63.23,0,0,1,16.38,1,52.33,52.33,0,0,1,8,2.06,24.25,24.25,0,0,1,7.49,4,9.42,9.42,0,0,1,2.8,3.72,5.43,5.43,0,0,1,.29,2.61,9.37,9.37,0,0,1-.33,1.24,6.54,6.54,0,0,1-.6,1.14,6.08,6.08,0,0,1-4.18,2.53,6.85,6.85,0,0,1-2.39,0,4.89,4.89,0,0,1-1.23-.36,3.31,3.31,0,0,1-1.25-.88l1.72-1.43a2.57,2.57,0,0,0,1.12.38,4.66,4.66,0,0,0,1.62-.06,3.58,3.58,0,0,0,2.49-1.55,3,3,0,0,0,.32-.64c0-.24.14-.5.17-.72a2.77,2.77,0,0,0-.19-1.34,6.76,6.76,0,0,0-2.07-2.6,22.86,22.86,0,0,0-6.69-3.48,50.81,50.81,0,0,0-7.58-2,69.23,69.23,0,0,0-15.72-1.12,42.86,42.86,0,0,0-7.74,1.12,21,21,0,0,0-7,3,5.91,5.91,0,0,0-1.25,1.18,2.06,2.06,0,0,0-.27.54.22.22,0,0,1,0,.08s0,0,0,.05l.12.3a3.83,3.83,0,0,0,1.08,1.18,8.53,8.53,0,0,0,1.61.86,15.82,15.82,0,0,0,3.72,1c.64.12,1.3.16,1.95.24s1.31.11,2,.12a57.08,57.08,0,0,0,7.94-.4,66.41,66.41,0,0,0,7.81-1.61c5.17-1.36,10.27-3,15.42-4.61a158.45,158.45,0,0,1,15.67-4.2l2-.39,2-.3c1.35-.24,2.74-.3,4.11-.42a33.16,33.16,0,0,1,8.36.6,27.22,27.22,0,0,1,7.9,3.06,19.86,19.86,0,0,1,6.36,5.86,15.19,15.19,0,0,1,2.63,8.42,12.51,12.51,0,0,1-3.06,8.46,17.94,17.94,0,0,1-7.35,4.67,29.37,29.37,0,0,1-8.27,1.62,23,23,0,0,1-8.36-1,18,18,0,0,1-3.86-1.79,12.72,12.72,0,0,1-3.17-2.86,12.31,12.31,0,0,1-2.66-7.87,11.07,11.07,0,0,1,.87-4.09,9.44,9.44,0,0,1,2.52-3.34,11.9,11.9,0,0,1,7.73-2.61,17.76,17.76,0,0,1,8,1.87,11.85,11.85,0,0,1,3.38,2.52,7.19,7.19,0,0,1,2,3.91,6,6,0,0,1-.17,2.31,3.94,3.94,0,0,1-1.41,2.09,4.39,4.39,0,0,1-2.4.8,7,7,0,0,1-2.38-.26Z" transform="translate(-257.8 -343.91)" fill="#231f20"/><path d="M501.2,691.16a2.51,2.51,0,1,1-2.51-2.51A2.51,2.51,0,0,1,501.2,691.16Z" transform="translate(-257.8 -343.91)" fill="#231f20"/><path d="M471.29,686.4a2.52,2.52,0,1,1-2.52-2.51A2.52,2.52,0,0,1,471.29,686.4Z" transform="translate(-257.8 -343.91)" fill="#231f20"/><path d="M510.09,693.68a7,7,0,0,1-2.38.26,4.39,4.39,0,0,1-2.4-.8,3.94,3.94,0,0,1-1.41-2.09,6,6,0,0,1-.17-2.31,7.19,7.19,0,0,1,2-3.91,11.85,11.85,0,0,1,3.38-2.52,17.76,17.76,0,0,1,8-1.87,11.9,11.9,0,0,1,7.73,2.61,9.44,9.44,0,0,1,2.52,3.34,11.07,11.07,0,0,1,.87,4.09,12.31,12.31,0,0,1-2.66,7.87,12.72,12.72,0,0,1-3.17,2.86,18,18,0,0,1-3.86,1.79,23,23,0,0,1-8.36,1,29.37,29.37,0,0,1-8.27-1.62,17.94,17.94,0,0,1-7.35-4.67,12.51,12.51,0,0,1-3.06-8.46,15.19,15.19,0,0,1,2.63-8.42,19.86,19.86,0,0,1,6.36-5.86,27.22,27.22,0,0,1,7.9-3.06,33.16,33.16,0,0,1,8.36-.6c1.37.12,2.76.18,4.11.42l2,.3,2,.39a158.45,158.45,0,0,1,15.67,4.2c5.15,1.56,10.25,3.25,15.42,4.61a66.41,66.41,0,0,0,7.81,1.61,57.08,57.08,0,0,0,7.94.4c.67,0,1.32-.08,2-.12s1.31-.12,2-.24a15.82,15.82,0,0,0,3.72-1,8.53,8.53,0,0,0,1.61-.86,3.83,3.83,0,0,0,1.08-1.18l.12-.3s0,0,0-.05a.22.22,0,0,1,0-.08,2.06,2.06,0,0,0-.27-.54,5.91,5.91,0,0,0-1.25-1.18,21,21,0,0,0-7-3,42.86,42.86,0,0,0-7.74-1.12,69.23,69.23,0,0,0-15.72,1.12,50.81,50.81,0,0,0-7.58,2,22.86,22.86,0,0,0-6.69,3.48,6.76,6.76,0,0,0-2.07,2.6,2.77,2.77,0,0,0-.19,1.34c0,.22.12.48.17.72a3,3,0,0,0,.32.64,3.58,3.58,0,0,0,2.49,1.55,4.66,4.66,0,0,0,1.62.06,2.57,2.57,0,0,0,1.12-.38l1.72,1.43a3.31,3.31,0,0,1-1.25.88,4.89,4.89,0,0,1-1.23.36,6.85,6.85,0,0,1-2.39,0,6.08,6.08,0,0,1-4.18-2.53,6.54,6.54,0,0,1-.6-1.14,9.37,9.37,0,0,1-.33-1.24,5.43,5.43,0,0,1,.29-2.61,9.42,9.42,0,0,1,2.8-3.72,24.25,24.25,0,0,1,7.49-4,52.33,52.33,0,0,1,8-2.06,63.23,63.23,0,0,1,16.38-1,41.92,41.92,0,0,1,8.14,1.48,29.76,29.76,0,0,1,3.92,1.44,18.26,18.26,0,0,1,3.67,2.17,7.42,7.42,0,0,1,1.59,1.66,3.53,3.53,0,0,1,.53,1.29c0,.14,0,.29,0,.43a3.54,3.54,0,0,1-.08.45c-.08.23-.18.41-.27.62a6.75,6.75,0,0,1-3.64,2.69,19,19,0,0,1-4.08,1c-.68.11-1.37.15-2.05.22s-1.37.08-2,.07a59.77,59.77,0,0,1-8.14-.45,66.76,66.76,0,0,1-8-1.57c-10.45-2.68-20.66-6.21-31.14-8l-2-.32-2-.23c-1.31-.19-2.61-.2-3.91-.28a30.65,30.65,0,0,0-7.67.77,24.24,24.24,0,0,0-7,2.94,17.07,17.07,0,0,0-5.33,5,12.55,12.55,0,0,0-2.07,6.76,9.48,9.48,0,0,0,2.29,6.37,15.63,15.63,0,0,0,6.06,4,27.67,27.67,0,0,0,3.65,1.15,28.87,28.87,0,0,0,3.78.7,21.86,21.86,0,0,0,7.61-.41,16,16,0,0,0,3.55-1.35,11,11,0,0,0,3-2.31,10.59,10.59,0,0,0,2.76-7,9.8,9.8,0,0,0-.69-3.76,8.28,8.28,0,0,0-2.24-3.09,10.92,10.92,0,0,0-7.22-2.4,16,16,0,0,0-7.52,2,10.27,10.27,0,0,0-3,2.4,5.92,5.92,0,0,0-1.42,3.27,4.71,4.71,0,0,0,.26,1.67,2.13,2.13,0,0,0,.89,1.12,2.56,2.56,0,0,0,1.41.28,4.87,4.87,0,0,0,1.59-.37Z" transform="translate(-257.8 -343.91)" fill="#231f20"/><path d="M506.8,691.16a2.51,2.51,0,1,0,2.51-2.51A2.51,2.51,0,0,0,506.8,691.16Z" transform="translate(-257.8 -343.91)" fill="#231f20"/><path d="M536.71,686.4a2.52,2.52,0,1,0,2.52-2.51A2.52,2.52,0,0,0,536.71,686.4Z" transform="translate(-257.8 -343.91)" fill="#231f20"/></g><path id="side_ornament" d="M348.47,609.61a23.8,23.8,0,0,1-14.23-14.08,16.73,16.73,0,0,1-.09-10.74,14.25,14.25,0,0,1,2.77-4.93,7.11,7.11,0,0,1,2.69-2,3.76,3.76,0,0,1,2.38-.11,3.61,3.61,0,0,1,2,1.6l.26.47a4.43,4.43,0,0,1,.15.43c.1.3.18.59.26.89a15.18,15.18,0,0,1,.17,1.61,13.8,13.8,0,0,1-.31,2.91,22.32,22.32,0,0,1-.77,2.72,26,26,0,0,1-1.15,2.52,23.74,23.74,0,0,1-7.24,8.25,27.22,27.22,0,0,1-10.1,4.26,33.87,33.87,0,0,1-5.39.56,24.58,24.58,0,0,1-5.46-.27,21.38,21.38,0,0,1-5.47-1.61,16.53,16.53,0,0,1-4.83-3.4,18.19,18.19,0,0,1-4.78-10.38,26.53,26.53,0,0,1,.91-10.91,23.61,23.61,0,0,1,2.18-5.13,13.57,13.57,0,0,1,1.83-2.41,12,12,0,0,1,2.43-1.87,14.27,14.27,0,0,1,5.54-1.77,15.42,15.42,0,0,1,5.69.38,11.16,11.16,0,0,1,2.79,1.16,6.82,6.82,0,0,1,2.42,2.34,5.17,5.17,0,0,1,.59,3.61,6.32,6.32,0,0,1-.53,1.59l-.18.36-.26.4a3.53,3.53,0,0,1-.61.73,5.36,5.36,0,0,1-3.13,1.45,10.51,10.51,0,0,1-2.92,0,26.39,26.39,0,0,1-5.16-1.35,74,74,0,0,1-9.31-4.23c-3-1.57-5.93-3.23-8.82-5l-4.29-2.59a24.13,24.13,0,0,0-4.38-1.92,30.23,30.23,0,0,0-9.5-1.58,17.94,17.94,0,0,0-9,2.18,10.41,10.41,0,0,0-3.25,3,9.73,9.73,0,0,0-1.61,4.07,9.62,9.62,0,0,0,2.65,8,7.21,7.21,0,0,0,3.54,2,9.19,9.19,0,0,0,4.23-.1,24.07,24.07,0,0,0,8.23-4.28c5.28-3.82,10-8.55,15.51-12.72a52.14,52.14,0,0,1,8.93-5.43,30.63,30.63,0,0,1,10.27-3,22.52,22.52,0,0,1,5.56.08A19.57,19.57,0,0,1,325,557a17.73,17.73,0,0,1,4.66,3.24,15.17,15.17,0,0,1,3.16,4.8,14.87,14.87,0,0,1,.05,10.94,19.3,19.3,0,0,1-1.13,2.44,21.12,21.12,0,0,1-1.55,2.16,15.81,15.81,0,0,1-3.9,3.37,19.36,19.36,0,0,0,4.17-8.66,13.63,13.63,0,0,0-1.1-8.69l-.53-.93c-.18-.3-.43-.57-.63-.86a14.17,14.17,0,0,0-1.42-1.58,15.54,15.54,0,0,0-7.8-3.64,18,18,0,0,0-4.46,0,28.72,28.72,0,0,0-8.89,2.65,47.35,47.35,0,0,0-8.24,4.92c-5.29,3.78-10.22,8.42-15.91,12.31a27.16,27.16,0,0,1-9.64,4.59,12.48,12.48,0,0,1-5.73-.08,10.36,10.36,0,0,1-5-3,12.34,12.34,0,0,1-2.79-4.92,12,12,0,0,1-.36-5.62,12.67,12.67,0,0,1,2.2-5.13,12.86,12.86,0,0,1,4.12-3.69,20.44,20.44,0,0,1,10.3-2.35A32.83,32.83,0,0,1,284.83,561a26.91,26.91,0,0,1,4.79,2.13l4.34,2.55c2.89,1.67,5.79,3.29,8.76,4.76a71.87,71.87,0,0,0,9.08,3.8,21.06,21.06,0,0,0,4.59,1c1.48.16,2.95-.07,3.41-.7.08,0,.12-.16.17-.24l.09-.13.08-.21a2.67,2.67,0,0,0,.23-.79,1.64,1.64,0,0,0-.26-1.22,5.09,5.09,0,0,0-3.11-1.69,11.51,11.51,0,0,0-8.19,1.34,7.86,7.86,0,0,0-1.49,1.24,9.84,9.84,0,0,0-1.13,1.64,18.86,18.86,0,0,0-1.55,4.17,23.22,23.22,0,0,0-.46,9,13.34,13.34,0,0,0,3.54,7.52,11.68,11.68,0,0,0,3.34,2.36,16,16,0,0,0,4.13,1.21,22,22,0,0,0,4.55.26,29.42,29.42,0,0,0,4.6-.36,22.65,22.65,0,0,0,8.35-3.29,19.68,19.68,0,0,0,6.16-6.45,22.12,22.12,0,0,0,1-2,16.42,16.42,0,0,0,.68-2.09,11,11,0,0,0,.35-2c0-.29,0-.63,0-.89s-.07-.51-.13-.58,0,0,.13,0,.09,0-.09,0a3.45,3.45,0,0,0-1.36.92,11.25,11.25,0,0,0-2.35,3.64,14,14,0,0,0-.62,9A24,24,0,0,0,348.47,609.61Z" transform="translate(-257.8 -343.91)" fill="#231f20"/><path id="side_ornament-2" data-name="side_ornament" d="M643.06,609.61a24,24,0,0,0,12-14.76,13.94,13.94,0,0,0-.62-9,11.25,11.25,0,0,0-2.35-3.64,3.45,3.45,0,0,0-1.36-.92c-.18-.06-.2,0-.09,0s.18-.09.13,0-.06.4-.13.58,0,.6,0,.89a11,11,0,0,0,.35,2,16.42,16.42,0,0,0,.68,2.09,22.12,22.12,0,0,0,1,2,19.68,19.68,0,0,0,6.16,6.45,22.65,22.65,0,0,0,8.35,3.29,29.42,29.42,0,0,0,4.6.36,22,22,0,0,0,4.55-.26,16,16,0,0,0,4.13-1.21,11.68,11.68,0,0,0,3.34-2.36,13.34,13.34,0,0,0,3.54-7.52,23.22,23.22,0,0,0-.46-9,18.38,18.38,0,0,0-1.55-4.17,9.84,9.84,0,0,0-1.13-1.64,7.86,7.86,0,0,0-1.49-1.24,11.51,11.51,0,0,0-8.19-1.34,5.09,5.09,0,0,0-3.11,1.69,1.64,1.64,0,0,0-.26,1.22,2.67,2.67,0,0,0,.23.79l.08.21.09.13c.05.08.09.19.17.24.46.63,1.93.86,3.41.7a21.06,21.06,0,0,0,4.59-1,71.26,71.26,0,0,0,9.08-3.8c3-1.47,5.87-3.09,8.76-4.76l4.34-2.55A26.91,26.91,0,0,1,706.7,561a32.83,32.83,0,0,1,10.23-1.73,20.44,20.44,0,0,1,10.3,2.35,12.86,12.86,0,0,1,4.12,3.69,12.67,12.67,0,0,1,2.2,5.13,12,12,0,0,1-.36,5.62A12.22,12.22,0,0,1,730.4,581a10.36,10.36,0,0,1-5,3,12.48,12.48,0,0,1-5.73.08,27.16,27.16,0,0,1-9.64-4.59c-5.69-3.89-10.62-8.53-15.9-12.31a47.8,47.8,0,0,0-8.25-4.92A28.72,28.72,0,0,0,677,559.6a18,18,0,0,0-4.46,0,15.54,15.54,0,0,0-7.8,3.64,14.17,14.17,0,0,0-1.42,1.58c-.2.29-.45.56-.63.86l-.53.93a13.63,13.63,0,0,0-1.1,8.69,19.28,19.28,0,0,0,4.18,8.66,15.68,15.68,0,0,1-3.91-3.37,21.12,21.12,0,0,1-1.55-2.16,19.3,19.3,0,0,1-1.13-2.44,14.87,14.87,0,0,1,.05-10.94,15.17,15.17,0,0,1,3.16-4.8,17.73,17.73,0,0,1,4.66-3.24,19.57,19.57,0,0,1,5.38-1.68,22.52,22.52,0,0,1,5.56-.08,30.56,30.56,0,0,1,10.27,3,52.14,52.14,0,0,1,8.93,5.43c5.49,4.17,10.23,8.9,15.51,12.72a24,24,0,0,0,8.24,4.28,9.15,9.15,0,0,0,4.22.1,7.21,7.21,0,0,0,3.54-2,9.62,9.62,0,0,0,2.65-8,9.73,9.73,0,0,0-1.61-4.07,10.41,10.41,0,0,0-3.25-3,17.94,17.94,0,0,0-9-2.18,30.23,30.23,0,0,0-9.5,1.58,24.13,24.13,0,0,0-4.38,1.92l-4.29,2.59c-2.89,1.73-5.82,3.39-8.82,5a73.34,73.34,0,0,1-9.31,4.23,26.47,26.47,0,0,1-5.15,1.35,10.57,10.57,0,0,1-2.93,0,5.36,5.36,0,0,1-3.13-1.45,3.53,3.53,0,0,1-.61-.73l-.26-.4-.17-.36a6,6,0,0,1-.54-1.59,5.17,5.17,0,0,1,.59-3.61,6.82,6.82,0,0,1,2.42-2.34,11.16,11.16,0,0,1,2.79-1.16,15.42,15.42,0,0,1,5.69-.38,14.27,14.27,0,0,1,5.54,1.77,12,12,0,0,1,2.43,1.87,13.57,13.57,0,0,1,1.83,2.41,23.13,23.13,0,0,1,2.18,5.13,26.36,26.36,0,0,1,.91,10.91,18.19,18.19,0,0,1-4.78,10.38,16.53,16.53,0,0,1-4.83,3.4,21.38,21.38,0,0,1-5.47,1.61,24.58,24.58,0,0,1-5.46.27,33.87,33.87,0,0,1-5.39-.56,27.1,27.1,0,0,1-10.09-4.26,23.67,23.67,0,0,1-7.25-8.25,26,26,0,0,1-1.15-2.52,20.63,20.63,0,0,1-.76-2.72,13.17,13.17,0,0,1-.32-2.91,15.18,15.18,0,0,1,.17-1.61c.08-.3.17-.59.26-.89a4.43,4.43,0,0,1,.15-.43l.26-.47a3.64,3.64,0,0,1,2-1.6,3.76,3.76,0,0,1,2.38.11,7.11,7.11,0,0,1,2.69,2,14.1,14.1,0,0,1,2.77,4.93,16.73,16.73,0,0,1-.09,10.74A23.8,23.8,0,0,1,643.06,609.61Z" transform="translate(-257.8 -343.91)" fill="#231f20"/><path d="M429.45,615.23c.41,0,.62.29.62.87a3,3,0,0,1-.32,1.44,5.51,5.51,0,0,1-.74,1,5,5,0,0,1-1.06.89,5.63,5.63,0,0,1-3.16,1,7,7,0,0,1-2.63-.4,4.61,4.61,0,0,1-1.69-1.22,6.76,6.76,0,0,1-1.52-4.7,31.2,31.2,0,0,1,1.23-7.81q1.23-4.62,2.37-7.9c.76-2.19,1.55-4.28,2.35-6.27l2.22-5.63q-3.64,3.27-9.23,13.76l-6,11.27q-4.77,8.91-6.81,8.9a2.73,2.73,0,0,1-2.74-1.72,16.63,16.63,0,0,1-.66-5.6,44.3,44.3,0,0,1,.63-7.58,71.69,71.69,0,0,1,1.59-7.1,85.27,85.27,0,0,1,4.33-12.15q-2.59,1.46-5.74,6.47c-1.61,2.67-2.74,4.63-3.39,5.86l-6.35,11.69q-4,7.2-6.38,8.9a6.4,6.4,0,0,1-3.76,1.23,2.84,2.84,0,0,1-2.49-1.08,1.51,1.51,0,0,1-.29-.81c0-.25.07-.39.22-.44a6.89,6.89,0,0,0,2.15-.88c.42-.3.84-.61,1.25-.93a12.15,12.15,0,0,0,1.79-2q1.19-1.56,2.56-3.76t2.88-4.93l3.13-5.76a59.44,59.44,0,0,1,9-13.41,15.72,15.72,0,0,1,3.3-2.78,9.14,9.14,0,0,1,3.76-1.55,5,5,0,0,1,1.1-.13,4.89,4.89,0,0,1,1.13.15,3.21,3.21,0,0,1,1.1.47,1.55,1.55,0,0,1,.64,2c-.14.49-.39,1.23-.77,2.21l-1.33,3.52a79.36,79.36,0,0,0-5.09,23.38q1.31-2.25,2.63-4.9l2.78-5.49,2.93-5.58q6.76-12.55,12.58-14.37a6.5,6.5,0,0,1,2-.4,3.15,3.15,0,0,1,1.28.21,3.24,3.24,0,0,1,.84.53,1.48,1.48,0,0,1,.59,1.61c-.18.55-.42,1.25-.71,2.11l-3.57,10.41-1.28,4.08a64.78,64.78,0,0,0-2.51,10.88,4.23,4.23,0,0,0,.36,2.49,1.54,1.54,0,0,0,1.39.9,5.68,5.68,0,0,0,1.39-.13,4.86,4.86,0,0,0,.87-.31l.64-.29A1,1,0,0,1,429.45,615.23Z" transform="translate(-257.8 -343.91)" fill="#231f20"/><path d="M456.89,615.35a.5.5,0,0,1,.57.57,4.27,4.27,0,0,1-2.12,3.59,6,6,0,0,1-3.35.93,3.54,3.54,0,0,1-2.41-.73,4.19,4.19,0,0,1-1.5-3.25c0-1.63.68-4.11,2-7.46q-3.78,5.12-5.31,6.81a27.6,27.6,0,0,1-2.66,2.62,7.36,7.36,0,0,1-4.45,2,3.92,3.92,0,0,1-4.06-2.63,5.34,5.34,0,0,1-.3-1.86,8.77,8.77,0,0,1,.36-2.33,24.67,24.67,0,0,1,.92-2.7q.57-1.39,1.23-2.88l1.33-2.95q2.56-5.69,1.9-6.74a3.19,3.19,0,0,0-1.11-.94.62.62,0,0,1-.3-.6A1.23,1.23,0,0,1,438,596a3.36,3.36,0,0,1,.92-.69,5.76,5.76,0,0,1,2.41-.56,4.89,4.89,0,0,1,1.84.26,3,3,0,0,1,1,.65,2.5,2.5,0,0,1,.81,1.8,8.91,8.91,0,0,1-.32,2.2q-.31,1.22-.84,2.64c-.34,1-.72,1.94-1.13,3-1.13,2.65-1.89,4.41-2.29,5.26l-.91,1.9a7.08,7.08,0,0,0-.76,2.38,1.63,1.63,0,0,0,.22,1,1,1,0,0,0,.8.28,2.42,2.42,0,0,0,1.34-.54,14,14,0,0,0,1.68-1.45c.6-.61,1.23-1.31,1.89-2.11s1.3-1.62,1.92-2.47a43.57,43.57,0,0,0,2.71-4q5.21-9.23,5.56-9.64a2.11,2.11,0,0,1,1.61-1.06,5.15,5.15,0,0,1,1.44.18,3.4,3.4,0,0,1,1.06.53q1,.76.66,1.53-6,12.53-6.47,15.75c-.08.74-.12,1.24-.12,1.52,0,1.25.37,1.87,1.13,1.87a3.54,3.54,0,0,0,1.75-.38A2.66,2.66,0,0,1,456.89,615.35Z" transform="translate(-257.8 -343.91)" fill="#231f20"/><path d="M461.91,619.61a3.25,3.25,0,0,1-.79-.83,1.86,1.86,0,0,1-.32-.78,2.23,2.23,0,0,1,.14-.82c.11-.32.25-.71.43-1.17q5-12.35,5-16.58a2,2,0,0,0-.81-1.67l-.49-.35a.73.73,0,0,1-.24-.6,1.27,1.27,0,0,1,.31-.83,2.93,2.93,0,0,1,.84-.69,4.61,4.61,0,0,1,2.17-.56,5.07,5.07,0,0,1,1.75.24,3.3,3.3,0,0,1,1.07.67,2.6,2.6,0,0,1,.95,1.87,8.49,8.49,0,0,1-.22,2c-.16.68-.34,1.34-.56,2s-.42,1.27-.64,1.85a11.34,11.34,0,0,0-.41,1.29,3.33,3.33,0,0,0-.15,1.08,2.1,2.1,0,0,0,.71-1l1-1.83c2.13-3.83,4.22-6.38,6.25-7.62a4.1,4.1,0,0,1,2.13-.52,2.55,2.55,0,0,1,2,.87,3.12,3.12,0,0,1,.8,1.93,6.44,6.44,0,0,1-.15,1.76,5.12,5.12,0,0,1-.55,1.32,2.33,2.33,0,0,1-2,1.38.94.94,0,0,1-.59-.22l-.55-.47a2.39,2.39,0,0,0-1.56-.71,3,3,0,0,0-1.82,1,18.93,18.93,0,0,0-2.23,2.53,47.53,47.53,0,0,0-6.35,11.52L466,618.48a7.51,7.51,0,0,1-.74,1.51,1.08,1.08,0,0,1-.94.45,3.5,3.5,0,0,1-1.26-.23A4.78,4.78,0,0,1,461.91,619.61Z" transform="translate(-257.8 -343.91)" fill="#231f20"/><path d="M501.36,613.65c0,1.51.53,2.27,1.6,2.27a4.23,4.23,0,0,0,1.83-.35,3,3,0,0,1,1-.34c.35,0,.52.18.52.54a4.4,4.4,0,0,1-2.21,3.64,5.19,5.19,0,0,1-4.78.79,4,4,0,0,1-2.36-2.44,4.83,4.83,0,0,1-.37-1.75,15.33,15.33,0,0,1,.25-2.7,13.69,13.69,0,0,1-5.69,6.44,6.24,6.24,0,0,1-2.88.69,5.29,5.29,0,0,1-2.64-.62,5.76,5.76,0,0,1-1.91-1.74,9.23,9.23,0,0,1-1.45-5.81,18.22,18.22,0,0,1,2.58-8.58,20,20,0,0,1,5.66-6.43,11,11,0,0,1,6.4-2.53,5.55,5.55,0,0,1,4.8,2.73q1.69-2.73,3-2.73a3.57,3.57,0,0,1,2.12.52c.9.65,1.22,1.23,1,1.72q-6.18,12.64-6.35,15.75A9,9,0,0,0,501.36,613.65Zm-13.66.1c0,2,.63,3,1.9,3q1.44,0,3.56-2.46a39.86,39.86,0,0,0,6.77-13.58,2.85,2.85,0,0,0-1.4-2.46,2.6,2.6,0,0,0-1.32-.27,4.36,4.36,0,0,0-2,.64,9.86,9.86,0,0,0-2.26,1.74,15.17,15.17,0,0,0-2.05,2.63,21,21,0,0,0-1.66,3.28A20.37,20.37,0,0,0,487.7,613.75Z" transform="translate(-257.8 -343.91)" fill="#231f20"/><path d="M510.86,619.21a4.85,4.85,0,0,1-1-1.63,6.6,6.6,0,0,1-.38-2.32,14.4,14.4,0,0,1,.6-3.53c.4-1.47.92-3.15,1.54-5l2.07-6.13q4.39-12.79,5.09-19.78c.15-1.38.82-2.07,2-2.07a3.09,3.09,0,0,1,1.87.54,2.92,2.92,0,0,1,1.38,2.41,19.39,19.39,0,0,1-.47,3.24c-.28,1.27-.64,2.66-1.08,4.16s-1,3.08-1.53,4.76l-3.39,10q-2.94,8.52-2.93,11c0,.89.36,1.33,1.08,1.33a4,4,0,0,0,1.88-.44,3.41,3.41,0,0,1,1.1-.45.45.45,0,0,1,.51.52,4.32,4.32,0,0,1-2.23,3.67,5.08,5.08,0,0,1-2.75,1,5.53,5.53,0,0,1-2-.29A3.82,3.82,0,0,1,510.86,619.21Z" transform="translate(-257.8 -343.91)" fill="#231f20"/><path d="M555.79,614.61a42.65,42.65,0,0,1,1.9-10.19c-4,.1-7,.22-9.08.35-.64,1.16-1.23,2.27-1.75,3.32l-1.53,3c-2,4-3.83,6.59-5.43,7.85a6.2,6.2,0,0,1-3.92,1.47,2.83,2.83,0,0,1-2.38-1,1.74,1.74,0,0,1-.35-.8c0-.25,0-.42.17-.5a10.67,10.67,0,0,0,4.61-3.23,34.66,34.66,0,0,0,3.1-4.75l2.78-5-1.55.22c-1,.18-1.48,0-1.48-.46a1.81,1.81,0,0,1,.89-1.41,8.5,8.5,0,0,1,3-1.52l1.06-.25a99,99,0,0,1,6.16-9.32A55.39,55.39,0,0,1,555.9,588a26.31,26.31,0,0,1,3.71-3.13,14.77,14.77,0,0,1,8.39-2.93,2.19,2.19,0,0,1,1.7.52,1.73,1.73,0,0,1,.46,1.73c-.18.62-.47,1.5-.88,2.65q-3.94,10.73-4.8,13.29l.71,0h.54c1.84,0,2.83.18,3,.54a2.89,2.89,0,0,1,0,.63,2.64,2.64,0,0,1-1.21,2.06,8.91,8.91,0,0,1-4.38,1,56.08,56.08,0,0,0-1.91,8,6.4,6.4,0,0,0,.15,3,1.19,1.19,0,0,0,1.08.77,4.09,4.09,0,0,0,1.15-.13,5.2,5.2,0,0,0,.79-.31l.63-.29a1,1,0,0,1,.51-.15.5.5,0,0,1,.43.33,2,2,0,0,1,.17.87,2.69,2.69,0,0,1-.45,1.3,5.22,5.22,0,0,1-1.2,1.34,6,6,0,0,1-3.88,1.37,4.29,4.29,0,0,1-4.43-3,5.11,5.11,0,0,1-.4-1.84Zm-4.92-13.73a77.79,77.79,0,0,1,8.12-.66c.46-1.41,1-2.81,1.48-4.19L562,592.1c.53-1.25,1-2.43,1.55-3.55l1.43-3q-5.12,1.32-10.11,8.83c-.71,1-1.4,2.13-2.07,3.25Z" transform="translate(-257.8 -343.91)" fill="#231f20"/><path d="M570.33,619.61a3.21,3.21,0,0,1-.78-.83,1.63,1.63,0,0,1-.32-.78,2.2,2.2,0,0,1,.13-.82c.11-.32.25-.71.43-1.17q5-12.35,5-16.58a2,2,0,0,0-.81-1.67l-.49-.35a.7.7,0,0,1-.23-.6,1.25,1.25,0,0,1,.3-.83,3.23,3.23,0,0,1,.84-.69,4.65,4.65,0,0,1,2.18-.56,5,5,0,0,1,1.74.24,3.46,3.46,0,0,1,1.08.67,2.63,2.63,0,0,1,.94,1.87,8,8,0,0,1-.22,2c-.15.68-.34,1.34-.55,2s-.43,1.27-.64,1.85a10,10,0,0,0-.42,1.29,3.67,3.67,0,0,0-.15,1.08,2.13,2.13,0,0,0,.72-1l1-1.83c2.13-3.83,4.21-6.38,6.25-7.62a4.09,4.09,0,0,1,2.12-.52,2.55,2.55,0,0,1,2,.87,3.06,3.06,0,0,1,.8,1.93,6.44,6.44,0,0,1-.15,1.76,5.12,5.12,0,0,1-.55,1.32,2.32,2.32,0,0,1-2,1.38,1,1,0,0,1-.59-.22l-.54-.47a2.39,2.39,0,0,0-1.56-.71,3,3,0,0,0-1.83,1,18.93,18.93,0,0,0-2.22,2.53,46.87,46.87,0,0,0-6.35,11.52l-1.08,2.86a8.1,8.1,0,0,1-.74,1.51,1.1,1.1,0,0,1-.95.45,3.41,3.41,0,0,1-1.25-.23A4.85,4.85,0,0,1,570.33,619.61Z" transform="translate(-257.8 -343.91)" fill="#231f20"/><path d="M605.11,613.75c.47,0,.71.32.71,1a2.87,2.87,0,0,1-.49,1.58,6.92,6.92,0,0,1-2.66,2.7,8.36,8.36,0,0,1-4.55,1.45c-2.64,0-4.32-1.18-5-3.54q-1.26-4.2,3.76-17.84c-1.88-.16-2.91-.49-3.07-1a1.51,1.51,0,0,1-.08-.48A1.11,1.11,0,0,1,594,597a3,3,0,0,1,.6-.66,2.72,2.72,0,0,1,1.75-.72h1.94c1.77-4.15,3-6.51,3.79-7.08a2,2,0,0,1,1.21-.4,2.91,2.91,0,0,1,1.1.18,2.23,2.23,0,0,1,.79.49,2.2,2.2,0,0,1,.79,1.65,2.73,2.73,0,0,1-.3,1.13l-1.82,4h.59l2.46,0,1.41,0,1.16,0c.47,0,.71.17.71.51q0,3.25-7.68,3.25h-.2l-1.67,4.33q-2.83,7.68-2.83,10.76a2.08,2.08,0,0,0,.39,1.34,1.85,1.85,0,0,0,1.48.48,5.2,5.2,0,0,0,2-.37,8.34,8.34,0,0,0,1.55-.83c.44-.3.82-.57,1.14-.82A1.44,1.44,0,0,1,605.11,613.75Z" transform="translate(-257.8 -343.91)" fill="#231f20"/></g><g id="Layer_4" data-name="Layer 4"><path d="M368.25,527.23c-1.32-.33-1.81-1.49-2-2.81-.16-2.14-5.28-36.14-5.28-36.14l-21,5.45-4.79,33H331l16.67-111.4.17-1.48a2.58,2.58,0,0,1,1.81-1.65L361,409.39l16.67,108.43,1.49,6.44ZM350.92,421.11l-10.23,68.32,19.64-5.11Z" transform="translate(-257.8 -343.91)" fill="#231f20"/><path d="M419.25,522.11a27.09,27.09,0,0,1-15.68,4.62h-18V411.21h12.21v35.48l3.64-.83c4.78-1.15,7.59-2,11.22-2,3.3,0,5.77,1,9.24,3.14,3,2,4.79,4,4.79,9.08v43.4c0,11.88,0,17.17-5.62,21.29V521a.16.16,0,0,0-.16.16Zm-4.95-71c0-4.46-2.64-4.13-7.59-2.81,0,0-6.11,1.65-8.92,2.31v72.62h6.28c4.78,0,10.23-.66,10.23-9.57Z" transform="translate(-257.8 -343.91)" fill="#231f20"/><path d="M437.9,526.73v-67.5l-4.29-11.55L444,445c1.48-.33,2.64.49,3,2.47v.17c4.95-3.14,7.75-4,11.22-4,4.62,0,7.76,1.32,16.17,7.43l2.31,1.65a3.39,3.39,0,0,1,1.82,3.13v10.89a2.2,2.2,0,0,1-1.49,2.31L469.75,471l-3.63-3.3V455.44c-.49-7.1-4.79-8.26-7.92-8.26s-7.43,1.16-7.92,8.09v66.35a2.49,2.49,0,0,1-2,2.47Z" transform="translate(-257.8 -343.91)" fill="#231f20"/><path d="M520.58,526.9c-1.48.49-2.64-.33-3-2.31,0-.33-.16-.66-.16-1l-1.49,1h-.16c-4,2.31-6.44,3-9.57,3s-5.61-.66-9.58-3h-.16c-1.49-1-8.75-5.94-8.75-5.94a4,4,0,0,1-1.81-3.14v-14c0-7.92,2.47-8.08,20-23.6,6.27-5.61,8.25-6.44,8.25-12.05V455.44c-.5-6.94-4.79-8.09-7.92-8.09s-7.43,1.15-7.93,8.09v12.37l-3.63,3.3-7.26-1.81a2.29,2.29,0,0,1-1.48-2.48V456.1a3.55,3.55,0,0,1,1.81-3.14l2.31-1.65c8.42-6.11,11.56-7.43,16.18-7.43s7.75,1.32,16.34,7.43l2.31,1.65a3.41,3.41,0,0,1,1.65,3.14v56.44L531,524.42Zm-6.43-50.5c-2.31,2-5.12,4.12-8.25,6.93-6.27,5.44-7.6,6.93-7.6,12.71v20c.5,6.93,4.79,8.25,7.93,8.25s7.42-1.32,7.92-8.25Z" transform="translate(-257.8 -343.91)" fill="#231f20"/><path d="M565,526.9l-13.53-33.84-13.7,33.67h-4.13l16-38.62L532.3,444.87h12.55l13,32.52,13.21-32.52h4.12L559.87,482.5l15.84,39.28a2.55,2.55,0,0,1-1.65,2.64Z" transform="translate(-257.8 -343.91)" fill="#231f20"/><path d="M615.32,526.9c-1.49.49-2.64-.33-3-2.31,0-.33-.17-.66-.17-1l-1.48,1h-.17c-4,2.31-6.43,3-9.57,3s-5.61-.66-9.57-3h-.17c-1.48-1-8.74-5.94-8.74-5.94a4,4,0,0,1-1.82-3.14v-14c0-7.92,2.48-8.08,20-23.6,6.27-5.61,8.25-6.44,8.25-12.05V455.44c-.49-6.94-4.78-8.09-7.92-8.09s-7.42,1.15-7.92,8.09v12.37l-3.63,3.3-7.26-1.81a2.3,2.3,0,0,1-1.49-2.48V456.1a3.54,3.54,0,0,1,1.82-3.14l2.31-1.65c8.42-6.11,11.55-7.43,16.17-7.43s7.76,1.32,16.34,7.43l2.31,1.65a3.39,3.39,0,0,1,1.65,3.14v56.44l4.46,11.88Zm-6.44-50.5c-2.31,2-5.11,4.12-8.25,6.93-6.27,5.44-7.59,6.93-7.59,12.71v20c.5,6.93,4.79,8.25,7.92,8.25s7.43-1.32,7.92-8.25Z" transform="translate(-257.8 -343.91)" fill="#231f20"/><path d="M668.79,520.3c-8.25,5.94-11.38,7.26-15.84,7.42-4.46-.16-7.59-1.48-15.84-7.42l-3.14-2a4.9,4.9,0,0,1-1.65-3.3V493.89a3.39,3.39,0,0,1,1.32-2.48l7.26-1.81,3.8,7.1v17.82c0,8.25,5.94,9.74,8.25,9.74s8.25-1.49,8.25-9.57V499.83a8.92,8.92,0,0,0-.82-3.46L633.14,446a8.35,8.35,0,0,1-.82-3.47V422.92a3.67,3.67,0,0,1,1.48-2.8s6-4.13,10.07-6.6c3.63-2.15,6.11-2.81,9.08-2.81,4.62,0,7.76,1.49,16.67,7.92l2.14,1.65a3.92,3.92,0,0,1,1.82,3.14v21.29a3,3,0,0,1-1.49,2.47L665,449l-3.8-6.93V423.75c0-8.25-5.94-9.57-8.25-9.57s-8.25,1.32-8.25,9.57v14.69a8.26,8.26,0,0,0,.82,3.46l27.23,50.34a8.81,8.81,0,0,1,.83,3.47v19.64a3.94,3.94,0,0,1-1.49,2.8Z" transform="translate(-257.8 -343.91)" fill="#231f20"/></g><g id="Layer_19" data-name="Layer 19"><path d="M368.25,521.23c-1.32-.33-1.81-1.49-2-2.81-.16-2.14-5.28-36.14-5.28-36.14l-21,5.45-4.79,33H331l16.67-111.4.17-1.48a2.58,2.58,0,0,1,1.81-1.65L361,403.39l16.67,108.43,1.49,6.44ZM350.92,415.11l-10.23,68.32,19.64-5.11Z" transform="translate(-257.8 -343.91)" fill="#fff"/><path d="M419.25,516.11a27.09,27.09,0,0,1-15.68,4.62h-18V405.21h12.21v35.48l3.64-.83c4.78-1.15,7.59-2,11.22-2,3.3,0,5.77,1,9.24,3.14,3,2,4.79,4,4.79,9.08v43.4c0,11.88,0,17.17-5.62,21.29V515a.16.16,0,0,0-.16.16Zm-4.95-71c0-4.46-2.64-4.13-7.59-2.81,0,0-6.11,1.65-8.92,2.31v72.62h6.28c4.78,0,10.23-.66,10.23-9.57Z" transform="translate(-257.8 -343.91)" fill="#fff"/><path d="M437.9,520.73v-67.5l-4.29-11.55L444,439c1.48-.33,2.64.49,3,2.47v.17c4.95-3.14,7.75-4,11.22-4,4.62,0,7.76,1.32,16.17,7.43l2.31,1.65a3.39,3.39,0,0,1,1.82,3.13v10.89a2.2,2.2,0,0,1-1.49,2.31L469.75,465l-3.63-3.3V449.44c-.49-7.1-4.79-8.26-7.92-8.26s-7.43,1.16-7.92,8.09v66.35a2.49,2.49,0,0,1-2,2.47Z" transform="translate(-257.8 -343.91)" fill="#fff"/><path d="M520.58,520.9c-1.48.49-2.64-.33-3-2.31,0-.33-.16-.66-.16-1l-1.49,1h-.16c-4,2.31-6.44,3-9.57,3s-5.61-.66-9.58-3h-.16c-1.49-1-8.75-5.94-8.75-5.94a4,4,0,0,1-1.81-3.14v-14c0-7.92,2.47-8.08,20-23.6,6.27-5.61,8.25-6.44,8.25-12.05V449.44c-.5-6.94-4.79-8.09-7.92-8.09s-7.43,1.15-7.93,8.09v12.37l-3.63,3.3-7.26-1.81a2.29,2.29,0,0,1-1.48-2.48V450.1a3.55,3.55,0,0,1,1.81-3.14l2.31-1.65c8.42-6.11,11.56-7.43,16.18-7.43s7.75,1.32,16.34,7.43l2.31,1.65a3.41,3.41,0,0,1,1.65,3.14v56.44L531,518.42Zm-6.43-50.5c-2.31,2-5.12,4.12-8.25,6.93-6.27,5.44-7.6,6.93-7.6,12.71v20c.5,6.93,4.79,8.25,7.93,8.25s7.42-1.32,7.92-8.25Z" transform="translate(-257.8 -343.91)" fill="#fff"/><path d="M565,520.9l-13.53-33.84-13.7,33.67h-4.13l16-38.62L532.3,438.87h12.55l13,32.52,13.21-32.52h4.12L559.87,476.5l15.84,39.28a2.55,2.55,0,0,1-1.65,2.64Z" transform="translate(-257.8 -343.91)" fill="#fff"/><path d="M615.32,520.9c-1.49.49-2.64-.33-3-2.31,0-.33-.17-.66-.17-1l-1.48,1h-.17c-4,2.31-6.43,3-9.57,3s-5.61-.66-9.57-3h-.17c-1.48-1-8.74-5.94-8.74-5.94a4,4,0,0,1-1.82-3.14v-14c0-7.92,2.48-8.08,20-23.6,6.27-5.61,8.25-6.44,8.25-12.05V449.44c-.49-6.94-4.78-8.09-7.92-8.09s-7.42,1.15-7.92,8.09v12.37l-3.63,3.3-7.26-1.81a2.3,2.3,0,0,1-1.49-2.48V450.1a3.54,3.54,0,0,1,1.82-3.14l2.31-1.65c8.42-6.11,11.55-7.43,16.17-7.43s7.76,1.32,16.34,7.43l2.31,1.65a3.39,3.39,0,0,1,1.65,3.14v56.44l4.46,11.88Zm-6.44-50.5c-2.31,2-5.11,4.12-8.25,6.93-6.27,5.44-7.59,6.93-7.59,12.71v20c.5,6.93,4.79,8.25,7.92,8.25s7.43-1.32,7.92-8.25Z" transform="translate(-257.8 -343.91)" fill="#fff"/><path d="M668.79,514.3c-8.25,5.94-11.38,7.26-15.84,7.42-4.46-.16-7.59-1.48-15.84-7.42l-3.14-2a4.9,4.9,0,0,1-1.65-3.3V487.89a3.39,3.39,0,0,1,1.32-2.48l7.26-1.81,3.8,7.1v17.82c0,8.25,5.94,9.74,8.25,9.74s8.25-1.49,8.25-9.57V493.83a8.92,8.92,0,0,0-.82-3.46L633.14,440a8.35,8.35,0,0,1-.82-3.47V416.92a3.67,3.67,0,0,1,1.48-2.8s6-4.13,10.07-6.6c3.63-2.15,6.11-2.81,9.08-2.81,4.62,0,7.76,1.49,16.67,7.92l2.14,1.65a3.92,3.92,0,0,1,1.82,3.14v21.29a3,3,0,0,1-1.49,2.47L665,443l-3.8-6.93V417.75c0-8.25-5.94-9.57-8.25-9.57s-8.25,1.32-8.25,9.57v14.69a8.26,8.26,0,0,0,.82,3.46l27.23,50.34a8.81,8.81,0,0,1,.83,3.47v19.64a3.94,3.94,0,0,1-1.49,2.8Z" transform="translate(-257.8 -343.91)" fill="#fff"/></g></svg>