<svg xmlns="http://www.w3.org/2000/svg" viewBox="0 0 636 588.07"><defs><style>.a{isolation:isolate;}.b{fill:#ee4f9c;mix-blend-mode:overlay;}</style></defs><title>heroAsset 3</title><g class="a"><path class="b" d="M635.9,558.05a.07.07,0,0,0,0,.05c.05,0,.07,0,.07-.05a0,0,0,0,0,0,0S635.9,558,635.9,558.05Z"/><path class="b" d="M608.9,504.05A.05.05,0,1,0,609,504,0,0,0,0,0,608.9,504.05Z"/><path class="b" d="M609,468a.05.05,0,1,0,0,.05A0,0,0,0,0,609,468Z"/><path class="b" d="M608.85,540.05a.1.1,0,0,0,.1.1.1.1,0,0,0,0-.2A.1.1,0,0,0,608.85,540.05Z"/><path class="b" d="M608.85,576.05a.1.1,0,0,0,.1.1.1.1,0,0,0,0-.2A.1.1,0,0,0,608.85,576.05Z"/><path class="b" d="M600,486.15a.09.09,0,0,0,.1-.1.1.1,0,1,0-.2,0A.09.09,0,0,0,600,486.15Z"/><path class="b" d="M600,450.05a.08.08,0,0,0,0-.05c-.06,0-.08,0-.08.05a0,0,0,0,0,.05.05S600,450.08,600,450.05Z"/><path class="b" d="M599.81,522.05a.15.15,0,0,0,.14.15.15.15,0,0,0,0-.3A.15.15,0,0,0,599.81,522.05Z"/><path class="b" d="M599.81,558.05a.15.15,0,0,0,.14.15.15.15,0,1,0,0-.3A.15.15,0,0,0,599.81,558.05Z"/><path class="b" d="M626.9,576.05a.05.05,0,1,0,.05,0A0,0,0,0,0,626.9,576.05Z"/><path class="b" d="M626.9,540.05a.05.05,0,1,0,.05,0A0,0,0,0,0,626.9,540.05Z"/><path class="b" d="M617.85,558.05a.11.11,0,0,0,.11.1.1.1,0,0,0,0-.2A.11.11,0,0,0,617.85,558.05Z"/><path class="b" d="M618,486a.05.05,0,1,0,0,.1.05.05,0,0,0,0-.1Z"/><path class="b" d="M617.9,522.05a.06.06,0,0,0,.06.05.05.05,0,0,0,0-.1A.06.06,0,0,0,617.9,522.05Z"/><path class="b" d="M537,396.2a.15.15,0,0,0,0-.3.15.15,0,0,0,0,.3Z"/><path class="b" d="M528,557.45a.6.6,0,1,0,.6.6A.6.6,0,0,0,528,557.45Z"/><path class="b" d="M519,360.2a.15.15,0,1,0-.15-.15A.15.15,0,0,0,519,360.2Z"/><path class="b" d="M519,324.05a0,0,0,0,0,0-.05s-.05,0-.05.05a.08.08,0,0,0,0,.05C519,324.1,519,324.08,519,324.05Z"/><path class="b" d="M519,575.4a.65.65,0,1,0,.65.65A.65.65,0,0,0,519,575.4Z"/><path class="b" d="M519,468.5a.45.45,0,0,0,0-.9.45.45,0,0,0,0,.9Z"/><path class="b" d="M519,396.3a.25.25,0,1,0-.25-.25A.25.25,0,0,0,519,396.3Z"/><path class="b" d="M519,432.4a.35.35,0,1,0,0-.7.35.35,0,0,0,0,.7Z"/><circle class="b" cx="518.95" cy="504.05" r="0.5"/><path class="b" d="M537,324.05a.08.08,0,0,0,0-.05c-.06,0-.08,0-.08.05a0,0,0,0,0,.05.05S537,324.08,537,324.05Z"/><path class="b" d="M536.5,540.05a.45.45,0,1,0,.45-.45A.45.45,0,0,0,536.5,540.05Z"/><path class="b" d="M537,360.15a.09.09,0,0,0,.1-.1.1.1,0,1,0-.2,0A.09.09,0,0,0,537,360.15Z"/><path class="b" d="M537,432.3a.25.25,0,1,0-.25-.25A.25.25,0,0,0,537,432.3Z"/><path class="b" d="M537,468.35a.3.3,0,1,0-.29-.3A.29.29,0,0,0,537,468.35Z"/><path class="b" d="M537,503.65a.4.4,0,1,0,.4.4A.4.4,0,0,0,537,503.65Z"/><path class="b" d="M528,522.6a.55.55,0,0,0,0-1.1.55.55,0,0,0,0,1.1Z"/><path class="b" d="M528,378.25a.2.2,0,1,0-.2-.2A.2.2,0,0,0,528,378.25Z"/><path class="b" d="M528,306.05a.08.08,0,0,0,0-.05c-.05,0-.07,0-.07.05a0,0,0,0,0,0,.05S528,306.08,528,306.05Z"/><path class="b" d="M528,414.3a.25.25,0,0,0,0-.5.25.25,0,0,0,0,.5Z"/><path class="b" d="M528,342.15a.1.1,0,0,0,0-.2.1.1,0,0,0,0,.2Z"/><path class="b" d="M528,450.4a.35.35,0,1,0-.35-.35A.35.35,0,0,0,528,450.4Z"/><path class="b" d="M528,486.5a.45.45,0,0,0,0-.9.45.45,0,0,0,0,.9Z"/><circle class="b" cx="536.95" cy="576.05" r="0.5"/><path class="b" d="M492,270.05a0,0,0,0,0,0-.05.05.05,0,1,0,0,.1A0,0,0,0,0,492,270.05Z"/><path class="b" d="M501,575.25a.8.8,0,1,0,.8.8A.8.8,0,0,0,501,575.25Z"/><path class="b" d="M492,306.2a.15.15,0,1,0,0-.3.15.15,0,1,0,0,.3Z"/><path class="b" d="M492,342.3a.25.25,0,0,0,0-.5.25.25,0,1,0,0,.5Z"/><path class="b" d="M501,540.8a.75.75,0,1,0-.74-.75A.75.75,0,0,0,501,540.8Z"/><path class="b" d="M492,378.4a.35.35,0,0,0,0-.7.35.35,0,1,0,0,.7Z"/><path class="b" d="M492,486.8a.75.75,0,0,0,0-1.5.75.75,0,1,0,0,1.5Z"/><path class="b" d="M491.46,414.05a.5.5,0,1,0,.5-.5A.49.49,0,0,0,491.46,414.05Z"/><path class="b" d="M492,449.45a.6.6,0,1,0,.59.6A.6.6,0,0,0,492,449.45Z"/><path class="b" d="M492,522.9a.85.85,0,1,0-.86-.85A.85.85,0,0,0,492,522.9Z"/><path class="b" d="M509.55,414.05a.4.4,0,1,0,.4-.4A.4.4,0,0,0,509.55,414.05Z"/><path class="b" d="M510,486.65a.6.6,0,1,0-.6-.6A.6.6,0,0,0,510,486.65Z"/><circle class="b" cx="509.95" cy="450.05" r="0.5"/><circle class="b" cx="509.95" cy="522.05" r="0.7"/><path class="b" d="M510,306.15a.1.1,0,0,0,0-.2.1.1,0,0,0,0,.2Z"/><path class="b" d="M510,378.3a.25.25,0,0,0,0-.5.25.25,0,0,0,0,.5Z"/><circle class="b" cx="509.95" cy="342.05" r="0.2"/><path class="b" d="M510,270.05A0,0,0,0,0,510,270s-.05,0-.05.05a.07.07,0,0,0,0,.05C510,270.1,510,270.08,510,270.05Z"/><path class="b" d="M501,468.6a.55.55,0,0,0,0-1.1.55.55,0,0,0,0,1.1Z"/><path class="b" d="M500.6,396.05a.35.35,0,1,0,.35-.35A.35.35,0,0,0,500.6,396.05Z"/><path class="b" d="M501,360.25a.2.2,0,1,0-.2-.2A.2.2,0,0,0,501,360.25Z"/><path class="b" d="M501,432.5a.45.45,0,0,0,0-.9.45.45,0,0,0,0,.9Z"/><path class="b" d="M501,504.7a.65.65,0,1,0-.65-.65A.65.65,0,0,0,501,504.7Z"/><path class="b" d="M501,288.05a.05.05,0,1,0-.05.05A0,0,0,0,0,501,288.05Z"/><path class="b" d="M510,557.3a.75.75,0,1,0,.75.75A.76.76,0,0,0,510,557.3Z"/><path class="b" d="M501,324.15a.1.1,0,0,0,0-.2.1.1,0,0,0,0,.2Z"/><path class="b" d="M519,540.65a.6.6,0,1,0-.59-.6A.6.6,0,0,0,519,540.65Z"/><path class="b" d="M582,486.2a.15.15,0,1,0-.15-.15A.15.15,0,0,0,582,486.2Z"/><path class="b" d="M582,414.05a0,0,0,0,0,0-.05s-.05,0-.05.05a.08.08,0,0,0,0,.05C582,414.1,582,414.08,582,414.05Z"/><path class="b" d="M582,522.25a.2.2,0,1,0,0-.4.2.2,0,1,0,0,.4Z"/><path class="b" d="M582,450.15a.1.1,0,1,0-.1-.1A.1.1,0,0,0,582,450.15Z"/><path class="b" d="M581.7,558.05a.25.25,0,1,0,.25-.25A.25.25,0,0,0,581.7,558.05Z"/><path class="b" d="M572.7,540.05a.25.25,0,0,0,.25.25.25.25,0,0,0,0-.5A.25.25,0,0,0,572.7,540.05Z"/><path class="b" d="M573,504.25a.2.2,0,0,0,0-.4.2.2,0,0,0,0,.4Z"/><path class="b" d="M572.7,576.05a.25.25,0,0,0,.25.25.25.25,0,0,0,0-.5A.25.25,0,0,0,572.7,576.05Z"/><path class="b" d="M573,468.2a.15.15,0,1,0,0-.3.15.15,0,0,0,0,.3Z"/><path class="b" d="M573,396.05a0,0,0,0,0,0-.05s-.05,0-.05.05a.07.07,0,0,0,0,.05C573,396.1,573,396.08,573,396.05Z"/><path class="b" d="M573,432.15a.1.1,0,0,0,0-.2.1.1,0,0,0,0,.2Z"/><path class="b" d="M591,468.1s0,0,0-.05a.08.08,0,0,0,0-.05c-.05,0-.07,0-.07.05A0,0,0,0,0,591,468.1Z"/><path class="b" d="M591,432.05a.08.08,0,0,0,0-.05c-.05,0-.07,0-.07.05a0,0,0,0,0,0,.05S591,432.08,591,432.05Z"/><path class="b" d="M591,540.2a.15.15,0,1,0,0-.3.15.15,0,1,0,0,.3Z"/><path class="b" d="M591,504.15a.1.1,0,0,0,0-.2.1.1,0,0,0,0,.2Z"/><path class="b" d="M590.75,576.05a.2.2,0,1,0,.2-.2A.2.2,0,0,0,590.75,576.05Z"/><path class="b" d="M555,540.4a.35.35,0,0,0,0-.7.35.35,0,1,0,0,.7Z"/><path class="b" d="M555,504.3a.25.25,0,0,0,0-.5.25.25,0,1,0,0,.5Z"/><path class="b" d="M555,575.65a.4.4,0,1,0,0,.8.4.4,0,0,0,0-.8Z"/><path class="b" d="M546,450.3a.25.25,0,1,0,0-.5.25.25,0,0,0,0,.5Z"/><path class="b" d="M546,557.55a.5.5,0,0,0,0,1,.5.5,0,0,0,0-1Z"/><path class="b" d="M546,378.15a.1.1,0,0,0,0-.2.1.1,0,0,0,0,.2Z"/><path class="b" d="M555,468.25a.2.2,0,0,0,0-.4.2.2,0,1,0,0,.4Z"/><path class="b" d="M546,342.05a0,0,0,1,0,0,.05A0,0,0,0,0,546,342.05Z"/><path class="b" d="M546,414.25a.2.2,0,1,0-.2-.2A.2.2,0,0,0,546,414.25Z"/><path class="b" d="M546,486.4a.35.35,0,1,0-.35-.35A.35.35,0,0,0,546,486.4Z"/><path class="b" d="M546,522.5a.45.45,0,0,0,0-.9.45.45,0,0,0,0,.9Z"/><path class="b" d="M564,486.3a.25.25,0,0,0,0-.5.25.25,0,0,0,0,.5Z"/><path class="b" d="M564,414.15a.1.1,0,0,0,0-.2.1.1,0,0,0,0,.2Z"/><path class="b" d="M564,450.25a.2.2,0,1,0-.2-.2A.2.2,0,0,0,564,450.25Z"/><path class="b" d="M564,522.35a.3.3,0,0,0,0-.6.3.3,0,0,0,0,.6Z"/><path class="b" d="M564,378.05a0,0,0,1,0,0,.05A0,0,0,0,0,564,378.05Z"/><path class="b" d="M555,432.2a.15.15,0,0,0,0-.3.15.15,0,1,0,0,.3Z"/><path class="b" d="M555,360.05a0,0,0,0,0,0-.05.05.05,0,1,0,0,.1A0,0,0,0,0,555,360.05Z"/><path class="b" d="M555,396.15a.1.1,0,0,0,0-.2.1.1,0,1,0,0,.2Z"/><path class="b" d="M564,557.7a.35.35,0,1,0,.35.35A.35.35,0,0,0,564,557.7Z"/><path class="b" d="M186.15,90.05a.2.2,0,1,0-.2.2A.2.2,0,0,0,186.15,90.05Z"/><path class="b" d="M96,90.5a.45.45,0,1,0-.45-.45A.45.45,0,0,0,96,90.5Z"/><path class="b" d="M87,327.2a3.15,3.15,0,1,0-3.14-3.15A3.15,3.15,0,0,0,87,327.2Z"/><path class="b" d="M60,199.65a1.6,1.6,0,1,0-1.59-1.6A1.6,1.6,0,0,0,60,199.65Z"/><path class="b" d="M87,400.34a4.29,4.29,0,1,0-4.29-4.29A4.29,4.29,0,0,0,87,400.34Z"/><circle class="b" cx="86.95" cy="252.05" r="2.15"/><path class="b" d="M96,18.05A.08.08,0,0,0,96,18c-.06,0-.08,0-.08.05a0,0,0,0,0,0,.05S96,18.08,96,18.05Z"/><path class="b" d="M87,363.74a3.69,3.69,0,1,0-3.69-3.69A3.69,3.69,0,0,0,87,363.74Z"/><path class="b" d="M87.05,36.05A.09.09,0,0,0,87,36a.1.1,0,0,0,0,.2A.09.09,0,0,0,87.05,36.05Z"/><path class="b" d="M87,72.35a.3.3,0,0,0,.3-.3.29.29,0,0,0-.3-.3.3.3,0,0,0-.3.3A.31.31,0,0,0,87,72.35Z"/><path class="b" d="M87,108.6a.55.55,0,0,0,0-1.1.55.55,0,0,0,0,1.1Z"/><path class="b" d="M87,144.9a.85.85,0,0,0,0-1.7.85.85,0,0,0,0,1.7Z"/><path class="b" d="M87,217.75a1.7,1.7,0,1,0-1.69-1.7A1.7,1.7,0,0,0,87,217.75Z"/><path class="b" d="M87,181.3a1.25,1.25,0,1,0-1.25-1.25A1.25,1.25,0,0,0,87,181.3Z"/><path class="b" d="M96,382.09a4,4,0,1,0-4-4A4.05,4.05,0,0,0,96,382.09Z"/><path class="b" d="M105.21,72.05a.26.26,0,0,0-.26-.25.25.25,0,0,0,0,.5A.26.26,0,0,0,105.21,72.05Z"/><path class="b" d="M105.05,36.05a.09.09,0,0,0-.1-.1.1.1,0,0,0,0,.2A.09.09,0,0,0,105.05,36.05Z"/><path class="b" d="M96,418.59a4.54,4.54,0,1,0-4.54-4.54A4.55,4.55,0,0,0,96,418.59Z"/><path class="b" d="M105,181.2a1.15,1.15,0,1,0-1.15-1.15A1.15,1.15,0,0,0,105,181.2Z"/><path class="b" d="M78,409.26a4.79,4.79,0,1,0,4.79,4.79A4.78,4.78,0,0,0,78,409.26Z"/><path class="b" d="M105,144.85a.8.8,0,1,0-.8-.8A.8.8,0,0,0,105,144.85Z"/><path class="b" d="M105,108.55a.5.5,0,0,0,0-1,.5.5,0,0,0,0,1Z"/><path class="b" d="M96,163.1a1,1,0,1,0-1-1A1,1,0,0,0,96,163.1Z"/><path class="b" d="M96,199.5a1.45,1.45,0,1,0-1.44-1.45A1.45,1.45,0,0,0,96,199.5Z"/><path class="b" d="M96,236a1.9,1.9,0,1,0-1.89-1.9A1.9,1.9,0,0,0,96,236Z"/><path class="b" d="M96,345.5a3.45,3.45,0,1,0-3.44-3.45A3.44,3.44,0,0,0,96,345.5Z"/><path class="b" d="M96,126.75a.7.7,0,0,0,0-1.4.7.7,0,0,0,0,1.4Z"/><path class="b" d="M96,309a2.9,2.9,0,1,0-2.89-2.9A2.9,2.9,0,0,0,96,309Z"/><path class="b" d="M96,272.4a2.35,2.35,0,1,0-2.35-2.35A2.35,2.35,0,0,0,96,272.4Z"/><path class="b" d="M60,382.39a4.34,4.34,0,1,0-4.34-4.34A4.34,4.34,0,0,0,60,382.39Z"/><path class="b" d="M69,108.65a.6.6,0,1,0-.6-.6A.6.6,0,0,0,69,108.65Z"/><path class="b" d="M69,145a.95.95,0,1,0-1-.95A1,1,0,0,0,69,145Z"/><path class="b" d="M69.1,36.05A.15.15,0,0,0,69,35.9a.15.15,0,0,0,0,.3A.15.15,0,0,0,69.1,36.05Z"/><path class="b" d="M69,254.3a2.25,2.25,0,1,0-2.24-2.25A2.25,2.25,0,0,0,69,254.3Z"/><path class="b" d="M69,181.4a1.35,1.35,0,1,0-1.34-1.35A1.35,1.35,0,0,0,69,181.4Z"/><path class="b" d="M69,72.4a.35.35,0,1,0-.34-.35A.35.35,0,0,0,69,72.4Z"/><path class="b" d="M69,217.8a1.75,1.75,0,1,0-1.75-1.75A1.75,1.75,0,0,0,69,217.8Z"/><path class="b" d="M60,345.74a3.69,3.69,0,1,0-3.69-3.69A3.69,3.69,0,0,0,60,345.74Z"/><path class="b" d="M60,272.6a2.55,2.55,0,1,0-2.54-2.55A2.55,2.55,0,0,0,60,272.6Z"/><path class="b" d="M60,236.1a2.05,2.05,0,1,0-2-2A2,2,0,0,0,60,236.1Z"/><path class="b" d="M60,309.14a3.09,3.09,0,1,0-3.1-3.09A3.09,3.09,0,0,0,60,309.14Z"/><path class="b" d="M69,290.8a2.75,2.75,0,1,0-2.74-2.75A2.75,2.75,0,0,0,69,290.8Z"/><path class="b" d="M60,409.11a4.94,4.94,0,1,0,4.94,4.94A4.94,4.94,0,0,0,60,409.11Z"/><path class="b" d="M105,217.6a1.55,1.55,0,1,0-1.54-1.55A1.55,1.55,0,0,0,105,217.6Z"/><path class="b" d="M78,90.5a.45.45,0,0,0,0-.9.45.45,0,0,0,0,.9Z"/><path class="b" d="M78,236.05a2,2,0,1,0-2-2A2,2,0,0,0,78,236.05Z"/><circle class="b" cx="77.95" cy="270.05" r="2.5"/><path class="b" d="M78,199.6a1.55,1.55,0,1,0-1.54-1.55A1.56,1.56,0,0,0,78,199.6Z"/><path class="b" d="M78,163.15a1.1,1.1,0,1,0-1.09-1.1A1.1,1.1,0,0,0,78,163.15Z"/><path class="b" d="M78,309.1a3.05,3.05,0,1,0-3-3.05A3.06,3.06,0,0,0,78,309.1Z"/><path class="b" d="M69,327.34a3.29,3.29,0,1,0-3.29-3.29A3.29,3.29,0,0,0,69,327.34Z"/><path class="b" d="M78,345.59a3.54,3.54,0,1,0-3.54-3.54A3.54,3.54,0,0,0,78,345.59Z"/><path class="b" d="M78.16,54.05a.21.21,0,0,0-.21-.2.2.2,0,0,0,0,.4A.21.21,0,0,0,78.16,54.05Z"/><path class="b" d="M69,400.49a4.44,4.44,0,1,0-4.44-4.44A4.44,4.44,0,0,0,69,400.49Z"/><path class="b" d="M78,126.8a.75.75,0,1,0-.74-.75A.75.75,0,0,0,78,126.8Z"/><path class="b" d="M69,363.89a3.84,3.84,0,1,0-3.84-3.84A3.85,3.85,0,0,0,69,363.89Z"/><path class="b" d="M78,382.24a4.19,4.19,0,1,0-4.19-4.19A4.2,4.2,0,0,0,78,382.24Z"/><path class="b" d="M78,18.05A0,0,0,0,0,78,18s0,0,0,.05a.08.08,0,0,0,0,.05C78,18.1,78,18.08,78,18.05Z"/><path class="b" d="M87,290.65a2.6,2.6,0,1,0-2.59-2.6A2.6,2.6,0,0,0,87,290.65Z"/><path class="b" d="M132,345.14a3.1,3.1,0,1,0-3.09-3.09A3.09,3.09,0,0,0,132,345.14Z"/><path class="b" d="M132,308.65a2.6,2.6,0,1,0-2.59-2.6A2.6,2.6,0,0,0,132,308.65Z"/><circle class="b" cx="131.95" cy="270.05" r="2.15"/><path class="b" d="M123,436.49a4.44,4.44,0,1,0-4.44-4.44A4.44,4.44,0,0,0,123,436.49Z"/><path class="b" d="M132,445.31a4.74,4.74,0,1,0,4.74,4.74A4.74,4.74,0,0,0,132,445.31Z"/><path class="b" d="M132,418.24a4.19,4.19,0,1,0-4.19-4.19A4.19,4.19,0,0,0,132,418.24Z"/><path class="b" d="M132,235.75a1.7,1.7,0,1,0-1.7-1.7A1.7,1.7,0,0,0,132,235.75Z"/><path class="b" d="M132,163a.95.95,0,1,0-.95-.95A1,1,0,0,0,132,163Z"/><path class="b" d="M132,90.4a.35.35,0,1,0-.34-.35A.35.35,0,0,0,132,90.4Z"/><path class="b" d="M132,18.05A0,0,0,0,0,132,18s0,0,0,.05a.07.07,0,0,0,0,.05S132,18.08,132,18.05Z"/><path class="b" d="M132.1,54.05a.15.15,0,0,0-.15-.15.15.15,0,0,0,0,.3A.15.15,0,0,0,132.1,54.05Z"/><path class="b" d="M132,199.35a1.3,1.3,0,1,0-1.29-1.3A1.3,1.3,0,0,0,132,199.35Z"/><path class="b" d="M141.16,72.05a.21.21,0,0,0-.21-.2.2.2,0,1,0,0,.4A.21.21,0,0,0,141.16,72.05Z"/><path class="b" d="M132,126.65a.6.6,0,1,0-.6-.6A.6.6,0,0,0,132,126.65Z"/><path class="b" d="M132,381.69a3.64,3.64,0,1,0-3.64-3.64A3.65,3.65,0,0,0,132,381.69Z"/><path class="b" d="M141,326.8a2.75,2.75,0,1,0-2.74-2.75A2.75,2.75,0,0,0,141,326.8Z"/><path class="b" d="M141,399.74a3.69,3.69,0,1,0-3.69-3.69A3.7,3.7,0,0,0,141,399.74Z"/><path class="b" d="M141,363.24a3.2,3.2,0,1,0-3.19-3.19A3.2,3.2,0,0,0,141,363.24Z"/><path class="b" d="M141,436.29a4.24,4.24,0,1,0-4.24-4.24A4.25,4.25,0,0,0,141,436.29Z"/><path class="b" d="M141,463.31a4.74,4.74,0,1,0,4.74,4.74A4.74,4.74,0,0,0,141,463.31Z"/><path class="b" d="M150,90.35a.3.3,0,0,0,0-.6.3.3,0,0,0,0,.6Z"/><path class="b" d="M141,108.5a.45.45,0,1,0,0-.9.45.45,0,0,0,0,.9Z"/><path class="b" d="M141,290.3a2.25,2.25,0,1,0-2.24-2.25A2.25,2.25,0,0,0,141,290.3Z"/><path class="b" d="M141,36.05a0,0,0,0,0-.05,0s0,0,0,0a.08.08,0,0,0,0,.05C141,36.1,141,36.08,141,36.05Z"/><path class="b" d="M141,181.1a1,1,0,1,0-1-1A1,1,0,0,0,141,181.1Z"/><path class="b" d="M141,144.75a.7.7,0,1,0-.7-.7A.7.7,0,0,0,141,144.75Z"/><path class="b" d="M141,253.9a1.85,1.85,0,1,0-1.85-1.85A1.85,1.85,0,0,0,141,253.9Z"/><path class="b" d="M141,217.45a1.4,1.4,0,1,0-1.39-1.4A1.4,1.4,0,0,0,141,217.45Z"/><path class="b" d="M123.05,36.05a.09.09,0,0,0-.1-.1.1.1,0,0,0,0,.2A.09.09,0,0,0,123.05,36.05Z"/><path class="b" d="M114,126.7a.65.65,0,1,0-.65-.65A.65.65,0,0,0,114,126.7Z"/><path class="b" d="M114,18.05a0,0,0,0,0,0-.05.05.05,0,1,0,0,.1A0,0,0,0,0,114,18.05Z"/><path class="b" d="M114,308.79a2.74,2.74,0,1,0-2.75-2.74A2.74,2.74,0,0,0,114,308.79Z"/><path class="b" d="M114,90.45a.4.4,0,0,0,0-.8.4.4,0,1,0,0,.8Z"/><path class="b" d="M114,272.3a2.25,2.25,0,1,0-2.25-2.25A2.25,2.25,0,0,0,114,272.3Z"/><path class="b" d="M114,199.4a1.35,1.35,0,1,0-1.36-1.35A1.35,1.35,0,0,0,114,199.4Z"/><path class="b" d="M114,235.85a1.8,1.8,0,1,0-1.8-1.8A1.8,1.8,0,0,0,114,235.85Z"/><path class="b" d="M123,399.94a3.89,3.89,0,1,0-3.89-3.89A3.9,3.9,0,0,0,123,399.94Z"/><path class="b" d="M105,327.09a3,3,0,1,0-3-3A3,3,0,0,0,105,327.09Z"/><path class="b" d="M114.15,54.05a.2.2,0,0,0-.19-.2.2.2,0,1,0,0,.4A.2.2,0,0,0,114.15,54.05Z"/><path class="b" d="M105,290.6a2.55,2.55,0,1,0-2.54-2.55A2.55,2.55,0,0,0,105,290.6Z"/><path class="b" d="M105,363.59a3.54,3.54,0,1,0-3.54-3.54A3.53,3.53,0,0,0,105,363.59Z"/><path class="b" d="M105,427.36a4.69,4.69,0,1,0,4.69,4.69A4.69,4.69,0,0,0,105,427.36Z"/><path class="b" d="M105,400.19a4.14,4.14,0,1,0-4.14-4.14A4.14,4.14,0,0,0,105,400.19Z"/><path class="b" d="M114,163.05a1,1,0,1,0-1-1A1,1,0,0,0,114,163.05Z"/><path class="b" d="M123,254a1.9,1.9,0,1,0-1.89-1.9A1.9,1.9,0,0,0,123,254Z"/><path class="b" d="M123,181.15a1.1,1.1,0,1,0-1.09-1.1A1.1,1.1,0,0,0,123,181.15Z"/><path class="b" d="M123,290.45a2.4,2.4,0,1,0-2.39-2.4A2.4,2.4,0,0,0,123,290.45Z"/><path class="b" d="M114,345.34a3.29,3.29,0,1,0-3.3-3.29A3.29,3.29,0,0,0,114,345.34Z"/><path class="b" d="M123,327a2.9,2.9,0,1,0-2.89-2.9A2.9,2.9,0,0,0,123,327Z"/><path class="b" d="M123,363.44a3.39,3.39,0,1,0-3.39-3.39A3.4,3.4,0,0,0,123,363.44Z"/><path class="b" d="M123,217.55a1.5,1.5,0,1,0-1.5-1.5A1.5,1.5,0,0,0,123,217.55Z"/><path class="b" d="M123,144.8a.75.75,0,1,0-.74-.75A.75.75,0,0,0,123,144.8Z"/><path class="b" d="M114,418.44a4.39,4.39,0,1,0-4.4-4.39A4.38,4.38,0,0,0,114,418.44Z"/><path class="b" d="M114,381.84a3.79,3.79,0,1,0-3.8-3.79A3.79,3.79,0,0,0,114,381.84Z"/><path class="b" d="M123.2,72.05a.25.25,0,0,0-.25-.25.25.25,0,0,0,0,.5A.25.25,0,0,0,123.2,72.05Z"/><path class="b" d="M105,254.1a2.05,2.05,0,1,0-2-2A2.05,2.05,0,0,0,105,254.1Z"/><path class="b" d="M123,108.5a.45.45,0,0,0,0-.9.45.45,0,0,0,0,.9Z"/><path class="b" d="M240,453.34a3.29,3.29,0,1,0-3.3-3.29A3.29,3.29,0,0,0,240,453.34Z"/><path class="b" d="M6,54.35a.3.3,0,0,0,0-.6.3.3,0,0,0,0,.6Z"/><path class="b" d="M231,398.79a2.75,2.75,0,1,0-2.75-2.74A2.74,2.74,0,0,0,231,398.79Z"/><path class="b" d="M231,471.5a3.45,3.45,0,1,0-3.44-3.45A3.46,3.46,0,0,0,231,471.5Z"/><path class="b" d="M231,507.84a3.79,3.79,0,1,0-3.79-3.79A3.8,3.8,0,0,0,231,507.84Z"/><path class="b" d="M231,362.4a2.35,2.35,0,1,0-2.34-2.35A2.35,2.35,0,0,0,231,362.4Z"/><path class="b" d="M231,571.71a4.34,4.34,0,1,0,4.34,4.34A4.34,4.34,0,0,0,231,571.71Z"/><path class="b" d="M231,544.19a4.14,4.14,0,1,0-4.14-4.14A4.14,4.14,0,0,0,231,544.19Z"/><path class="b" d="M231,435.14a3.09,3.09,0,1,0-3.09-3.09A3.09,3.09,0,0,0,231,435.14Z"/><path class="b" d="M231,217a.95.95,0,1,0-.95-.95A.95.95,0,0,0,231,217Z"/><path class="b" d="M231,180.7a.65.65,0,1,0-.65-.65A.65.65,0,0,0,231,180.7Z"/><path class="b" d="M231,144.45a.4.4,0,0,0,0-.8.4.4,0,0,0,0,.8Z"/><path class="b" d="M231,289.65a1.6,1.6,0,1,0-1.6-1.6A1.6,1.6,0,0,0,231,289.65Z"/><path class="b" d="M231,253.3a1.25,1.25,0,1,0-1.25-1.25A1.25,1.25,0,0,0,231,253.3Z"/><path class="b" d="M231,326.05a2,2,0,1,0-2-2A2,2,0,0,0,231,326.05Z"/><path class="b" d="M6,127a1,1,0,1,0-1-1A1,1,0,0,0,6,127Z"/><path class="b" d="M6,373.31a4.74,4.74,0,1,0,4.74,4.74A4.74,4.74,0,0,0,6,373.31Z"/><path class="b" d="M6,346.09a4,4,0,1,0-4-4A4,4,0,0,0,6,346.09Z"/><path class="b" d="M15.16,36.05a.21.21,0,0,0-.21-.2.2.2,0,0,0,0,.4A.21.21,0,0,0,15.16,36.05Z"/><path class="b" d="M6,309.44a3.39,3.39,0,1,0-3.39-3.39A3.39,3.39,0,0,0,6,309.44Z"/><path class="b" d="M15,.05A0,0,0,0,0,15,0s0,0,0,.05a.08.08,0,0,0,0,.05C15,.1,15,.08,15,.05Z"/><path class="b" d="M15,108.75a.7.7,0,1,0-.7-.7A.7.7,0,0,0,15,108.75Z"/><path class="b" d="M15,72.5a.45.45,0,0,0,0-.9.45.45,0,0,0,0,.9Z"/><path class="b" d="M6,236.3a2.25,2.25,0,1,0-2.24-2.25A2.25,2.25,0,0,0,6,236.3Z"/><path class="b" d="M6,163.35a1.3,1.3,0,1,0-1.29-1.3A1.3,1.3,0,0,0,6,163.35Z"/><path class="b" d="M231,72.05a.05.05,0,1,0-.05,0A0,0,0,0,0,231,72.05Z"/><path class="b" d="M6,90.65a.6.6,0,1,0-.6-.6A.6.6,0,0,0,6,90.65Z"/><path class="b" d="M6,199.8a1.75,1.75,0,1,0-1.75-1.75A1.75,1.75,0,0,0,6,199.8Z"/><circle class="b" cx="5.95" cy="270.05" r="2.8"/><path class="b" d="M6.05,18.05A.1.1,0,0,0,6,18a.1.1,0,0,0,0,.2A.1.1,0,0,0,6.05,18.05Z"/><path class="b" d="M249,216.9a.85.85,0,1,0-.85-.85A.85.85,0,0,0,249,216.9Z"/><path class="b" d="M249,471.25a3.2,3.2,0,1,0-3.19-3.2A3.2,3.2,0,0,0,249,471.25Z"/><path class="b" d="M60,163.2a1.15,1.15,0,1,0-1.15-1.15A1.15,1.15,0,0,0,60,163.2Z"/><path class="b" d="M249,398.6a2.55,2.55,0,1,0-2.54-2.55A2.55,2.55,0,0,0,249,398.6Z"/><path class="b" d="M249,543.84a3.79,3.79,0,1,0-3.79-3.79A3.8,3.8,0,0,0,249,543.84Z"/><path class="b" d="M249,572a4,4,0,1,0,4.05,4A4,4,0,0,0,249,572Z"/><path class="b" d="M249,362.25a2.2,2.2,0,1,0-2.19-2.2A2.2,2.2,0,0,0,249,362.25Z"/><path class="b" d="M249,507.59a3.54,3.54,0,1,0-3.54-3.54A3.54,3.54,0,0,0,249,507.59Z"/><path class="b" d="M249,144.4a.35.35,0,1,0-.35-.35A.35.35,0,0,0,249,144.4Z"/><path class="b" d="M249,325.9a1.85,1.85,0,1,0-1.84-1.85A1.85,1.85,0,0,0,249,325.9Z"/><path class="b" d="M249,180.6a.55.55,0,0,0,0-1.1.55.55,0,0,0,0,1.1Z"/><path class="b" d="M240,126.35a.29.29,0,0,0,.29-.3.3.3,0,0,0-.29-.3.3.3,0,0,0-.31.3A.3.3,0,0,0,240,126.35Z"/><path class="b" d="M15,145.1a1,1,0,1,0-1-1A1,1,0,0,0,15,145.1Z"/><path class="b" d="M249,289.5a1.45,1.45,0,1,0-1.45-1.45A1.45,1.45,0,0,0,249,289.5Z"/><path class="b" d="M249,72.05a.05.05,0,1,0-.05,0A0,0,0,0,0,249,72.05Z"/><path class="b" d="M240,235.1a1.05,1.05,0,1,0-1.06-1A1,1,0,0,0,240,235.1Z"/><path class="b" d="M150.05,54.05a.1.1,0,0,0-.1-.1.1.1,0,1,0,0,.2A.1.1,0,0,0,150.05,54.05Z"/><path class="b" d="M240,417a2.95,2.95,0,1,0-3-2.95A2.94,2.94,0,0,0,240,417Z"/><path class="b" d="M240,380.6a2.55,2.55,0,1,0-2.55-2.55A2.55,2.55,0,0,0,240,380.6Z"/><path class="b" d="M240,489.69a3.64,3.64,0,1,0-3.65-3.64A3.65,3.65,0,0,0,240,489.69Z"/><path class="b" d="M240,526a4,4,0,1,0-4-4A4,4,0,0,0,240,526Z"/><path class="b" d="M240,553.81a4.24,4.24,0,1,0,4.23,4.24A4.24,4.24,0,0,0,240,553.81Z"/><path class="b" d="M240,307.85a1.8,1.8,0,1,0-1.8-1.8A1.8,1.8,0,0,0,240,307.85Z"/><path class="b" d="M240,198.85a.8.8,0,1,0-.8-.8A.8.8,0,0,0,240,198.85Z"/><path class="b" d="M240,162.55a.5.5,0,1,0-.5-.5A.49.49,0,0,0,240,162.55Z"/><path class="b" d="M231.15,108.05a.2.2,0,1,0-.2.2A.2.2,0,0,0,231.15,108.05Z"/><path class="b" d="M240,271.5a1.45,1.45,0,1,0-1.45-1.45A1.45,1.45,0,0,0,240,271.5Z"/><circle class="b" cx="239.96" cy="342.05" r="2.15"/><path class="b" d="M240.05,90.05A.1.1,0,0,0,240,90a.1.1,0,1,0,0,.2A.1.1,0,0,0,240.05,90.05Z"/><path class="b" d="M249,435a2.9,2.9,0,1,0-2.89-2.9A2.9,2.9,0,0,0,249,435Z"/><path class="b" d="M42,345.84a3.79,3.79,0,1,0-3.79-3.79A3.8,3.8,0,0,0,42,345.84Z"/><path class="b" d="M42,236.2a2.15,2.15,0,1,0-2.14-2.15A2.16,2.16,0,0,0,42,236.2Z"/><path class="b" d="M42,272.7a2.65,2.65,0,1,0-2.64-2.65A2.65,2.65,0,0,0,42,272.7Z"/><path class="b" d="M15,181.55a1.5,1.5,0,1,0-1.5-1.5A1.5,1.5,0,0,0,15,181.55Z"/><path class="b" d="M42,382.49a4.44,4.44,0,1,0-4.44-4.44A4.44,4.44,0,0,0,42,382.49Z"/><path class="b" d="M51,.05a0,0,0,0,0,0,0,.06.06,0,0,0-.06.05A.06.06,0,0,0,51,.1,0,0,0,0,0,51,.05Z"/><path class="b" d="M51.11,36.05A.15.15,0,0,0,51,35.9a.15.15,0,1,0,0,.3A.15.15,0,0,0,51.11,36.05Z"/><path class="b" d="M51,72.4a.35.35,0,0,0,0-.7.35.35,0,1,0,0,.7Z"/><path class="b" d="M33,391.26a4.79,4.79,0,1,0,4.79,4.79A4.78,4.78,0,0,0,33,391.26Z"/><path class="b" d="M42.21,54.05A.26.26,0,0,0,42,53.8a.25.25,0,0,0,0,.5A.26.26,0,0,0,42.21,54.05Z"/><path class="b" d="M42,90.6a.55.55,0,0,0,0-1.1.55.55,0,0,0,0,1.1Z"/><path class="b" d="M42,126.9a.85.85,0,1,0-.85-.85A.85.85,0,0,0,42,126.9Z"/><path class="b" d="M42,199.7a1.65,1.65,0,1,0-1.65-1.65A1.65,1.65,0,0,0,42,199.7Z"/><path class="b" d="M42,163.3a1.25,1.25,0,1,0-1.25-1.25A1.25,1.25,0,0,0,42,163.3Z"/><path class="b" d="M42.05,18.05A.1.1,0,0,0,42,18a.1.1,0,0,0,0,.2A.1.1,0,0,0,42.05,18.05Z"/><path class="b" d="M60.2,54.05A.25.25,0,0,0,60,53.8a.25.25,0,0,0,0,.5A.25.25,0,0,0,60.2,54.05Z"/><path class="b" d="M51,108.7a.65.65,0,1,0-.65-.65A.65.65,0,0,0,51,108.7Z"/><path class="b" d="M60.05,18.05A.1.1,0,0,0,60,18a.1.1,0,0,0,0,.2A.1.1,0,0,0,60.05,18.05Z"/><path class="b" d="M60,126.85a.8.8,0,1,0-.8-.8A.8.8,0,0,0,60,126.85Z"/><path class="b" d="M51,364.09a4,4,0,1,0-4.05-4A4,4,0,0,0,51,364.09Z"/><path class="b" d="M60,90.55a.5.5,0,1,0-.5-.5A.5.5,0,0,0,60,90.55Z"/><circle class="b" cx="50.96" cy="396.05" r="4.64"/><path class="b" d="M51,181.4a1.35,1.35,0,1,0-1.36-1.35A1.35,1.35,0,0,0,51,181.4Z"/><path class="b" d="M51,217.9a1.85,1.85,0,1,0-1.86-1.85A1.85,1.85,0,0,0,51,217.9Z"/><path class="b" d="M51,145.05a1,1,0,1,0-1-1A1,1,0,0,0,51,145.05Z"/><path class="b" d="M51,290.89a2.84,2.84,0,1,0-2.86-2.84A2.84,2.84,0,0,0,51,290.89Z"/><path class="b" d="M51,254.35a2.3,2.3,0,1,0-2.3-2.3A2.3,2.3,0,0,0,51,254.35Z"/><path class="b" d="M51,327.44a3.4,3.4,0,1,0-3.4-3.39A3.39,3.39,0,0,0,51,327.44Z"/><path class="b" d="M42,309.24a3.19,3.19,0,1,0-3.19-3.19A3.19,3.19,0,0,0,42,309.24Z"/><path class="b" d="M24,272.79a2.75,2.75,0,1,0-2.74-2.74A2.73,2.73,0,0,0,24,272.79Z"/><path class="b" d="M24,54.35a.3.3,0,0,0,0-.6.3.3,0,0,0,0,.6Z"/><path class="b" d="M24,127a.9.9,0,1,0-.9-.9A.9.9,0,0,0,24,127Z"/><path class="b" d="M24.05,18.05A.1.1,0,0,0,24,18a.1.1,0,0,0,0,.2A.1.1,0,0,0,24.05,18.05Z"/><path class="b" d="M24,163.3a1.25,1.25,0,1,0-1.25-1.25A1.25,1.25,0,0,0,24,163.3Z"/><path class="b" d="M24,236.25a2.2,2.2,0,1,0-2.19-2.2A2.21,2.21,0,0,0,24,236.25Z"/><path class="b" d="M24,199.75a1.7,1.7,0,1,0-1.69-1.7A1.7,1.7,0,0,0,24,199.75Z"/><path class="b" d="M24,90.6a.55.55,0,1,0,0-1.1.55.55,0,0,0,0,1.1Z"/><path class="b" d="M15,291.09a3,3,0,1,0-3-3A3,3,0,0,0,15,291.09Z"/><path class="b" d="M15,254.55a2.5,2.5,0,1,0-2.49-2.5A2.5,2.5,0,0,0,15,254.55Z"/><path class="b" d="M15,218A2,2,0,1,0,13,216.05,2,2,0,0,0,15,218Z"/><path class="b" d="M15,327.64a3.59,3.59,0,1,0-3.59-3.59A3.6,3.6,0,0,0,15,327.64Z"/><path class="b" d="M15,391.16a4.89,4.89,0,1,0,4.89,4.89A4.89,4.89,0,0,0,15,391.16Z"/><path class="b" d="M15,364.29a4.24,4.24,0,1,0-4.24-4.24A4.25,4.25,0,0,0,15,364.29Z"/><path class="b" d="M33,145.05a1,1,0,1,0-1-1A1,1,0,0,0,33,145.05Z"/><path class="b" d="M33,217.9a1.85,1.85,0,1,0-1.85-1.85A1.85,1.85,0,0,0,33,217.9Z"/><path class="b" d="M33,364.19a4.14,4.14,0,1,0-4.14-4.14A4.14,4.14,0,0,0,33,364.19Z"/><path class="b" d="M33,254.45a2.4,2.4,0,1,0-2.39-2.4A2.4,2.4,0,0,0,33,254.45Z"/><path class="b" d="M33,181.5a1.45,1.45,0,1,0-1.44-1.45A1.45,1.45,0,0,0,33,181.5Z"/><path class="b" d="M33,291A3,3,0,1,0,30,288.05,2.95,2.95,0,0,0,33,291Z"/><path class="b" d="M33,327.54a3.49,3.49,0,1,0-3.49-3.49A3.5,3.5,0,0,0,33,327.54Z"/><path class="b" d="M33,72.45a.4.4,0,1,0-.4-.4A.4.4,0,0,0,33,72.45Z"/><path class="b" d="M24,382.59a4.54,4.54,0,1,0-4.54-4.54A4.54,4.54,0,0,0,24,382.59Z"/><path class="b" d="M24,345.94a3.89,3.89,0,1,0-3.89-3.89A3.89,3.89,0,0,0,24,345.94Z"/><path class="b" d="M33.15,36.05a.19.19,0,0,0-.2-.2.2.2,0,0,0,0,.4A.19.19,0,0,0,33.15,36.05Z"/><circle class="b" cx="23.95" cy="306.05" r="3.29"/><path class="b" d="M33,.05a.08.08,0,0,0,0,0c-.06,0-.08,0-.08.05A0,0,0,0,0,33,.1S33,.08,33,.05Z"/><path class="b" d="M33,108.75a.7.7,0,1,0-.7-.7A.7.7,0,0,0,33,108.75Z"/><path class="b" d="M249,253.2a1.15,1.15,0,1,0-1.15-1.15A1.15,1.15,0,0,0,249,253.2Z"/><path class="b" d="M177,545.09a5,5,0,1,0-5.05-5A5,5,0,0,0,177,545.09Z"/><path class="b" d="M87,462.56a5.49,5.49,0,1,0,5.49,5.49A5.49,5.49,0,0,0,87,462.56Z"/><path class="b" d="M114,491.54a5.49,5.49,0,1,0-5.5-5.49A5.49,5.49,0,0,0,114,491.54Z"/><path class="b" d="M105,462.86a5.19,5.19,0,1,0,5.19,5.19A5.19,5.19,0,0,0,105,462.86Z"/><path class="b" d="M78,444.66a5.39,5.39,0,1,0,5.39,5.39A5.39,5.39,0,0,0,78,444.66Z"/><path class="b" d="M60,444.41a5.64,5.64,0,1,0,5.64,5.64A5.64,5.64,0,0,0,60,444.41Z"/><circle class="b" cx="68.95" cy="432.05" r="5.09"/><path class="b" d="M128.89,540.05A5.94,5.94,0,1,0,123,546,5.94,5.94,0,0,0,128.89,540.05Z"/><path class="b" d="M51,426.81a5.24,5.24,0,1,0,5.23,5.24A5.24,5.24,0,0,0,51,426.81Z"/><path class="b" d="M114,564.49a6.44,6.44,0,1,0-6.44-6.44A6.43,6.43,0,0,0,114,564.49Z"/><path class="b" d="M132,527.74a5.69,5.69,0,1,0-5.69-5.69A5.69,5.69,0,0,0,132,527.74Z"/><path class="b" d="M132,480.81a5.24,5.24,0,1,0,5.24,5.24A5.25,5.25,0,0,0,132,480.81Z"/><path class="b" d="M105,569.41a6.64,6.64,0,1,0,6.64,6.64A6.64,6.64,0,0,0,105,569.41Z"/><path class="b" d="M123,463.11a4.94,4.94,0,1,0,4.94,4.94A4.94,4.94,0,0,0,123,463.11Z"/><path class="b" d="M146.15,504.05a5.2,5.2,0,1,0-5.2,5.19A5.19,5.19,0,0,0,146.15,504.05Z"/><circle class="b" cx="149.95" cy="522.05" r="5.44"/><path class="b" d="M146.59,540.05a5.64,5.64,0,1,0-5.64,5.64A5.64,5.64,0,0,0,146.59,540.05Z"/><path class="b" d="M132,564.14a6.09,6.09,0,1,0-6.09-6.09A6.09,6.09,0,0,0,132,564.14Z"/><path class="b" d="M164.24,540.05a5.29,5.29,0,1,0-5.29,5.29A5.29,5.29,0,0,0,164.24,540.05Z"/><path class="b" d="M159,508.94a4.89,4.89,0,1,0-4.89-4.89A4.88,4.88,0,0,0,159,508.94Z"/><path class="b" d="M168,527.19a5.14,5.14,0,1,0-5.14-5.14A5.14,5.14,0,0,0,168,527.19Z"/><path class="b" d="M123,569.76a6.29,6.29,0,1,0,6.29,6.29A6.29,6.29,0,0,0,123,569.76Z"/><path class="b" d="M110.71,588.07h6.49a6.55,6.55,0,0,0-6.49,0Z"/><path class="b" d="M24,408.81a5.24,5.24,0,1,0,5.25,5.24A5.24,5.24,0,0,0,24,408.81Z"/><path class="b" d="M15,437.69a5.64,5.64,0,1,0-5.64-5.64A5.63,5.63,0,0,0,15,437.69Z"/><path class="b" d="M42,408.91a5.14,5.14,0,1,0,5.14,5.14A5.14,5.14,0,0,0,42,408.91Z"/><path class="b" d="M33,426.61a5.44,5.44,0,1,0,5.44,5.44A5.45,5.45,0,0,0,33,426.61Z"/><path class="b" d="M2,396.05A5,5,0,0,0,0,392v8.1A5,5,0,0,0,2,396.05Z"/><path class="b" d="M6,408.61a5.44,5.44,0,1,0,5.45,5.44A5.44,5.44,0,0,0,6,408.61Z"/><path class="b" d="M96,444.86a5.19,5.19,0,1,0,5.19,5.19A5.19,5.19,0,0,0,96,444.86Z"/><path class="b" d="M6,492.94A6.89,6.89,0,1,0,0,482.64v6.82A6.87,6.87,0,0,0,6,492.94Z"/><path class="b" d="M7.92,504.05a7,7,0,1,0,7-7A7,7,0,0,0,7.92,504.05Z"/><path class="b" d="M3.44,468.05A6.45,6.45,0,0,0,0,462.36v11.38A6.45,6.45,0,0,0,3.44,468.05Z"/><path class="b" d="M17.26,486.05A6.69,6.69,0,1,0,24,479.36,6.69,6.69,0,0,0,17.26,486.05Z"/><path class="b" d="M96,564.79a6.74,6.74,0,1,0-6.73-6.74A6.74,6.74,0,0,0,96,564.79Z"/><path class="b" d="M87,569a7,7,0,1,0,7,7A7,7,0,0,0,87,569Z"/><path class="b" d="M73.42,588.07h9.07a7.37,7.37,0,0,0-9.07,0Z"/><path class="b" d="M92.08,588.07h7.75a7.05,7.05,0,0,0-7.75,0Z"/><path class="b" d="M60,528.94a6.89,6.89,0,1,0-6.89-6.89A6.89,6.89,0,0,0,60,528.94Z"/><path class="b" d="M75.24,504.05A6.29,6.29,0,1,0,69,510.34,6.29,6.29,0,0,0,75.24,504.05Z"/><path class="b" d="M111.19,540.05a6.24,6.24,0,1,0-6.24,6.24A6.24,6.24,0,0,0,111.19,540.05Z"/><path class="b" d="M39.79,504.05A6.84,6.84,0,1,0,33,510.89,6.84,6.84,0,0,0,39.79,504.05Z"/><path class="b" d="M42,492.54a6.49,6.49,0,1,0-6.49-6.49A6.5,6.5,0,0,0,42,492.54Z"/><path class="b" d="M57.49,504.05A6.54,6.54,0,1,0,51,510.59,6.54,6.54,0,0,0,57.49,504.05Z"/><path class="b" d="M78,528.59a6.54,6.54,0,1,0-6.53-6.54A6.54,6.54,0,0,0,78,528.59Z"/><path class="b" d="M18,450.05a6,6,0,1,0,6-6A6,6,0,0,0,18,450.05Z"/><path class="b" d="M33,462A6.09,6.09,0,1,0,39,468.05,6.09,6.09,0,0,0,33,462Z"/><path class="b" d="M8.61,468.05A6.34,6.34,0,1,0,15,461.71,6.34,6.34,0,0,0,8.61,468.05Z"/><path class="b" d="M42,444.26a5.79,5.79,0,1,0,5.79,5.79A5.79,5.79,0,0,0,42,444.26Z"/><path class="b" d="M6,456.24A6.19,6.19,0,1,0,0,448.44v3.22A6.19,6.19,0,0,0,6,456.24Z"/><path class="b" d="M2.74,432.05A5.77,5.77,0,0,0,0,427.15V437A5.77,5.77,0,0,0,2.74,432.05Z"/><path class="b" d="M110.69,504.05a5.74,5.74,0,1,0-5.74,5.74A5.74,5.74,0,0,0,110.69,504.05Z"/><path class="b" d="M93,504.05a6,6,0,1,0-6,6A6,6,0,0,0,93,504.05Z"/><path class="b" d="M45,468.05a5.95,5.95,0,1,0,6-5.94A5.94,5.94,0,0,0,45,468.05Z"/><path class="b" d="M90.21,486.05A5.74,5.74,0,1,0,96,480.31,5.74,5.74,0,0,0,90.21,486.05Z"/><path class="b" d="M78,480.06a6,6,0,1,0,6,6A6,6,0,0,0,78,480.06Z"/><path class="b" d="M60,479.81a6.24,6.24,0,1,0,6.24,6.24A6.25,6.25,0,0,0,60,479.81Z"/><path class="b" d="M63.26,468.05A5.69,5.69,0,1,0,69,462.36,5.69,5.69,0,0,0,63.26,468.05Z"/><path class="b" d="M222,162.65a.6.6,0,1,0-.6-.6A.6.6,0,0,0,222,162.65Z"/><path class="b" d="M222,344.35a2.3,2.3,0,1,0-2.29-2.3A2.3,2.3,0,0,0,222,344.35Z"/><path class="b" d="M222,380.8a2.75,2.75,0,1,0-2.74-2.75A2.75,2.75,0,0,0,222,380.8Z"/><path class="b" d="M222,308a2,2,0,1,0-1.94-1.95A2,2,0,0,0,222,308Z"/><path class="b" d="M222,271.6a1.55,1.55,0,1,0-1.55-1.55A1.56,1.56,0,0,0,222,271.6Z"/><path class="b" d="M222,489.94a3.89,3.89,0,1,0-3.89-3.89A3.9,3.9,0,0,0,222,489.94Z"/><path class="b" d="M222,453.59a3.54,3.54,0,1,0-3.54-3.54A3.54,3.54,0,0,0,222,453.59Z"/><path class="b" d="M222,417.14a3.09,3.09,0,1,0-3.09-3.09A3.09,3.09,0,0,0,222,417.14Z"/><path class="b" d="M222.1,90.05a.15.15,0,0,0-.15-.15.15.15,0,0,0,0,.3A.15.15,0,0,0,222.1,90.05Z"/><path class="b" d="M222,126.4a.35.35,0,1,0,0-.7.35.35,0,0,0,0,.7Z"/><path class="b" d="M222,54.05a.08.08,0,0,0,0,0c-.06,0-.08,0-.08,0a0,0,0,0,0,0,.05S222,54.08,222,54.05Z"/><path class="b" d="M222,526.29a4.24,4.24,0,1,0-4.24-4.24A4.24,4.24,0,0,0,222,526.29Z"/><path class="b" d="M78,565.14a7.09,7.09,0,1,0-7.09-7.09A7.09,7.09,0,0,0,78,565.14Z"/><path class="b" d="M222,235.25a1.2,1.2,0,1,0-1.2-1.2A1.2,1.2,0,0,0,222,235.25Z"/><path class="b" d="M222,198.9a.85.85,0,1,0-.85-.85A.85.85,0,0,0,222,198.9Z"/><path class="b" d="M0,287.83v.44a1.74,1.74,0,0,0,.05-.22A1.74,1.74,0,0,0,0,287.83Z"/><path class="b" d="M222,553.56a4.49,4.49,0,1,0,4.5,4.49A4.49,4.49,0,0,0,222,553.56Z"/><path class="b" d="M148.9,588.07H151A6.25,6.25,0,0,0,150,588,6,6,0,0,0,148.9,588.07Z"/><path class="b" d="M114,445.11a4.94,4.94,0,1,0,4.93,4.94A4.94,4.94,0,0,0,114,445.11Z"/><circle class="b" cx="176.96" cy="576.05" r="5.29"/><path class="b" d="M173.44,558.05a5.49,5.49,0,1,0-5.49,5.49A5.49,5.49,0,0,0,173.44,558.05Z"/><path class="b" d="M159,570.41a5.64,5.64,0,1,0,5.65,5.64A5.65,5.65,0,0,0,159,570.41Z"/><path class="b" d="M195,571.11a4.94,4.94,0,1,0,5,4.94A4.94,4.94,0,0,0,195,571.11Z"/><path class="b" d="M204,553.21a4.84,4.84,0,1,0,4.85,4.84A4.84,4.84,0,0,0,204,553.21Z"/><circle class="b" cx="149.95" cy="558.05" r="5.79"/><path class="b" d="M186,552.91a5.14,5.14,0,1,0,5.14,5.14A5.14,5.14,0,0,0,186,552.91Z"/><path class="b" d="M87,427.16a4.89,4.89,0,1,0,4.89,4.89A4.89,4.89,0,0,0,87,427.16Z"/><path class="b" d="M141,570.06a6,6,0,1,0,6,6A6,6,0,0,0,141,570.06Z"/><path class="b" d="M150,481.11a4.94,4.94,0,1,0,5,4.94A4.94,4.94,0,0,0,150,481.11Z"/><path class="b" d="M0,357v6.17a4.32,4.32,0,0,0,1.29-3.09A4.28,4.28,0,0,0,0,357Z"/><path class="b" d="M213.2,108.05a.25.25,0,0,0-.25-.25.25.25,0,0,0,0,.5A.25.25,0,0,0,213.2,108.05Z"/><path class="b" d="M0,322.09V326a3.51,3.51,0,0,0,.65-2A3.51,3.51,0,0,0,0,322.09Z"/><path class="b" d="M129.61,588.07h4.69a6.35,6.35,0,0,0-2.35-.46A6.26,6.26,0,0,0,129.61,588.07Z"/><path class="b" d="M213,362.6a2.55,2.55,0,1,0-2.55-2.55A2.55,2.55,0,0,0,213,362.6Z"/><path class="b" d="M213,435.39a3.34,3.34,0,1,0-3.34-3.34A3.34,3.34,0,0,0,213,435.39Z"/><path class="b" d="M213,471.74a3.69,3.69,0,1,0-3.69-3.69A3.69,3.69,0,0,0,213,471.74Z"/><circle class="b" cx="212.95" cy="396.05" r="2.95"/><path class="b" d="M213,508.14a4.09,4.09,0,1,0-4.09-4.09A4.09,4.09,0,0,0,213,508.14Z"/><path class="b" d="M213,571.41a4.64,4.64,0,1,0,4.64,4.64A4.64,4.64,0,0,0,213,571.41Z"/><path class="b" d="M213,544.44a4.39,4.39,0,1,0-4.39-4.39A4.38,4.38,0,0,0,213,544.44Z"/><path class="b" d="M213,253.4a1.35,1.35,0,1,0-1.34-1.35A1.35,1.35,0,0,0,213,253.4Z"/><path class="b" d="M213,217.05a1,1,0,1,0-1-1A1,1,0,0,0,213,217.05Z"/><path class="b" d="M213,180.75a.7.7,0,1,0,0-1.4.7.7,0,0,0,0,1.4Z"/><path class="b" d="M213,144.5a.45.45,0,1,0,0-.9.45.45,0,1,0,0,.9Z"/><path class="b" d="M213,289.75a1.7,1.7,0,1,0-1.69-1.7A1.7,1.7,0,0,0,213,289.75Z"/><path class="b" d="M213,326.15a2.1,2.1,0,1,0-2.1-2.1A2.1,2.1,0,0,0,213,326.15Z"/><path class="b" d="M213.05,72.05a.09.09,0,0,0-.1-.1.1.1,0,1,0,0,.2A.09.09,0,0,0,213.05,72.05Z"/><path class="b" d="M204,235.35a1.3,1.3,0,1,0-1.3-1.3A1.3,1.3,0,0,0,204,235.35Z"/><path class="b" d="M177,144.65a.6.6,0,1,0-.61-.6A.6.6,0,0,0,177,144.65Z"/><path class="b" d="M177,180.9a.85.85,0,1,0-.86-.85A.85.85,0,0,0,177,180.9Z"/><path class="b" d="M177.11,72.05a.15.15,0,0,0-.15-.15.15.15,0,1,0,0,.3A.15.15,0,0,0,177.11,72.05Z"/><path class="b" d="M168,272a1.9,1.9,0,1,0-1.89-1.9A1.9,1.9,0,0,0,168,272Z"/><path class="b" d="M177,108.4a.35.35,0,0,0,0-.7.35.35,0,1,0,0,.7Z"/><path class="b" d="M177,290.05a2,2,0,1,0-2-2A2,2,0,0,0,177,290.05Z"/><path class="b" d="M177,253.65a1.6,1.6,0,1,0-1.6-1.6A1.6,1.6,0,0,0,177,253.65Z"/><circle class="b" cx="167.95" cy="342.05" r="2.84"/><path class="b" d="M177,326.5a2.45,2.45,0,1,0-2.45-2.45A2.45,2.45,0,0,0,177,326.5Z"/><path class="b" d="M168,381.34a3.29,3.29,0,1,0-3.29-3.29A3.29,3.29,0,0,0,168,381.34Z"/><path class="b" d="M168,308.4a2.35,2.35,0,1,0-2.34-2.35A2.35,2.35,0,0,0,168,308.4Z"/><path class="b" d="M168,454.29a4.24,4.24,0,1,0-4.24-4.24A4.24,4.24,0,0,0,168,454.29Z"/><path class="b" d="M168,417.79a3.74,3.74,0,1,0-3.74-3.74A3.74,3.74,0,0,0,168,417.79Z"/><path class="b" d="M168,481.36a4.69,4.69,0,1,0,4.69,4.69A4.69,4.69,0,0,0,168,481.36Z"/><path class="b" d="M177,217.3a1.25,1.25,0,1,0-1.26-1.25A1.25,1.25,0,0,0,177,217.3Z"/><path class="b" d="M186,235.45a1.4,1.4,0,1,0-1.39-1.4A1.4,1.4,0,0,0,186,235.45Z"/><path class="b" d="M186,199.1a1.05,1.05,0,1,0-1-1A1,1,0,0,0,186,199.1Z"/><path class="b" d="M186,271.85a1.8,1.8,0,1,0-1.8-1.8A1.81,1.81,0,0,0,186,271.85Z"/><path class="b" d="M186,344.7a2.65,2.65,0,1,0-2.64-2.65A2.65,2.65,0,0,0,186,344.7Z"/><path class="b" d="M186,162.8a.75.75,0,1,0-.74-.75A.75.75,0,0,0,186,162.8Z"/><path class="b" d="M186,308.3a2.25,2.25,0,1,0-2.24-2.25A2.25,2.25,0,0,0,186,308.3Z"/><path class="b" d="M177,363a2.9,2.9,0,1,0-2.9-2.9A2.9,2.9,0,0,0,177,363Z"/><path class="b" d="M177,435.84a3.79,3.79,0,1,0-3.8-3.79A3.79,3.79,0,0,0,177,435.84Z"/><path class="b" d="M177,399.39a3.34,3.34,0,1,0-3.35-3.34A3.34,3.34,0,0,0,177,399.39Z"/><path class="b" d="M177,472.29a4.24,4.24,0,1,0-4.25-4.24A4.24,4.24,0,0,0,177,472.29Z"/><path class="b" d="M177,508.69a4.64,4.64,0,1,0-4.65-4.64A4.64,4.64,0,0,0,177,508.69Z"/><path class="b" d="M186,126.5a.45.45,0,0,0,0-.9.45.45,0,0,0,0,.9Z"/><path class="b" d="M186,54.05a.05.05,0,1,0-.05.05A0,0,0,0,0,186,54.05Z"/><path class="b" d="M76.29,576.05A7.34,7.34,0,1,0,69,583.39,7.34,7.34,0,0,0,76.29,576.05Z"/><path class="b" d="M150,454.54a4.49,4.49,0,1,0-4.49-4.49A4.49,4.49,0,0,0,150,454.54Z"/><path class="b" d="M159.15,72.05a.19.19,0,0,0-.2-.2.2.2,0,0,0,0,.4A.19.19,0,0,0,159.15,72.05Z"/><path class="b" d="M150,381.49a3.44,3.44,0,1,0-3.44-3.44A3.45,3.45,0,0,0,150,381.49Z"/><path class="b" d="M150,418a4,4,0,1,0-4-4A4,4,0,0,0,150,418Z"/><path class="b" d="M159,144.7a.65.65,0,0,0,0-1.3.65.65,0,0,0,0,1.3Z"/><path class="b" d="M159,108.45a.4.4,0,1,0-.4-.4A.4.4,0,0,0,159,108.45Z"/><path class="b" d="M159,36.05a.08.08,0,0,0,0,0c-.06,0-.08,0-.08,0a0,0,0,0,0,0,.05S159,36.08,159,36.05Z"/><path class="b" d="M159,181a1,1,0,1,0-.94-.95A.95.95,0,0,0,159,181Z"/><circle class="b" cx="149.95" cy="198.05" r="1.2"/><path class="b" d="M150,162.9a.85.85,0,0,0,0-1.7.85.85,0,0,0,0,1.7Z"/><path class="b" d="M150,235.65a1.6,1.6,0,1,0-1.6-1.6A1.6,1.6,0,0,0,150,235.65Z"/><path class="b" d="M150,345.05a3,3,0,1,0-3-3A3,3,0,0,0,150,345.05Z"/><circle class="b" cx="149.95" cy="306.05" r="2.5"/><path class="b" d="M150,272.1a2.05,2.05,0,1,0-2-2.05A2.05,2.05,0,0,0,150,272.1Z"/><path class="b" d="M186,381.14a3.09,3.09,0,1,0-3.1-3.09A3.09,3.09,0,0,0,186,381.14Z"/><path class="b" d="M168.05,54.05a.1.1,0,0,0-.1-.1.1.1,0,0,0,0,.2A.1.1,0,0,0,168.05,54.05Z"/><path class="b" d="M168.21,90.05a.26.26,0,0,0-.26-.25.25.25,0,0,0,0,.5A.26.26,0,0,0,168.21,90.05Z"/><path class="b" d="M168,126.55a.5.5,0,0,0,0-1,.5.5,0,0,0,0,1Z"/><path class="b" d="M159,472.49a4.44,4.44,0,1,0-4.44-4.44A4.44,4.44,0,0,0,159,472.49Z"/><path class="b" d="M168,199.2a1.15,1.15,0,1,0-1.15-1.15A1.15,1.15,0,0,0,168,199.2Z"/><path class="b" d="M168,162.85a.8.8,0,1,0-.8-.8A.8.8,0,0,0,168,162.85Z"/><path class="b" d="M159,363.15a3.1,3.1,0,1,0-3.09-3.1A3.1,3.1,0,0,0,159,363.15Z"/><path class="b" d="M159,290.2a2.15,2.15,0,1,0-2.15-2.15A2.15,2.15,0,0,0,159,290.2Z"/><path class="b" d="M159,253.75a1.7,1.7,0,1,0-1.7-1.7A1.7,1.7,0,0,0,159,253.75Z"/><path class="b" d="M159,326.6a2.55,2.55,0,1,0-2.54-2.55A2.55,2.55,0,0,0,159,326.6Z"/><path class="b" d="M168,235.55a1.5,1.5,0,1,0-1.49-1.5A1.5,1.5,0,0,0,168,235.55Z"/><path class="b" d="M159,399.59a3.54,3.54,0,1,0-3.54-3.54A3.54,3.54,0,0,0,159,399.59Z"/><path class="b" d="M159,217.35a1.3,1.3,0,1,0-1.29-1.3A1.3,1.3,0,0,0,159,217.35Z"/><path class="b" d="M159,436.09a4,4,0,1,0-4-4A4.05,4.05,0,0,0,159,436.09Z"/><path class="b" d="M42,565.84a7.79,7.79,0,1,0-7.78-7.79A7.79,7.79,0,0,0,42,565.84Z"/><path class="b" d="M41,576.05a8,8,0,1,0-8,8A8,8,0,0,0,41,576.05Z"/><path class="b" d="M75.79,540.05A6.84,6.84,0,1,0,69,546.89,6.84,6.84,0,0,0,75.79,540.05Z"/><path class="b" d="M5.64,576.05A8.67,8.67,0,0,0,0,567.94v16.22A8.67,8.67,0,0,0,5.64,576.05Z"/><path class="b" d="M24,566.09a8,8,0,1,0-8-8A8,8,0,0,0,24,566.09Z"/><path class="b" d="M0,587.35v.72H12.61A8.9,8.9,0,0,0,0,587.35Z"/><circle class="b" cx="59.95" cy="558.05" r="7.44"/><path class="b" d="M17.75,588.07H30.16a8.57,8.57,0,0,0-12.41,0Z"/><path class="b" d="M96,528.34a6.29,6.29,0,1,0-6.29-6.29A6.3,6.3,0,0,0,96,528.34Z"/><circle class="b" cx="185.95" cy="522.05" r="4.84"/><path class="b" d="M195,544.74a4.69,4.69,0,1,0-4.69-4.69A4.69,4.69,0,0,0,195,544.74Z"/><path class="b" d="M114,528a6,6,0,1,0-6-6A6,6,0,0,0,114,528Z"/><path class="b" d="M128.44,504.05a5.49,5.49,0,1,0-5.49,5.49A5.49,5.49,0,0,0,128.44,504.05Z"/><path class="b" d="M93.49,540.05A6.54,6.54,0,1,0,87,546.59,6.54,6.54,0,0,0,93.49,540.05Z"/><path class="b" d="M54.87,588.07H65a7.72,7.72,0,0,0-10.17,0Z"/><path class="b" d="M7.27,540.05A7.69,7.69,0,1,0,15,532.36,7.69,7.69,0,0,0,7.27,540.05Z"/><circle class="b" cx="23.95" cy="522.05" r="7.44"/><path class="b" d="M6,529.69A7.64,7.64,0,1,0,0,517.32v9.46A7.59,7.59,0,0,0,6,529.69Z"/><circle class="b" cx="203.95" cy="522.05" r="4.49"/><path class="b" d="M40.39,540.05A7.44,7.44,0,1,0,33,547.49,7.44,7.44,0,0,0,40.39,540.05Z"/><path class="b" d="M4.24,504.05A7.28,7.28,0,0,0,0,497.45v13.2A7.28,7.28,0,0,0,4.24,504.05Z"/><path class="b" d="M42,529.19a7.14,7.14,0,1,0-7.13-7.14A7.14,7.14,0,0,0,42,529.19Z"/><path class="b" d="M36.33,588.07H47.58a8.13,8.13,0,0,0-11.25,0Z"/><path class="b" d="M4.94,540.05A8,8,0,0,0,0,532.67v14.76A8,8,0,0,0,4.94,540.05Z"/><path class="b" d="M14.29,558.05A8.33,8.33,0,0,0,0,552.22v11.66a8.33,8.33,0,0,0,14.29-5.83Z"/><path class="b" d="M23.29,576.05A8.34,8.34,0,1,0,15,584.39,8.34,8.34,0,0,0,23.29,576.05Z"/><path class="b" d="M58.64,576.05A7.69,7.69,0,1,0,51,583.74,7.69,7.69,0,0,0,58.64,576.05Z"/><path class="b" d="M58.09,540.05A7.14,7.14,0,1,0,51,547.19,7.14,7.14,0,0,0,58.09,540.05Z"/><path class="b" d="M186,454.09a4,4,0,1,0-4-4A4,4,0,0,0,186,454.09Z"/><path class="b" d="M195,326.3a2.25,2.25,0,1,0-2.24-2.25A2.25,2.25,0,0,0,195,326.3Z"/><path class="b" d="M195,289.9a1.85,1.85,0,1,0-1.84-1.85A1.85,1.85,0,0,0,195,289.9Z"/><path class="b" d="M195,253.5a1.45,1.45,0,1,0-1.45-1.45A1.45,1.45,0,0,0,195,253.5Z"/><path class="b" d="M195,399.15a3.1,3.1,0,1,0-3.09-3.1A3.09,3.09,0,0,0,195,399.15Z"/><path class="b" d="M195,362.75a2.7,2.7,0,1,0-2.7-2.7A2.7,2.7,0,0,0,195,362.75Z"/><path class="b" d="M195,435.59a3.54,3.54,0,1,0-3.54-3.54A3.54,3.54,0,0,0,195,435.59Z"/><circle class="b" cx="194.95" cy="216.05" r="1.15"/><path class="b" d="M195,472a4,4,0,1,0-4-4A4,4,0,0,0,195,472Z"/><path class="b" d="M186,490.49a4.44,4.44,0,1,0-4.44-4.44A4.44,4.44,0,0,0,186,490.49Z"/><path class="b" d="M186,417.59a3.54,3.54,0,1,0-3.54-3.54A3.54,3.54,0,0,0,186,417.59Z"/><path class="b" d="M195,180.85a.8.8,0,1,0-.8-.8A.8.8,0,0,0,195,180.85Z"/><path class="b" d="M195,108.35a.3.3,0,0,0,0-.6.3.3,0,0,0,0,.6Z"/><path class="b" d="M195.05,72.05a.09.09,0,0,0-.1-.1.1.1,0,1,0,0,.2A.09.09,0,0,0,195.05,72.05Z"/><path class="b" d="M195,144.55a.5.5,0,0,0,.5-.5.5.5,0,0,0-.5-.5.49.49,0,0,0-.49.5A.49.49,0,0,0,195,144.55Z"/><path class="b" d="M195,508.39a4.34,4.34,0,1,0-4.34-4.34A4.34,4.34,0,0,0,195,508.39Z"/><path class="b" d="M204,381a2.95,2.95,0,1,0-2.95-2.95A2.95,2.95,0,0,0,204,381Z"/><path class="b" d="M204,271.75a1.7,1.7,0,1,0-1.7-1.7A1.7,1.7,0,0,0,204,271.75Z"/><path class="b" d="M204,308.1a2.05,2.05,0,1,0-2-2.05A2.05,2.05,0,0,0,204,308.1Z"/><path class="b" d="M204,344.55a2.5,2.5,0,1,0-2.49-2.5A2.5,2.5,0,0,0,204,344.55Z"/><path class="b" d="M204,417.39a3.34,3.34,0,1,0-3.34-3.34A3.34,3.34,0,0,0,204,417.39Z"/><path class="b" d="M204,490.24a4.19,4.19,0,1,0-4.19-4.19A4.19,4.19,0,0,0,204,490.24Z"/><path class="b" d="M204,453.79a3.74,3.74,0,1,0-3.74-3.74A3.74,3.74,0,0,0,204,453.79Z"/><path class="b" d="M204,126.45a.4.4,0,0,0,0-.8.4.4,0,1,0,0,.8Z"/><path class="b" d="M204,54.05a0,0,0,0,0-.05,0s0,0,0,0a.08.08,0,0,0,0,.05C204,54.1,204,54.08,204,54.05Z"/><path class="b" d="M204.16,90.05a.21.21,0,0,0-.21-.2.2.2,0,1,0,0,.4A.21.21,0,0,0,204.16,90.05Z"/><path class="b" d="M150,126.6a.55.55,0,1,0,0-1.1.55.55,0,0,0,0,1.1Z"/><path class="b" d="M204,199a1,1,0,1,0-.94-.95A.95.95,0,0,0,204,199Z"/><path class="b" d="M204,162.7a.65.65,0,1,0-.65-.65A.65.65,0,0,0,204,162.7Z"/><path class="b" d="M96.15,54.05a.19.19,0,0,0-.2-.2.2.2,0,1,0,0,.4A.19.19,0,0,0,96.15,54.05Z"/><path class="b" d="M419.75,234.05a.2.2,0,1,0,.2-.2A.2.2,0,0,0,419.75,234.05Z"/><path class="b" d="M419.6,270.05a.35.35,0,1,0,.35-.35A.35.35,0,0,0,419.6,270.05Z"/><path class="b" d="M249.1,108.05a.15.15,0,1,0-.15.15A.15.15,0,0,0,249.1,108.05Z"/><path class="b" d="M420,341.4a.65.65,0,1,0,.65.65A.66.66,0,0,0,420,341.4Z"/><path class="b" d="M420,556.35a1.7,1.7,0,1,0,1.7,1.7A1.7,1.7,0,0,0,420,556.35Z"/><path class="b" d="M437.71,270.05a.24.24,0,0,0,.24.25.25.25,0,0,0,0-.5A.24.24,0,0,0,437.71,270.05Z"/><path class="b" d="M420,377.2a.85.85,0,1,0,.85.85A.85.85,0,0,0,420,377.2Z"/><path class="b" d="M420,448.8a1.25,1.25,0,1,0,1.25,1.25A1.25,1.25,0,0,0,420,448.8Z"/><path class="b" d="M420,413a1.05,1.05,0,1,0,1.05,1.05A1,1,0,0,0,420,413Z"/><path class="b" d="M420,484.65a1.4,1.4,0,1,0,1.4,1.4A1.4,1.4,0,0,0,420,484.65Z"/><path class="b" d="M411,359.3a.75.75,0,1,0,.75.75A.76.76,0,0,0,411,359.3Z"/><path class="b" d="M411,430.9a1.15,1.15,0,1,0,1.15,1.15A1.15,1.15,0,0,0,411,430.9Z"/><path class="b" d="M410.35,324.05a.6.6,0,1,0,.6-.6A.6.6,0,0,0,410.35,324.05Z"/><path class="b" d="M411,395.1a.95.95,0,1,0,.95.95A.95.95,0,0,0,411,395.1Z"/><path class="b" d="M410.55,288.05a.4.4,0,1,0,.4-.4A.4.4,0,0,0,410.55,288.05Z"/><path class="b" d="M410.85,216.05a.1.1,0,1,0,.1-.1A.1.1,0,0,0,410.85,216.05Z"/><path class="b" d="M410.7,252.05a.25.25,0,1,0,.25-.25A.25.25,0,0,0,410.7,252.05Z"/><path class="b" d="M411,469.35a1.3,1.3,0,1,0-1.29-1.3A1.3,1.3,0,0,0,411,469.35Z"/><path class="b" d="M429,538.65a1.4,1.4,0,1,0,1.39,1.4A1.41,1.41,0,0,0,429,538.65Z"/><path class="b" d="M429,502.75a1.3,1.3,0,1,0,1.29,1.3A1.3,1.3,0,0,0,429,502.75Z"/><path class="b" d="M438,556.6a1.45,1.45,0,1,0,1.45,1.45A1.45,1.45,0,0,0,438,556.6Z"/><circle class="b" cx="428.96" cy="468.05" r="1.15"/><path class="b" d="M428.75,252.05a.2.2,0,0,0,.21.2.2.2,0,0,0,0-.4A.2.2,0,0,0,428.75,252.05Z"/><path class="b" d="M411,180.1s.05,0,.05,0a.08.08,0,0,0,0-.05c-.06,0-.08,0-.08.05A0,0,0,0,0,411,180.1Z"/><path class="b" d="M429,574.55a1.5,1.5,0,1,0,1.49,1.5A1.5,1.5,0,0,0,429,574.55Z"/><path class="b" d="M420,198.05a.05.05,0,1,0-.05,0A0,0,0,0,0,420,198.05Z"/><path class="b" d="M428.5,324.05a.45.45,0,1,0,.46-.45A.45.45,0,0,0,428.5,324.05Z"/><path class="b" d="M429,431.05a1,1,0,1,0,1,1A1,1,0,0,0,429,431.05Z"/><path class="b" d="M428.31,360.05a.65.65,0,1,0,.65-.65A.64.64,0,0,0,428.31,360.05Z"/><path class="b" d="M429,395.25a.8.8,0,1,0,.79.8A.8.8,0,0,0,429,395.25Z"/><path class="b" d="M428.85,216.05a.11.11,0,0,0,.11.1.1.1,0,0,0,0-.2A.11.11,0,0,0,428.85,216.05Z"/><path class="b" d="M428.65,288.05a.3.3,0,0,0,.31.3.3.3,0,0,0,0-.6A.3.3,0,0,0,428.65,288.05Z"/><path class="b" d="M420,523.6a1.55,1.55,0,1,0-1.54-1.55A1.55,1.55,0,0,0,420,523.6Z"/><path class="b" d="M393,433.35a1.3,1.3,0,1,0-1.3-1.3A1.3,1.3,0,0,0,393,433.35Z"/><path class="b" d="M393,469.55a1.5,1.5,0,1,0-1.5-1.5A1.5,1.5,0,0,0,393,469.55Z"/><path class="b" d="M393,574.1a1.95,1.95,0,1,0,1.95,1.95A2,2,0,0,0,393,574.1Z"/><path class="b" d="M393,505.75a1.7,1.7,0,1,0-1.7-1.7A1.7,1.7,0,0,0,393,505.75Z"/><path class="b" d="M393,397.15a1.1,1.1,0,1,0-1.09-1.1A1.1,1.1,0,0,0,393,397.15Z"/><path class="b" d="M384.1,198.05a.15.15,0,0,0-.15-.15.15.15,0,0,0,0,.3A.15.15,0,0,0,384.1,198.05Z"/><path class="b" d="M393,323.35a.7.7,0,1,0,.7.7A.7.7,0,0,0,393,323.35Z"/><path class="b" d="M392.45,288.05a.5.5,0,0,0,.5.5.5.5,0,0,0,0-1A.5.5,0,0,0,392.45,288.05Z"/><path class="b" d="M393,359.15a.9.9,0,1,0,.9.9A.9.9,0,0,0,393,359.15Z"/><path class="b" d="M392.6,252.05a.35.35,0,0,0,.35.35.35.35,0,0,0,0-.7A.35.35,0,0,0,392.6,252.05Z"/><path class="b" d="M383.46,270.05a.49.49,0,0,0,.49.5.5.5,0,0,0,.5-.5.5.5,0,0,0-.5-.5A.49.49,0,0,0,383.46,270.05Z"/><path class="b" d="M384,305.35a.7.7,0,0,0,0,1.4.7.7,0,0,0,0-1.4Z"/><path class="b" d="M384,343a.95.95,0,1,0-.95-.95A1,1,0,0,0,384,343Z"/><path class="b" d="M384,379.2a1.15,1.15,0,1,0-1.14-1.15A1.15,1.15,0,0,0,384,379.2Z"/><path class="b" d="M383.61,234.05a.35.35,0,1,0,.34-.35A.35.35,0,0,0,383.61,234.05Z"/><path class="b" d="M384,162.05A0,0,0,0,0,384,162s-.05,0-.05.05a.07.07,0,0,0,0,0C384,162.1,384,162.08,384,162.05Z"/><path class="b" d="M393,541.9a1.85,1.85,0,1,0-1.85-1.85A1.85,1.85,0,0,0,393,541.9Z"/><path class="b" d="M402,377.05a1,1,0,1,0,1,1A1,1,0,0,0,402,377.05Z"/><path class="b" d="M402,415.25a1.2,1.2,0,1,0-1.19-1.2A1.2,1.2,0,0,0,402,415.25Z"/><path class="b" d="M411,541.65a1.6,1.6,0,1,0-1.59-1.6A1.6,1.6,0,0,0,411,541.65Z"/><path class="b" d="M411,574.35a1.7,1.7,0,1,0,1.7,1.7A1.7,1.7,0,0,0,411,574.35Z"/><path class="b" d="M402,162.05a.08.08,0,0,0,0-.05c-.05,0-.07,0-.07.05a0,0,0,0,0,0,0S402,162.08,402,162.05Z"/><path class="b" d="M401.85,198.05a.1.1,0,0,0,.1.1.1.1,0,0,0,0-.2A.1.1,0,0,0,401.85,198.05Z"/><path class="b" d="M411,505.5a1.45,1.45,0,1,0-1.44-1.45A1.45,1.45,0,0,0,411,505.5Z"/><path class="b" d="M392.75,216.05a.2.2,0,0,0,.2.2.2.2,0,1,0,0-.4A.2.2,0,0,0,392.75,216.05Z"/><path class="b" d="M393,180.05A0,0,0,0,0,393,180s-.05,0-.05.05a.08.08,0,0,0,0,0C393,180.1,393,180.08,393,180.05Z"/><path class="b" d="M402,556.2a1.85,1.85,0,1,0,1.85,1.85A1.84,1.84,0,0,0,402,556.2Z"/><path class="b" d="M402,341.25a.8.8,0,1,0,.8.8A.8.8,0,0,0,402,341.25Z"/><path class="b" d="M402,523.8a1.75,1.75,0,1,0-1.75-1.75A1.75,1.75,0,0,0,402,523.8Z"/><path class="b" d="M401.7,234.05a.25.25,0,0,0,.25.25.25.25,0,0,0,0-.5A.25.25,0,0,0,401.7,234.05Z"/><path class="b" d="M401.55,270.05a.4.4,0,1,0,.4-.4A.4.4,0,0,0,401.55,270.05Z"/><path class="b" d="M401.35,306.05a.6.6,0,1,0,.6-.6A.6.6,0,0,0,401.35,306.05Z"/><path class="b" d="M402,487.6a1.55,1.55,0,1,0-1.54-1.55A1.55,1.55,0,0,0,402,487.6Z"/><path class="b" d="M402,451.45a1.4,1.4,0,1,0-1.4-1.4A1.4,1.4,0,0,0,402,451.45Z"/><path class="b" d="M465,288.2a.15.15,0,1,0,0-.3.15.15,0,1,0,0,.3Z"/><path class="b" d="M474,557a1,1,0,1,0,1.05,1A1.06,1.06,0,0,0,474,557Z"/><path class="b" d="M474,449.3a.75.75,0,1,0,.75.75A.76.76,0,0,0,474,449.3Z"/><path class="b" d="M474,521.05a1,1,0,1,0,1,1A1,1,0,0,0,474,521.05Z"/><path class="b" d="M474,485.2a.85.85,0,1,0,.85.85A.85.85,0,0,0,474,485.2Z"/><path class="b" d="M474,413.45a.6.6,0,1,0,.6.6A.6.6,0,0,0,474,413.45Z"/><path class="b" d="M465,324.3a.25.25,0,0,0,0-.5.25.25,0,0,0,0,.5Z"/><path class="b" d="M465,395.5a.55.55,0,0,0,0,1.1.55.55,0,0,0,0-1.1Z"/><path class="b" d="M465,431.35a.7.7,0,0,0,0,1.4.7.7,0,0,0,0-1.4Z"/><path class="b" d="M465,467.25a.8.8,0,1,0,.8.8A.8.8,0,0,0,465,467.25Z"/><circle class="b" cx="464.95" cy="504.05" r="0.95"/><path class="b" d="M464.55,360.05a.4.4,0,1,0,.4-.4A.4.4,0,0,0,464.55,360.05Z"/><path class="b" d="M465,541.1a1.05,1.05,0,1,0-1-1.05A1,1,0,0,0,465,541.1Z"/><path class="b" d="M465,252.05a.08.08,0,0,0,0-.05c-.05,0-.07,0-.07.05a0,0,0,0,0,0,0S465,252.08,465,252.05Z"/><path class="b" d="M483,503.25a.8.8,0,1,0,.8.8A.8.8,0,0,0,483,503.25Z"/><path class="b" d="M483,432.6a.55.55,0,0,0,0-1.1.55.55,0,0,0,0,1.1Z"/><path class="b" d="M483,467.35a.7.7,0,1,0,.7.7A.7.7,0,0,0,483,467.35Z"/><path class="b" d="M483,539.2a.85.85,0,1,0,.85.85A.85.85,0,0,0,483,539.2Z"/><path class="b" d="M483,288.15a.1.1,0,0,0,0-.2.1.1,0,0,0,0,.2Z"/><path class="b" d="M483,252.05a.05.05,0,1,0-.05,0A0,0,0,0,0,483,252.05Z"/><path class="b" d="M492,557.1a1,1,0,1,0,.94.95A1,1,0,0,0,492,557.1Z"/><path class="b" d="M482.5,396.05a.45.45,0,0,0,.45.45.45.45,0,0,0,0-.9A.45.45,0,0,0,482.5,396.05Z"/><path class="b" d="M482.65,360.05a.3.3,0,0,0,.3.3.3.3,0,0,0,0-.6A.3.3,0,0,0,482.65,360.05Z"/><path class="b" d="M483,324.25a.2.2,0,1,0-.2-.2A.2.2,0,0,0,483,324.25Z"/><path class="b" d="M474,306.25a.2.2,0,0,0,0-.4.2.2,0,0,0,0,.4Z"/><path class="b" d="M474,270.15a.1.1,0,1,0-.1-.1A.1.1,0,0,0,474,270.15Z"/><path class="b" d="M473.6,342.05a.35.35,0,0,0,.35.35.35.35,0,0,0,0-.7A.35.35,0,0,0,473.6,342.05Z"/><path class="b" d="M474,234.05a.08.08,0,0,0,0-.05c-.06,0-.08,0-.08.05a0,0,0,0,0,.05,0S474,234.08,474,234.05Z"/><path class="b" d="M474,378.5a.45.45,0,1,0-.45-.45A.45.45,0,0,0,474,378.5Z"/><path class="b" d="M483,575.1a.95.95,0,1,0,.95.95A1,1,0,0,0,483,575.1Z"/><path class="b" d="M447,541.3a1.25,1.25,0,1,0-1.25-1.25A1.25,1.25,0,0,0,447,541.3Z"/><path class="b" d="M447,323.7a.35.35,0,1,0,.35.35A.35.35,0,0,0,447,323.7Z"/><path class="b" d="M446.46,360.05a.49.49,0,0,0,.49.5.5.5,0,0,0,0-1A.49.49,0,0,0,446.46,360.05Z"/><path class="b" d="M447,574.7a1.35,1.35,0,1,0,1.35,1.35A1.35,1.35,0,0,0,447,574.7Z"/><path class="b" d="M447,503a1.1,1.1,0,1,0,1.1,1.1A1.1,1.1,0,0,0,447,503Z"/><path class="b" d="M437.55,306.05a.4.4,0,1,0,.4-.4A.4.4,0,0,0,437.55,306.05Z"/><path class="b" d="M447,467.05a1,1,0,1,0,1,1A1,1,0,0,0,447,467.05Z"/><path class="b" d="M447,431.25a.8.8,0,1,0,.8.8A.8.8,0,0,0,447,431.25Z"/><circle class="b" cx="446.95" cy="396.05" r="0.7"/><path class="b" d="M438,523.4a1.35,1.35,0,1,0-1.35-1.35A1.35,1.35,0,0,0,438,523.4Z"/><path class="b" d="M438,484.85a1.2,1.2,0,1,0,1.2,1.2A1.2,1.2,0,0,0,438,484.85Z"/><path class="b" d="M438,413.15a.9.9,0,1,0,.9.9A.89.89,0,0,0,438,413.15Z"/><path class="b" d="M438,449a1.05,1.05,0,1,0,1.05,1.05A1,1,0,0,0,438,449Z"/><path class="b" d="M438,377.3a.75.75,0,1,0,.75.75A.75.75,0,0,0,438,377.3Z"/><path class="b" d="M438,341.5a.55.55,0,0,0,0,1.1.55.55,0,0,0,0-1.1Z"/><path class="b" d="M446.9,216.05a.07.07,0,0,0,0,0c.05,0,.07,0,.07,0A0,0,0,0,0,447,216S446.9,216,446.9,216.05Z"/><path class="b" d="M437.9,198.05A.05.05,0,1,0,438,198,0,0,0,0,0,437.9,198.05Z"/><path class="b" d="M438.05,234.05a.1.1,0,0,0-.1-.1.1.1,0,0,0-.09.1.09.09,0,0,0,.09.1A.09.09,0,0,0,438.05,234.05Z"/><path class="b" d="M456,485a1.05,1.05,0,1,0,1.05,1.05A1.06,1.06,0,0,0,456,485Z"/><path class="b" d="M456,377.45a.6.6,0,1,0,.6.6A.59.59,0,0,0,456,377.45Z"/><path class="b" d="M456,449.15a.9.9,0,1,0,.9.9A.9.9,0,0,0,456,449.15Z"/><circle class="b" cx="455.95" cy="522.05" r="1.15"/><path class="b" d="M456,413.3a.75.75,0,1,0,.75.75A.75.75,0,0,0,456,413.3Z"/><path class="b" d="M465,574.9a1.15,1.15,0,1,0,1.15,1.15A1.16,1.16,0,0,0,465,574.9Z"/><path class="b" d="M456,270.25a.2.2,0,1,0,0-.4.2.2,0,0,0,0,.4Z"/><path class="b" d="M455.66,306.05a.3.3,0,1,0,.29-.3A.29.29,0,0,0,455.66,306.05Z"/><path class="b" d="M456,234.05A0,0,0,0,0,456,234s-.05,0-.05.05a.08.08,0,0,0,0,0C456,234.1,456,234.08,456,234.05Z"/><path class="b" d="M456,341.6a.45.45,0,0,0,0,.9.45.45,0,0,0,0-.9Z"/><path class="b" d="M446.85,252.05a.1.1,0,0,0,.1.1.1.1,0,0,0,0-.2A.1.1,0,0,0,446.85,252.05Z"/><path class="b" d="M447.2,288.05a.25.25,0,0,0-.25-.25.25.25,0,0,0,0,.5A.25.25,0,0,0,447.2,288.05Z"/><path class="b" d="M456,556.8a1.25,1.25,0,1,0,1.25,1.25A1.24,1.24,0,0,0,456,556.8Z"/><path class="b" d="M384,415.4a1.35,1.35,0,1,0-1.34-1.35A1.35,1.35,0,0,0,384,415.4Z"/><path class="b" d="M419.45,306.05a.5.5,0,0,0,.5.5.5.5,0,0,0,0-1A.5.5,0,0,0,419.45,306.05Z"/><path class="b" d="M303,398a1.95,1.95,0,1,0-1.95-1.95A1.94,1.94,0,0,0,303,398Z"/><path class="b" d="M303,361.75a1.7,1.7,0,1,0-1.71-1.7A1.7,1.7,0,0,0,303,361.75Z"/><path class="b" d="M303,289.1a1.05,1.05,0,1,0-1.06-1.05A1,1,0,0,0,303,289.1Z"/><path class="b" d="M303,325.4a1.35,1.35,0,1,0-1.36-1.35A1.35,1.35,0,0,0,303,325.4Z"/><path class="b" d="M303,506.85a2.8,2.8,0,1,0-2.8-2.8A2.81,2.81,0,0,0,303,506.85Z"/><path class="b" d="M303,470.6a2.55,2.55,0,1,0-2.55-2.55A2.55,2.55,0,0,0,303,470.6Z"/><path class="b" d="M303,434.3a2.25,2.25,0,1,0-2.25-2.25A2.25,2.25,0,0,0,303,434.3Z"/><path class="b" d="M303,108.05a0,0,0,0,0,0,0,.05.05,0,1,0,0,.1A0,0,0,0,0,303,108.05Z"/><path class="b" d="M303,252.85a.8.8,0,1,0-.8-.8A.8.8,0,0,0,303,252.85Z"/><path class="b" d="M303,216.6a.55.55,0,0,0,0-1.1.55.55,0,1,0,0,1.1Z"/><circle class="b" cx="302.96" cy="144.05" r="0.15"/><path class="b" d="M303,180.4a.35.35,0,0,0,0-.7.35.35,0,1,0,0,.7Z"/><path class="b" d="M303,543.09a3,3,0,1,0-3-3A3,3,0,0,0,303,543.09Z"/><path class="b" d="M294,343.75a1.7,1.7,0,1,0-1.69-1.7A1.7,1.7,0,0,0,294,343.75Z"/><path class="b" d="M294,307.4a1.35,1.35,0,1,0-1.34-1.35A1.35,1.35,0,0,0,294,307.4Z"/><path class="b" d="M294,380.05a2,2,0,1,0-2-2A2,2,0,0,0,294,380.05Z"/><path class="b" d="M294,271.1a1.05,1.05,0,1,0-1-1.05A1,1,0,0,0,294,271.1Z"/><path class="b" d="M294,489a2.9,2.9,0,1,0-2.89-2.9A2.9,2.9,0,0,0,294,489Z"/><path class="b" d="M294,416.35a2.3,2.3,0,1,0-2.29-2.3A2.3,2.3,0,0,0,294,416.35Z"/><path class="b" d="M294,452.64a2.6,2.6,0,1,0-2.6-2.59A2.59,2.59,0,0,0,294,452.64Z"/><path class="b" d="M294.1,126.05a.15.15,0,1,0-.15.15A.15.15,0,0,0,294.1,126.05Z"/><path class="b" d="M303,572.91a3.15,3.15,0,1,0,3.14,3.14A3.14,3.14,0,0,0,303,572.91Z"/><path class="b" d="M294,234.85a.8.8,0,1,0-.8-.8A.8.8,0,0,0,294,234.85Z"/><path class="b" d="M294,525.19a3.14,3.14,0,1,0-3.14-3.14A3.14,3.14,0,0,0,294,525.19Z"/><path class="b" d="M294,198.55a.5.5,0,0,0,0-1,.5.5,0,0,0,0,1Z"/><path class="b" d="M294,90.05a.05.05,0,1,0-.05,0A0,0,0,0,0,294,90.05Z"/><path class="b" d="M294,162.35a.3.3,0,1,0,0-.6.3.3,0,1,0,0,.6Z"/><path class="b" d="M321,397.85a1.8,1.8,0,1,0-1.79-1.8A1.8,1.8,0,0,0,321,397.85Z"/><path class="b" d="M321,434.1a2.05,2.05,0,1,0-2.05-2.05A2.05,2.05,0,0,0,321,434.1Z"/><path class="b" d="M321,506.6a2.55,2.55,0,1,0-2.55-2.55A2.55,2.55,0,0,0,321,506.6Z"/><path class="b" d="M312.05,126.05a.09.09,0,0,0-.1-.1.1.1,0,0,0,0,.2A.09.09,0,0,0,312.05,126.05Z"/><path class="b" d="M312.2,162.05a.25.25,0,0,0-.25-.25.25.25,0,0,0,0,.5A.25.25,0,0,0,312.2,162.05Z"/><path class="b" d="M321,542.8a2.75,2.75,0,1,0-2.74-2.75A2.75,2.75,0,0,0,321,542.8Z"/><path class="b" d="M321,573.1a2.95,2.95,0,1,0,2.95,2.95A2.95,2.95,0,0,0,321,573.1Z"/><path class="b" d="M321,470.35a2.3,2.3,0,1,0-2.29-2.3A2.3,2.3,0,0,0,321,470.35Z"/><path class="b" d="M312,555a3.09,3.09,0,1,0,3.1,3.09A3.09,3.09,0,0,0,312,555Z"/><path class="b" d="M321,289a.95.95,0,1,0-.95-.95A1,1,0,0,0,321,289Z"/><path class="b" d="M321,325.3a1.25,1.25,0,1,0-1.25-1.25A1.25,1.25,0,0,0,321,325.3Z"/><path class="b" d="M321,361.55a1.5,1.5,0,1,0-1.49-1.5A1.5,1.5,0,0,0,321,361.55Z"/><path class="b" d="M312,343.55a1.5,1.5,0,1,0-1.5-1.5A1.5,1.5,0,0,0,312,343.55Z"/><path class="b" d="M312,416.15a2.1,2.1,0,1,0-2.1-2.1A2.1,2.1,0,0,0,312,416.15Z"/><circle class="b" cx="311.95" cy="198.05" r="0.45"/><path class="b" d="M312,452.45a2.4,2.4,0,1,0-2.39-2.4A2.4,2.4,0,0,0,312,452.45Z"/><path class="b" d="M312,525a2.9,2.9,0,1,0-2.89-2.9A2.9,2.9,0,0,0,312,525Z"/><path class="b" d="M312,488.7a2.65,2.65,0,1,0-2.64-2.65A2.65,2.65,0,0,0,312,488.7Z"/><path class="b" d="M312,379.9a1.85,1.85,0,1,0-1.84-1.85A1.85,1.85,0,0,0,312,379.9Z"/><path class="b" d="M312,307.3a1.25,1.25,0,1,0-1.24-1.25A1.25,1.25,0,0,0,312,307.3Z"/><path class="b" d="M312,234.75a.7.7,0,1,0-.7-.7A.7.7,0,0,0,312,234.75Z"/><circle class="b" cx="311.95" cy="270.05" r="0.95"/><path class="b" d="M276,307.55a1.5,1.5,0,1,0-1.49-1.5A1.5,1.5,0,0,0,276,307.55Z"/><path class="b" d="M267,434.7a2.65,2.65,0,1,0-2.65-2.65A2.65,2.65,0,0,0,267,434.7Z"/><path class="b" d="M267,471.05a3,3,0,1,0-3-3A3,3,0,0,0,267,471.05Z"/><circle class="b" cx="266.95" cy="396.05" r="2.35"/><path class="b" d="M267,543.59a3.54,3.54,0,1,0-3.54-3.54A3.54,3.54,0,0,0,267,543.59Z"/><path class="b" d="M267,572.31a3.74,3.74,0,1,0,3.75,3.74A3.74,3.74,0,0,0,267,572.31Z"/><path class="b" d="M267,362.05a2,2,0,1,0-2-2A2,2,0,0,0,267,362.05Z"/><path class="b" d="M267.2,144.05a.25.25,0,1,0-.25.25A.25.25,0,0,0,267.2,144.05Z"/><path class="b" d="M267,289.4a1.35,1.35,0,1,0-1.35-1.35A1.35,1.35,0,0,0,267,289.4Z"/><path class="b" d="M267,180.55a.5.5,0,0,0,0-1,.5.5,0,0,0,0,1Z"/><path class="b" d="M267,216.8a.75.75,0,1,0-.74-.75A.75.75,0,0,0,267,216.8Z"/><path class="b" d="M267.05,108.05a.1.1,0,0,0-.2,0,.1.1,0,1,0,.2,0Z"/><path class="b" d="M267,253.05a1,1,0,1,0-1-1A1,1,0,0,0,267,253.05Z"/><path class="b" d="M267,325.75a1.7,1.7,0,1,0-1.7-1.7A1.7,1.7,0,0,0,267,325.75Z"/><path class="b" d="M258.2,126.05a.25.25,0,0,0-.25-.25.25.25,0,0,0,0,.5A.25.25,0,0,0,258.2,126.05Z"/><path class="b" d="M294,554.71a3.34,3.34,0,1,0,3.34,3.34A3.34,3.34,0,0,0,294,554.71Z"/><path class="b" d="M258,453.15a3.1,3.1,0,1,0-3.09-3.1A3.09,3.09,0,0,0,258,453.15Z"/><path class="b" d="M258,380.4a2.35,2.35,0,1,0-2.34-2.35A2.35,2.35,0,0,0,258,380.4Z"/><path class="b" d="M258,489.44a3.39,3.39,0,1,0-3.39-3.39A3.38,3.38,0,0,0,258,489.44Z"/><path class="b" d="M258,416.75a2.7,2.7,0,1,0-2.7-2.7A2.7,2.7,0,0,0,258,416.75Z"/><path class="b" d="M258.05,90.05a.1.1,0,0,0-.1-.1.1.1,0,0,0,0,.2A.1.1,0,0,0,258.05,90.05Z"/><path class="b" d="M258,554.16a3.89,3.89,0,1,0,3.89,3.89A3.89,3.89,0,0,0,258,554.16Z"/><path class="b" d="M258,525.74a3.69,3.69,0,1,0-3.69-3.69A3.7,3.7,0,0,0,258,525.74Z"/><path class="b" d="M258,235.05a1,1,0,1,0-1-1A1,1,0,0,0,258,235.05Z"/><circle class="b" cx="257.95" cy="198.05" r="0.7"/><path class="b" d="M258,344.05a2,2,0,1,0-2-2A2,2,0,0,0,258,344.05Z"/><path class="b" d="M258,162.5a.45.45,0,1,0-.45-.45A.45.45,0,0,0,258,162.5Z"/><path class="b" d="M258,307.7a1.65,1.65,0,1,0-1.64-1.65A1.65,1.65,0,0,0,258,307.7Z"/><circle class="b" cx="257.95" cy="270.05" r="1.3"/><path class="b" d="M267,507.34a3.29,3.29,0,1,0-3.29-3.29A3.29,3.29,0,0,0,267,507.34Z"/><circle class="b" cx="284.95" cy="396.05" r="2.15"/><path class="b" d="M285,361.9a1.85,1.85,0,1,0-1.85-1.85A1.85,1.85,0,0,0,285,361.9Z"/><path class="b" d="M285,434.54a2.5,2.5,0,1,0-2.5-2.49A2.49,2.49,0,0,0,285,434.54Z"/><path class="b" d="M285,325.55a1.5,1.5,0,1,0-1.5-1.5A1.5,1.5,0,0,0,285,325.55Z"/><path class="b" d="M276,554.41a3.64,3.64,0,1,0,3.65,3.64A3.64,3.64,0,0,0,276,554.41Z"/><path class="b" d="M285,543.29a3.24,3.24,0,1,0-3.24-3.24A3.24,3.24,0,0,0,285,543.29Z"/><path class="b" d="M285,507.09a3,3,0,1,0-3-3A3,3,0,0,0,285,507.09Z"/><path class="b" d="M285,289.25a1.2,1.2,0,1,0-1.2-1.2A1.2,1.2,0,0,0,285,289.25Z"/><path class="b" d="M285.05,108.05a.1.1,0,0,0-.2,0,.1.1,0,1,0,.2,0Z"/><path class="b" d="M285,572.61a3.44,3.44,0,1,0,3.44,3.44A3.44,3.44,0,0,0,285,572.61Z"/><path class="b" d="M285.15,144.05a.19.19,0,0,0-.2-.2.2.2,0,0,0,0,.4A.19.19,0,0,0,285.15,144.05Z"/><path class="b" d="M285,180.45a.4.4,0,1,0-.4-.4A.4.4,0,0,0,285,180.45Z"/><path class="b" d="M285,253a1,1,0,1,0-.94-.95A.95.95,0,0,0,285,253Z"/><path class="b" d="M285,216.7a.65.65,0,0,0,0-1.3.65.65,0,0,0,0,1.3Z"/><path class="b" d="M285,470.8a2.75,2.75,0,1,0-2.74-2.75A2.75,2.75,0,0,0,285,470.8Z"/><path class="b" d="M276,416.6a2.55,2.55,0,1,0-2.55-2.55A2.55,2.55,0,0,0,276,416.6Z"/><path class="b" d="M276,380.25a2.2,2.2,0,1,0-2.19-2.2A2.21,2.21,0,0,0,276,380.25Z"/><path class="b" d="M276,452.89a2.84,2.84,0,1,0-2.84-2.84A2.84,2.84,0,0,0,276,452.89Z"/><path class="b" d="M276,343.9a1.85,1.85,0,1,0-1.84-1.85A1.85,1.85,0,0,0,276,343.9Z"/><path class="b" d="M276,489.2a3.15,3.15,0,1,0-3.14-3.15A3.15,3.15,0,0,0,276,489.2Z"/><path class="b" d="M276,525.44a3.39,3.39,0,1,0-3.39-3.39A3.39,3.39,0,0,0,276,525.44Z"/><path class="b" d="M276,234.9a.85.85,0,0,0,0-1.7.85.85,0,0,0,0,1.7Z"/><path class="b" d="M276,198.65a.6.6,0,1,0-.6-.6A.6.6,0,0,0,276,198.65Z"/><path class="b" d="M276,162.4a.35.35,0,1,0-.35-.35A.35.35,0,0,0,276,162.4Z"/><path class="b" d="M276,90.05a.08.08,0,0,0,0,0c-.05,0-.07,0-.07,0a0,0,0,0,0,0,0S276,90.08,276,90.05Z"/><path class="b" d="M276.15,126.05a.2.2,0,1,0-.2.2A.2.2,0,0,0,276.15,126.05Z"/><path class="b" d="M276,271.2a1.15,1.15,0,1,0-1.15-1.15A1.15,1.15,0,0,0,276,271.2Z"/><path class="b" d="M321,252.75a.7.7,0,1,0-.69-.7A.69.69,0,0,0,321,252.75Z"/><path class="b" d="M330,126.05a0,0,0,0,0-.05,0s-.05,0-.05,0a.08.08,0,0,0,0,0C330,126.1,330,126.08,330,126.05Z"/><path class="b" d="M366,415.6a1.55,1.55,0,0,0,0-3.1,1.55,1.55,0,1,0,0,3.1Z"/><path class="b" d="M366,451.85a1.8,1.8,0,1,0-1.8-1.8A1.8,1.8,0,0,0,366,451.85Z"/><path class="b" d="M366,524.25a2.2,2.2,0,1,0-2.21-2.2A2.2,2.2,0,0,0,366,524.25Z"/><path class="b" d="M366,488.05a2,2,0,1,0-2-2A2,2,0,0,0,366,488.05Z"/><path class="b" d="M366,555.7a2.35,2.35,0,1,0,2.34,2.35A2.36,2.36,0,0,0,366,555.7Z"/><path class="b" d="M357,144.05a.05.05,0,1,0-.05,0A0,0,0,0,0,357,144.05Z"/><path class="b" d="M357.1,180.05a.15.15,0,1,0-.15.15A.15.15,0,0,0,357.1,180.05Z"/><path class="b" d="M365.1,306.05a.85.85,0,1,0,.86-.85A.85.85,0,0,0,365.1,306.05Z"/><path class="b" d="M366,379.35a1.3,1.3,0,1,0-1.3-1.3A1.3,1.3,0,0,0,366,379.35Z"/><path class="b" d="M357,216.35a.3.3,0,1,0,0-.6.3.3,0,1,0,0,.6Z"/><path class="b" d="M357,506.15a2.1,2.1,0,1,0-2.1-2.1A2.1,2.1,0,0,0,357,506.15Z"/><path class="b" d="M366,343.1a1.05,1.05,0,1,0-1.06-1.05A1,1,0,0,0,366,343.1Z"/><path class="b" d="M357,252.55a.5.5,0,0,0,0-1,.5.5,0,0,0,0,1Z"/><path class="b" d="M357,361.25a1.2,1.2,0,1,0-1.19-1.2A1.2,1.2,0,0,0,357,361.25Z"/><path class="b" d="M357,397.5a1.45,1.45,0,1,0-1.45-1.45A1.45,1.45,0,0,0,357,397.5Z"/><path class="b" d="M357,433.75a1.7,1.7,0,1,0-1.69-1.7A1.7,1.7,0,0,0,357,433.75Z"/><path class="b" d="M357,469.9a1.85,1.85,0,1,0-1.84-1.85A1.85,1.85,0,0,0,357,469.9Z"/><path class="b" d="M357,325a.95.95,0,1,0-.95-.95A.95.95,0,0,0,357,325Z"/><path class="b" d="M357,288.75a.7.7,0,1,0-.7-.7A.7.7,0,0,0,357,288.75Z"/><path class="b" d="M365.35,270.05a.6.6,0,1,0,.61-.6A.6.6,0,0,0,365.35,270.05Z"/><path class="b" d="M374.36,288.05a.6.6,0,1,0,.59-.6A.59.59,0,0,0,374.36,288.05Z"/><path class="b" d="M384,487.85a1.8,1.8,0,1,0-1.79-1.8A1.8,1.8,0,0,0,384,487.85Z"/><path class="b" d="M384,556a2.1,2.1,0,1,0,2.1,2.1A2.09,2.09,0,0,0,384,556Z"/><path class="b" d="M384,524a2,2,0,1,0-1.94-2A1.95,1.95,0,0,0,384,524Z"/><path class="b" d="M375.2,216.05a.25.25,0,0,0-.25-.25.25.25,0,0,0,0,.5A.25.25,0,0,0,375.2,216.05Z"/><path class="b" d="M375.05,180.05a.1.1,0,0,0-.1-.1.1.1,0,0,0,0,.2A.1.1,0,0,0,375.05,180.05Z"/><path class="b" d="M375,252.45a.4.4,0,1,0-.4-.4A.4.4,0,0,0,375,252.45Z"/><path class="b" d="M375,324.85a.8.8,0,1,0-.8-.8A.8.8,0,0,0,375,324.85Z"/><path class="b" d="M366.05,162.05a.09.09,0,0,0-.09-.1.1.1,0,1,0,0,.2A.09.09,0,0,0,366.05,162.05Z"/><path class="b" d="M366,234.45a.4.4,0,0,0,0-.8.4.4,0,1,0,0,.8Z"/><circle class="b" cx="374.95" cy="576.05" r="2.15"/><path class="b" d="M366.15,198.05a.2.2,0,0,0-.19-.2.2.2,0,1,0,0,.4A.2.2,0,0,0,366.15,198.05Z"/><path class="b" d="M321,216.5a.45.45,0,1,0-.45-.45A.45.45,0,0,0,321,216.5Z"/><path class="b" d="M375,397.3a1.25,1.25,0,1,0-1.24-1.25A1.25,1.25,0,0,0,375,397.3Z"/><path class="b" d="M375,361.1a1.05,1.05,0,1,0-1-1.05A1,1,0,0,0,375,361.1Z"/><path class="b" d="M375,542.1a2.05,2.05,0,1,0-2-2.05A2,2,0,0,0,375,542.1Z"/><path class="b" d="M375,433.5a1.45,1.45,0,1,0-1.45-1.45A1.45,1.45,0,0,0,375,433.5Z"/><path class="b" d="M375,469.75a1.7,1.7,0,1,0-1.69-1.7A1.7,1.7,0,0,0,375,469.75Z"/><path class="b" d="M375,505.9a1.85,1.85,0,1,0-1.84-1.85A1.85,1.85,0,0,0,375,505.9Z"/><path class="b" d="M330.16,162.05a.21.21,0,0,0-.21-.2.2.2,0,0,0,0,.4A.21.21,0,0,0,330.16,162.05Z"/><path class="b" d="M339,573.4a2.65,2.65,0,1,0,2.65,2.65A2.65,2.65,0,0,0,339,573.4Z"/><path class="b" d="M330,234.65a.6.6,0,1,0-.59-.6A.6.6,0,0,0,330,234.65Z"/><path class="b" d="M330,198.4a.35.35,0,0,0,0-.7.35.35,0,0,0,0,.7Z"/><path class="b" d="M339,542.55a2.5,2.5,0,1,0-2.49-2.5A2.5,2.5,0,0,0,339,542.55Z"/><path class="b" d="M339,397.65a1.6,1.6,0,1,0-1.6-1.6A1.6,1.6,0,0,0,339,397.65Z"/><path class="b" d="M339,361.4a1.35,1.35,0,1,0-1.34-1.35A1.35,1.35,0,0,0,339,361.4Z"/><path class="b" d="M339,325.1a1.05,1.05,0,1,0-1-1.05A1,1,0,0,0,339,325.1Z"/><path class="b" d="M339,506.35a2.3,2.3,0,1,0-2.29-2.3A2.3,2.3,0,0,0,339,506.35Z"/><path class="b" d="M339,433.9a1.85,1.85,0,1,0-1.84-1.85A1.85,1.85,0,0,0,339,433.9Z"/><circle class="b" cx="338.95" cy="468.05" r="2.1"/><path class="b" d="M384,451.6a1.55,1.55,0,1,0-1.55-1.55A1.55,1.55,0,0,0,384,451.6Z"/><circle class="b" cx="329.95" cy="522.05" r="2.65"/><path class="b" d="M330,452.25a2.2,2.2,0,1,0-2.19-2.2A2.2,2.2,0,0,0,330,452.25Z"/><path class="b" d="M330,555.2a2.85,2.85,0,1,0,2.85,2.85A2.85,2.85,0,0,0,330,555.2Z"/><path class="b" d="M321.2,180.05a.25.25,0,0,0-.25-.25.25.25,0,0,0,0,.5A.25.25,0,0,0,321.2,180.05Z"/><path class="b" d="M321.05,144.05a.1.1,0,0,0-.1-.1.1.1,0,0,0,0,.2A.1.1,0,0,0,321.05,144.05Z"/><path class="b" d="M330,488.5a2.45,2.45,0,1,0-2.44-2.45A2.45,2.45,0,0,0,330,488.5Z"/><path class="b" d="M330,307.1a1.05,1.05,0,1,0-1.05-1.05A1,1,0,0,0,330,307.1Z"/><path class="b" d="M357,542.3a2.25,2.25,0,1,0-2.25-2.25A2.25,2.25,0,0,0,357,542.3Z"/><path class="b" d="M330,416a1.9,1.9,0,1,0-1.89-1.9A1.9,1.9,0,0,0,330,416Z"/><path class="b" d="M330,379.7a1.65,1.65,0,1,0-1.65-1.65A1.65,1.65,0,0,0,330,379.7Z"/><path class="b" d="M330,343.4a1.35,1.35,0,1,0-1.35-1.35A1.35,1.35,0,0,0,330,343.4Z"/><circle class="b" cx="329.95" cy="270.05" r="0.8"/><path class="b" d="M348,270.75a.7.7,0,1,0-.7-.7A.7.7,0,0,0,348,270.75Z"/><path class="b" d="M348,379.5a1.45,1.45,0,1,0-1.44-1.45A1.45,1.45,0,0,0,348,379.5Z"/><path class="b" d="M348,343.25a1.2,1.2,0,1,0-1.2-1.2A1.2,1.2,0,0,0,348,343.25Z"/><path class="b" d="M348,307a1,1,0,1,0-.94-.95A.95.95,0,0,0,348,307Z"/><path class="b" d="M348,126.05a.08.08,0,0,0,0,0c-.06,0-.08,0-.08,0a0,0,0,0,0,.05,0S348,126.08,348,126.05Z"/><path class="b" d="M348.1,162.05a.15.15,0,0,0-.15-.15.15.15,0,0,0,0,.3A.15.15,0,0,0,348.1,162.05Z"/><path class="b" d="M357,573.65a2.4,2.4,0,1,0,2.4,2.4A2.4,2.4,0,0,0,357,573.65Z"/><path class="b" d="M348,234.55a.5.5,0,0,0,0-1,.5.5,0,0,0,0,1Z"/><path class="b" d="M348,198.35a.3.3,0,0,0,.3-.3.3.3,0,1,0-.59,0A.3.3,0,0,0,348,198.35Z"/><path class="b" d="M339,252.65a.6.6,0,1,0-.6-.6A.6.6,0,0,0,339,252.65Z"/><path class="b" d="M339,216.45a.4.4,0,1,0-.4-.4A.4.4,0,0,0,339,216.45Z"/><path class="b" d="M339,288.9a.85.85,0,1,0,0-1.7.85.85,0,0,0,0,1.7Z"/><path class="b" d="M339.05,144.05a.1.1,0,0,0-.1-.1.1.1,0,0,0,0,.2A.1.1,0,0,0,339.05,144.05Z"/><path class="b" d="M348,415.75a1.7,1.7,0,1,0-1.7-1.7A1.7,1.7,0,0,0,348,415.75Z"/><path class="b" d="M348,488.3a2.25,2.25,0,1,0-2.24-2.25A2.25,2.25,0,0,0,348,488.3Z"/><path class="b" d="M348,452.05a2,2,0,1,0-2-2A2,2,0,0,0,348,452.05Z"/><path class="b" d="M348,524.45a2.4,2.4,0,1,0-2.39-2.4A2.4,2.4,0,0,0,348,524.45Z"/><path class="b" d="M339.15,180.05a.2.2,0,1,0-.2.2A.2.2,0,0,0,339.15,180.05Z"/><path class="b" d="M348,555.5a2.55,2.55,0,1,0,2.55,2.55A2.55,2.55,0,0,0,348,555.5Z"/></g></svg>