<svg xmlns="http://www.w3.org/2000/svg" viewBox="0 0 714.79 577.52"><defs><style>.a{isolation:isolate;}.b{fill:#ee4f9c;mix-blend-mode:overlay;}</style></defs><title>heroAsset 2</title><g class="a"><path class="b" d="M351.05,179.43a2,2,0,1,0,2.05,2A2,2,0,0,0,351.05,179.43Z"/><path class="b" d="M351.05,215.73a1.75,1.75,0,1,0,1.75,1.75A1.75,1.75,0,0,0,351.05,215.73Z"/><path class="b" d="M351.05,143.08a2.4,2.4,0,1,0,2.4,2.4A2.4,2.4,0,0,0,351.05,143.08Z"/><path class="b" d="M351.05,252a1.45,1.45,0,1,0,1.45,1.44A1.45,1.45,0,0,0,351.05,252Z"/><path class="b" d="M351.05,70.48a3,3,0,1,0,3,3A3,3,0,0,0,351.05,70.48Z"/><path class="b" d="M351.05,106.78a2.7,2.7,0,1,0,2.7,2.69A2.7,2.7,0,0,0,351.05,106.78Z"/><path class="b" d="M351.05,397.13a.35.35,0,1,0,0,.69.35.35,0,1,0,0-.69Z"/><path class="b" d="M350.85,433.48a.2.2,0,0,0,.4,0,.2.2,0,1,0-.4,0Z"/><path class="b" d="M348,0a3.46,3.46,0,0,0-.36,1.47,3.39,3.39,0,1,0,6.78,0A3.33,3.33,0,0,0,354.07,0Z"/><path class="b" d="M351.05,288.33a1.15,1.15,0,1,0,1.15,1.14A1.15,1.15,0,0,0,351.05,288.33Z"/><path class="b" d="M351,469.48s0,0,.05,0a0,0,0,0,0,.05,0,0,0,0,0,0-.05-.05A.05.05,0,0,0,351,469.48Z"/><path class="b" d="M342.05,16.18a3.3,3.3,0,1,0,3.29,3.3A3.3,3.3,0,0,0,342.05,16.18Z"/><path class="b" d="M351.05,34.28a3.2,3.2,0,1,0,3.2,3.19A3.19,3.19,0,0,0,351.05,34.28Z"/><path class="b" d="M351.05,360.88a.6.6,0,1,0,.6.59A.59.59,0,0,0,351.05,360.88Z"/><path class="b" d="M342.05,233.88a1.6,1.6,0,1,0,1.6,1.59A1.6,1.6,0,0,0,342.05,233.88Z"/><path class="b" d="M342.05,161.23a2.25,2.25,0,1,0,2.25,2.24A2.24,2.24,0,0,0,342.05,161.23Z"/><path class="b" d="M360.05,15.88a3.6,3.6,0,1,0,3.59,3.6A3.6,3.6,0,0,0,360.05,15.88Z"/><circle class="b" cx="342.05" cy="199.47" r="1.89"/><path class="b" d="M342.05,124.93a2.55,2.55,0,1,0,2.54,2.54A2.54,2.54,0,0,0,342.05,124.93Z"/><path class="b" d="M342.05,52.38a3.1,3.1,0,1,0,3.1,3.1A3.1,3.1,0,0,0,342.05,52.38Z"/><path class="b" d="M342.05,88.63a2.85,2.85,0,1,0,2.84,2.85A2.84,2.84,0,0,0,342.05,88.63Z"/><path class="b" d="M342,451.47a.1.1,0,1,0,.2,0,.1.1,0,0,0-.2,0Z"/><path class="b" d="M341.8,415.47a.25.25,0,1,0,.25-.24A.25.25,0,0,0,341.8,415.47Z"/><path class="b" d="M342.05,270.18a1.3,1.3,0,1,0,1.3,1.3A1.3,1.3,0,0,0,342.05,270.18Z"/><path class="b" d="M342.05,342.73a.75.75,0,1,0,0,1.49.75.75,0,1,0,0-1.49Z"/><path class="b" d="M342.05,379a.45.45,0,1,0,.45.44A.45.45,0,0,0,342.05,379Z"/><path class="b" d="M342.05,306.48a1,1,0,1,0,1,1A1,1,0,0,0,342.05,306.48Z"/><path class="b" d="M351.05,324.63a.85.85,0,1,0,.85.84A.85.85,0,0,0,351.05,324.63Z"/><path class="b" d="M369.05,251.88a1.6,1.6,0,1,0,1.59,1.59A1.6,1.6,0,0,0,369.05,251.88Z"/><path class="b" d="M369.05,288.23a1.25,1.25,0,1,0,1.25,1.24A1.25,1.25,0,0,0,369.05,288.23Z"/><circle class="b" cx="369.05" cy="361.47" r="0.7"/><path class="b" d="M369.05,324.53a.95.95,0,1,0,.95.94A.95.95,0,0,0,369.05,324.53Z"/><path class="b" d="M369.05,142.88a2.6,2.6,0,1,0,2.59,2.6A2.6,2.6,0,0,0,369.05,142.88Z"/><path class="b" d="M369.05,215.53a1.95,1.95,0,1,0,1.95,1.95A1.95,1.95,0,0,0,369.05,215.53Z"/><path class="b" d="M369.05,179.23a2.25,2.25,0,1,0,2.24,2.25A2.25,2.25,0,0,0,369.05,179.23Z"/><path class="b" d="M369,469.48a.1.1,0,0,0,.1.09.09.09,0,0,0,.1-.09.1.1,0,0,0-.1-.11A.11.11,0,0,0,369,469.48Z"/><path class="b" d="M365.67,0a3.63,3.63,0,0,0-.32,1.47,3.7,3.7,0,1,0,7.39,0A3.62,3.62,0,0,0,372.43,0Z"/><path class="b" d="M378.05,15.63a3.85,3.85,0,1,0,3.85,3.85A3.84,3.84,0,0,0,378.05,15.63Z"/><path class="b" d="M378.05,51.88a3.6,3.6,0,1,0,3.59,3.6A3.6,3.6,0,0,0,378.05,51.88Z"/><path class="b" d="M369.05,397a.45.45,0,1,0,.45.45A.45.45,0,0,0,369.05,397Z"/><path class="b" d="M369.05,106.53a2.95,2.95,0,1,0,2.95,2.94A2.94,2.94,0,0,0,369.05,106.53Z"/><path class="b" d="M368.8,433.48a.25.25,0,0,0,.25.24.25.25,0,1,0,0-.49A.25.25,0,0,0,368.8,433.48Z"/><path class="b" d="M369.05,34a3.45,3.45,0,1,0,3.45,3.44A3.43,3.43,0,0,0,369.05,34Z"/><path class="b" d="M360.05,233.73a1.75,1.75,0,1,0,1.75,1.74A1.73,1.73,0,0,0,360.05,233.73Z"/><path class="b" d="M360.05,270a1.45,1.45,0,1,0,1.45,1.45A1.45,1.45,0,0,0,360.05,270Z"/><circle class="b" cx="360.05" cy="199.47" r="2.1"/><path class="b" d="M360.05,124.73a2.75,2.75,0,1,0,2.75,2.74A2.74,2.74,0,0,0,360.05,124.73Z"/><path class="b" d="M360.05,88.38a3.1,3.1,0,1,0,3.1,3.1A3.1,3.1,0,0,0,360.05,88.38Z"/><path class="b" d="M360.05,161a2.45,2.45,0,1,0,2.45,2.44A2.45,2.45,0,0,0,360.05,161Z"/><path class="b" d="M360.05,306.38a1.1,1.1,0,1,0,1.1,1.1A1.09,1.09,0,0,0,360.05,306.38Z"/><path class="b" d="M360.05,415.13a.35.35,0,1,0,.35.34A.35.35,0,0,0,360.05,415.13Z"/><path class="b" d="M359.9,451.47a.15.15,0,1,0,.3,0,.15.15,0,0,0-.3,0Z"/><path class="b" d="M360,487.47a.05.05,0,1,0,.1,0,.05.05,0,0,0-.1,0Z"/><path class="b" d="M360.05,342.68a.8.8,0,1,0,.8.8A.8.8,0,0,0,360.05,342.68Z"/><circle class="b" cx="360.05" cy="55.48" r="3.34"/><path class="b" d="M360.05,378.93a.55.55,0,1,0,.55.54A.54.54,0,0,0,360.05,378.93Z"/><path class="b" d="M369.05,70.28a3.2,3.2,0,1,0,3.19,3.19A3.2,3.2,0,0,0,369.05,70.28Z"/><path class="b" d="M333.05,143.28a2.2,2.2,0,1,0,2.2,2.2A2.2,2.2,0,0,0,333.05,143.28Z"/><path class="b" d="M315.05,324.83a.65.65,0,1,0,.65.64A.65.65,0,0,0,315.05,324.83Z"/><circle class="b" cx="315.05" cy="253.47" r="1.15"/><path class="b" d="M315.05,288.58a.9.9,0,1,0,.9.89A.9.9,0,0,0,315.05,288.58Z"/><circle class="b" cx="324.05" cy="55.48" r="2.84"/><path class="b" d="M324.05,16.43a3,3,0,1,0,3,3.05A3,3,0,0,0,324.05,16.43Z"/><path class="b" d="M315.05,216a1.45,1.45,0,1,0,1.45,1.45A1.44,1.44,0,0,0,315.05,216Z"/><path class="b" d="M312.61,0a2.86,2.86,0,0,0-.45,1.47,2.9,2.9,0,1,0,5.79,0A2.79,2.79,0,0,0,317.48,0Z"/><path class="b" d="M314.8,397.48a.25.25,0,0,0,.25.25.26.26,0,0,0,0-.51A.26.26,0,0,0,314.8,397.48Z"/><path class="b" d="M315,433.48a.09.09,0,0,0,.1.09.1.1,0,0,0,.1-.09.11.11,0,0,0-.1-.11A.1.1,0,0,0,315,433.48Z"/><path class="b" d="M315.05,361a.45.45,0,1,0,.45.44A.45.45,0,0,0,315.05,361Z"/><path class="b" d="M324.05,88.88a2.6,2.6,0,1,0,2.6,2.6A2.6,2.6,0,0,0,324.05,88.88Z"/><path class="b" d="M306.05,342.92a.55.55,0,0,0-.55.56.54.54,0,0,0,.55.54.55.55,0,0,0,.55-.54A.56.56,0,0,0,306.05,342.92Z"/><path class="b" d="M306.05,306.73a.75.75,0,1,0,.75.75A.74.74,0,0,0,306.05,306.73Z"/><path class="b" d="M305.9,415.47a.15.15,0,1,0,.3,0,.15.15,0,1,0-.3,0Z"/><path class="b" d="M306,451.47a.05.05,0,0,0,.1,0,.05.05,0,0,0-.1,0Z"/><path class="b" d="M198.55,235.47a.5.5,0,1,0-.5.5A.5.5,0,0,0,198.55,235.47Z"/><path class="b" d="M315.05,143.48a2,2,0,1,0,2,2A2,2,0,0,0,315.05,143.48Z"/><path class="b" d="M315.05,107.23a2.25,2.25,0,1,0,2.25,2.24A2.24,2.24,0,0,0,315.05,107.23Z"/><path class="b" d="M315.05,179.78a1.7,1.7,0,1,0,1.7,1.7A1.7,1.7,0,0,0,315.05,179.78Z"/><path class="b" d="M315.05,34.78a2.7,2.7,0,1,0,2.7,2.69A2.7,2.7,0,0,0,315.05,34.78Z"/><path class="b" d="M323.85,415.47a.2.2,0,1,0,.4,0,.2.2,0,1,0-.4,0Z"/><path class="b" d="M333.05,70.73a2.75,2.75,0,1,0,2.74,2.74A2.74,2.74,0,0,0,333.05,70.73Z"/><path class="b" d="M333.05,288.48a1,1,0,1,0,1,1A1,1,0,0,0,333.05,288.48Z"/><path class="b" d="M333.05,215.88a1.6,1.6,0,1,0,1.6,1.6A1.6,1.6,0,0,0,333.05,215.88Z"/><path class="b" d="M378.05,88.18a3.3,3.3,0,1,0,3.29,3.3A3.3,3.3,0,0,0,378.05,88.18Z"/><path class="b" d="M333.05,179.58a1.9,1.9,0,1,0,1.9,1.9A1.9,1.9,0,0,0,333.05,179.58Z"/><path class="b" d="M333.05,107a2.5,2.5,0,1,0,2.5,2.49A2.5,2.5,0,0,0,333.05,107Z"/><path class="b" d="M333.05,361a.5.5,0,1,0,.5.49A.49.49,0,0,0,333.05,361Z"/><path class="b" d="M333.05,252.18a1.3,1.3,0,1,0,1.3,1.29A1.3,1.3,0,0,0,333.05,252.18Z"/><path class="b" d="M333.05,324.73a.75.75,0,1,0,.75.74A.75.75,0,0,0,333.05,324.73Z"/><path class="b" d="M324.05,125.18a2.3,2.3,0,1,0,2.3,2.29A2.3,2.3,0,0,0,324.05,125.18Z"/><path class="b" d="M333,469.48a.07.07,0,0,0,0,0c.05,0,.08,0,.08,0a.05.05,0,0,0-.05-.05S333,469.45,333,469.48Z"/><path class="b" d="M333.05,397.17a.3.3,0,0,0-.3.31.3.3,0,0,0,.6,0A.3.3,0,0,0,333.05,397.17Z"/><path class="b" d="M332.9,433.48a.15.15,0,0,0,.3,0,.15.15,0,1,0-.3,0Z"/><path class="b" d="M324.05,270.33a1.15,1.15,0,1,0,1.15,1.15A1.15,1.15,0,0,0,324.05,270.33Z"/><path class="b" d="M324.05,306.63a.85.85,0,1,0,.85.85A.85.85,0,0,0,324.05,306.63Z"/><path class="b" d="M324.05,234a1.45,1.45,0,1,0,1.45,1.44A1.45,1.45,0,0,0,324.05,234Z"/><path class="b" d="M324.05,161.43a2,2,0,1,0,2,2A2,2,0,0,0,324.05,161.43Z"/><path class="b" d="M333.05,34.53A2.95,2.95,0,1,0,336,37.47,2.94,2.94,0,0,0,333.05,34.53Z"/><path class="b" d="M324.05,197.73a1.75,1.75,0,1,0,1.74,1.74A1.75,1.75,0,0,0,324.05,197.73Z"/><path class="b" d="M324,451.47a.11.11,0,0,0,.1.11.1.1,0,0,0,.1-.11.09.09,0,0,0-.1-.09A.1.1,0,0,0,324,451.47Z"/><path class="b" d="M324.05,379.07a.4.4,0,0,0-.4.4.4.4,0,1,0,.8,0A.4.4,0,0,0,324.05,379.07Z"/><path class="b" d="M330.38,0A3,3,0,0,0,330,1.47a3.09,3.09,0,1,0,6.18,0A3,3,0,0,0,335.72,0Z"/><path class="b" d="M324.05,342.83a.65.65,0,1,0,.65.65A.65.65,0,0,0,324.05,342.83Z"/><path class="b" d="M306.05,379.12a.35.35,0,0,0-.35.35.35.35,0,1,0,.7,0A.35.35,0,0,0,306.05,379.12Z"/><path class="b" d="M585.05,150.62a5.15,5.15,0,1,0-5.14-5.14A5.14,5.14,0,0,0,585.05,150.62Z"/><circle class="b" cx="495.05" cy="73.47" r="5.09"/><path class="b" d="M567.05,150.42a4.95,4.95,0,1,0-4.94-4.94A4.94,4.94,0,0,0,567.05,150.42Z"/><path class="b" d="M558.05,132.72a5.25,5.25,0,1,0-5.24-5.25A5.25,5.25,0,0,0,558.05,132.72Z"/><path class="b" d="M612.05,168.62a5.15,5.15,0,1,0-5.14-5.15A5.15,5.15,0,0,0,612.05,168.62Z"/><circle class="b" cx="594.05" cy="127.47" r="5.69"/><path class="b" d="M621.05,151a5.49,5.49,0,1,0-5.49-5.48A5.48,5.48,0,0,0,621.05,151Z"/><path class="b" d="M603.05,150.77a5.3,5.3,0,1,0-5.29-5.29A5.29,5.29,0,0,0,603.05,150.77Z"/><circle class="b" cx="549.05" cy="109.47" r="5.29"/><path class="b" d="M522.05,96.87a5.4,5.4,0,1,0-5.39-5.39A5.39,5.39,0,0,0,522.05,96.87Z"/><path class="b" d="M504.05,96.62a5.15,5.15,0,1,0-5.14-5.14A5.14,5.14,0,0,0,504.05,96.62Z"/><path class="b" d="M513.05,68.08a5.4,5.4,0,1,0,5.39,5.39A5.39,5.39,0,0,0,513.05,68.08Z"/><path class="b" d="M531.05,114.62a5.15,5.15,0,1,0-5.14-5.15A5.15,5.15,0,0,0,531.05,114.62Z"/><path class="b" d="M540.05,97.11a5.64,5.64,0,1,0-5.64-5.63A5.64,5.64,0,0,0,540.05,97.11Z"/><path class="b" d="M576.05,133a5.5,5.5,0,1,0-5.49-5.5A5.49,5.49,0,0,0,576.05,133Z"/><path class="b" d="M705,145.48a6,6,0,0,0,9.78,4.71v-9.43a6,6,0,0,0-9.78,4.72Z"/><circle class="b" cx="486.05" cy="91.48" r="4.84"/><path class="b" d="M693.05,186.67a5.2,5.2,0,1,0-5.19-5.19A5.19,5.19,0,0,0,693.05,186.67Z"/><path class="b" d="M714.79,165.63v-4.31a5.62,5.62,0,0,0,0,4.31Z"/><path class="b" d="M423.05,6a4.55,4.55,0,0,0,4.54-4.55,4.28,4.28,0,0,0-.3-1.47H418.8a4.52,4.52,0,0,0-.29,1.47A4.55,4.55,0,0,0,423.05,6Z"/><path class="b" d="M630.05,168.72a5.25,5.25,0,1,0-5.24-5.25A5.24,5.24,0,0,0,630.05,168.72Z"/><path class="b" d="M432.05,24.27a4.8,4.8,0,1,0-4.79-4.79A4.79,4.79,0,0,0,432.05,24.27Z"/><path class="b" d="M441.05,32.83a4.65,4.65,0,1,0,4.64,4.64A4.64,4.64,0,0,0,441.05,32.83Z"/><path class="b" d="M648.05,168.86a5.39,5.39,0,1,0-5.39-5.39A5.39,5.39,0,0,0,648.05,168.86Z"/><path class="b" d="M639.05,151.12a5.65,5.65,0,1,0-5.64-5.64A5.64,5.64,0,0,0,639.05,151.12Z"/><path class="b" d="M657.05,186.52a5,5,0,1,0-5-5A5,5,0,0,0,657.05,186.52Z"/><path class="b" d="M675.05,186.62a5.15,5.15,0,1,0-5.14-5.14A5.14,5.14,0,0,0,675.05,186.62Z"/><path class="b" d="M684.05,169.12a5.65,5.65,0,1,0-5.64-5.65A5.64,5.64,0,0,0,684.05,169.12Z"/><path class="b" d="M666.05,169a5.5,5.5,0,1,0-5.49-5.5A5.49,5.49,0,0,0,666.05,169Z"/><path class="b" d="M707.74,163.47a5.69,5.69,0,1,0-5.69,5.7A5.69,5.69,0,0,0,707.74,163.47Z"/><path class="b" d="M617.89,127.47a5.84,5.84,0,1,0-5.84,5.84A5.83,5.83,0,0,0,617.89,127.47Z"/><path class="b" d="M603.05,103.48a6,6,0,1,0,6,6A6,6,0,0,0,603.05,103.48Z"/><path class="b" d="M587.71,91.48a6.34,6.34,0,1,0,6.34-6.35A6.33,6.33,0,0,0,587.71,91.48Z"/><circle class="b" cx="585.05" cy="109.47" r="5.79"/><circle class="b" cx="486.05" cy="55.48" r="5.29" transform="matrix(0.99, -0.16, 0.16, 0.99, -2.63, 78.19)"/><path class="b" d="M654.24,127.47a6.19,6.19,0,1,0-6.19,6.19A6.19,6.19,0,0,0,654.24,127.47Z"/><path class="b" d="M636,127.47a6,6,0,1,0-6,6A6,6,0,0,0,636,127.47Z"/><path class="b" d="M632.71,109.47a6.34,6.34,0,1,0,6.34-6.33A6.34,6.34,0,0,0,632.71,109.47Z"/><circle class="b" cx="549.05" cy="73.47" r="5.94"/><path class="b" d="M570,91.48a6.09,6.09,0,1,0,6.09-6.1A6.09,6.09,0,0,0,570,91.48Z"/><path class="b" d="M536.69,73.47a5.64,5.64,0,1,0-5.64,5.65A5.64,5.64,0,0,0,536.69,73.47Z"/><path class="b" d="M533.86,55.48a6.19,6.19,0,1,0,6.19-6.19A6.19,6.19,0,0,0,533.86,55.48Z"/><path class="b" d="M567.05,115a5.54,5.54,0,1,0-5.54-5.54A5.54,5.54,0,0,0,567.05,115Z"/><path class="b" d="M563.89,91.48a5.84,5.84,0,1,0-5.84,5.83A5.84,5.84,0,0,0,563.89,91.48Z"/><path class="b" d="M614.86,109.47a6.19,6.19,0,1,0,6.19-6.18A6.19,6.19,0,0,0,614.86,109.47Z"/><path class="b" d="M657.05,151.27a5.8,5.8,0,1,0-5.79-5.79A5.79,5.79,0,0,0,657.05,151.27Z"/><path class="b" d="M450.05,24.57A5.1,5.1,0,1,0,445,19.48,5.09,5.09,0,0,0,450.05,24.57Z"/><path class="b" d="M714.79,131.25V123.7a6.41,6.41,0,0,0,0,7.55Z"/><path class="b" d="M441.05,6.37a4.89,4.89,0,0,0,4.89-4.9A4.82,4.82,0,0,0,445.69,0h-9.28a4.82,4.82,0,0,0-.25,1.47A4.89,4.89,0,0,0,441.05,6.37Z"/><path class="b" d="M477.05,78.27a4.8,4.8,0,1,0-4.79-4.8A4.79,4.79,0,0,0,477.05,78.27Z"/><path class="b" d="M468.05,60.52a5,5,0,1,0-5-5A5,5,0,0,0,468.05,60.52Z"/><path class="b" d="M459.05,42.37a4.9,4.9,0,1,0-4.89-4.9A4.89,4.89,0,0,0,459.05,42.37Z"/><path class="b" d="M677.71,127.47a6.34,6.34,0,1,0,6.34-6.33A6.34,6.34,0,0,0,677.71,127.47Z"/><path class="b" d="M704.16,109.47a6.88,6.88,0,0,0,10.63,5.78V103.7a6.88,6.88,0,0,0-10.63,5.77Z"/><circle class="b" cx="666.05" cy="127.47" r="6.29"/><path class="b" d="M680.89,145.48a5.84,5.84,0,1,0-5.84,5.84A5.84,5.84,0,0,0,680.89,145.48Z"/><path class="b" d="M699,145.48a6,6,0,1,0-6,6A6,6,0,0,0,699,145.48Z"/><path class="b" d="M708.49,127.47a6.44,6.44,0,1,0-6.44,6.44A6.43,6.43,0,0,0,708.49,127.47Z"/><path class="b" d="M387,469.48a.1.1,0,0,0,.1.09.09.09,0,0,0,.1-.09.1.1,0,0,0-.1-.11A.11.11,0,0,0,387,469.48Z"/><path class="b" d="M387.05,324.43a1,1,0,1,0,1.05,1A1,1,0,0,0,387.05,324.43Z"/><path class="b" d="M387.05,288.08a1.4,1.4,0,1,0,1.4,1.39A1.4,1.4,0,0,0,387.05,288.08Z"/><path class="b" d="M387.05,360.68a.8.8,0,1,0,.8.79A.79.79,0,0,0,387.05,360.68Z"/><path class="b" d="M387.05,142.63a2.85,2.85,0,1,0,2.84,2.85A2.84,2.84,0,0,0,387.05,142.63Z"/><path class="b" d="M387.05,397a.51.51,0,0,0-.5.51.5.5,0,0,0,1,0A.51.51,0,0,0,387.05,397Z"/><path class="b" d="M387.05,179a2.45,2.45,0,1,0,2.45,2.45A2.45,2.45,0,0,0,387.05,179Z"/><path class="b" d="M387.05,215.38a2.1,2.1,0,1,0,2.1,2.1A2.1,2.1,0,0,0,387.05,215.38Z"/><path class="b" d="M387.05,251.73a1.75,1.75,0,1,0,1.74,1.74A1.75,1.75,0,0,0,387.05,251.73Z"/><path class="b" d="M396.05,51.63a3.85,3.85,0,1,0,3.85,3.85A3.84,3.84,0,0,0,396.05,51.63Z"/><path class="b" d="M396.05,87.93a3.55,3.55,0,1,0,3.54,3.55A3.54,3.54,0,0,0,396.05,87.93Z"/><path class="b" d="M378.05,124.48a3,3,0,1,0,3,3A3,3,0,0,0,378.05,124.48Z"/><path class="b" d="M396.05,15.28a4.2,4.2,0,1,0,4.19,4.2A4.2,4.2,0,0,0,396.05,15.28Z"/><path class="b" d="M387.05,433.17a.31.31,0,0,0-.3.31.3.3,0,0,0,.6,0A.31.31,0,0,0,387.05,433.17Z"/><path class="b" d="M383.35,0a4,4,0,0,0-.29,1.47,4,4,0,1,0,8,0A4,4,0,0,0,390.75,0Z"/><path class="b" d="M387.05,70a3.45,3.45,0,1,0,3.45,3.44A3.44,3.44,0,0,0,387.05,70Z"/><path class="b" d="M378.05,233.58a1.9,1.9,0,1,0,1.9,1.89A1.9,1.9,0,0,0,378.05,233.58Z"/><path class="b" d="M378.05,269.93a1.55,1.55,0,1,0,1.55,1.55A1.54,1.54,0,0,0,378.05,269.93Z"/><path class="b" d="M378.05,342.53a.95.95,0,1,0,.95,1A.95.95,0,0,0,378.05,342.53Z"/><path class="b" d="M378.05,306.23a1.25,1.25,0,1,0,1.25,1.25A1.24,1.24,0,0,0,378.05,306.23Z"/><path class="b" d="M378.05,197.23a2.25,2.25,0,1,0,2.25,2.24A2.24,2.24,0,0,0,378.05,197.23Z"/><path class="b" d="M378.05,160.83a2.65,2.65,0,1,0,2.64,2.64A2.65,2.65,0,0,0,378.05,160.83Z"/><path class="b" d="M377.85,451.47a.2.2,0,1,0,.4,0,.2.2,0,1,0-.4,0Z"/><path class="b" d="M387.05,106.33a3.15,3.15,0,1,0,3.15,3.14A3.14,3.14,0,0,0,387.05,106.33Z"/><path class="b" d="M387.05,33.73a3.75,3.75,0,1,0,3.75,3.74A3.75,3.75,0,0,0,387.05,33.73Z"/><path class="b" d="M396.05,124.28a3.2,3.2,0,1,0,3.2,3.19A3.19,3.19,0,0,0,396.05,124.28Z"/><path class="b" d="M378,487.47a.05.05,0,1,0,.1,0,.05.05,0,0,0-.1,0Z"/><path class="b" d="M378.05,415.07a.4.4,0,1,0,.4.4A.4.4,0,0,0,378.05,415.07Z"/><path class="b" d="M378.05,378.83a.65.65,0,1,0,.65.64A.65.65,0,0,0,378.05,378.83Z"/><path class="b" d="M405.05,142.43a3,3,0,1,0,3,3A3,3,0,0,0,405.05,142.43Z"/><path class="b" d="M405.05,360.63a.85.85,0,1,0,.85.84A.85.85,0,0,0,405.05,360.63Z"/><path class="b" d="M405.05,324.33a1.15,1.15,0,1,0,1.15,1.14A1.14,1.14,0,0,0,405.05,324.33Z"/><path class="b" d="M405.05,396.88a.6.6,0,1,0,.6.6A.6.6,0,0,0,405.05,396.88Z"/><path class="b" d="M405.05,433.13a.35.35,0,1,0,.35.35A.35.35,0,0,0,405.05,433.13Z"/><path class="b" d="M405.05,287.93a1.55,1.55,0,1,0,1.54,1.54A1.55,1.55,0,0,0,405.05,287.93Z"/><path class="b" d="M405.05,215.23a2.25,2.25,0,1,0,2.25,2.25A2.25,2.25,0,0,0,405.05,215.23Z"/><circle class="b" cx="405.05" cy="253.47" r="1.89"/><path class="b" d="M405.05,178.83a2.65,2.65,0,1,0,2.65,2.65A2.65,2.65,0,0,0,405.05,178.83Z"/><path class="b" d="M705.81,181.48a5.23,5.23,0,0,0,9,3.66v-7.33a5.23,5.23,0,0,0-9,3.67Z"/><path class="b" d="M594.05,168.42a4.95,4.95,0,1,0-4.94-4.95A4.95,4.95,0,0,0,594.05,168.42Z"/><path class="b" d="M405,505.47a0,0,0,0,0,.05,0s.05,0,.05,0a.07.07,0,0,0,0,0C405,505.43,405,505.45,405,505.47Z"/><path class="b" d="M540.05,132.57a5.1,5.1,0,1,0-5.09-5.1A5.09,5.09,0,0,0,540.05,132.57Z"/><path class="b" d="M404.9,469.48a.15.15,0,0,0,.3,0,.15.15,0,1,0-.3,0Z"/><path class="b" d="M401.06,0a4.23,4.23,0,0,0-.3,1.47,4.29,4.29,0,1,0,8.58,0A4.23,4.23,0,0,0,409.05,0Z"/><path class="b" d="M396.05,378.73a.75.75,0,1,0,.75.74A.75.75,0,0,0,396.05,378.73Z"/><path class="b" d="M396.05,306.13a1.35,1.35,0,1,0,1.35,1.35A1.35,1.35,0,0,0,396.05,306.13Z"/><path class="b" d="M396.05,269.78a1.7,1.7,0,1,0,1.7,1.7A1.7,1.7,0,0,0,396.05,269.78Z"/><path class="b" d="M396.05,342.48a1,1,0,1,0,1,1A1,1,0,0,0,396.05,342.48Z"/><path class="b" d="M396.05,160.63a2.85,2.85,0,1,0,2.85,2.84A2.85,2.85,0,0,0,396.05,160.63Z"/><path class="b" d="M396.05,197a2.5,2.5,0,1,0,2.5,2.49A2.5,2.5,0,0,0,396.05,197Z"/><path class="b" d="M396.05,233.43a2,2,0,1,0,2.05,2A2,2,0,0,0,396.05,233.43Z"/><path class="b" d="M396,487.47a.1.1,0,0,0,.2,0,.1.1,0,0,0-.2,0Z"/><path class="b" d="M405.05,69.78a3.7,3.7,0,1,0,3.69,3.69A3.69,3.69,0,0,0,405.05,69.78Z"/><path class="b" d="M405.05,106.08a3.4,3.4,0,1,0,3.4,3.39A3.4,3.4,0,0,0,405.05,106.08Z"/><path class="b" d="M405.05,33.43a4,4,0,1,0,4,4A4,4,0,0,0,405.05,33.43Z"/><path class="b" d="M513.05,114.32a4.85,4.85,0,1,0-4.84-4.85A4.85,4.85,0,0,0,513.05,114.32Z"/><path class="b" d="M395.8,451.47a.25.25,0,0,0,.5,0,.25.25,0,0,0-.5,0Z"/><path class="b" d="M396.05,415a.45.45,0,1,0,.45.44A.45.45,0,0,0,396.05,415Z"/><path class="b" d="M234.05,89.93a1.55,1.55,0,1,0,1.55,1.55A1.54,1.54,0,0,0,234.05,89.93Z"/><circle class="b" cx="234.05" cy="55.48" r="1.7"/><circle class="b" cx="234.05" cy="127.47" r="1.35"/><path class="b" d="M225.85,0h-1.59a1.69,1.69,0,0,0-.91,1.47,1.7,1.7,0,1,0,3.4,0A1.7,1.7,0,0,0,225.85,0Z"/><path class="b" d="M234.05,17.63a1.85,1.85,0,1,0,1.84,1.85A1.85,1.85,0,0,0,234.05,17.63Z"/><path class="b" d="M234.05,236.22a.75.75,0,1,0-.75-.75A.74.74,0,0,0,234.05,236.22Z"/><path class="b" d="M234.05,379.37a.1.1,0,0,0-.1.1.09.09,0,0,0,.1.1.1.1,0,0,0,.1-.1A.11.11,0,0,0,234.05,379.37Z"/><path class="b" d="M234.6,271.48a.54.54,0,0,0-.55-.55.55.55,0,1,0,0,1.09A.54.54,0,0,0,234.6,271.48Z"/><circle class="b" cx="234.05" cy="199.47" r="0.95"/><path class="b" d="M234.25,343.48a.2.2,0,0,0-.4,0,.2.2,0,1,0,.4,0Z"/><path class="b" d="M234.4,307.48a.35.35,0,1,0-.35.34A.35.35,0,0,0,234.4,307.48Z"/><path class="b" d="M225.05,182.37a.9.9,0,1,0-.9-.89A.9.9,0,0,0,225.05,182.37Z"/><path class="b" d="M225.4,289.47a.35.35,0,0,0-.35-.34.35.35,0,1,0,0,.69A.35.35,0,0,0,225.4,289.47Z"/><path class="b" d="M225.6,253.47a.55.55,0,1,0-.55.55A.55.55,0,0,0,225.6,253.47Z"/><path class="b" d="M234.05,162.33a1.15,1.15,0,1,0,1.15,1.14A1.14,1.14,0,0,0,234.05,162.33Z"/><path class="b" d="M225.05,218.17a.7.7,0,1,0-.7-.69A.69.69,0,0,0,225.05,218.17Z"/><path class="b" d="M225.05,361.38a.1.1,0,0,0-.1.09.1.1,0,0,0,.1.1.09.09,0,0,0,.1-.1A.09.09,0,0,0,225.05,361.38Z"/><path class="b" d="M225.25,325.47a.2.2,0,0,0-.4,0,.2.2,0,1,0,.4,0Z"/><path class="b" d="M225.05,108.23a1.25,1.25,0,1,0,1.25,1.24A1.25,1.25,0,0,0,225.05,108.23Z"/><path class="b" d="M225.05,146.57a1.1,1.1,0,1,0-1.1-1.09A1.1,1.1,0,0,0,225.05,146.57Z"/><path class="b" d="M225.05,72a1.45,1.45,0,1,0,1.45,1.44A1.44,1.44,0,0,0,225.05,72Z"/><path class="b" d="M306.05,270.48a1,1,0,1,0,1,1A1,1,0,0,0,306.05,270.48Z"/><path class="b" d="M516.21,55.48a5.84,5.84,0,1,0,5.84-5.85A5.85,5.85,0,0,0,516.21,55.48Z"/><path class="b" d="M243.05,180.43a1,1,0,1,0,1,1A1,1,0,0,0,243.05,180.43Z"/><path class="b" d="M243.05,218.32a.85.85,0,1,0-.85-.84A.85.85,0,0,0,243.05,218.32Z"/><path class="b" d="M252.05,17.43a2,2,0,1,0,2,2.05A2,2,0,0,0,252.05,17.43Z"/><path class="b" d="M242.9,361.47a.15.15,0,0,0,.3,0,.15.15,0,0,0-.3,0Z"/><path class="b" d="M243.35,325.47a.29.29,0,0,0-.3-.29.3.3,0,1,0,0,.59A.29.29,0,0,0,243.35,325.47Z"/><path class="b" d="M243,397.48a0,0,0,0,0,.1,0,.05.05,0,1,0-.1,0Z"/><path class="b" d="M241.9,0a1.87,1.87,0,0,0-.75,1.47,1.9,1.9,0,1,0,3.8,0A1.86,1.86,0,0,0,244.19,0Z"/><path class="b" d="M243.05,35.68a1.8,1.8,0,1,0,1.8,1.79A1.8,1.8,0,0,0,243.05,35.68Z"/><path class="b" d="M243.05,144.23a1.25,1.25,0,1,0,1.25,1.25A1.25,1.25,0,0,0,243.05,144.23Z"/><path class="b" d="M243.5,289.47a.45.45,0,1,0-.45.45A.45.45,0,0,0,243.5,289.47Z"/><path class="b" d="M243.05,108a1.45,1.45,0,1,0,1.44,1.44A1.45,1.45,0,0,0,243.05,108Z"/><path class="b" d="M243.7,253.47a.65.65,0,1,0-.65.65A.65.65,0,0,0,243.7,253.47Z"/><path class="b" d="M243.05,71.88a1.6,1.6,0,1,0,1.59,1.59A1.6,1.6,0,0,0,243.05,71.88Z"/><path class="b" d="M207.05,2.92a1.45,1.45,0,1,0-1.45-1.45A1.45,1.45,0,0,0,207.05,2.92Z"/><path class="b" d="M207.2,325.47a.15.15,0,0,0-.3,0,.15.15,0,0,0,.3,0Z"/><path class="b" d="M207.35,289.47a.3.3,0,1,0-.3.3A.29.29,0,0,0,207.35,289.47Z"/><path class="b" d="M207.5,253.47a.45.45,0,1,0-.45.45A.45.45,0,0,0,207.5,253.47Z"/><path class="b" d="M207.05,218.07a.6.6,0,1,0-.6-.59A.59.59,0,0,0,207.05,218.07Z"/><path class="b" d="M207.05,74.72a1.25,1.25,0,1,0-1.25-1.25A1.25,1.25,0,0,0,207.05,74.72Z"/><path class="b" d="M252.05,53.58a1.9,1.9,0,1,0,1.9,1.9A1.9,1.9,0,0,0,252.05,53.58Z"/><path class="b" d="M207.05,38.82a1.35,1.35,0,1,0-1.35-1.35A1.35,1.35,0,0,0,207.05,38.82Z"/><path class="b" d="M207.05,182.22a.75.75,0,1,0-.75-.74A.75.75,0,0,0,207.05,182.22Z"/><path class="b" d="M207.05,110.57a1.1,1.1,0,1,0-1.1-1.1A1.1,1.1,0,0,0,207.05,110.57Z"/><path class="b" d="M207.05,146.42a.95.95,0,1,0-1-.94A.95.95,0,0,0,207.05,146.42Z"/><path class="b" d="M198.05,164.32a.85.85,0,1,0-.85-.85A.85.85,0,0,0,198.05,164.32Z"/><path class="b" d="M198.05,128.47a1,1,0,1,0-1-1A1,1,0,0,0,198.05,128.47Z"/><path class="b" d="M198.05,92.62a1.15,1.15,0,1,0-1.15-1.14A1.14,1.14,0,0,0,198.05,92.62Z"/><path class="b" d="M198.05,20.92a1.45,1.45,0,1,0-1.45-1.44A1.45,1.45,0,0,0,198.05,20.92Z"/><path class="b" d="M198.05,56.77a1.3,1.3,0,1,0-1.3-1.29A1.3,1.3,0,0,0,198.05,56.77Z"/><path class="b" d="M198.05,200.17a.7.7,0,1,0,0-1.39.7.7,0,1,0,0,1.39Z"/><path class="b" d="M198.05,343.37a.11.11,0,0,0-.1.11.1.1,0,0,0,.1.09.09.09,0,0,0,.1-.09A.1.1,0,0,0,198.05,343.37Z"/><path class="b" d="M197.85,307.48a.2.2,0,0,0,.4,0,.2.2,0,1,0-.4,0Z"/><path class="b" d="M225.05,35.93a1.55,1.55,0,1,0,1.55,1.54A1.55,1.55,0,0,0,225.05,35.93Z"/><path class="b" d="M216.05,90.13a1.35,1.35,0,1,0,1.35,1.35A1.34,1.34,0,0,0,216.05,90.13Z"/><path class="b" d="M216.05,128.62a1.15,1.15,0,1,0-1.15-1.15A1.14,1.14,0,0,0,216.05,128.62Z"/><path class="b" d="M216.7,235.47a.65.65,0,1,0-.65.65A.65.65,0,0,0,216.7,235.47Z"/><path class="b" d="M216.05,164.47a1,1,0,1,0-1-1A1,1,0,0,0,216.05,164.47Z"/><path class="b" d="M216.05,200.27a.8.8,0,1,0-.8-.8A.8.8,0,0,0,216.05,200.27Z"/><path class="b" d="M216.05,379.43a0,0,0,0,0-.05,0,0,0,0,0,0,.05,0s0,0,0,0A0,0,0,0,0,216.05,379.43Z"/><path class="b" d="M216.5,271.48a.45.45,0,1,0-.45.44A.45.45,0,0,0,216.5,271.48Z"/><path class="b" d="M207,361.47a.13.13,0,0,0,0,.06s.08,0,.08-.06a.06.06,0,0,0,0-.05S207,361.45,207,361.47Z"/><path class="b" d="M216.2,343.48a.15.15,0,1,0-.3,0,.15.15,0,0,0,.3,0Z"/><path class="b" d="M216.35,307.48a.3.3,0,1,0-.6,0,.3.3,0,0,0,.6,0Z"/><path class="b" d="M216.05,17.83a1.65,1.65,0,1,0,1.65,1.65A1.65,1.65,0,0,0,216.05,17.83Z"/><path class="b" d="M216.05,54a1.5,1.5,0,1,0,1.5,1.5A1.5,1.5,0,0,0,216.05,54Z"/><path class="b" d="M288.05,125.58a1.9,1.9,0,1,0,1.9,1.89A1.9,1.9,0,0,0,288.05,125.58Z"/><path class="b" d="M277.27,0a2.29,2.29,0,0,0-.56,1.47,2.34,2.34,0,1,0,4.68,0A2.29,2.29,0,0,0,280.83,0Z"/><path class="b" d="M288.05,198.08a1.4,1.4,0,1,0,1.4,1.39A1.4,1.4,0,0,0,288.05,198.08Z"/><path class="b" d="M288.05,53.13a2.35,2.35,0,1,0,2.35,2.35A2.35,2.35,0,0,0,288.05,53.13Z"/><path class="b" d="M288.05,89.33a2.15,2.15,0,1,0,2.15,2.15A2.14,2.14,0,0,0,288.05,89.33Z"/><path class="b" d="M288.05,16.93a2.55,2.55,0,1,0,2.55,2.55A2.55,2.55,0,0,0,288.05,16.93Z"/><path class="b" d="M288.05,234.33a1.15,1.15,0,1,0,1.15,1.14A1.15,1.15,0,0,0,288.05,234.33Z"/><path class="b" d="M288.05,161.78a1.7,1.7,0,1,0,1.7,1.69A1.7,1.7,0,0,0,288.05,161.78Z"/><path class="b" d="M288.7,307.48a.65.65,0,1,0-.65.64A.65.65,0,0,0,288.7,307.48Z"/><path class="b" d="M288.05,270.58a.9.9,0,1,0,.9.9A.9.9,0,0,0,288.05,270.58Z"/><path class="b" d="M279.7,289.47a.65.65,0,1,0-.65.65A.65.65,0,0,0,279.7,289.47Z"/><path class="b" d="M279.05,252.58a.9.9,0,1,0,.9.89A.89.89,0,0,0,279.05,252.58Z"/><path class="b" d="M279.05,216.33a1.15,1.15,0,1,0,1.15,1.15A1.14,1.14,0,0,0,279.05,216.33Z"/><path class="b" d="M278.9,397.48a.15.15,0,0,0,.3,0,.15.15,0,1,0-.3,0Z"/><path class="b" d="M278.8,361.47a.25.25,0,0,0,.5,0,.25.25,0,0,0-.5,0Z"/><circle class="b" cx="279.05" cy="325.47" r="0.45"/><path class="b" d="M279,433.48a.05.05,0,0,0,.05,0s.05,0,.05,0a.13.13,0,0,0,0-.06C279,433.42,279,433.45,279,433.48Z"/><path class="b" d="M297.05,216.18a1.3,1.3,0,1,0,1.3,1.3A1.3,1.3,0,0,0,297.05,216.18Z"/><path class="b" d="M296.85,397.48a.2.2,0,0,0,.4,0,.2.2,0,0,0-.4,0Z"/><path class="b" d="M297,433.48a.05.05,0,0,0,.1,0,.05.05,0,1,0-.1,0Z"/><path class="b" d="M295,0a2.52,2.52,0,0,0-.52,1.47,2.6,2.6,0,1,0,5.2,0A2.52,2.52,0,0,0,299.13,0Z"/><path class="b" d="M297.05,361.13a.35.35,0,1,0,.35.34A.35.35,0,0,0,297.05,361.13Z"/><path class="b" d="M306.05,16.68a2.8,2.8,0,1,0,2.8,2.8A2.79,2.79,0,0,0,306.05,16.68Z"/><path class="b" d="M297.05,324.93a.55.55,0,1,0,.55.54A.54.54,0,0,0,297.05,324.93Z"/><path class="b" d="M306.05,197.93a1.55,1.55,0,1,0,1.55,1.54A1.55,1.55,0,0,0,306.05,197.93Z"/><path class="b" d="M306.05,234.18a1.3,1.3,0,1,0,1.3,1.29A1.3,1.3,0,0,0,306.05,234.18Z"/><path class="b" d="M306.05,161.63a1.85,1.85,0,1,0,1.85,1.84A1.84,1.84,0,0,0,306.05,161.63Z"/><path class="b" d="M306.05,89.13a2.35,2.35,0,1,0,2.35,2.35A2.34,2.34,0,0,0,306.05,89.13Z"/><path class="b" d="M306.05,125.38a2.1,2.1,0,1,0,2.09,2.09A2.1,2.1,0,0,0,306.05,125.38Z"/><path class="b" d="M306.05,52.88a2.6,2.6,0,1,0,2.59,2.6A2.6,2.6,0,0,0,306.05,52.88Z"/><path class="b" d="M297.05,71.23a2.25,2.25,0,1,0,2.25,2.24A2.24,2.24,0,0,0,297.05,71.23Z"/><path class="b" d="M297.05,35a2.45,2.45,0,1,0,2.45,2.44A2.45,2.45,0,0,0,297.05,35Z"/><path class="b" d="M288,415.47a.1.1,0,0,0,.1.1.09.09,0,0,0,.1-.1.09.09,0,0,0-.1-.09A.1.1,0,0,0,288,415.47Z"/><path class="b" d="M287.8,379.47a.25.25,0,1,0,.25-.24A.25.25,0,0,0,287.8,379.47Z"/><path class="b" d="M297.05,143.68a1.8,1.8,0,1,0,1.8,1.8A1.8,1.8,0,0,0,297.05,143.68Z"/><path class="b" d="M297.05,107.43a2,2,0,1,0,2.05,2A2,2,0,0,0,297.05,107.43Z"/><path class="b" d="M297.85,289.47a.8.8,0,1,0-.8.8A.79.79,0,0,0,297.85,289.47Z"/><path class="b" d="M288.05,343a.45.45,0,1,0,.45.45A.45.45,0,0,0,288.05,343Z"/><path class="b" d="M279.05,180.13a1.35,1.35,0,1,0,1.35,1.35A1.34,1.34,0,0,0,279.05,180.13Z"/><path class="b" d="M297.05,179.93a1.55,1.55,0,1,0,1.55,1.55A1.54,1.54,0,0,0,297.05,179.93Z"/><path class="b" d="M297.05,252.48a1,1,0,1,0,1,1A1,1,0,0,0,297.05,252.48Z"/><path class="b" d="M270.05,234.48a1,1,0,1,0,1,1A1,1,0,0,0,270.05,234.48Z"/><path class="b" d="M261.05,107.83a1.65,1.65,0,1,0,1.65,1.64A1.65,1.65,0,0,0,261.05,107.83Z"/><path class="b" d="M261.05,144a1.45,1.45,0,1,0,1.45,1.45A1.45,1.45,0,0,0,261.05,144Z"/><path class="b" d="M261.05,180.28a1.2,1.2,0,1,0,1.2,1.2A1.2,1.2,0,0,0,261.05,180.28Z"/><path class="b" d="M261.05,71.63a1.85,1.85,0,1,0,1.85,1.84A1.84,1.84,0,0,0,261.05,71.63Z"/><path class="b" d="M252,415.47a0,0,0,0,0,.1,0,.05.05,0,0,0-.1,0Z"/><path class="b" d="M261.05,35.48a2,2,0,1,0,2,2A2,2,0,0,0,261.05,35.48Z"/><circle class="b" cx="252.05" cy="379.47" r="0.15"/><path class="b" d="M261.05,254.22a.75.75,0,1,0,0-1.49.75.75,0,1,0,0,1.49Z"/><path class="b" d="M261.05,216.48a1,1,0,1,0,1,1A1,1,0,0,0,261.05,216.48Z"/><path class="b" d="M261.6,289.47a.55.55,0,0,0-.55-.54.55.55,0,1,0,0,1.09A.55.55,0,0,0,261.6,289.47Z"/><path class="b" d="M252.35,343.48a.31.31,0,0,0-.3-.31.3.3,0,0,0-.3.31.29.29,0,0,0,.3.29A.3.3,0,0,0,252.35,343.48Z"/><path class="b" d="M252.05,236.32a.85.85,0,1,0-.85-.85A.85.85,0,0,0,252.05,236.32Z"/><path class="b" d="M252.7,271.48a.65.65,0,1,0-.65.64A.65.65,0,0,0,252.7,271.48Z"/><path class="b" d="M252.5,307.48a.45.45,0,1,0-.45.44A.45.45,0,0,0,252.5,307.48Z"/><path class="b" d="M252.05,125.93a1.55,1.55,0,1,0,1.55,1.54A1.54,1.54,0,0,0,252.05,125.93Z"/><path class="b" d="M252.05,162.13a1.35,1.35,0,1,0,1.34,1.34A1.34,1.34,0,0,0,252.05,162.13Z"/><path class="b" d="M252.05,198.38a1.1,1.1,0,1,0,1.1,1.09A1.1,1.1,0,0,0,252.05,198.38Z"/><path class="b" d="M279.05,143.88a1.6,1.6,0,1,0,1.6,1.6A1.6,1.6,0,0,0,279.05,143.88Z"/><path class="b" d="M270.6,307.48a.55.55,0,1,0-.55.54A.55.55,0,0,0,270.6,307.48Z"/><path class="b" d="M270.85,271.48a.8.8,0,1,0-.8.79A.8.8,0,0,0,270.85,271.48Z"/><path class="b" d="M252.05,89.78a1.7,1.7,0,1,0,1.7,1.7A1.7,1.7,0,0,0,252.05,89.78Z"/><path class="b" d="M270.05,343.12a.36.36,0,0,0-.35.36.35.35,0,0,0,.35.34.34.34,0,0,0,.35-.34A.35.35,0,0,0,270.05,343.12Z"/><path class="b" d="M279.05,107.63a1.85,1.85,0,1,0,1.85,1.84A1.85,1.85,0,0,0,279.05,107.63Z"/><path class="b" d="M279.05,35.23a2.25,2.25,0,1,0,2.25,2.24A2.24,2.24,0,0,0,279.05,35.23Z"/><path class="b" d="M279.05,71.43a2,2,0,1,0,2,2A2,2,0,0,0,279.05,71.43Z"/><path class="b" d="M270,415.47a.1.1,0,0,0,.2,0,.1.1,0,0,0-.2,0Z"/><path class="b" d="M269.85,379.47a.2.2,0,1,0,.4,0,.2.2,0,0,0-.4,0Z"/><path class="b" d="M261.05,325.13a.35.35,0,1,0,.35.34A.35.35,0,0,0,261.05,325.13Z"/><path class="b" d="M261,397.48a.1.1,0,0,0,.1.09.09.09,0,0,0,.1-.09.1.1,0,0,0-.1-.11A.11.11,0,0,0,261,397.48Z"/><path class="b" d="M259.5,0a2.15,2.15,0,0,0-.6,1.47,2.15,2.15,0,1,0,4.3,0A2.15,2.15,0,0,0,262.6,0Z"/><path class="b" d="M260.85,361.47a.2.2,0,1,0,.4,0,.2.2,0,0,0-.4,0Z"/><path class="b" d="M270.05,125.78a1.7,1.7,0,1,0,1.7,1.69A1.7,1.7,0,0,0,270.05,125.78Z"/><path class="b" d="M270.05,162a1.5,1.5,0,1,0,1.5,1.49A1.5,1.5,0,0,0,270.05,162Z"/><path class="b" d="M270.05,198.23a1.25,1.25,0,1,0,1.25,1.24A1.25,1.25,0,0,0,270.05,198.23Z"/><path class="b" d="M270.05,53.33a2.15,2.15,0,1,0,2.14,2.15A2.15,2.15,0,0,0,270.05,53.33Z"/><path class="b" d="M270.05,17.18a2.3,2.3,0,1,0,2.29,2.3A2.29,2.29,0,0,0,270.05,17.18Z"/><path class="b" d="M270.05,89.53a1.95,1.95,0,1,0,1.95,2A1.94,1.94,0,0,0,270.05,89.53Z"/><path class="b" d="M315.05,71a2.5,2.5,0,1,0,2.49,2.49A2.5,2.5,0,0,0,315.05,71Z"/><path class="b" d="M585.05,177a4.5,4.5,0,1,0,4.49,4.5A4.49,4.49,0,0,0,585.05,177Z"/><path class="b" d="M585.05,213.63a3.85,3.85,0,1,0,3.85,3.85A3.84,3.84,0,0,0,585.05,213.63Z"/><path class="b" d="M585.05,250.18a3.3,3.3,0,1,0,3.29,3.29A3.29,3.29,0,0,0,585.05,250.18Z"/><path class="b" d="M576.05,450.73a.75.75,0,1,0,0,1.49.75.75,0,1,0,0-1.49Z"/><path class="b" d="M612.05,414.28a1.2,1.2,0,1,0,1.2,1.19A1.19,1.19,0,0,0,612.05,414.28Z"/><path class="b" d="M585.05,286.73a2.75,2.75,0,1,0,2.74,2.74A2.74,2.74,0,0,0,585.05,286.73Z"/><path class="b" d="M576,559.48a.12.12,0,0,0,0,0c.06,0,.08,0,.08,0a.06.06,0,0,0-.05-.06S576,559.45,576,559.48Z"/><path class="b" d="M576.05,487a.45.45,0,1,0,.45.44A.45.45,0,0,0,576.05,487Z"/><path class="b" d="M585.05,468.88a.6.6,0,1,0,.6.6A.6.6,0,0,0,585.05,468.88Z"/><path class="b" d="M585.05,505.12a.35.35,0,0,0-.35.35.35.35,0,0,0,.35.35.34.34,0,0,0,.35-.35A.35.35,0,0,0,585.05,505.12Z"/><path class="b" d="M585,541.47a.1.1,0,0,0,.2,0,.1.1,0,0,0-.2,0Z"/><path class="b" d="M585.05,359.78a1.7,1.7,0,1,0,1.7,1.69A1.7,1.7,0,0,0,585.05,359.78Z"/><path class="b" d="M585.05,323.23a2.25,2.25,0,1,0,2.25,2.24A2.24,2.24,0,0,0,585.05,323.23Z"/><path class="b" d="M585.05,396.18a1.3,1.3,0,1,0,1.3,1.3A1.3,1.3,0,0,0,585.05,396.18Z"/><circle class="b" cx="567.05" cy="325.47" r="2.15"/><path class="b" d="M567,541.47a.09.09,0,0,0,.1.1.1.1,0,0,0,.1-.1.1.1,0,0,0-.1-.09A.09.09,0,0,0,567,541.47Z"/><path class="b" d="M567.05,505.18a.3.3,0,1,0,.3.29A.29.29,0,0,0,567.05,505.18Z"/><path class="b" d="M522.05,341.78a1.7,1.7,0,1,0,1.7,1.7A1.7,1.7,0,0,0,522.05,341.78Z"/><path class="b" d="M576.05,168.32a4.85,4.85,0,1,0-4.84-4.85A4.85,4.85,0,0,0,576.05,168.32Z"/><circle class="b" cx="567.05" cy="361.47" r="1.65"/><path class="b" d="M567.05,432.63a.85.85,0,1,0,.85.85A.85.85,0,0,0,567.05,432.63Z"/><path class="b" d="M567.05,396.23a1.25,1.25,0,1,0,1.25,1.25A1.25,1.25,0,0,0,567.05,396.23Z"/><path class="b" d="M567.05,468.92a.56.56,0,0,0-.55.56.55.55,0,0,0,.55.54.54.54,0,0,0,.55-.54A.55.55,0,0,0,567.05,468.92Z"/><path class="b" d="M576.05,341.53a1.95,1.95,0,1,0,2,2A2,2,0,0,0,576.05,341.53Z"/><path class="b" d="M576.05,378a1.5,1.5,0,1,0,1.5,1.49A1.5,1.5,0,0,0,576.05,378Z"/><path class="b" d="M576.05,305a2.5,2.5,0,1,0,2.5,2.5A2.49,2.49,0,0,0,576.05,305Z"/><path class="b" d="M576.05,195.28a4.2,4.2,0,1,0,4.19,4.19A4.19,4.19,0,0,0,576.05,195.28Z"/><path class="b" d="M576.05,231.88a3.6,3.6,0,1,0,3.6,3.59A3.59,3.59,0,0,0,576.05,231.88Z"/><path class="b" d="M576.05,268.43a3,3,0,1,0,3,3.05A3,3,0,0,0,576.05,268.43Z"/><path class="b" d="M585.05,432.53a.95.95,0,1,0,1,1A.95.95,0,0,0,585.05,432.53Z"/><path class="b" d="M603.05,432.53a.95.95,0,1,0,1,1A.95.95,0,0,0,603.05,432.53Z"/><path class="b" d="M603.05,468.83a.65.65,0,1,0,.65.65A.65.65,0,0,0,603.05,468.83Z"/><path class="b" d="M603.05,505.12a.35.35,0,0,0-.35.35.34.34,0,0,0,.35.35.35.35,0,0,0,.35-.35A.35.35,0,0,0,603.05,505.12Z"/><path class="b" d="M602.9,541.47a.15.15,0,1,0,.3,0,.15.15,0,0,0-.3,0Z"/><path class="b" d="M603.05,323.18a2.3,2.3,0,1,0,2.29,2.29A2.29,2.29,0,0,0,603.05,323.18Z"/><path class="b" d="M603.05,396.13a1.35,1.35,0,1,0,1.35,1.35A1.35,1.35,0,0,0,603.05,396.13Z"/><path class="b" d="M603.05,359.68a1.8,1.8,0,1,0,1.79,1.79A1.79,1.79,0,0,0,603.05,359.68Z"/><path class="b" d="M612.05,195a4.45,4.45,0,1,0,4.44,4.44A4.44,4.44,0,0,0,612.05,195Z"/><path class="b" d="M612.05,341.38a2.1,2.1,0,1,0,2.1,2.1A2.1,2.1,0,0,0,612.05,341.38Z"/><path class="b" d="M612.05,377.88a1.6,1.6,0,1,0,1.6,1.59A1.59,1.59,0,0,0,612.05,377.88Z"/><path class="b" d="M603.05,286.63a2.85,2.85,0,1,0,2.85,2.84A2.85,2.85,0,0,0,603.05,286.63Z"/><path class="b" d="M612.05,304.88a2.6,2.6,0,1,0,2.6,2.6A2.59,2.59,0,0,0,612.05,304.88Z"/><path class="b" d="M612.05,231.68a3.8,3.8,0,1,0,3.79,3.79A3.8,3.8,0,0,0,612.05,231.68Z"/><path class="b" d="M612.05,268.28a3.2,3.2,0,1,0,3.2,3.2A3.19,3.19,0,0,0,612.05,268.28Z"/><path class="b" d="M594.05,195.13a4.35,4.35,0,1,0,4.34,4.34A4.34,4.34,0,0,0,594.05,195.13Z"/><path class="b" d="M594.05,304.93a2.55,2.55,0,1,0,2.54,2.55A2.54,2.54,0,0,0,594.05,304.93Z"/><path class="b" d="M594.05,341.43a2,2,0,1,0,2,2.05A2,2,0,0,0,594.05,341.43Z"/><circle class="b" cx="594.05" cy="379.47" r="1.55"/><path class="b" d="M594.05,414.33a1.15,1.15,0,1,0,1.15,1.14A1.14,1.14,0,0,0,594.05,414.33Z"/><path class="b" d="M594.05,268.38a3.1,3.1,0,1,0,3.1,3.1A3.1,3.1,0,0,0,594.05,268.38Z"/><path class="b" d="M594.05,231.78a3.7,3.7,0,1,0,3.69,3.69A3.69,3.69,0,0,0,594.05,231.78Z"/><path class="b" d="M603.05,186.17a4.7,4.7,0,1,0-4.69-4.69A4.69,4.69,0,0,0,603.05,186.17Z"/><path class="b" d="M603.05,250.08a3.4,3.4,0,1,0,3.39,3.39A3.39,3.39,0,0,0,603.05,250.08Z"/><path class="b" d="M593.8,523.48a.25.25,0,1,0,.25-.26A.25.25,0,0,0,593.8,523.48Z"/><path class="b" d="M603.05,213.43a4,4,0,1,0,4,4A4,4,0,0,0,603.05,213.43Z"/><path class="b" d="M594.05,450.68a.8.8,0,1,0,.8.79A.79.79,0,0,0,594.05,450.68Z"/><path class="b" d="M594.05,487a.45.45,0,1,0,.45.44A.45.45,0,0,0,594.05,487Z"/><path class="b" d="M594,559.48a.05.05,0,0,0,0,0s.05,0,.05,0a.13.13,0,0,0,0-.06C594,559.42,594,559.45,594,559.48Z"/><path class="b" d="M575.85,523.48a.2.2,0,0,0,.4,0,.2.2,0,1,0-.4,0Z"/><path class="b" d="M540.05,195.63a3.85,3.85,0,1,0,3.84,3.84A3.85,3.85,0,0,0,540.05,195.63Z"/><path class="b" d="M540.05,232.18a3.3,3.3,0,1,0,3.3,3.29A3.29,3.29,0,0,0,540.05,232.18Z"/><path class="b" d="M540.05,159a4.45,4.45,0,1,0,4.44,4.44A4.44,4.44,0,0,0,540.05,159Z"/><path class="b" d="M531,541.47a0,0,0,0,0,0,0s.05,0,.05,0a.07.07,0,0,0,0,0C531,541.43,531,541.45,531,541.47Z"/><path class="b" d="M531.05,469a.45.45,0,1,0,.45.45A.45.45,0,0,0,531.05,469Z"/><path class="b" d="M530.8,505.47a.25.25,0,1,0,.25-.24A.25.25,0,0,0,530.8,505.47Z"/><path class="b" d="M540.05,268.68a2.8,2.8,0,1,0,2.8,2.8A2.79,2.79,0,0,0,540.05,268.68Z"/><path class="b" d="M540.05,414.48a1,1,0,1,0,1,1A1,1,0,0,0,540.05,414.48Z"/><path class="b" d="M540.05,450.83a.65.65,0,1,0,.65.64A.65.65,0,0,0,540.05,450.83Z"/><path class="b" d="M540,559.48a.06.06,0,0,0,0,0,.05.05,0,0,0,.05,0,.06.06,0,0,0-.05-.06A.06.06,0,0,0,540,559.48Z"/><path class="b" d="M540.05,487.08a.39.39,0,0,0-.4.39.4.4,0,0,0,.8,0A.39.39,0,0,0,540.05,487.08Z"/><path class="b" d="M540.05,378.13a1.35,1.35,0,1,0,1.35,1.34A1.35,1.35,0,0,0,540.05,378.13Z"/><path class="b" d="M540.05,305.23a2.25,2.25,0,1,0,2.24,2.25A2.25,2.25,0,0,0,540.05,305.23Z"/><path class="b" d="M540.05,341.68a1.8,1.8,0,1,0,1.79,1.8A1.79,1.79,0,0,0,540.05,341.68Z"/><path class="b" d="M531.05,432.73a.75.75,0,1,0,0,1.49.75.75,0,1,0,0-1.49Z"/><path class="b" d="M531.05,140.93a4.55,4.55,0,1,0,4.55,4.55A4.55,4.55,0,0,0,531.05,140.93Z"/><path class="b" d="M521.9,523.48a.15.15,0,0,0,.3,0,.15.15,0,0,0-.3,0Z"/><path class="b" d="M522.05,487.13a.35.35,0,1,0,0,.69.35.35,0,1,0,0-.69Z"/><path class="b" d="M522.05,450.88a.6.6,0,1,0,.6.59A.59.59,0,0,0,522.05,450.88Z"/><path class="b" d="M522.05,414.53a.95.95,0,1,0,1,.94A.95.95,0,0,0,522.05,414.53Z"/><path class="b" d="M522.05,378.18a1.3,1.3,0,1,0,1.3,1.29A1.3,1.3,0,0,0,522.05,378.18Z"/><path class="b" d="M531.05,177.43a4,4,0,1,0,4,4A4,4,0,0,0,531.05,177.43Z"/><path class="b" d="M531.05,323.53a1.95,1.95,0,1,0,2,1.94A2,2,0,0,0,531.05,323.53Z"/><path class="b" d="M531.05,287.08a2.4,2.4,0,1,0,2.4,2.39A2.38,2.38,0,0,0,531.05,287.08Z"/><path class="b" d="M531.05,360a1.5,1.5,0,1,0,1.5,1.49A1.5,1.5,0,0,0,531.05,360Z"/><path class="b" d="M531.05,214a3.45,3.45,0,1,0,3.45,3.45A3.45,3.45,0,0,0,531.05,214Z"/><circle class="b" cx="531.05" cy="253.47" r="2.95"/><path class="b" d="M567.05,286.88a2.6,2.6,0,1,0,2.6,2.59A2.59,2.59,0,0,0,567.05,286.88Z"/><path class="b" d="M531.05,396.38a1.1,1.1,0,1,0,1.1,1.1A1.1,1.1,0,0,0,531.05,396.38Z"/><path class="b" d="M558.05,341.63a1.85,1.85,0,1,0,1.85,1.85A1.84,1.84,0,0,0,558.05,341.63Z"/><circle class="b" cx="558.05" cy="451.47" r="0.7"/><path class="b" d="M539.9,523.48a.15.15,0,0,0,.3,0,.15.15,0,0,0-.3,0Z"/><path class="b" d="M558.05,378a1.45,1.45,0,1,0,1.44,1.44A1.45,1.45,0,0,0,558.05,378Z"/><path class="b" d="M558.05,232a3.45,3.45,0,1,0,3.45,3.44A3.43,3.43,0,0,0,558.05,232Z"/><path class="b" d="M558.05,268.58a2.9,2.9,0,1,0,2.89,2.9A2.9,2.9,0,0,0,558.05,268.58Z"/><path class="b" d="M558.05,305.08a2.4,2.4,0,1,0,2.39,2.4A2.4,2.4,0,0,0,558.05,305.08Z"/><path class="b" d="M558.05,195.43a4,4,0,1,0,4,4A4.05,4.05,0,0,0,558.05,195.43Z"/><path class="b" d="M567.05,177.13a4.35,4.35,0,1,0,4.35,4.35A4.34,4.34,0,0,0,567.05,177.13Z"/><path class="b" d="M567.05,213.73a3.75,3.75,0,1,0,3.74,3.75A3.74,3.74,0,0,0,567.05,213.73Z"/><path class="b" d="M558.05,487.08a.39.39,0,0,0-.4.39.4.4,0,0,0,.8,0A.39.39,0,0,0,558.05,487.08Z"/><path class="b" d="M567.05,250.33a3.15,3.15,0,1,0,3.14,3.14A3.15,3.15,0,0,0,567.05,250.33Z"/><path class="b" d="M558,559.48a.05.05,0,0,0,.1,0,.05.05,0,1,0-.1,0Z"/><path class="b" d="M557.85,523.48a.2.2,0,0,0,.4,0,.2.2,0,1,0-.4,0Z"/><path class="b" d="M558.05,414.43a1,1,0,1,0,1.05,1A1,1,0,0,0,558.05,414.43Z"/><path class="b" d="M549.05,323.43a2,2,0,1,0,2.05,2A2,2,0,0,0,549.05,323.43Z"/><path class="b" d="M549.05,213.88a3.6,3.6,0,1,0,3.59,3.6A3.6,3.6,0,0,0,549.05,213.88Z"/><path class="b" d="M549.05,286.93a2.55,2.55,0,1,0,2.55,2.54A2.54,2.54,0,0,0,549.05,286.93Z"/><path class="b" d="M558.05,168.17a4.7,4.7,0,1,0-4.69-4.7A4.69,4.69,0,0,0,558.05,168.17Z"/><path class="b" d="M549.05,150.22a4.75,4.75,0,1,0-4.75-4.74A4.74,4.74,0,0,0,549.05,150.22Z"/><path class="b" d="M549.05,177.28a4.2,4.2,0,1,0,4.2,4.2A4.19,4.19,0,0,0,549.05,177.28Z"/><circle class="b" cx="549.05" cy="253.47" r="3.1"/><path class="b" d="M549.05,469a.5.5,0,1,0,0,1,.5.5,0,1,0,0-1Z"/><path class="b" d="M549,541.47a.09.09,0,0,0,.1.1.1.1,0,0,0,.1-.1.1.1,0,0,0-.1-.09A.09.09,0,0,0,549,541.47Z"/><path class="b" d="M549.05,359.93a1.55,1.55,0,1,0,1.55,1.54A1.54,1.54,0,0,0,549.05,359.93Z"/><path class="b" d="M548.8,505.47a.25.25,0,1,0,.25-.24A.25.25,0,0,0,548.8,505.47Z"/><path class="b" d="M549.05,396.33a1.15,1.15,0,1,0,1.15,1.15A1.14,1.14,0,0,0,549.05,396.33Z"/><path class="b" d="M549.05,432.68a.8.8,0,1,0,.8.8A.8.8,0,0,0,549.05,432.68Z"/><path class="b" d="M576.05,414.38a1.1,1.1,0,1,0,1.1,1.09A1.09,1.09,0,0,0,576.05,414.38Z"/><path class="b" d="M675.05,432.38a1.1,1.1,0,1,0,1.1,1.1A1.09,1.09,0,0,0,675.05,432.38Z"/><path class="b" d="M675.05,468.73a.75.75,0,1,0,0,1.49.75.75,0,1,0,0-1.49Z"/><path class="b" d="M675.05,395.93a1.55,1.55,0,1,0,1.55,1.55A1.54,1.54,0,0,0,675.05,395.93Z"/><path class="b" d="M675.05,359.48a2,2,0,1,0,2,2A2,2,0,0,0,675.05,359.48Z"/><path class="b" d="M675.05,286.38a3.1,3.1,0,1,0,3.1,3.09A3.1,3.1,0,0,0,675.05,286.38Z"/><path class="b" d="M675.05,505a.45.45,0,1,0,0,.89.45.45,0,1,0,0-.89Z"/><path class="b" d="M684.05,341.18a2.3,2.3,0,1,0,2.3,2.3A2.3,2.3,0,0,0,684.05,341.18Z"/><path class="b" d="M684.05,204.32a4.85,4.85,0,1,0-4.84-4.85A4.85,4.85,0,0,0,684.05,204.32Z"/><path class="b" d="M684.05,268a3.45,3.45,0,1,0,3.45,3.45A3.44,3.44,0,0,0,684.05,268Z"/><path class="b" d="M675,577.47a.05.05,0,0,0,.1,0,0,0,0,1,0-.1,0Z"/><circle class="b" cx="684.05" cy="307.48" r="2.84"/><path class="b" d="M684.05,231.33a4.15,4.15,0,1,0,4.14,4.14A4.14,4.14,0,0,0,684.05,231.33Z"/><path class="b" d="M674.85,541.47a.2.2,0,0,0,.4,0,.2.2,0,0,0-.4,0Z"/><path class="b" d="M675.05,249.73a3.75,3.75,0,1,0,3.74,3.74A3.74,3.74,0,0,0,675.05,249.73Z"/><path class="b" d="M675.05,322.93a2.55,2.55,0,1,0,2.55,2.54A2.54,2.54,0,0,0,675.05,322.93Z"/><path class="b" d="M666.05,268.08a3.4,3.4,0,1,0,3.39,3.4A3.39,3.39,0,0,0,666.05,268.08Z"/><path class="b" d="M666.05,304.63a2.85,2.85,0,1,0,2.85,2.85A2.85,2.85,0,0,0,666.05,304.63Z"/><path class="b" d="M666.05,231.38a4.1,4.1,0,1,0,4.09,4.09A4.09,4.09,0,0,0,666.05,231.38Z"/><path class="b" d="M657,577.47a0,0,0,0,0,0,0s.05,0,.05,0a.12.12,0,0,0,0-.05C657,577.42,657,577.45,657,577.47Z"/><path class="b" d="M666.05,341.23a2.25,2.25,0,1,0,2.24,2.25A2.25,2.25,0,0,0,666.05,341.23Z"/><path class="b" d="M656.85,541.47a.2.2,0,0,0,.4,0,.2.2,0,0,0-.4,0Z"/><circle class="b" cx="657.05" cy="505.47" r="0.4"/><path class="b" d="M666.05,377.73a1.75,1.75,0,1,0,1.75,1.74A1.74,1.74,0,0,0,666.05,377.73Z"/><path class="b" d="M666,559.48a.1.1,0,0,0,.1.09.09.09,0,0,0,.1-.09.1.1,0,0,0-.1-.11A.11.11,0,0,0,666,559.48Z"/><path class="b" d="M666.05,486.93a.55.55,0,1,0,.55.54A.55.55,0,0,0,666.05,486.93Z"/><path class="b" d="M666.05,523.17a.3.3,0,0,0-.3.31.3.3,0,0,0,.6,0A.3.3,0,0,0,666.05,523.17Z"/><path class="b" d="M675.05,213.08a4.4,4.4,0,1,0,4.39,4.4A4.39,4.39,0,0,0,675.05,213.08Z"/><path class="b" d="M666.05,414.18a1.3,1.3,0,1,0,1.29,1.29A1.3,1.3,0,0,0,666.05,414.18Z"/><path class="b" d="M666.05,450.58a.9.9,0,1,0,.9.89A.89.89,0,0,0,666.05,450.58Z"/><path class="b" d="M666.05,204.27a4.8,4.8,0,1,0-4.79-4.8A4.79,4.79,0,0,0,666.05,204.27Z"/><path class="b" d="M702.05,341.18a2.3,2.3,0,1,0,2.3,2.3A2.3,2.3,0,0,0,702.05,341.18Z"/><path class="b" d="M702.05,268a3.5,3.5,0,1,0,3.49,3.5A3.49,3.49,0,0,0,702.05,268Z"/><path class="b" d="M693.05,505a.45.45,0,1,0,.45.44A.45.45,0,0,0,693.05,505Z"/><path class="b" d="M702.05,231.28a4.2,4.2,0,1,0,4.19,4.19A4.19,4.19,0,0,0,702.05,231.28Z"/><path class="b" d="M702.05,204.37a4.9,4.9,0,1,0-4.89-4.9A4.89,4.89,0,0,0,702.05,204.37Z"/><path class="b" d="M693,577.47a.05.05,0,0,0,.1,0,0,0,0,1,0-.1,0Z"/><path class="b" d="M692.85,541.47a.2.2,0,0,0,.4,0,.2.2,0,0,0-.4,0Z"/><path class="b" d="M702.05,304.58a2.9,2.9,0,1,0,2.89,2.9A2.9,2.9,0,0,0,702.05,304.58Z"/><path class="b" d="M702,559.48a.1.1,0,0,0,.1.09.09.09,0,0,0,.1-.09.1.1,0,0,0-.1-.11A.11.11,0,0,0,702,559.48Z"/><path class="b" d="M684.05,377.68a1.8,1.8,0,1,0,1.8,1.79A1.8,1.8,0,0,0,684.05,377.68Z"/><path class="b" d="M702.05,486.88a.6.6,0,1,0,.6.59A.59.59,0,0,0,702.05,486.88Z"/><path class="b" d="M702.05,414.13a1.35,1.35,0,1,0,1.35,1.34A1.35,1.35,0,0,0,702.05,414.13Z"/><path class="b" d="M702.05,377.68a1.8,1.8,0,1,0,1.8,1.79A1.8,1.8,0,0,0,702.05,377.68Z"/><path class="b" d="M702.05,450.53a.95.95,0,1,0,1,.94A.94.94,0,0,0,702.05,450.53Z"/><path class="b" d="M702.05,523.13a.35.35,0,1,0,.35.35A.35.35,0,0,0,702.05,523.13Z"/><path class="b" d="M684,559.48a.1.1,0,0,0,.1.09.09.09,0,0,0,.1-.09.1.1,0,0,0-.1-.11A.11.11,0,0,0,684,559.48Z"/><path class="b" d="M684.05,523.17a.31.31,0,0,0-.3.31.3.3,0,0,0,.3.29.29.29,0,0,0,.3-.29A.3.3,0,0,0,684.05,523.17Z"/><path class="b" d="M684.05,486.88a.6.6,0,1,0,.6.59A.59.59,0,0,0,684.05,486.88Z"/><path class="b" d="M693.05,213a4.45,4.45,0,1,0,4.44,4.45A4.45,4.45,0,0,0,693.05,213Z"/><path class="b" d="M684.05,450.53a.95.95,0,1,0,1,.94A.95.95,0,0,0,684.05,450.53Z"/><path class="b" d="M684.05,414.13a1.35,1.35,0,1,0,1.35,1.34A1.34,1.34,0,0,0,684.05,414.13Z"/><path class="b" d="M693.05,432.38a1.1,1.1,0,1,0,1.1,1.1A1.1,1.1,0,0,0,693.05,432.38Z"/><path class="b" d="M693.05,359.43a2,2,0,1,0,2.05,2A2,2,0,0,0,693.05,359.43Z"/><path class="b" d="M693.05,395.93a1.55,1.55,0,1,0,1.55,1.55A1.54,1.54,0,0,0,693.05,395.93Z"/><path class="b" d="M693.05,468.73a.75.75,0,1,0,.75.75A.75.75,0,0,0,693.05,468.73Z"/><circle class="b" cx="693.05" cy="253.47" r="3.79"/><path class="b" d="M693.05,286.33a3.15,3.15,0,1,0,3.14,3.14A3.15,3.15,0,0,0,693.05,286.33Z"/><path class="b" d="M693.05,322.93a2.55,2.55,0,1,0,2.55,2.54A2.55,2.55,0,0,0,693.05,322.93Z"/><circle class="b" cx="621.05" cy="325.47" r="2.35"/><path class="b" d="M630.05,268.18a3.3,3.3,0,1,0,3.29,3.3A3.3,3.3,0,0,0,630.05,268.18Z"/><path class="b" d="M630.05,304.78a2.7,2.7,0,1,0,2.7,2.7A2.7,2.7,0,0,0,630.05,304.78Z"/><path class="b" d="M630.05,341.33a2.15,2.15,0,1,0,2.14,2.15A2.15,2.15,0,0,0,630.05,341.33Z"/><path class="b" d="M630.05,194.93a4.55,4.55,0,1,0,4.54,4.54A4.54,4.54,0,0,0,630.05,194.93Z"/><path class="b" d="M630.05,231.58a3.9,3.9,0,1,0,3.89,3.89A3.89,3.89,0,0,0,630.05,231.58Z"/><path class="b" d="M620.9,541.47a.15.15,0,1,0,.3,0,.15.15,0,0,0-.3,0Z"/><path class="b" d="M630.05,377.78a1.7,1.7,0,1,0,1.7,1.69A1.7,1.7,0,0,0,630.05,377.78Z"/><path class="b" d="M630.05,486.93a.55.55,0,1,0,.55.54A.54.54,0,0,0,630.05,486.93Z"/><path class="b" d="M630,559.48a.09.09,0,0,0,.1.09.1.1,0,0,0,.1-.09.11.11,0,0,0-.1-.11A.1.1,0,0,0,630,559.48Z"/><path class="b" d="M657.05,468.78a.7.7,0,1,0,.7.7A.7.7,0,0,0,657.05,468.78Z"/><path class="b" d="M639.05,186.37a4.9,4.9,0,1,0-4.89-4.89A4.89,4.89,0,0,0,639.05,186.37Z"/><path class="b" d="M629.8,523.48a.25.25,0,0,0,.25.25.26.26,0,0,0,0-.51A.26.26,0,0,0,629.8,523.48Z"/><path class="b" d="M621,577.47a.05.05,0,0,0,.1,0,0,0,0,1,0-.1,0Z"/><path class="b" d="M630.05,450.63a.85.85,0,1,0,.85.84A.85.85,0,0,0,630.05,450.63Z"/><path class="b" d="M621.05,468.83a.65.65,0,1,0,.65.65A.65.65,0,0,0,621.05,468.83Z"/><path class="b" d="M621.05,186.27a4.8,4.8,0,1,0-4.79-4.79A4.79,4.79,0,0,0,621.05,186.27Z"/><path class="b" d="M611.8,523.48a.25.25,0,1,0,.25-.26A.25.25,0,0,0,611.8,523.48Z"/><path class="b" d="M621.05,250a3.5,3.5,0,1,0,3.49,3.49A3.49,3.49,0,0,0,621.05,250Z"/><path class="b" d="M621.05,213.33a4.15,4.15,0,1,0,4.14,4.15A4.14,4.14,0,0,0,621.05,213.33Z"/><path class="b" d="M612,559.48a.09.09,0,0,0,.1.09.1.1,0,0,0,.1-.09.11.11,0,0,0-.1-.11A.1.1,0,0,0,612,559.48Z"/><path class="b" d="M612.05,487a.5.5,0,1,0,.5.49A.49.49,0,0,0,612.05,487Z"/><path class="b" d="M621.05,505.12a.35.35,0,0,0-.35.35.35.35,0,1,0,.7,0A.35.35,0,0,0,621.05,505.12Z"/><path class="b" d="M621.05,432.48a1,1,0,1,0,1,1A1,1,0,0,0,621.05,432.48Z"/><path class="b" d="M639.05,213.23a4.25,4.25,0,1,0,4.25,4.25A4.24,4.24,0,0,0,639.05,213.23Z"/><path class="b" d="M621.05,286.53a2.95,2.95,0,1,0,3,2.94A2.94,2.94,0,0,0,621.05,286.53Z"/><path class="b" d="M621.05,396.08a1.4,1.4,0,1,0,1.4,1.4A1.4,1.4,0,0,0,621.05,396.08Z"/><path class="b" d="M621.05,359.63a1.85,1.85,0,1,0,1.85,1.84A1.84,1.84,0,0,0,621.05,359.63Z"/><path class="b" d="M612.05,450.68a.8.8,0,1,0,.8.79A.79.79,0,0,0,612.05,450.68Z"/><path class="b" d="M630.05,414.23a1.25,1.25,0,1,0,1.25,1.24A1.25,1.25,0,0,0,630.05,414.23Z"/><path class="b" d="M648,559.48a.1.1,0,0,0,.2,0,.1.1,0,1,0-.2,0Z"/><path class="b" d="M648.05,523.17a.3.3,0,0,0-.3.31.3.3,0,0,0,.6,0A.3.3,0,0,0,648.05,523.17Z"/><path class="b" d="M648.05,486.93a.55.55,0,1,0,.55.54A.55.55,0,0,0,648.05,486.93Z"/><path class="b" d="M648.05,450.63a.85.85,0,1,0,.85.84A.85.85,0,0,0,648.05,450.63Z"/><path class="b" d="M648.05,377.78a1.7,1.7,0,1,0,1.7,1.69A1.7,1.7,0,0,0,648.05,377.78Z"/><path class="b" d="M657.05,213.13a4.35,4.35,0,1,0,4.34,4.35A4.34,4.34,0,0,0,657.05,213.13Z"/><path class="b" d="M648.05,414.23a1.25,1.25,0,1,0,1.25,1.24A1.25,1.25,0,0,0,648.05,414.23Z"/><path class="b" d="M657.05,396a1.5,1.5,0,1,0,1.5,1.5A1.5,1.5,0,0,0,657.05,396Z"/><circle class="b" cx="657.05" cy="253.47" r="3.64"/><path class="b" d="M648.05,341.23a2.25,2.25,0,1,0,2.25,2.25A2.25,2.25,0,0,0,648.05,341.23Z"/><path class="b" d="M657.05,432.43a1,1,0,1,0,1.05,1.05A1,1,0,0,0,657.05,432.43Z"/><path class="b" d="M657.05,359.53a1.95,1.95,0,1,0,2,1.94A2,2,0,0,0,657.05,359.53Z"/><path class="b" d="M657.05,286.38a3.1,3.1,0,1,0,3.1,3.09A3.1,3.1,0,0,0,657.05,286.38Z"/><path class="b" d="M657.05,323a2.5,2.5,0,1,0,2.49,2.49A2.5,2.5,0,0,0,657.05,323Z"/><path class="b" d="M638.9,541.47a.15.15,0,1,0,.3,0,.15.15,0,0,0-.3,0Z"/><path class="b" d="M639.05,359.58a1.9,1.9,0,1,0,1.89,1.89A1.9,1.9,0,0,0,639.05,359.58Z"/><path class="b" d="M639.05,396a1.45,1.45,0,1,0,1.45,1.45A1.45,1.45,0,0,0,639.05,396Z"/><path class="b" d="M513.05,31.68a5.79,5.79,0,1,0,5.79,5.79A5.79,5.79,0,0,0,513.05,31.68Z"/><path class="b" d="M639.05,323a2.45,2.45,0,1,0,2.45,2.44A2.45,2.45,0,0,0,639.05,323Z"/><path class="b" d="M639.05,286.48a3,3,0,1,0,3,3A3,3,0,0,0,639.05,286.48Z"/><path class="b" d="M639.05,468.78a.7.7,0,1,0,.7.7A.7.7,0,0,0,639.05,468.78Z"/><path class="b" d="M648.05,204.17a4.7,4.7,0,1,0-4.69-4.7A4.69,4.69,0,0,0,648.05,204.17Z"/><path class="b" d="M648.05,231.43a4,4,0,1,0,4,4A4,4,0,0,0,648.05,231.43Z"/><path class="b" d="M639.05,505.07a.4.4,0,0,0-.4.4.4.4,0,0,0,.8,0A.4.4,0,0,0,639.05,505.07Z"/><path class="b" d="M648.05,268.13a3.35,3.35,0,1,0,3.35,3.35A3.35,3.35,0,0,0,648.05,268.13Z"/><path class="b" d="M648.05,304.73a2.75,2.75,0,1,0,2.74,2.75A2.75,2.75,0,0,0,648.05,304.73Z"/><path class="b" d="M639.05,249.88a3.6,3.6,0,1,0,3.6,3.59A3.59,3.59,0,0,0,639.05,249.88Z"/><path class="b" d="M639,577.47a.08.08,0,0,0,0,0c.06,0,.08,0,.08,0a.05.05,0,0,0-.05-.05S639,577.45,639,577.47Z"/><path class="b" d="M639.05,432.43a1,1,0,1,0,1.05,1.05A1,1,0,0,0,639.05,432.43Z"/><path class="b" d="M423.05,105.83a3.65,3.65,0,1,0,3.64,3.64A3.64,3.64,0,0,0,423.05,105.83Z"/><path class="b" d="M414.05,269.63a1.85,1.85,0,1,0,1.85,1.85A1.85,1.85,0,0,0,414.05,269.63Z"/><path class="b" d="M414.05,306a1.45,1.45,0,1,0,1.45,1.45A1.45,1.45,0,0,0,414.05,306Z"/><path class="b" d="M414.05,160.38a3.1,3.1,0,1,0,3.09,3.09A3.09,3.09,0,0,0,414.05,160.38Z"/><path class="b" d="M414.05,196.83a2.65,2.65,0,1,0,2.65,2.64A2.64,2.64,0,0,0,414.05,196.83Z"/><path class="b" d="M414.05,87.68a3.8,3.8,0,1,0,3.8,3.8A3.79,3.79,0,0,0,414.05,87.68Z"/><path class="b" d="M414.05,342.33a1.15,1.15,0,1,0,1.15,1.15A1.15,1.15,0,0,0,414.05,342.33Z"/><path class="b" d="M414.05,124a3.45,3.45,0,1,0,3.44,3.44A3.44,3.44,0,0,0,414.05,124Z"/><path class="b" d="M414.05,451.18a.3.3,0,1,0,.3.29A.29.29,0,0,0,414.05,451.18Z"/><path class="b" d="M423.05,33.13a4.35,4.35,0,1,0,4.34,4.34A4.34,4.34,0,0,0,423.05,33.13Z"/><path class="b" d="M423.05,69.43a4,4,0,1,0,4.05,4A4,4,0,0,0,423.05,69.43Z"/><path class="b" d="M414.05,414.93a.55.55,0,1,0,.55.54A.55.55,0,0,0,414.05,414.93Z"/><path class="b" d="M414.05,378.68a.8.8,0,1,0,.8.79A.79.79,0,0,0,414.05,378.68Z"/><path class="b" d="M414,487.47a.1.1,0,0,0,.1.1.09.09,0,0,0,.1-.1.09.09,0,0,0-.1-.09A.1.1,0,0,0,414,487.47Z"/><path class="b" d="M414.05,233.23a2.25,2.25,0,1,0,2.24,2.24A2.25,2.25,0,0,0,414.05,233.23Z"/><circle class="b" cx="657.05" cy="37.47" r="8.14"/><path class="b" d="M603.05,9.36a7.88,7.88,0,0,0,7.88-7.89A7.19,7.19,0,0,0,610.78,0H595.31a8,8,0,0,0-.15,1.47A7.89,7.89,0,0,0,603.05,9.36Z"/><path class="b" d="M621.05,9.71a8.24,8.24,0,0,0,8.24-8.24A8,8,0,0,0,629.14,0H613a8.93,8.93,0,0,0-.15,1.47A8.24,8.24,0,0,0,621.05,9.71Z"/><path class="b" d="M666.06,0a8.93,8.93,0,0,0-.14,1.47,9.12,9.12,0,0,0,18,2,9.31,9.31,0,0,0,18,.58A9.43,9.43,0,0,0,711.05,11a9.32,9.32,0,0,0,3.74-.8V0Z"/><path class="b" d="M621.87,19.48a8.19,8.19,0,1,0,8.18-8.19A8.18,8.18,0,0,0,621.87,19.48Z"/><path class="b" d="M639.56,19.48A8.49,8.49,0,1,0,648.05,11,8.49,8.49,0,0,0,639.56,19.48Z"/><path class="b" d="M639.05,10a8.54,8.54,0,0,0,8.54-8.54A8.93,8.93,0,0,0,647.44,0H630.66a8.93,8.93,0,0,0-.15,1.47A8.54,8.54,0,0,0,639.05,10Z"/><path class="b" d="M567.05,8.71a7.24,7.24,0,0,0,7.24-7.24A8,8,0,0,0,574.14,0H560a7.19,7.19,0,0,0-.15,1.47A7.23,7.23,0,0,0,567.05,8.71Z"/><path class="b" d="M477.05,7a5.55,5.55,0,0,0,5.54-5.55A5.13,5.13,0,0,0,482.36,0H471.73a5.5,5.5,0,0,0-.22,1.47A5.55,5.55,0,0,0,477.05,7Z"/><path class="b" d="M531.05,8a6.54,6.54,0,0,0,6.54-6.54A6.57,6.57,0,0,0,537.41,0H524.69a6.57,6.57,0,0,0-.18,1.47A6.54,6.54,0,0,0,531.05,8Z"/><path class="b" d="M414.05,15a4.45,4.45,0,1,0,4.44,4.45A4.44,4.44,0,0,0,414.05,15Z"/><path class="b" d="M657.05,10.31a8.83,8.83,0,0,0,8.83-8.84A8.93,8.93,0,0,0,665.73,0H648.36a10.17,10.17,0,0,0-.14,1.47A8.83,8.83,0,0,0,657.05,10.31Z"/><path class="b" d="M585.05,9a7.54,7.54,0,0,0,7.54-7.54A8,8,0,0,0,592.44,0H577.66a8,8,0,0,0-.15,1.47A7.53,7.53,0,0,0,585.05,9Z"/><path class="b" d="M414.05,51.28a4.2,4.2,0,1,0,4.19,4.2A4.2,4.2,0,0,0,414.05,51.28Z"/><path class="b" d="M604.16,19.48a7.89,7.89,0,1,0,7.89-7.89A7.88,7.88,0,0,0,604.16,19.48Z"/><path class="b" d="M432.05,342.23a1.25,1.25,0,1,0,1.25,1.25A1.24,1.24,0,0,0,432.05,342.23Z"/><path class="b" d="M432.05,378.58a.9.9,0,1,0,.9.89A.89.89,0,0,0,432.05,378.58Z"/><path class="b" d="M432.05,305.88a1.6,1.6,0,1,0,1.59,1.6A1.6,1.6,0,0,0,432.05,305.88Z"/><path class="b" d="M432.05,233.08a2.4,2.4,0,1,0,2.39,2.39A2.4,2.4,0,0,0,432.05,233.08Z"/><circle class="b" cx="432.05" cy="199.47" r="2.84"/><path class="b" d="M432.05,269.48a2,2,0,1,0,2,2A2,2,0,0,0,432.05,269.48Z"/><path class="b" d="M432.05,414.88a.6.6,0,1,0,.6.59A.59.59,0,0,0,432.05,414.88Z"/><path class="b" d="M431.9,487.47a.15.15,0,1,0,.3,0,.15.15,0,0,0-.3,0Z"/><path class="b" d="M441.05,69.18a4.3,4.3,0,1,0,4.29,4.29A4.3,4.3,0,0,0,441.05,69.18Z"/><path class="b" d="M441.05,105.63a3.85,3.85,0,1,0,3.85,3.84A3.84,3.84,0,0,0,441.05,105.63Z"/><path class="b" d="M441.05,142a3.45,3.45,0,1,0,3.44,3.45A3.45,3.45,0,0,0,441.05,142Z"/><path class="b" d="M432,523.48a.05.05,0,0,0,.1,0,.05.05,0,1,0-.1,0Z"/><path class="b" d="M432.05,160.23a3.25,3.25,0,1,0,3.24,3.24A3.25,3.25,0,0,0,432.05,160.23Z"/><path class="b" d="M423.05,142.23a3.25,3.25,0,1,0,3.25,3.25A3.24,3.24,0,0,0,423.05,142.23Z"/><path class="b" d="M432.05,451.13a.35.35,0,1,0,.35.34A.35.35,0,0,0,432.05,451.13Z"/><circle class="b" cx="423.05" cy="361.47" r="0.95"/><circle class="b" cx="432.05" cy="127.47" r="3.64"/><path class="b" d="M423.05,251.43a2,2,0,1,0,2.05,2A2.05,2.05,0,0,0,423.05,251.43Z"/><circle class="b" cx="423.05" cy="289.47" r="1.65"/><circle class="b" cx="423.05" cy="181.48" r="2.84"/><path class="b" d="M423.05,215a2.45,2.45,0,1,0,2.45,2.45A2.45,2.45,0,0,0,423.05,215Z"/><path class="b" d="M423.05,324.18a1.3,1.3,0,1,0,1.3,1.29A1.3,1.3,0,0,0,423.05,324.18Z"/><path class="b" d="M422.85,469.48a.2.2,0,1,0,.4,0,.2.2,0,1,0-.4,0Z"/><path class="b" d="M423.05,396.83a.65.65,0,1,0,.65.65A.65.65,0,0,0,423.05,396.83Z"/><path class="b" d="M432.05,87.38a4.1,4.1,0,1,0,4.1,4.1A4.09,4.09,0,0,0,432.05,87.38Z"/><path class="b" d="M432.05,51a4.45,4.45,0,1,0,4.45,4.45A4.44,4.44,0,0,0,432.05,51Z"/><circle class="b" cx="423.05" cy="505.47" r="0.05"/><path class="b" d="M423.05,433.08a.4.4,0,1,0,.4.4A.39.39,0,0,0,423.05,433.08Z"/><path class="b" d="M702.41,37.47a8.59,8.59,0,0,0,12.38,7.76V29.72a8.59,8.59,0,0,0-12.38,7.75Z"/><path class="b" d="M605.51,91.48a6.54,6.54,0,1,0,6.54-6.54A6.53,6.53,0,0,0,605.51,91.48Z"/><path class="b" d="M603.05,66.79a6.69,6.69,0,1,0,6.69,6.68A6.68,6.68,0,0,0,603.05,66.79Z"/><path class="b" d="M621.05,66.59a6.89,6.89,0,1,0,6.89,6.88A6.88,6.88,0,0,0,621.05,66.59Z"/><path class="b" d="M641.11,91.48a6.94,6.94,0,1,0,6.94-6.94A6.94,6.94,0,0,0,641.11,91.48Z"/><path class="b" d="M531.05,31.39a6.09,6.09,0,1,0,6.09,6.08A6.09,6.09,0,0,0,531.05,31.39Z"/><path class="b" d="M623.31,91.48a6.74,6.74,0,1,0,6.74-6.74A6.73,6.73,0,0,0,623.31,91.48Z"/><path class="b" d="M639.05,66.39a7.09,7.09,0,1,0,7.09,7.08A7.08,7.08,0,0,0,639.05,66.39Z"/><path class="b" d="M549.05,31a6.44,6.44,0,1,0,6.44,6.43A6.43,6.43,0,0,0,549.05,31Z"/><path class="b" d="M551.61,55.48A6.44,6.44,0,1,0,558.05,49,6.43,6.43,0,0,0,551.61,55.48Z"/><path class="b" d="M663.59,109.47a6.54,6.54,0,1,0-6.54,6.54A6.53,6.53,0,0,0,663.59,109.47Z"/><path class="b" d="M533.36,19.48a6.69,6.69,0,1,0,6.69-6.69A6.68,6.68,0,0,0,533.36,19.48Z"/><path class="b" d="M585.05,67a6.44,6.44,0,1,0,6.44,6.44A6.44,6.44,0,0,0,585.05,67Z"/><path class="b" d="M567.05,67.28a6.19,6.19,0,1,0,6.19,6.19A6.19,6.19,0,0,0,567.05,67.28Z"/><path class="b" d="M569.31,55.48a6.74,6.74,0,1,0,6.74-6.74A6.73,6.73,0,0,0,569.31,55.48Z"/><path class="b" d="M587,55.48a7,7,0,1,0,7-7A7,7,0,0,0,587,55.48Z"/><path class="b" d="M480.36,19.48a5.69,5.69,0,1,0,5.69-5.7A5.68,5.68,0,0,0,480.36,19.48Z"/><path class="b" d="M477.05,32.28a5.2,5.2,0,1,0,5.19,5.19A5.19,5.19,0,0,0,477.05,32.28Z"/><path class="b" d="M462.66,19.48a5.39,5.39,0,1,0,5.39-5.4A5.39,5.39,0,0,0,462.66,19.48Z"/><path class="b" d="M495.05,32a5.5,5.5,0,1,0,5.49,5.49A5.49,5.49,0,0,0,495.05,32Z"/><path class="b" d="M459.05,6.67a5.19,5.19,0,0,0,5.19-5.2A5.14,5.14,0,0,0,464,0h-9.9a5.14,5.14,0,0,0-.24,1.47A5.19,5.19,0,0,0,459.05,6.67Z"/><path class="b" d="M666.05,84.39a7.09,7.09,0,1,0,7.08,7.09A7.09,7.09,0,0,0,666.05,84.39Z"/><path class="b" d="M498.41,55.48a5.64,5.64,0,1,0,5.64-5.65A5.64,5.64,0,0,0,498.41,55.48Z"/><path class="b" d="M691.29,91.48a7.24,7.24,0,1,0-7.24,7.23A7.24,7.24,0,0,0,691.29,91.48Z"/><path class="b" d="M714.79,96.57V86.38a7.28,7.28,0,0,0,0,10.19Z"/><path class="b" d="M699.79,109.47a6.74,6.74,0,1,0-6.74,6.74A6.73,6.73,0,0,0,699.79,109.47Z"/><path class="b" d="M668.36,109.47a6.69,6.69,0,1,0,6.69-6.68A6.69,6.69,0,0,0,668.36,109.47Z"/><path class="b" d="M709.34,91.48a7.29,7.29,0,1,0-7.29,7.28A7.29,7.29,0,0,0,709.34,91.48Z"/><path class="b" d="M703.36,73.47a7.69,7.69,0,0,0,7.69,7.69,7.55,7.55,0,0,0,3.74-1V66.8a7.55,7.55,0,0,0-3.74-1A7.68,7.68,0,0,0,703.36,73.47Z"/><path class="b" d="M513.05,7.71a6.24,6.24,0,0,0,6.24-6.24,6,6,0,0,0-.2-1.47H507a6,6,0,0,0-.2,1.47A6.24,6.24,0,0,0,513.05,7.71Z"/><path class="b" d="M585.05,30.44a7,7,0,1,0,7,7A7,7,0,0,0,585.05,30.44Z"/><path class="b" d="M568.76,19.48a7.29,7.29,0,1,0,7.29-7.29A7.28,7.28,0,0,0,568.76,19.48Z"/><path class="b" d="M567.05,30.74a6.74,6.74,0,1,0,6.74,6.73A6.73,6.73,0,0,0,567.05,30.74Z"/><path class="b" d="M586.41,19.48a7.64,7.64,0,1,0,7.64-7.64A7.64,7.64,0,0,0,586.41,19.48Z"/><path class="b" d="M603.05,30.19a7.29,7.29,0,1,0,7.29,7.28A7.28,7.28,0,0,0,603.05,30.19Z"/><path class="b" d="M621.05,29.94a7.54,7.54,0,1,0,7.53,7.53A7.54,7.54,0,0,0,621.05,29.94Z"/><circle class="b" cx="612.05" cy="55.48" r="7.24"/><path class="b" d="M622.56,55.48A7.49,7.49,0,1,0,630.05,48,7.48,7.48,0,0,0,622.56,55.48Z"/><path class="b" d="M551,19.48a7,7,0,1,0,7-7A7,7,0,0,0,551,19.48Z"/><path class="b" d="M693.05,29a8.49,8.49,0,1,0,8.49,8.48A8.49,8.49,0,0,0,693.05,29Z"/><path class="b" d="M666.72,37.47a8.34,8.34,0,1,0,8.33-8.33A8.33,8.33,0,0,0,666.72,37.47Z"/><path class="b" d="M684.05,10.54A8.94,8.94,0,1,0,693,19.48,8.93,8.93,0,0,0,684.05,10.54Z"/><path class="b" d="M515.71,19.48a6.34,6.34,0,1,0,6.34-6.34A6.33,6.33,0,0,0,515.71,19.48Z"/><path class="b" d="M711,18.37a9,9,0,1,0,0,2.21A9.23,9.23,0,0,0,714.79,27V12A9.23,9.23,0,0,0,711,18.37Z"/><path class="b" d="M549.05,8.36a6.88,6.88,0,0,0,6.89-6.89A6.56,6.56,0,0,0,555.77,0H542.33a7.19,7.19,0,0,0-.16,1.47A6.88,6.88,0,0,0,549.05,8.36Z"/><path class="b" d="M710.23,55.48a8.19,8.19,0,1,0-8.18,8.18A8.18,8.18,0,0,0,710.23,55.48Z"/><path class="b" d="M495.05,7.31a5.83,5.83,0,0,0,5.84-5.84A5.5,5.5,0,0,0,500.68,0H489.42a5.93,5.93,0,0,0-.21,1.47A5.84,5.84,0,0,0,495.05,7.31Z"/><path class="b" d="M441.05,178.43a3,3,0,1,0,3.05,3A3,3,0,0,0,441.05,178.43Z"/><path class="b" d="M714.79,61.76V49.19a8.12,8.12,0,0,0,0,12.57Z"/><path class="b" d="M666.05,10.79a8.69,8.69,0,1,0,8.68,8.69A8.69,8.69,0,0,0,666.05,10.79Z"/><path class="b" d="M498,19.48a6,6,0,1,0,6-6.05A6,6,0,0,0,498,19.48Z"/><path class="b" d="M667.56,73.47A7.49,7.49,0,1,0,675.05,66,7.49,7.49,0,0,0,667.56,73.47Z"/><path class="b" d="M657.05,66.19a7.29,7.29,0,1,0,7.29,7.28A7.28,7.28,0,0,0,657.05,66.19Z"/><path class="b" d="M640.36,55.48a7.69,7.69,0,1,0,7.69-7.69A7.68,7.68,0,0,0,640.36,55.48Z"/><path class="b" d="M666.05,47.59a7.89,7.89,0,1,0,7.88,7.89A7.89,7.89,0,0,0,666.05,47.59Z"/><path class="b" d="M639.05,29.64a7.84,7.84,0,1,0,7.83,7.83A7.84,7.84,0,0,0,639.05,29.64Z"/><path class="b" d="M700.69,73.47a7.64,7.64,0,1,0-7.64,7.64A7.64,7.64,0,0,0,700.69,73.47Z"/><path class="b" d="M684.05,47.44a8,8,0,1,0,8,8A8,8,0,0,0,684.05,47.44Z"/><path class="b" d="M477.05,105.08a4.4,4.4,0,1,0,4.39,4.39A4.4,4.4,0,0,0,477.05,105.08Z"/><path class="b" d="M495.05,323.78a1.7,1.7,0,1,0,1.7,1.69A1.7,1.7,0,0,0,495.05,323.78Z"/><path class="b" d="M495.05,250.83a2.65,2.65,0,1,0,2.65,2.64A2.64,2.64,0,0,0,495.05,250.83Z"/><path class="b" d="M495.05,287.28a2.2,2.2,0,1,0,2.2,2.19A2.19,2.19,0,0,0,495.05,287.28Z"/><path class="b" d="M495.05,214.38a3.1,3.1,0,1,0,3.09,3.1A3.09,3.09,0,0,0,495.05,214.38Z"/><path class="b" d="M485.8,487.47a.25.25,0,0,0,.5,0,.25.25,0,0,0-.5,0Z"/><path class="b" d="M495.05,177.88a3.6,3.6,0,1,0,3.59,3.6A3.59,3.59,0,0,0,495.05,177.88Z"/><path class="b" d="M495.05,141.33a4.15,4.15,0,1,0,4.14,4.15A4.14,4.14,0,0,0,495.05,141.33Z"/><path class="b" d="M495.05,114.12a4.65,4.65,0,1,0-4.64-4.65A4.64,4.64,0,0,0,495.05,114.12Z"/><path class="b" d="M495,541.47a.05.05,0,0,0,.1,0,.05.05,0,0,0-.1,0Z"/><path class="b" d="M495.05,469.08a.4.4,0,1,0,.4.4A.39.39,0,0,0,495.05,469.08Z"/><path class="b" d="M494.85,505.47a.2.2,0,1,0,.4,0,.2.2,0,0,0-.4,0Z"/><path class="b" d="M495.05,432.83a.65.65,0,1,0,.65.65A.65.65,0,0,0,495.05,432.83Z"/><path class="b" d="M495.05,360.13a1.35,1.35,0,1,0,1.35,1.34A1.34,1.34,0,0,0,495.05,360.13Z"/><path class="b" d="M495.05,396.53a.95.95,0,1,0,.95,1A.95.95,0,0,0,495.05,396.53Z"/><path class="b" d="M486.05,269.08a2.4,2.4,0,1,0,2.4,2.4A2.39,2.39,0,0,0,486.05,269.08Z"/><path class="b" d="M486.05,159.63a3.85,3.85,0,1,0,3.84,3.84A3.84,3.84,0,0,0,486.05,159.63Z"/><circle class="b" cx="486.05" cy="199.47" r="3.34"/><path class="b" d="M486.05,123.08a4.4,4.4,0,1,0,4.39,4.39A4.39,4.39,0,0,0,486.05,123.08Z"/><circle class="b" cx="477.05" cy="505.47" r="0.15"/><path class="b" d="M486.05,232.58a2.9,2.9,0,1,0,2.9,2.89A2.89,2.89,0,0,0,486.05,232.58Z"/><path class="b" d="M486,523.48a.09.09,0,0,0,.1.09.1.1,0,0,0,.1-.09.11.11,0,0,0-.1-.11A.1.1,0,0,0,486,523.48Z"/><path class="b" d="M477.05,469.12a.35.35,0,0,0-.35.36.34.34,0,0,0,.35.34.35.35,0,0,0,.35-.34A.36.36,0,0,0,477.05,469.12Z"/><path class="b" d="M486.05,414.68a.8.8,0,1,0,.8.79A.79.79,0,0,0,486.05,414.68Z"/><circle class="b" cx="486.05" cy="451.47" r="0.5"/><circle class="b" cx="486.05" cy="379.47" r="1.15"/><path class="b" d="M486.05,341.93a1.55,1.55,0,1,0,1.55,1.55A1.54,1.54,0,0,0,486.05,341.93Z"/><path class="b" d="M486.05,305.53a1.95,1.95,0,1,0,1.95,2A2,2,0,0,0,486.05,305.53Z"/><circle class="b" cx="504.05" cy="127.47" r="4.64"/><path class="b" d="M504.05,195.93a3.55,3.55,0,1,0,3.55,3.54A3.54,3.54,0,0,0,504.05,195.93Z"/><path class="b" d="M513,541.47a.08.08,0,0,0,0,0c.06,0,.08,0,.08,0a0,0,0,0,0-.05,0S513,541.45,513,541.47Z"/><path class="b" d="M513.05,432.78a.7.7,0,1,0,.7.7A.7.7,0,0,0,513.05,432.78Z"/><path class="b" d="M513.05,469a.45.45,0,1,0,.45.45A.45.45,0,0,0,513.05,469Z"/><path class="b" d="M513.05,396.43a1,1,0,1,0,1.05,1.05A1,1,0,0,0,513.05,396.43Z"/><path class="b" d="M513.05,287.18a2.3,2.3,0,1,0,2.3,2.29A2.3,2.3,0,0,0,513.05,287.18Z"/><path class="b" d="M513.05,323.63a1.85,1.85,0,1,0,1.85,1.84A1.84,1.84,0,0,0,513.05,323.63Z"/><path class="b" d="M513.05,360a1.45,1.45,0,1,0,1.45,1.44A1.45,1.45,0,0,0,513.05,360Z"/><path class="b" d="M522.05,132.32a4.85,4.85,0,1,0-4.84-4.85A4.84,4.84,0,0,0,522.05,132.32Z"/><path class="b" d="M522.05,232.33a3.15,3.15,0,1,0,3.14,3.14A3.15,3.15,0,0,0,522.05,232.33Z"/><path class="b" d="M512.85,505.47a.2.2,0,1,0,.4,0,.2.2,0,0,0-.4,0Z"/><path class="b" d="M522.05,195.78a3.7,3.7,0,1,0,3.7,3.69A3.69,3.69,0,0,0,522.05,195.78Z"/><path class="b" d="M522.05,268.83a2.65,2.65,0,1,0,2.64,2.65A2.65,2.65,0,0,0,522.05,268.83Z"/><path class="b" d="M513.05,250.68a2.8,2.8,0,1,0,2.8,2.79A2.8,2.8,0,0,0,513.05,250.68Z"/><path class="b" d="M522.05,159.18a4.3,4.3,0,1,0,4.29,4.29A4.3,4.3,0,0,0,522.05,159.18Z"/><path class="b" d="M504.05,378.23a1.25,1.25,0,1,0,1.25,1.24A1.25,1.25,0,0,0,504.05,378.23Z"/><path class="b" d="M504.05,305.43a2,2,0,1,0,2.05,2.05A2,2,0,0,0,504.05,305.43Z"/><path class="b" d="M504.05,268.93a2.55,2.55,0,1,0,2.55,2.55A2.55,2.55,0,0,0,504.05,268.93Z"/><path class="b" d="M504.05,341.88a1.6,1.6,0,1,0,1.6,1.6A1.59,1.59,0,0,0,504.05,341.88Z"/><path class="b" d="M504.05,159.38a4.1,4.1,0,1,0,4.09,4.09A4.09,4.09,0,0,0,504.05,159.38Z"/><path class="b" d="M477.05,432.88a.6.6,0,1,0,.6.6A.6.6,0,0,0,477.05,432.88Z"/><path class="b" d="M504.05,232.43a3,3,0,1,0,3.05,3A3,3,0,0,0,504.05,232.43Z"/><path class="b" d="M504.05,487.18a.29.29,0,0,0-.3.29.3.3,0,1,0,.6,0A.29.29,0,0,0,504.05,487.18Z"/><path class="b" d="M513.05,141.13a4.35,4.35,0,1,0,4.34,4.35A4.34,4.34,0,0,0,513.05,141.13Z"/><path class="b" d="M513.05,177.68a3.8,3.8,0,1,0,3.79,3.8A3.79,3.79,0,0,0,513.05,177.68Z"/><path class="b" d="M513.05,214.18a3.3,3.3,0,1,0,3.3,3.3A3.29,3.29,0,0,0,513.05,214.18Z"/><path class="b" d="M504.05,450.93a.55.55,0,1,0,.55.54A.54.54,0,0,0,504.05,450.93Z"/><path class="b" d="M504.05,414.63a.85.85,0,1,0,.85.84A.85.85,0,0,0,504.05,414.63Z"/><path class="b" d="M504,523.48a.09.09,0,0,0,.1.09.1.1,0,0,0,.1-.09.11.11,0,0,0-.1-.11A.1.1,0,0,0,504,523.48Z"/><path class="b" d="M477.05,396.58a.9.9,0,1,0,.9.9A.9.9,0,0,0,477.05,396.58Z"/><path class="b" d="M450.05,414.83a.65.65,0,1,0,.65.64A.65.65,0,0,0,450.05,414.83Z"/><path class="b" d="M450.05,378.48a1,1,0,1,0,1,1A1,1,0,0,0,450.05,378.48Z"/><path class="b" d="M450.05,451.08a.39.39,0,0,0-.4.39.4.4,0,1,0,.8,0A.39.39,0,0,0,450.05,451.08Z"/><path class="b" d="M450.05,342.13a1.35,1.35,0,1,0,1.35,1.35A1.35,1.35,0,0,0,450.05,342.13Z"/><path class="b" d="M459.05,251.13a2.35,2.35,0,1,0,2.35,2.34A2.35,2.35,0,0,0,459.05,251.13Z"/><path class="b" d="M450.05,269.33a2.15,2.15,0,1,0,2.15,2.15A2.15,2.15,0,0,0,450.05,269.33Z"/><path class="b" d="M450.05,305.78a1.7,1.7,0,1,0,1.7,1.7A1.69,1.69,0,0,0,450.05,305.78Z"/><path class="b" d="M450,523.48a.12.12,0,0,0,0,0c.06,0,.08,0,.08,0a.06.06,0,0,0-.05-.06S450,523.45,450,523.48Z"/><path class="b" d="M459.05,178.23a3.25,3.25,0,1,0,3.24,3.25A3.24,3.24,0,0,0,459.05,178.23Z"/><path class="b" d="M459.05,141.78a3.7,3.7,0,1,0,3.7,3.7A3.7,3.7,0,0,0,459.05,141.78Z"/><path class="b" d="M459.05,214.68a2.8,2.8,0,1,0,2.79,2.8A2.79,2.79,0,0,0,459.05,214.68Z"/><path class="b" d="M449.85,487.47a.2.2,0,1,0,.4,0,.2.2,0,0,0-.4,0Z"/><path class="b" d="M459.05,105.33a4.15,4.15,0,1,0,4.15,4.14A4.15,4.15,0,0,0,459.05,105.33Z"/><path class="b" d="M459.05,78a4.55,4.55,0,1,0-4.54-4.55A4.55,4.55,0,0,0,459.05,78Z"/><path class="b" d="M450.05,232.93a2.55,2.55,0,1,0,2.54,2.54A2.55,2.55,0,0,0,450.05,232.93Z"/><path class="b" d="M450.05,196.43a3,3,0,1,0,3,3A3,3,0,0,0,450.05,196.43Z"/><path class="b" d="M441.05,360.43a1,1,0,1,0,1.05,1A1,1,0,0,0,441.05,360.43Z"/><path class="b" d="M441.05,396.73a.75.75,0,1,0,.75.75A.75.75,0,0,0,441.05,396.73Z"/><path class="b" d="M441.05,251.28a2.2,2.2,0,1,0,2.2,2.19A2.2,2.2,0,0,0,441.05,251.28Z"/><path class="b" d="M441.05,287.68a1.8,1.8,0,1,0,1.8,1.79A1.8,1.8,0,0,0,441.05,287.68Z"/><path class="b" d="M441.05,433a.45.45,0,1,0,.45.45A.45.45,0,0,0,441.05,433Z"/><path class="b" d="M441.05,324.08a1.4,1.4,0,1,0,1.4,1.39A1.4,1.4,0,0,0,441.05,324.08Z"/><path class="b" d="M450.05,123.58a3.9,3.9,0,1,0,3.89,3.89A3.9,3.9,0,0,0,450.05,123.58Z"/><path class="b" d="M441,505.47a.09.09,0,0,0,.1.1.1.1,0,0,0,.1-.1.11.11,0,0,0-.1-.1A.1.1,0,0,0,441,505.47Z"/><path class="b" d="M450.05,160a3.45,3.45,0,1,0,3.45,3.44A3.44,3.44,0,0,0,450.05,160Z"/><path class="b" d="M450.05,87.13a4.35,4.35,0,1,0,4.34,4.35A4.34,4.34,0,0,0,450.05,87.13Z"/><path class="b" d="M450.05,60.22a4.75,4.75,0,1,0-4.74-4.74A4.74,4.74,0,0,0,450.05,60.22Z"/><path class="b" d="M440.8,469.48a.25.25,0,0,0,.25.24.25.25,0,1,0,0-.49A.25.25,0,0,0,440.8,469.48Z"/><path class="b" d="M468.05,414.73a.75.75,0,1,0,.75.74A.75.75,0,0,0,468.05,414.73Z"/><path class="b" d="M467.85,487.47a.2.2,0,1,0,.4,0,.2.2,0,0,0-.4,0Z"/><path class="b" d="M522.05,305.28a2.2,2.2,0,1,0,2.2,2.2A2.2,2.2,0,0,0,522.05,305.28Z"/><path class="b" d="M468.05,342a1.45,1.45,0,1,0,1.45,1.45A1.45,1.45,0,0,0,468.05,342Z"/><path class="b" d="M477.05,141.58a3.9,3.9,0,1,0,3.89,3.9A3.89,3.89,0,0,0,477.05,141.58Z"/><path class="b" d="M468.05,378.43a1,1,0,1,0,1.05,1A1,1,0,0,0,468.05,378.43Z"/><path class="b" d="M441.05,214.88a2.6,2.6,0,1,0,2.6,2.6A2.59,2.59,0,0,0,441.05,214.88Z"/><circle class="b" cx="468.05" cy="451.47" r="0.45"/><path class="b" d="M468,523.48a.05.05,0,0,0,.05,0s.05,0,.05,0a.13.13,0,0,0,0-.06C468,523.42,468,523.45,468,523.48Z"/><circle class="b" cx="477.05" cy="325.47" r="1.65"/><path class="b" d="M477.05,178a3.45,3.45,0,1,0,3.44,3.45A3.44,3.44,0,0,0,477.05,178Z"/><path class="b" d="M477.05,287.43a2,2,0,1,0,2.05,2A2.05,2.05,0,0,0,477.05,287.43Z"/><path class="b" d="M477.05,360.23a1.25,1.25,0,1,0,1.25,1.24A1.25,1.25,0,0,0,477.05,360.23Z"/><path class="b" d="M477.05,214.48a3,3,0,1,0,3,3A3,3,0,0,0,477.05,214.48Z"/><circle class="b" cx="477.05" cy="253.47" r="2.5"/><path class="b" d="M459.05,432.93a.55.55,0,1,0,.55.55A.55.55,0,0,0,459.05,432.93Z"/><path class="b" d="M459.05,287.58a1.9,1.9,0,1,0,1.9,1.89A1.9,1.9,0,0,0,459.05,287.58Z"/><path class="b" d="M459.05,469.17a.3.3,0,0,0-.3.31.3.3,0,0,0,.6,0A.3.3,0,0,0,459.05,469.17Z"/><path class="b" d="M459.05,396.68a.8.8,0,1,0,.8.8A.8.8,0,0,0,459.05,396.68Z"/><path class="b" d="M459,505.47a.1.1,0,0,0,.2,0,.1.1,0,1,0-.2,0Z"/><path class="b" d="M459.05,360.33a1.15,1.15,0,1,0,1.15,1.14A1.14,1.14,0,0,0,459.05,360.33Z"/><path class="b" d="M459.05,324a1.5,1.5,0,1,0,1.5,1.49A1.5,1.5,0,0,0,459.05,324Z"/><path class="b" d="M468.05,96.12a4.65,4.65,0,1,0-4.64-4.64A4.64,4.64,0,0,0,468.05,96.12Z"/><path class="b" d="M468.05,232.78a2.7,2.7,0,1,0,2.69,2.69A2.69,2.69,0,0,0,468.05,232.78Z"/><path class="b" d="M468.05,305.63a1.85,1.85,0,1,0,1.85,1.85A1.85,1.85,0,0,0,468.05,305.63Z"/><path class="b" d="M468.05,269.23a2.25,2.25,0,1,0,2.25,2.25A2.25,2.25,0,0,0,468.05,269.23Z"/><path class="b" d="M468.05,196.28a3.2,3.2,0,1,0,3.19,3.19A3.19,3.19,0,0,0,468.05,196.28Z"/><path class="b" d="M468.05,159.83a3.65,3.65,0,1,0,3.64,3.64A3.64,3.64,0,0,0,468.05,159.83Z"/><circle class="b" cx="468.05" cy="127.47" r="4.14"/><path class="b" d="M198.05,271.82a.35.35,0,1,0-.35-.34A.35.35,0,0,0,198.05,271.82Z"/><path class="b" d="M711.05,249.63a3.85,3.85,0,1,0,3.74,4.37V253A3.8,3.8,0,0,0,711.05,249.63Z"/><path class="b" d="M711.05,395.93a1.55,1.55,0,1,0,1.55,1.55A1.54,1.54,0,0,0,711.05,395.93Z"/><path class="b" d="M711.05,359.43a2,2,0,1,0,2.05,2A2,2,0,0,0,711.05,359.43Z"/><path class="b" d="M711.05,286.28a3.2,3.2,0,1,0,3.2,3.19A3.19,3.19,0,0,0,711.05,286.28Z"/><path class="b" d="M711.05,322.88a2.6,2.6,0,1,0,2.59,2.59A2.59,2.59,0,0,0,711.05,322.88Z"/><path class="b" d="M711.05,213a4.5,4.5,0,0,0,0,9,4.44,4.44,0,0,0,3.74-2.15v-4.69A4.44,4.44,0,0,0,711.05,213Z"/><path class="b" d="M710.85,541.47a.2.2,0,0,0,.4,0,.2.2,0,0,0-.4,0Z"/><path class="b" d="M711,577.47a.08.08,0,0,0,0,0c.05,0,.08,0,.08,0a.06.06,0,0,0-.05-.05S711,577.45,711,577.47Z"/><path class="b" d="M711.05,505a.45.45,0,1,0,.45.44A.45.45,0,0,0,711.05,505Z"/><path class="b" d="M711.05,468.73a.75.75,0,1,0,.75.75A.75.75,0,0,0,711.05,468.73Z"/><path class="b" d="M711.05,432.33a1.15,1.15,0,1,0,1.15,1.15A1.14,1.14,0,0,0,711.05,432.33Z"/><path class="b" d="M117.05,217.37a.11.11,0,0,0-.1.11.1.1,0,0,0,.1.09.09.09,0,0,0,.1-.09A.1.1,0,0,0,117.05,217.37Z"/><path class="b" d="M126.05,20.22a.75.75,0,1,0-.75-.74A.75.75,0,0,0,126.05,20.22Z"/><path class="b" d="M126.05,90.92a.56.56,0,0,0-.55.56.55.55,0,0,0,.55.54.54.54,0,0,0,.55-.54A.55.55,0,0,0,126.05,90.92Z"/><path class="b" d="M126.05,163.13a.35.35,0,1,0,0,.69.35.35,0,1,0,0-.69Z"/><path class="b" d="M126.05,127a.45.45,0,1,0,.45.44A.45.45,0,0,0,126.05,127Z"/><path class="b" d="M117.35,145.48a.3.3,0,0,0-.3-.31.31.31,0,0,0-.3.31.3.3,0,0,0,.3.29A.29.29,0,0,0,117.35,145.48Z"/><path class="b" d="M117.05,109.08a.39.39,0,0,0-.4.39.4.4,0,0,0,.8,0A.39.39,0,0,0,117.05,109.08Z"/><path class="b" d="M117,253.47a0,0,0,0,0,.1,0,.05.05,0,0,0-.1,0Z"/><path class="b" d="M117.05,181.28a.19.19,0,0,0-.2.2.2.2,0,0,0,.4,0A.19.19,0,0,0,117.05,181.28Z"/><path class="b" d="M117.05,36.93a.55.55,0,1,0,0,1.09.55.55,0,1,0,0-1.09Z"/><circle class="b" cx="117.05" cy="73.47" r="0.5"/><path class="b" d="M126.05,54.83a.65.65,0,1,0,.65.65A.65.65,0,0,0,126.05,54.83Z"/><path class="b" d="M135.05,109a.5.5,0,1,0,.5.49A.5.5,0,0,0,135.05,109Z"/><path class="b" d="M135.05,72.88a.6.6,0,1,0,.6.59A.59.59,0,0,0,135.05,72.88Z"/><path class="b" d="M135.05,145.08a.4.4,0,1,0,.4.4A.39.39,0,0,0,135.05,145.08Z"/><path class="b" d="M135.35,181.48a.3.3,0,1,0-.6,0,.3.3,0,0,0,.6,0Z"/><path class="b" d="M135.05,36.78a.7.7,0,1,0,0,1.39.7.7,0,1,0,0-1.39Z"/><path class="b" d="M135.05,217.28a.19.19,0,0,0-.2.2.2.2,0,1,0,.4,0A.19.19,0,0,0,135.05,217.28Z"/><path class="b" d="M144.05,56.27a.8.8,0,1,0-.8-.79A.79.79,0,0,0,144.05,56.27Z"/><path class="b" d="M144.05,20.37a.9.9,0,1,0-.9-.89A.89.89,0,0,0,144.05,20.37Z"/><path class="b" d="M135,289.47a.08.08,0,0,0,0,0c.06,0,.08,0,.08,0a0,0,0,0,0,0,0S135,289.45,135,289.47Z"/><path class="b" d="M135.05,253.37a.11.11,0,0,0-.1.1.1.1,0,0,0,.1.1.09.09,0,0,0,.1-.1A.1.1,0,0,0,135.05,253.37Z"/><path class="b" d="M135.05,2.22a.75.75,0,1,0,0-1.49.75.75,0,1,0,0,1.49Z"/><path class="b" d="M126,271.48a0,0,0,0,0,.1,0,.05.05,0,1,0-.1,0Z"/><path class="b" d="M126.05,235.33a.15.15,0,0,0-.15.14.15.15,0,1,0,.3,0A.15.15,0,0,0,126.05,235.33Z"/><path class="b" d="M126.05,199.22a.25.25,0,0,0-.25.25.25.25,0,0,0,.25.25.25.25,0,0,0,.25-.25A.26.26,0,0,0,126.05,199.22Z"/><path class="b" d="M99.05,2a.5.5,0,1,0-.5-.5A.5.5,0,0,0,99.05,2Z"/><path class="b" d="M117.05,2.12a.65.65,0,1,0-.65-.65A.65.65,0,0,0,117.05,2.12Z"/><path class="b" d="M99.35,109.47a.3.3,0,0,0-.6,0,.3.3,0,1,0,.6,0Z"/><path class="b" d="M99.05,37a.45.45,0,1,0,.45.44A.45.45,0,0,0,99.05,37Z"/><path class="b" d="M99.05,73.13a.35.35,0,1,0,0,.69.35.35,0,1,0,0-.69Z"/><path class="b" d="M90.05,127.23a.25.25,0,1,0,.25.24A.25.25,0,0,0,90.05,127.23Z"/><path class="b" d="M90.05,19.92a.45.45,0,1,0-.45-.44A.45.45,0,0,0,90.05,19.92Z"/><path class="b" d="M90.05,163.27a.21.21,0,0,0-.2.2.2.2,0,0,0,.4,0A.21.21,0,0,0,90.05,163.27Z"/><path class="b" d="M90.45,55.48a.4.4,0,1,0-.4.39A.39.39,0,0,0,90.45,55.48Z"/><path class="b" d="M90.05,91.82a.35.35,0,0,0,.35-.34.35.35,0,1,0-.7,0A.35.35,0,0,0,90.05,91.82Z"/><path class="b" d="M90.05,199.38a.1.1,0,0,0-.1.09.1.1,0,1,0,.2,0A.1.1,0,0,0,90.05,199.38Z"/><path class="b" d="M90,235.47a.06.06,0,0,0,0,.06s0,0,0-.06a.12.12,0,0,0,0-.05C90,235.42,90,235.45,90,235.47Z"/><path class="b" d="M108.05,163.23a.25.25,0,1,0,.25.24A.25.25,0,0,0,108.05,163.23Z"/><path class="b" d="M108.05,199.33a.15.15,0,0,0-.15.14.15.15,0,1,0,.3,0A.15.15,0,0,0,108.05,199.33Z"/><circle class="b" cx="108.05" cy="55.48" r="0.5"/><path class="b" d="M108.05,91a.45.45,0,1,0,0,.89.45.45,0,1,0,0-.89Z"/><path class="b" d="M108,271.48a0,0,0,0,0,.1,0,.05.05,0,1,0-.1,0Z"/><path class="b" d="M108.05,127.12a.35.35,0,0,0-.35.35.35.35,0,0,0,.7,0A.35.35,0,0,0,108.05,127.12Z"/><path class="b" d="M108.05,235.38a.09.09,0,0,0-.1.09.09.09,0,0,0,.1.1.1.1,0,0,0,.1-.1A.1.1,0,0,0,108.05,235.38Z"/><path class="b" d="M99.05,145.28a.19.19,0,0,0-.2.2.2.2,0,0,0,.4,0A.19.19,0,0,0,99.05,145.28Z"/><path class="b" d="M99.05,181.32a.16.16,0,0,0-.15.16.15.15,0,0,0,.3,0A.16.16,0,0,0,99.05,181.32Z"/><path class="b" d="M99,217.48s0,0,0,0a0,0,0,0,0,0,0,0,0,0,0,0,0,0A.05.05,0,0,0,99,217.48Z"/><path class="b" d="M108.05,20.07a.6.6,0,1,0-.6-.59A.59.59,0,0,0,108.05,20.07Z"/><path class="b" d="M162.05,164.07a.6.6,0,1,0-.6-.6A.6.6,0,0,0,162.05,164.07Z"/><circle class="b" cx="180.05" cy="163.47" r="0.7"/><circle class="b" cx="180.05" cy="127.47" r="0.85"/><path class="b" d="M180.05,200a.55.55,0,1,0,0-1.09.55.55,0,1,0,0,1.09Z"/><path class="b" d="M180.05,235.87a.4.4,0,0,0,.4-.4.4.4,0,0,0-.8,0A.4.4,0,0,0,180.05,235.87Z"/><path class="b" d="M180.05,92.47a1,1,0,1,0-1-1A1,1,0,0,0,180.05,92.47Z"/><path class="b" d="M180.05,20.72a1.25,1.25,0,1,0-1.25-1.24A1.25,1.25,0,0,0,180.05,20.72Z"/><path class="b" d="M171.05,110.27a.8.8,0,1,0-.8-.8A.8.8,0,0,0,171.05,110.27Z"/><path class="b" d="M180.05,56.62a1.15,1.15,0,1,0-1.15-1.14A1.14,1.14,0,0,0,180.05,56.62Z"/><path class="b" d="M171.05,2.57A1.1,1.1,0,1,0,170,1.47,1.1,1.1,0,0,0,171.05,2.57Z"/><path class="b" d="M171.05,74.37a.9.9,0,1,0-.9-.9A.9.9,0,0,0,171.05,74.37Z"/><path class="b" d="M171.05,38.47a1,1,0,1,0-1-1A1,1,0,0,0,171.05,38.47Z"/><path class="b" d="M180,343.48a.05.05,0,0,0,.1,0,.05.05,0,1,0-.1,0Z"/><path class="b" d="M171.05,217.08a.4.4,0,1,0,.4.4A.39.39,0,0,0,171.05,217.08Z"/><path class="b" d="M171.05,289.32a.15.15,0,0,0-.15.15.15.15,0,1,0,.3,0A.15.15,0,0,0,171.05,289.32Z"/><path class="b" d="M171,325.47a0,0,0,0,0,.1,0,.05.05,0,0,0-.1,0Z"/><path class="b" d="M171.05,253.23a.25.25,0,1,0,.25.24A.25.25,0,0,0,171.05,253.23Z"/><path class="b" d="M189,325.47a.1.1,0,0,0,.1.11.11.11,0,0,0,.1-.11.1.1,0,0,0-.1-.09A.09.09,0,0,0,189,325.47Z"/><path class="b" d="M188.85,289.47a.2.2,0,1,0,.4,0,.2.2,0,0,0-.4,0Z"/><path class="b" d="M189.05,2.77a1.3,1.3,0,1,0-1.3-1.3A1.3,1.3,0,0,0,189.05,2.77Z"/><path class="b" d="M189.05,38.67a1.2,1.2,0,1,0-1.2-1.2A1.2,1.2,0,0,0,189.05,38.67Z"/><path class="b" d="M189.05,253.82a.34.34,0,0,0,.35-.35.35.35,0,0,0-.35-.35.35.35,0,0,0-.35.35A.35.35,0,0,0,189.05,253.82Z"/><path class="b" d="M189.05,74.52a1,1,0,1,0-1.05-1A1,1,0,0,0,189.05,74.52Z"/><path class="b" d="M179.8,271.48a.26.26,0,0,0,.25.25.26.26,0,0,0,0-.51A.26.26,0,0,0,179.8,271.48Z"/><path class="b" d="M189.05,146.27a.8.8,0,1,0-.8-.79A.79.79,0,0,0,189.05,146.27Z"/><path class="b" d="M189.05,110.42a.95.95,0,1,0-1-1A.95.95,0,0,0,189.05,110.42Z"/><path class="b" d="M189.05,182.12a.65.65,0,1,0-.65-.64A.65.65,0,0,0,189.05,182.12Z"/><path class="b" d="M189.55,217.48a.5.5,0,1,0-.5.49A.5.5,0,0,0,189.55,217.48Z"/><path class="b" d="M180.05,307.32a.16.16,0,0,0-.15.16.15.15,0,0,0,.3,0A.16.16,0,0,0,180.05,307.32Z"/><path class="b" d="M153.05,38.32a.85.85,0,1,0-.85-.85A.85.85,0,0,0,153.05,38.32Z"/><path class="b" d="M144,307.48a.12.12,0,0,0,0,0s.08,0,.08,0a.06.06,0,0,0,0-.06S144,307.45,144,307.48Z"/><path class="b" d="M144.05,271.37a.1.1,0,0,0-.1.11.1.1,0,0,0,.2,0A.1.1,0,0,0,144.05,271.37Z"/><path class="b" d="M153.05,74.22a.75.75,0,1,0-.75-.75A.74.74,0,0,0,153.05,74.22Z"/><circle class="b" cx="153.05" cy="1.47" r="0.95"/><path class="b" d="M153.05,108.83a.65.65,0,1,0,.65.64A.65.65,0,0,0,153.05,108.83Z"/><path class="b" d="M144.05,126.88a.59.59,0,0,0-.6.59.6.6,0,0,0,1.2,0A.59.59,0,0,0,144.05,126.88Z"/><path class="b" d="M171.05,146.12a.65.65,0,1,0-.65-.64A.65.65,0,0,0,171.05,146.12Z"/><path class="b" d="M144.05,90.78a.7.7,0,1,0,.7.7A.7.7,0,0,0,144.05,90.78Z"/><path class="b" d="M144.05,235.28a.19.19,0,0,0-.2.19.2.2,0,1,0,.4,0A.19.19,0,0,0,144.05,235.28Z"/><path class="b" d="M144.4,199.47a.34.34,0,0,0-.35-.34.35.35,0,1,0,0,.69A.34.34,0,0,0,144.4,199.47Z"/><path class="b" d="M144.05,163a.45.45,0,1,0,.45.44A.45.45,0,0,0,144.05,163Z"/><path class="b" d="M162.35,235.47a.3.3,0,0,0-.6,0,.3.3,0,1,0,.6,0Z"/><path class="b" d="M162.05,271.28a.19.19,0,0,0-.2.2.2.2,0,0,0,.4,0A.19.19,0,0,0,162.05,271.28Z"/><path class="b" d="M162,307.48a.1.1,0,0,0,.1.09.09.09,0,0,0,.1-.09.1.1,0,0,0-.1-.11A.11.11,0,0,0,162,307.48Z"/><circle class="b" cx="171.05" cy="181.48" r="0.5"/><path class="b" d="M162.05,199a.45.45,0,1,0,.45.44A.45.45,0,0,0,162.05,199Z"/><path class="b" d="M153.35,217.48a.3.3,0,1,0-.6,0,.3.3,0,0,0,.6,0Z"/><path class="b" d="M153.05,253.28a.19.19,0,0,0-.2.19.2.2,0,1,0,.4,0A.19.19,0,0,0,153.05,253.28Z"/><path class="b" d="M153.05,181.08a.4.4,0,1,0,.4.4A.39.39,0,0,0,153.05,181.08Z"/><path class="b" d="M153,289.47a.1.1,0,0,0,.2,0,.1.1,0,0,0-.2,0Z"/><path class="b" d="M153.05,145a.51.51,0,0,0-.5.51.5.5,0,0,0,1,0A.51.51,0,0,0,153.05,145Z"/><path class="b" d="M162.05,92.32a.85.85,0,1,0-.85-.84A.85.85,0,0,0,162.05,92.32Z"/><path class="b" d="M162.05,56.42a.95.95,0,1,0-1-.94A.95.95,0,0,0,162.05,56.42Z"/><path class="b" d="M162.05,20.52a1,1,0,1,0-1.05-1A1,1,0,0,0,162.05,20.52Z"/><path class="b" d="M162.05,128.17a.7.7,0,1,0-.7-.7A.7.7,0,0,0,162.05,128.17Z"/><path class="b" d="M9.1,1.47a0,0,0,0,0,0,0s-.05,0-.05,0a.08.08,0,0,0,0,.05C9.08,1.52,9.1,1.5,9.1,1.47Z"/><path class="b" d="M9.1,37.47a0,0,0,0,0,0,0s-.05,0-.05,0a.08.08,0,0,0,0,.05C9.08,37.52,9.1,37.5,9.1,37.47Z"/><path class="b" d="M.1,19.48a.06.06,0,0,0,0-.06.06.06,0,0,0,0,.06.05.05,0,0,0,.05.05A.05.05,0,0,0,.1,19.48Z"/><path class="b" d="M27.05,73.52s.05,0,.05,0a.12.12,0,0,0,0,0c-.06,0-.08,0-.08,0A0,0,0,0,0,27.05,73.52Z"/><path class="b" d="M27.15,1.47a.1.1,0,0,0-.2,0,.1.1,0,0,0,.2,0Z"/><path class="b" d="M27.1,37.47a.07.07,0,0,0,0,0c-.06,0-.08,0-.08,0a0,0,0,0,0,.05.05S27.1,37.5,27.1,37.47Z"/><path class="b" d="M18.05,91.52s.05,0,.05,0a.05.05,0,0,0-.05,0s-.05,0-.05,0A0,0,0,0,0,18.05,91.52Z"/><path class="b" d="M18.1,55.48a.06.06,0,0,0-.05-.06s-.05,0-.05.06a.12.12,0,0,0,0,.05C18.07,55.53,18.1,55.5,18.1,55.48Z"/><path class="b" d="M18.15,19.48a.1.1,0,1,0-.2,0,.1.1,0,0,0,.2,0Z"/><path class="b" d="M72.05,127.32a.15.15,0,0,0-.15.15.15.15,0,1,0,.3,0A.15.15,0,0,0,72.05,127.32Z"/><path class="b" d="M72.05,19.82a.35.35,0,1,0-.35-.34A.35.35,0,0,0,72.05,19.82Z"/><path class="b" d="M72,199.47a.08.08,0,0,0,0,.05c.06,0,.08,0,.08-.05a.05.05,0,0,0,0-.05S72,199.45,72,199.47Z"/><path class="b" d="M63.3,1.47a.25.25,0,0,0-.25-.24.25.25,0,1,0,0,.49A.25.25,0,0,0,63.3,1.47Z"/><path class="b" d="M63.25,37.47a.2.2,0,0,0-.4,0,.2.2,0,0,0,.4,0Z"/><path class="b" d="M63.05,73.67a.19.19,0,0,0,.2-.2.2.2,0,0,0-.4,0A.19.19,0,0,0,63.05,73.67Z"/><path class="b" d="M63.15,109.47a.1.1,0,0,0-.1-.09.09.09,0,0,0-.1.09.09.09,0,0,0,.1.1A.1.1,0,0,0,63.15,109.47Z"/><path class="b" d="M63.1,181.48a.05.05,0,1,0-.1,0,0,0,0,0,0,.1,0Z"/><path class="b" d="M63,145.48a0,0,0,0,0,.1,0,.05.05,0,1,0-.1,0Z"/><path class="b" d="M81.2,145.48a.15.15,0,1,0-.3,0,.15.15,0,0,0,.3,0Z"/><path class="b" d="M81.05,181.37a.1.1,0,0,0-.1.11.1.1,0,0,0,.2,0A.1.1,0,0,0,81.05,181.37Z"/><path class="b" d="M81.3,73.47a.25.25,0,0,0-.5,0,.25.25,0,0,0,.5,0Z"/><path class="b" d="M81,217.48a.07.07,0,0,0,0,0s.08,0,.08,0a.05.05,0,0,0,0,0S81,217.45,81,217.48Z"/><path class="b" d="M72.05,163.38a.1.1,0,0,0-.1.09.1.1,0,0,0,.1.1.09.09,0,0,0,.1-.1A.09.09,0,0,0,72.05,163.38Z"/><path class="b" d="M81.25,109.47a.2.2,0,0,0-.4,0,.2.2,0,0,0,.4,0Z"/><path class="b" d="M81.05,37.82a.35.35,0,1,0,0-.69.35.35,0,1,0,0,.69Z"/><path class="b" d="M72.25,91.48a.2.2,0,0,0-.4,0,.2.2,0,0,0,.4,0Z"/><path class="b" d="M81.05,1.82a.34.34,0,0,0,.35-.35.35.35,0,0,0-.35-.35.35.35,0,0,0-.35.35A.35.35,0,0,0,81.05,1.82Z"/><path class="b" d="M72.35,55.48a.3.3,0,1,0-.6,0,.3.3,0,0,0,.6,0Z"/><path class="b" d="M36.15,55.48a.1.1,0,0,0-.1-.11.11.11,0,0,0-.1.11.1.1,0,0,0,.1.09A.09.09,0,0,0,36.15,55.48Z"/><circle class="b" cx="45.05" cy="1.47" r="0.2"/><path class="b" d="M36.05,91.57a.09.09,0,0,0,.1-.09.1.1,0,0,0-.1-.11.11.11,0,0,0-.1.11A.1.1,0,0,0,36.05,91.57Z"/><path class="b" d="M36,127.47a.05.05,0,0,0,0,0,0,0,0,0,0,.05,0,0,0,0,0,0-.05,0S36,127.45,36,127.47Z"/><path class="b" d="M36.2,19.48a.15.15,0,0,0-.3,0,.15.15,0,0,0,.3,0Z"/><path class="b" d="M54.15,127.47a.1.1,0,0,0-.1-.1.11.11,0,0,0-.1.1.1.1,0,0,0,.1.1A.09.09,0,0,0,54.15,127.47Z"/><path class="b" d="M54.25,55.48a.2.2,0,1,0-.4,0,.2.2,0,0,0,.4,0Z"/><path class="b" d="M54.3,19.48a.26.26,0,0,0-.25-.26.26.26,0,0,0,0,.51A.25.25,0,0,0,54.3,19.48Z"/><path class="b" d="M54.1,163.47a.05.05,0,0,0-.1,0,0,0,0,0,0,.1,0Z"/><path class="b" d="M54.2,91.48a.15.15,0,1,0-.3,0,.15.15,0,0,0,.3,0Z"/><path class="b" d="M45,145.48a0,0,0,0,0,.1,0,.05.05,0,1,0-.1,0Z"/><path class="b" d="M45.05,109.42a.05.05,0,0,0,0,0,.05.05,0,1,0,.1,0A.05.05,0,0,0,45.05,109.42Z"/><path class="b" d="M45.05,37.32a.15.15,0,0,0-.15.15.15.15,0,1,0,.3,0A.15.15,0,0,0,45.05,37.32Z"/><path class="b" d="M45.05,73.38a.09.09,0,0,0-.1.09.1.1,0,0,0,.1.11.11.11,0,0,0,.1-.11A.1.1,0,0,0,45.05,73.38Z"/></g></svg>