<svg id="a20d6132-f551-4108-be51-e60ac631a9fa" data-name="Layer 1" xmlns="http://www.w3.org/2000/svg" viewBox="0 0 749.72 216.58"><title>abraxas</title><path d="M255.67,451.8v80.44l1.24,1,23.89-19.41C290.64,522,300.4,530,310,538.22c1,.88,1.49,2.93,1.5,4.44.09,24.82.13,49.65-.06,74.47a8.63,8.63,0,0,1-2.83,5.77c-9,7.59-18.42,14.74-27.42,22.36-8.36,7.07-16.37,14.55-24.95,22.23-7.78-6.41-14.85-13-22.7-18.46-6.9-4.82-8.93-10.49-8.85-18.82.42-49,.25-98,.12-146.94,0-4.37,1.1-7.42,4.69-10.18,7.25-5.58,14.09-11.69,21.12-17.56C251.8,454.53,253.12,453.67,255.67,451.8Zm.64,83.17c-.37,2.78-.65,3.87-.65,5,0,27.3-.08,54.6.12,81.9a9.65,9.65,0,0,0,3.1,6.23c5.69,5.11,11.73,9.84,17.67,14.66a30.47,30.47,0,0,0,3.6,2.12,19.18,19.18,0,0,0,.55-2.91q0-41.7-.09-83.4c0-1.25-.22-3-1-3.67C272.27,548.43,264.8,542.18,256.31,535Z" transform="translate(-108.69 -451.8)"/><path d="M449.13,667.16c-9.76-8.08-19.3-15.86-28.66-23.85a6.84,6.84,0,0,1-2-4.67q-.2-37.73,0-75.44a7.59,7.59,0,0,1,2.36-5.05C437.22,544,453.76,530.07,470.2,516c2-1.73,3.45-1.79,5.58-.07,8.15,6.57,16.6,12.8,24.63,19.54a9.8,9.8,0,0,1,2.83,6.73q.3,41.71,0,83.43c0,4.07,1.14,6.88,4.33,9.34,4.19,3.24,8.07,6.87,12.78,10.94-7,6.68-13.66,13.13-20.56,19.28-.71.63-3.44-.11-4.6-1-6.15-4.84-12.25-9.75-18-15-3-2.72-4.92-2.11-7.57.27C463,655.42,456.07,661.18,449.13,667.16Zm22.14-23.6,1.43-.53v-5.3c0-20.33,0-40.66,0-61,0-7,1.78-14.89-.91-20.69s-9.91-9.5-15.21-14c-2-1.74-4.22-3.27-6.76-5.22a22.31,22.31,0,0,0-.53,2.87q0,41.25.05,82.48a5.85,5.85,0,0,0,1.48,4C457.53,632,464.43,637.76,471.27,643.56Z" transform="translate(-108.69 -451.8)"/><path d="M209.69,644.87c-6.52,7-12.54,13.65-18.89,20-.75.76-3.78.31-5-.6-6.3-4.91-12.43-10-18.43-15.31-2.5-2.2-4.34-2.23-6.79,0-5.8,5.25-11.89,10.18-17.64,15.47-2.49,2.29-4.29,2.2-6.78.08-7.85-6.69-16-13-23.69-19.9a11.46,11.46,0,0,1-3.63-7.46q-.4-36.21,0-72.42a10.72,10.72,0,0,1,3.19-7.19c15.81-13.77,31.91-27.2,47.8-40.87,2.65-2.29,4.39-2.4,7.16-.12,7.7,6.35,15.61,12.46,23.61,18.42,2.68,2,3.08,4.34,3.07,7.31,0,27.8,0,55.6-.11,83.4,0,3.87,1,6.61,4.09,9C202,638,206,641.74,209.69,644.87Zm-47.22-.82a22.4,22.4,0,0,0,.84-3.79c0-27.11.08-54.23-.09-81.34a8.41,8.41,0,0,0-2.72-5.41c-5.53-5-11.34-9.76-17.09-14.54a27.87,27.87,0,0,0-3.82-2.1v5.42c0,23.78.41,47.58-.21,71.35-.22,8.35,1.87,14.13,8.88,18.71C153.16,635.55,157.38,639.79,162.47,644.05Z" transform="translate(-108.69 -451.8)"/><path d="M567.6,596.8c0,7.1.7,14.28-.16,21.28-1.25,10.17,1.68,17.76,10.66,22.9a22.59,22.59,0,0,1,3.26,2.92,48.17,48.17,0,0,1-3.3,3.75c-5.86,5.44-11.86,10.73-17.63,16.26-2.48,2.39-4,2.38-7.07.32-12.82-8.58-17-20-15.62-35.26.73-8.1,2.09-14.05,9-18.84,6.64-4.6,12.48-10.36,19.32-16.15-5.9-4.42-11-9.08-16.8-12.39-9-5.09-13.11-12-11.17-22.28,1.52-8.09-1.42-14.1-8.5-18.32-1.93-1.15-3.42-3-5.55-5,7.41-7,14.43-13.82,21.67-20.36.73-.66,3.21-.36,4.18.4,5.27,4.07,10.46,8.27,15.35,12.78a8.78,8.78,0,0,1,2.23,5.65c.26,6.82,0,13.66.16,20.49,0,1.55.23,3.71,1.22,4.52,7,5.77,14.24,11.25,21.41,16.82l1.42-.47c0-4-.45-8.14.08-12.11,1.41-10.6-.93-19.28-10.92-24.78-1-.59-1.7-1.9-2.75-3.12l23.1-22c6.4,5.31,12.69,10.42,18.81,15.72.85.73,1.07,2.39,1.21,3.66.2,1.81-.24,3.72.11,5.48,2.75,13.85-2.91,23.46-14.54,30.59-4.2,2.57-7.69,6.29-12.28,10.14,4,3.32,7.3,7,11.37,9.23,11,6.12,14.83,15.09,12.88,27.24-1.77,11.09.45,20.67,11.4,26.43.92.49,1.49,1.67,2.51,2.87-7.14,6.77-14,13.47-21.19,19.89-.85.77-3.53.64-4.59-.13a174.28,174.28,0,0,1-14.82-11.84,9.11,9.11,0,0,1-2.49-6q-.37-15.24,0-30.49a8.53,8.53,0,0,0-4-7.92c-5.65-4.05-11.09-8.38-16.62-12.59Z" transform="translate(-108.69 -451.8)"/><path d="M746.48,644.56c-6.38,7.06-12.42,13.94-18.78,20.5-.66.68-3.69,0-4.93-1-6-4.71-12-9.55-17.66-14.7-3.06-2.78-5.15-2.4-8,.19-6.53,5.93-13.31,11.58-20.34,17.65C666.88,659,657.1,651,647.53,642.72c-1.12-1-1.46-3.3-1.47-5-.09-24.49-.14-49,.08-73.49a10.07,10.07,0,0,1,3.1-6.73c15.72-13.65,31.73-27,47.48-40.58,3-2.63,4.95-2.53,8,0,7.29,6.08,14.83,11.86,22.44,17.53a8.87,8.87,0,0,1,3.87,8c-.12,27.33,0,54.66-.16,82,0,4.74,1,8.22,5,11.07S743.46,641.94,746.48,644.56Zm-47.43-1,1.4-.89v-5.39c0-23.45-.43-46.92.23-70.36.23-8.41-2-14.14-8.93-18.76-4.86-3.27-9.1-7.46-14.68-12.11-.18,3.2-.36,4.94-.36,6.67,0,24,.33,47.92-.2,71.87-.16,7.6,1.85,12.82,8.14,17.07C689.79,635.13,694.28,639.56,699.05,643.56Z" transform="translate(-108.69 -451.8)"/><path d="M785,600.76c-7.88-6.59-14.67-12-21-17.78a11.51,11.51,0,0,1-3.34-7.08c-.44-7.14-.25-14.33-.09-21.49,0-1.67.41-3.94,1.53-4.89,13.9-11.92,28-23.63,42.37-35.72L831.64,536c2.72,2.21,5.69,4.16,8.09,6.67,3.6,3.76,6.78,4.17,10.32.06,2.63-3.06,5.31-3,8.37,1.25l-37.61,33c7.79,6.4,15,12.53,22.41,18.33,3,2.38,4.46,4.89,4.28,8.84-.32,6.82.11,13.67-.22,20.49a9.09,9.09,0,0,1-2.67,5.91c-13.57,11.55-27.41,22.79-41,34.32-2.68,2.28-4.3,1.22-6.38-.48-11.72-9.61-23.51-19.14-35.2-28.78-2.56-2.11-4.69-3.44-7.74-.54-.84.8-3.69.52-4.88-.31-2.47-1.73-.67-3.35.93-4.74q15.1-13.1,30.19-26.21C781.65,602.85,783,602.12,785,600.76Zm-3.29,10.57,37,29.41c0-9.44,0-17.48-.07-25.51a4,4,0,0,0-1.56-2.44c-5.51-4.55-11-9.14-16.71-13.41a5,5,0,0,0-4.68,0C791.1,603,786.83,606.88,781.67,611.33Zm9.17-67.65-2,.67c0,6.91-.87,14,.38,20.66.59,3.18,5.16,5.67,8,8.36a66.16,66.16,0,0,0,6.5,5.44c.94.68,2.87,1.4,3.46,1,4.5-3.49,8.79-7.27,13.55-11.3Z" transform="translate(-108.69 -451.8)"/><path d="M372.7,534.5l24.54-20.69,23.53,19.37c-8,6.72-15.27,13-22.84,18.91-1.06.83-4.11.3-5.45-.69-4.41-3.25-8.4-7.08-12.7-10.5-1.14-.9-3.46-2-4.12-1.47-1.42,1.06-2.29,3-3,4.76-.41,1-.08,2.3-.08,3.47,0,30-.08,60,.09,90,0,4.41-1.27,7.41-4.8,10.1-7.27,5.56-14.2,11.57-21.3,17.35-1.23,1-2.62,1.8-4.82,3.29-.12-2.87-.28-4.76-.28-6.66,0-32-.11-64,.1-96,0-4.33-1.24-7.19-4.64-9.63-3.09-2.22-5.87-4.85-9.12-7.58a32,32,0,0,1,2.74-3.14c8-6.84,16-13.57,23.91-20.48,2.5-2.19,4.46-2.23,6.91,0C364.91,528.15,368.68,531.13,372.7,534.5Z" transform="translate(-108.69 -451.8)"/></svg>