<svg xmlns="http://www.w3.org/2000/svg" viewBox="0 0 509.7 646.86"><defs><style>.cls-1{fill:none;}.cls-2{fill:#21409a;}.cls-3{fill:#ed1c24;}</style></defs><title>abraxas_logo_rooster</title><g id="Layer_2" data-name="Layer 2"><path class="cls-1" d="M335.48,716.54c.33-.76.65-1.52.78-1.83-.14-1.17,0-1.89-.34-2.36a7.81,7.81,0,0,0-1.66-1.52,8.85,8.85,0,0,0-1.69,2.25c-.17.48.36,1.37.81,1.87A13.31,13.31,0,0,0,335.48,716.54Z" transform="translate(-166.57 -212.79)"/><path class="cls-1" d="M425.07,705.34a7.61,7.61,0,0,0-1.35-2.53l-2.07,2.11,2,2.19C424.14,706.52,425.12,705.87,425.07,705.34Z" transform="translate(-166.57 -212.79)"/><path class="cls-1" d="M408.21,824.72a15.29,15.29,0,0,0-2.52,1.86c.45.41,1,1.22,1.35,1.13a20.92,20.92,0,0,0,3.49-1.71C409.24,825.25,408.52,824.57,408.21,824.72Z" transform="translate(-166.57 -212.79)"/><path class="cls-1" d="M455.1,711.38a10.87,10.87,0,0,0,2.76,1.35,19.24,19.24,0,0,0,3.15.4c0-.28,0-.56,0-.84-1.24-1.45-2.43-3-3.78-4.34-.38-.39-1.52-.68-1.77-.45a6.25,6.25,0,0,0-1.6,2.5C453.78,710.3,454.58,711.05,455.1,711.38Z" transform="translate(-166.57 -212.79)"/><path class="cls-1" d="M396.3,816.32c-.08.37.9,1,1.39,1.46a13,13,0,0,0,1.74-2.35c.13-.27-.61-.95-1.39-2.09A12.06,12.06,0,0,0,396.3,816.32Z" transform="translate(-166.57 -212.79)"/><path class="cls-1" d="M371.15,808.48l-1-.53c-.27.65-.56,1.29-.82,1.95-.73,1.89,1.5,5.83,3.53,6.13.35.05,1-.2,1.1-.45.3-1,.91-2.25.53-2.94A26.51,26.51,0,0,0,371.15,808.48Z" transform="translate(-166.57 -212.79)"/><path class="cls-1" d="M378.67,821.31l1.52.09.36-2.87-1.88,0Z" transform="translate(-166.57 -212.79)"/><path class="cls-1" d="M465.92,711.18c1.62.4,2.42-.94,2.35-2.45s-.74-3-2.53-2.76c-.88.11-1.65,1.11-3.23,2.26C464.1,709.67,464.89,710.93,465.92,711.18Z" transform="translate(-166.57 -212.79)"/><path class="cls-1" d="M494.48,714.91c.06,0,.09-.15.13-.23l3.47-5.82c-.39-.15-1-.62-1.45-.5-2.06.52-4.1,1.15-6.1,1.87a2.45,2.45,0,0,0-1.06,1.25,42.39,42.39,0,0,0,3.51,4.06C493.12,715.69,494,715.14,494.48,714.91Z" transform="translate(-166.57 -212.79)"/><path class="cls-1" d="M587.91,758.19c-1.44-1.64-2.85-1.11-4.18,0A9.06,9.06,0,0,0,582,769.53a31.69,31.69,0,0,0,6,7.3c1.25,1,4.68,1.54,5.43.72,3-3.32,6.94-6.59,5.54-12.06a64.57,64.57,0,0,1-7.18-3.39A19.23,19.23,0,0,1,587.91,758.19Z" transform="translate(-166.57 -212.79)"/><path class="cls-1" d="M479.91,590.85c.87-.84,2.52-1.76,2.44-2.49-.16-1.45-1.27-2.8-2.37-4.93-1.49,1.82-3.25,3.11-3.07,4C477.19,588.71,478.84,589.72,479.91,590.85Z" transform="translate(-166.57 -212.79)"/><path class="cls-1" d="M469.53,583.89c0,.93,1,1.91,1.58,2.87l2.86-3.2-2.52-2.26C470.77,582.16,469.58,583,469.53,583.89Z" transform="translate(-166.57 -212.79)"/><path class="cls-1" d="M509.51,768.81c-.9-.62-1.73-1.62-2.69-1.76-2.08-.31-3.05,1.28-3.24,3-.07.64,1,1.41,2,2.71Z" transform="translate(-166.57 -212.79)"/><path class="cls-1" d="M664.32,765.39a10.7,10.7,0,0,0,2.37,2c.3.14,1.75-1.09,1.66-1.44-.19-.8-1-1.44-1.82-2.42Z" transform="translate(-166.57 -212.79)"/><path class="cls-1" d="M448.18,817.33c.13-1-1.13-2.28-2-3.27-.2-.24-1.43,0-1.77.35-1.34,1.48-.54,4.57,1.1,5.85a4.88,4.88,0,0,1,1.65,2.77c.25,1.56.68,2.63,2.69,2.89.19-1.7.36-3.24.53-4.79C448.67,820.47,447.9,819.46,448.18,817.33Z" transform="translate(-166.57 -212.79)"/><path class="cls-1" d="M591.22,805.7a2.15,2.15,0,0,0,.16,1.83c1,.47,2.68,1.13,3,.73.82-.87,1-2.34,1.42-3.57l-.76-.83A32.55,32.55,0,0,0,591.22,805.7Z" transform="translate(-166.57 -212.79)"/><path class="cls-1" d="M639.51,730.61c1.9.81,3.64,1.31,2,4.35.88,1,1.66,2.41,2.83,2.88.59.24,1.95-1.24,2.85-2.07.54-.51.72-1.64,1.3-1.86,3.6-1.34,7.26-2.53,10.92-3.72,1.51-.5,3.11-.77,4.6-1.34,1.66-.65,2.42-2.05,1.49-3.64-2.4-4.13-4.84-8.26-7.56-12.18-1.9-2.74-4.12-2.77-6.93-1.09-5.53,3.29-9,8.41-12.65,13.48C636.54,727.94,636.68,729.4,639.51,730.61Z" transform="translate(-166.57 -212.79)"/><path class="cls-1" d="M541.71,792.71c-.56-.27-1.12-.53-1.69-.76-.83-.34-1.67-.65-2.51-1l-.7,2.41c.26,2.85,1.39,5,3.35,6.08a2.14,2.14,0,0,0,3.33-.93A4,4,0,0,0,541.71,792.71Z" transform="translate(-166.57 -212.79)"/><path class="cls-1" d="M666.73,732.44c-3.27-.43-6.87-1.06-9.87-.11-2.71.87-6,3.27-6.88,5.77-1.11,3,0,6.87.11,10.35,0,1,.41,2.29,0,3.06-2,3.46-4.28,6.72-6.26,10.18a4.85,4.85,0,0,0-.53,3.61c.65,1.71.12,2.65-1,3.71a31.53,31.53,0,0,0-4.13,4.12c-2,2.69-1.21,5.49,1.7,7.12,1,.55,1.89,1.26,2.84,1.9-.14.31-.27.63-.41,1-4.3-2.46-8.65-4.66-13.73-2.09l-.23-.72a12.06,12.06,0,0,1,1.05-1.94c1.89-2.43,3.95-4.72,5.73-7.22,4.91-6.91,7.16-15,9.43-23a4.26,4.26,0,0,0-.35-2.58c-3.18-7.44-9.46-10.9-16.83-12.9a3.68,3.68,0,0,0-1.32,0c-6.7.84-11.24,9.08-10.77,13.94,1.08,11.2-3.5,20.72-8.49,30.16-1,1.95-2.29,3.79-3.18,5.8-1,2.33-1.88,4.69,1.36,6.36.58.3.41,2.3.34,3.5,0,.45-.71.87-1.1,1.3a13.66,13.66,0,0,1-1.54-2.23c-1.42-3.28-4-4.1-6.4-1.46a18,18,0,0,0-4,7.23c-.28,1,1.91,2.76,3,4.17a2.53,2.53,0,0,1,.33.42c1,2.12,2.54,1.73,4.27,1.1,2.83-1,4.18-3,3.93-6.22a3.06,3.06,0,0,1,1.1,1.39c1,4.32,1.41,4.48,5.79,5.43,2,.43,3.83,1.68,5.79,2.4.84.3,2.17.62,2.68.2a61.26,61.26,0,0,0,5.32-5.13,4.4,4.4,0,0,0,1.13-1.76c.53-1.93-2.58-7.7-4.44-8.61-2-1-4-2.08-6-3.12l.1-.77c1.68-.66,3.34-1.35,5-2s2.75-.32,3,1.71c.29,2.19.74,4.29,2.81,5.74a6,6,0,0,1,3,4.94c.08,2.37,2.06,2.83,4.05,1.42a15.74,15.74,0,0,1,4.29-2.52,8.37,8.37,0,0,0,6.17-6c.72-2.35,1.29-5.21,4.68-5.28,3.77-.07,6.29-1.22,7.22-5.46.54-2.48,3.25-4.47,1.61-7,1.38-1,3-1.49,3.49-2.54,2.62-5.26,4.06-10.77,2.14-16.67-.19-.59-.18-1.62.18-1.9a2.32,2.32,0,0,1,1.94.06c3.27,1.35,4.61.51,4.54-3-.09-4.27-.11-8.55-.48-12.8C668.79,734.4,667.6,732.55,666.73,732.44Z" transform="translate(-166.57 -212.79)"/><path class="cls-1" d="M586.37,796.24c-.42-.14-2,1.48-2.07,2.36s1,2,1.56,3.08l1.07.06c.78-1,2.19-2.11,2.14-3.1S587.48,796.62,586.37,796.24Z" transform="translate(-166.57 -212.79)"/><path class="cls-1" d="M455.11,816.4c-.4-.64-1.34-1.55-1.76-1.43a3.5,3.5,0,0,0-2.14,1.77,22.72,22.72,0,0,0-.73,4.4c1,.9,2,1.8,3.07,2.67a24.57,24.57,0,0,0,3.52,2.8c.72.41,1.81.19,2.72.25a11.13,11.13,0,0,0-.56-3.16C458,821.2,456.57,818.78,455.11,816.4Z" transform="translate(-166.57 -212.79)"/><path class="cls-1" d="M529.07,799.11c1.19,1.3,2,2.19,2.8,3.08.38-.52,1.09-1.06,1.06-1.55C532.84,799,531.83,798.37,529.07,799.11Z" transform="translate(-166.57 -212.79)"/><path class="cls-1" d="M514.59,782.65c-1.55-.64-3.25-1-4.75-1.7-5.79-2.82-11.48-5.86-17.33-8.55a5.7,5.7,0,0,0-4.49.13c-.67.34-1,2.85-.42,3.77,1.84,3.1,0,4.76-1.93,6.56-1.55,1.46-2.66.95-3-.94-.5-2.77-1.06-5.55,1-8.14,1.3-1.63,2-3.75,3.26-5.43.84-1.13,2.2-2.63,3.3-2.6s2.39,1.65,3.65,2.47a27.93,27.93,0,0,0,2.9,1.44c.37-1.17,1.4-3,1-3.42-2.57-2.51-2.09-4.67.07-7,.38-.4.36-1.17.53-1.76.7-2.38,1.25-4.83,2.14-7.14,1.48-3.78,1.09-4.89-2.9-5.21-5.19-.43-10.4-.55-15.61-.6a3,3,0,0,0-2.18,1.72c-1.6,4.77-1.53,4.79-6.75,5.19a37,37,0,0,1,2,4c.35,1,.77,2.32.38,3.12-2,4.2-1.69,6.63,1.64,9.72a3.9,3.9,0,0,1,1.25,1.69,11.72,11.72,0,0,1,.07,2.72,11.45,11.45,0,0,1-2.43-.19c-3.45-1-4.05-4.72-6.39-6.84-1.77-1.61-2.9-2.05-4.73-.5a10.69,10.69,0,0,1-2.25,1.83c-4.31,1.95-4.66,2.74-3.15,7.31a14.18,14.18,0,0,1,.31,3c-1.9-1.62-3.24-3.43-5-4.14a28.8,28.8,0,0,0-7.82-1.48c-1.21-.12-3.29.14-3.61.85-1.62,3.59-6.22,5-6.66,9.42,0,.3-.74.54-1.83,1.27.36-1.51.57-2.28.72-3.06.46-2.33,1.31-4.7,1.14-7-.08-1.07-2.19-2-3.31-3a1.68,1.68,0,0,1-.58-1.31,1.75,1.75,0,0,1,1.22-.81c2.17-.41,4.41-.58,6.55-1.12a73.58,73.58,0,0,0,9.56-2.88c4.4-1.76,7.56-5.23,10.57-8.75s3.67-7.86,1.91-10.6c-2.34-3.64-4.45-7.47-7.15-10.82s-5.67-7.09-9.32-9.33a28.71,28.71,0,0,0-16.08-3.92,9.23,9.23,0,0,1-2-.51,30.39,30.39,0,0,0-4.58-.9c-2.66-.15-5.34-.07-8-.05-3.37,0-6.84-.4-10.1.24a86.21,86.21,0,0,0-12.12,3.87c-1.92.69-4.16,1.29-5.46,2.67a95,95,0,0,0-9.52,11.76c-2.22,3.33-1.09,9.62,1.6,12.63a35.22,35.22,0,0,0,3.72,3.71,117.28,117.28,0,0,0,9.3,7.21,34,34,0,0,0,6.75,3,17.08,17.08,0,0,0,4.76,1.4c5.3.42,10.35,3,15.83,1.77a.39.39,0,0,1,.26,0,7.71,7.71,0,0,0,6.38.75c.57-.14,2.11,1.08,2,1.32a32.62,32.62,0,0,1-2.39,5.8c-.15.28-2.26,0-2.29-.21-.54-3.5-3.15-3.17-5.63-3.29a5.13,5.13,0,0,1-2.8-.72c-4-3-7.91-1.28-11.89-.13a2.55,2.55,0,0,0-2.06,2.91c0,1-.76,2-1.29,2.9-.06.09-1.26-.18-1.31-.42a14.37,14.37,0,0,1-.39-3.51c0-.43.7-.8.9-1.28.39-1,1.21-2.43.84-2.87a6.93,6.93,0,0,0-3.23-1.74c-1.25-.4-2.65-.34-3.87-.79-3.45-1.28-6.79-2.86-10.27-4.06-1.68-.58-2.71-1.27-3.18-3.11a5.85,5.85,0,0,0-2.19-3.3c-2.4-1.46-4.44-2.92-4.36-6.09a3.56,3.56,0,0,0-.6-1.47c-1.18-2.3-2.59-4.54-1-7.25a1.87,1.87,0,0,0-.18-1.53c-2.17-3.79-1.22-7.81-.91-11.76a4.08,4.08,0,0,1,1-2.11c2.53-3.05,5.15-6,7.7-9,2.08-2.46,1.75-4.39-.94-6.21a24.9,24.9,0,0,1-4.1-3c-2-2.07-3.76-4.38-5.62-6.59,4.08.69,7.86,1.24,10.89,3s5.36,4.9,8.4,7.81c.79-5,4.14-8.14,7.39-11.42,1.83-1.83,3.6-2.7,6.17-2a2.8,2.8,0,0,0,2.27-.73c.29-.31,0-1.57-.39-2.07-1.08-1.29-.72-2.23,0-3.58a5.28,5.28,0,0,0,.45-4,34.92,34.92,0,0,0-3.85-6.66c-3.23-4.61-7.76-7.82-12.69-10.26a12.18,12.18,0,0,0-7.43-.93c-3.94.83-7.66,2.67-11.51,4a4,4,0,0,0-2.7,2.9,9.31,9.31,0,0,1-2.86,3.83c-3.08,2.43-6.86,2.09-10.51,2.13-1.87,0-5.21,2.74-5.44,4.7-.29,2.5,1.34,3.73,3.38,4.84,2.44,1.33,4.67,3,7.53,5a41,41,0,0,0-4.41,0,6.63,6.63,0,0,1-6.38-2.43,7,7,0,0,0-4.2-1.78,3.63,3.63,0,0,0-2.78,1.6,3.32,3.32,0,0,0,.16,3c2.39,3.53,2.47,3.47-1,6.18a8.48,8.48,0,0,0-1,.89c-1.3,1.43-1.08,2.75.73,3.26,2.08.59,2.45,1.76,2.48,3.73,0,1,1.19,2,1.89,3,.5.7,1.19,1.29,1.63,2,.81,1.37,1.5,2.81,2.25,4.22.4.76.81,1.52,1.22,2.28a13.64,13.64,0,0,1-2.2,1.09c-1.93.58-3.91,1-6.29,1.64a35.39,35.39,0,0,1,2.9,3.46c.39.6.73,1.76.43,2.14a5.48,5.48,0,0,1-2.64,1.79c-.29.09-1-1.3-1.56-2-.78-1-1.45-2.25-2.46-2.63-.51-.2-1.66,1.29-2.52,2a15.23,15.23,0,0,1-2.12,1.76c-2.47,1.44-3.1,2.68-1.77,4.36,2.19,2.76,4.45,5.47,6.84,8,1.66,1.8,1.74,2.81-.17,4.37a13.08,13.08,0,0,0-1.83,1.54,3,3,0,0,0,.62,4.54c2,1.06,2.08,3.56.1,4.9-.36.24-1,.26-1.17.57a11,11,0,0,0-1.09,3.07c-.06.39.67.9,1,1.36.67-.62,1.35-1.23,2-1.84a23.27,23.27,0,0,1,2.84-2.53c1.35-.87,3.37-1.13,4.21-2.3,2.39-3.34,5.76-3,9.18-3a36.09,36.09,0,0,1-5.27,2.81c-3,1.42-3.67,3.14-2.86,6.17a3.57,3.57,0,0,1-.57,2.59c-.9,1.3-2.18,2.34-3.15,3.61a4,4,0,0,0-.44,4.55,48.19,48.19,0,0,1,4.33-2.82,3.39,3.39,0,0,1,2.49-.22c.4.16.45,1.34.56,2.07a49,49,0,0,0,1.19,7.22c.34,1.05,1.91,1.72,2.93,2.56a13.92,13.92,0,0,1,2.54,2.13,46,46,0,0,1,2.51,4.44c4.11-2.76,4.67-7.14,6.64-10.58s4.73-6,7.69-8.5a5.2,5.2,0,0,1-.23,2.43,19.56,19.56,0,0,0-.81,4.67c.15,3.81.16,4-3.55,4.15-1.81.06-2.56.82-2.74,2.53-.22,2-.31,3.81,1.4,5.41a3.48,3.48,0,0,1,.56,2.86c-.66,2.9-1.26,5.61,2.12,7.32.4.2.57.88.82,1.34,2.91,5.28,2.91,5.28,7.43,1.6,1.13,1.71,2.16,3.51,3.44,5.12,1.56,2,3.56,1.9,5.64.88-.66-4-.59-3.88,2.82-5.78a5,5,0,0,0,2-3.12c1.14-5.51,2-11.06,3-16.6.29-1.65,1-3.19,2.91-2.46.74.29,1.38,2.21,1.18,3.21-.82,4.2-2.23,8.29-2.94,12.51a70.27,70.27,0,0,0-.55,10.07,13.83,13.83,0,0,0,.54,2.93l2.4-1.73c.47-.35,1.15-1.07,1.39-.94a2.59,2.59,0,0,1,1.26,1.5,35.86,35.86,0,0,1,.55,4.26c1.39-.7,2.43-1.32,3.54-1.75a26.13,26.13,0,0,1,3.15-.85,22.27,22.27,0,0,0,4-1c4.39-2,8.69-4.14,13.09-6.07.69-.3,1.75.24,2.64.39a7.7,7.7,0,0,1-.67,2.36c-.73,1.09-2.14,1.85-2.53,3-.66,2-1.78,2.53-3.6,2.21a2.8,2.8,0,0,0-3.57,2.33c-.3,1.28-.77,1.84-2.21,1.55-.47-.1-1.59.66-1.59,1a22.64,22.64,0,0,0,.56,3.8,6.93,6.93,0,0,0,2.09-.58c1.23-.8,2.35-1.38,3.49.06,1.37,1.74,2.58,1.34,4-.08.61-.63,2.05-1.44,2.41-1.19,3.94,2.83,2.62-.71,2.74-2.24.23-3.23.87-4,4.07-3.52,2,.33,3.92,1.6,6,2.06,1,.23,3-.19,3.19-.71.91-3.25,3-3.28,5.56-2.55,1.26.37,2.59.51,3.84.93,1.93.65,3.66,1.1,5.33-.78a2.8,2.8,0,0,1,2.74-.14c1.81,2.2,3.33,4.65,5,7,.3.43.59,1,1,1.2.64.31,1.68.72,2.05.43.69-.52,1.58-1.69,1.39-2.28-.82-2.58-1.35-5.8-3.2-7.37-2.49-2.11-3.16-4.72-3.73-7.35-.64-3-.4-6.1-.54-9.17l.78,0c.15.74.28,1.48.44,2.21.68,3.11,2.31,4.68,4.56,4.75a3.72,3.72,0,0,1,2.64,1c.38.55,0,1.8-.36,2.65s-1.13,1.27-1.29,2c-.21.93-.35,2.48.14,2.82.88.62,2.65,1.11,3.35.63,2.27-1.57,3.52-.41,5,1.06a20.4,20.4,0,0,0,3.13,2.11l.8-.53v-4.66l.88-.35c.66,1.09,1.78,2.14,1.89,3.28.21,2.3,1.32,2.89,3.34,2.75a6.48,6.48,0,0,1,2.11.14c1.82.5,2.64-.05,2.82-2a3.64,3.64,0,0,1,1.28-2.37c3.53-2.66,3.57-2.62.37-5.81-.31-.32-.68-.59-1-.93-1.79-2.26-3.92-4.34-5.25-6.85-1-1.88-1-4.3-1.36-6.5a26.28,26.28,0,0,1,0-3.5,25,25,0,0,1,3.07,1.55c4.6,3.34,9.15,6.75,13.75,10.09.6.44,1.49,1,2,.84s.87-1.17,1.18-1.86c.44-1,.78-2,1.16-3a17.57,17.57,0,0,0,2.54,1.62c1.32.56,3,1.6,4,1.17s1.51-2.42,1.61-3.77c.15-2.21.14-4.22,1.82-6.1S517.18,783.72,514.59,782.65Z" transform="translate(-166.57 -212.79)"/><path class="cls-1" d="M402.44,703.47c-.92.35-1.51,1.59-2.24,2.45.78.62,1.62,1.81,2.34,1.74.9-.08,1.71-1.19,3.27-2.43C404.13,704.3,403,703.24,402.44,703.47Z" transform="translate(-166.57 -212.79)"/><path class="cls-2" d="M396.81,666.5a.2.2,0,0,0,0,.07h.07Z" transform="translate(-166.57 -212.79)"/><path class="cls-2" d="M599.05,765.52l-.07-.06v0Z" transform="translate(-166.57 -212.79)"/><path class="cls-2" d="M675.56,739.45c-.09-6.72-2.54-12.68-5.8-18.3a54.39,54.39,0,0,0-7.48-10.4c-3-3.1-6.67-5.51-10.18-8-.81-.59-2.14-.47-3.24-.68a5.36,5.36,0,0,0,1.08,2.61c1.79,2.57,1.32,4.12-1.51,5.32a6.19,6.19,0,0,0-2.43,1.57q-4.43,5.43-8.65,11c-1.06,1.42-1.64,3.25-2.86,4.46-.83.82-2.65,1.54-3.6,1.18-4.06-1.55-7.95-3.52-11.9-5.32-1.94-.88-2.41-2.38-2.17-4.38a37.1,37.1,0,0,0,0-4.22l-1.12,0c0,2.73-.44,5.54.09,8.16,1,4.89.87,5.77-3.25,8.53a14.16,14.16,0,0,0-1.5,1.5c-1.44,1.36-3,2-4.68.42a8.13,8.13,0,0,0-1.44-.82c-.07.65.08,1.11.39,1.29,2,1.16,2.17,2.83,1.6,4.84a89.23,89.23,0,0,0-2.27,8.75c-.63,3.64-1,7.33-1.24,11a2.67,2.67,0,0,0,2.39,3c.84.18,1.5,1.13,2.57,2L599,765.45h0l.07.06-.07,0c1.4,5.47-2.49,8.74-5.54,12.06-.75.82-4.18.32-5.43-.72a31.69,31.69,0,0,1-6-7.3,9.06,9.06,0,0,1,1.72-11.35c1.33-1.1,2.74-1.63,4.18,0a19.23,19.23,0,0,0,3.89,3.91,64.57,64.57,0,0,0,7.18,3.39v0c-2.51-2.15-5.05-4.26-7.52-6.45-1.16-1-2.64-2.06-3.19-3.42-1.77-4.34-3.14-8.89-1.64-13.61.36-1.15,1.75-2,2.58-3s2-2,2-3a17.45,17.45,0,0,0-1.33-5.63c-.5-1.33-1.69-1.57-2.23,0a40.76,40.76,0,0,0-1.34,5.83c-.23,1.12-.21,2.3-.49,3.4-.91,3.5-2.14,6.93-2.82,10.47-.6,3.14-.82,6.23-3,8.91-1.61,1.95-2.33,4.61-3.86,6.64-2.17,2.87-4.68,5.49-7.1,8.16-2.08,2.28-4.24,4.49-6.49,6.86,2.29.18,3.83.25,5.36.43,2.37.29,3.05-.52,3.57-2.76a16.33,16.33,0,0,1,2.62-6.19c1.94-2.54,4.41-2.1,6.5.25,1.9,2.13,4.2,3.9,6.24,5.92.82.81,2.14,2.07,1.94,2.73-.39,1.28-1.64,2.34-2.65,3.38s-2.4,1.69-3.15,2.83c-2.25,3.41-3.61,3.95-6.87,2.06a5.81,5.81,0,0,1-1.73-1.91c-.73-1.1-1.34-2.3-2-3.46l-.82.33c.28,1.24.17,2.81.9,3.64,2.1,2.37,2,4.48.2,6.87a15.13,15.13,0,0,0-1,2.47c-1.5,3.07-1.85,7.28-6.94,6.74.43,2.14,1.46,4.13,1,5.69a35.54,35.54,0,0,1-3.94,8,3,3,0,0,1-2.61,1.22c-2.19-.86-4.22-1.91-5-4.65-.65-2.22-2.12-4.23-3.33-6.26-1-1.71-1.52-3.27-.46-5.23a7,7,0,0,0,.71-3.81,7.64,7.64,0,0,0-1.43-3.08c-1.55-2.46-1.31-3.17,1.46-3.33,2.34-.12,4.7,0,7.19,0,.51-1.88,1-3.91,1.64-5.91.34-1.13.84-2.22,1.27-3.32a19.11,19.11,0,0,0-3.77-.61c-.56,0-1.15.86-1.64,1.4a18.75,18.75,0,0,1-1.39,1.86c-1.63,1.43-3.48,2.63-5,4.17s-2.87,1.34-3.85-.35a74.55,74.55,0,0,1-3.52-7.18,2.61,2.61,0,0,1,.09-2c1.29-2.46,2.35-5.19,4.19-7.2,5.21-5.73,6.53-7,13.91-2.33,1,.65,2.42.68,3.65,1l.54-1.36c-1.66-.93-3.28-2-5-2.78-3.16-1.45-4.51-3.79-3.54-7.06.68-2.27,1.16-4.92,2.65-6.56,2.39-2.61,1.84-5.35,1.65-8.2a9.91,9.91,0,0,1,2.89-8.24,77.65,77.65,0,0,0,6.3-7.56c1.43-1.84,2.47-3.87,1.06-6.74-1.79,2.66-3.4,5-5,7.42-1.41,2.12-2.79,4.26-4.2,6.39-.93,1.39-2.34,2.63-2.73,4.15-1.09,4.17-1.86,8.43-2.53,12.69a5.71,5.71,0,0,1-3.56,4.88c-.68.29-1.6,1.34-1.51,1.9.66,4.22-1.6,6.46-5,8.21-1.06.56-1.74,2.06-2.81,2.36-2.2.61-3,2.1-3.91,3.94-1.89,3.79-5,6.64-9.22,7.25-4.43.64-4.62.34-5.75,4.69-.5,1.91-1.95,2.53-3.58,1.45s-1.51-2.36-.33-3.82c2.26-2.79,2.06-4.9-.6-7.41a19.32,19.32,0,0,0-2.64-2.24c-3.5-2.28-4.29-5.83-4.16-9.53a5.13,5.13,0,0,0-2.21-4.78c-1-.73-2.11-1.32-3.16-2-2.65-1.69-2.61-4.32-2.77-7.06-.13-2.27,1.48-2.29,2.75-2.89a16.64,16.64,0,0,0,2.83-1.42c.51-.38,1.15-1.45,1-1.76-.85-1.45-1.49-3.37-3.93-2.66-1.95.57-3.41-.13-4.43-2a31.64,31.64,0,0,0-2.41-3.18c-2.13-2.87-4-5.66-2.64-9.67.49-1.47-.22-3.79-1.17-5.19-1.12-1.63-.48-2.44.26-3.74,1.51-2.65,3.42-5.31,4-8.2s1.5-3,3.8-1.92c1.57.74,3.51.91,4.45-1a3.92,3.92,0,0,0-1.27-5.2,31,31,0,0,1-3.22-3.69,9.25,9.25,0,0,0-2.24-2.18c-2.2-1.17-2.3-2.37-.65-4.14,2.06-2.21,1.71-3.5-.66-5.47a87.76,87.76,0,0,1-6.9-6.6c-.51-.53-.92-1.89-.62-2.31a26.89,26.89,0,0,1,4.84-5.55c.74-.59,2.62.49,3.91.29.9-.14,2.39-1.16,2.37-1.77,0-1.45-.79-2.88-1.25-4.32a9.37,9.37,0,0,0-2.28,1.56c-1.35,1.68-3.08,1.64-3.9-.38a8.09,8.09,0,0,1-.14-2.84c0-2,0-4,.14-5.92,0-.62.7-1.2,1.08-1.79l.67.06a8.62,8.62,0,0,0,5.74,6.78,5.51,5.51,0,0,0,3-.19c.25-.06.55-1.15.37-1.58a10.06,10.06,0,0,0-6.15-6.2c-1.95-.64-3.35-3.49-2.36-5.36,1.8-3.37,1.35-4.15-1.6-4.3a45.37,45.37,0,0,1-3.43,4.36c-1.5,1.48-2.5-.17-3.23-1.05-.51-.61-.79-2.22-.39-2.64,2-2.13,1.05-3.88-.33-5.68-.94-1.22-1.91-2.42-2.87-3.63.17-.28.33-.57.49-.85l9.64,2.68c-.94-2-1.82-3.7-2.58-5.47-1.34-3.13.38-5.8,3.71-6,.68,0,1.89-.64,1.87-.93a4,4,0,0,0-1-2.2c-.36-.43-1.19-.43-1.65-.81-2.13-1.82-4.25-3.66-6.3-5.58-1.19-1.12-2-2.74-3.39-3.5-1.74-1-3-1.54-2.1-4,.27-.71-1.16-2.06-1.82-3.12-.78.54-2.09,1-2.24,1.63a2.36,2.36,0,0,1-2.78,2.16A2.83,2.83,0,0,1,476.9,610a6.57,6.57,0,0,1,2.24-6.71c.8-.71,2.1-1.13,2.45-2,1.35-3.24,3.46-4.17,6.75-3.08.39.14,1.6-.76,1.67-1.29.34-2.46,1.79-3.32,4.05-3.83a4.82,4.82,0,0,0,2.56-2.48c.16-.31-1.14-1.78-2-2.15-2.7-1.14-5.47-2-6.93-4.95a5.57,5.57,0,0,0-2.25-1.78c-2.2-1.31-4.48-2.5-6.66-3.85a20.25,20.25,0,0,1-2.48-2.08c.86-.65,1.73-1.29,2.58-2a4,4,0,0,0,.42-.74,29.56,29.56,0,0,0-3.36-3.66c-1.28-1-2.84-1.6-2.24-3.69s1.44-3.74,3.95-3.52c1.76.16,3.64,1,5.24.59,2-.51,5-1.59,5.48-3.09.69-2.17-2.17-2.81-4.08-3.07a8.85,8.85,0,0,0-1.63,0l-27.54,7.5-7.81-4.07c.08,1,.19,2,.36,2.94a57.1,57.1,0,0,0,3,10.47c1.34,3.49,1.75,7.82,5.61,9.61,2.35,1.09,2.44,2.51,2.41,4.59-.09,6.17,0,12.35,0,18.52a5.26,5.26,0,0,0,.47,2.33c2.91,5.57,5.55,11.35,11.76,14.27,2.92,1.37,3.55,3.69,2.68,6.87-2.34,8.53.4,15.9,5.94,22.37,1.52,1.76,1.93,3.46.72,5.31-3.69,5.67-2.3,12.05-2.55,18.17-.07,1.7,1,3.52,1.85,5.16,1.15,2.31,2.56,4.48,3.8,6.74s.24,4.11-1.23,5.58-2.8.09-3.92-.89a15.6,15.6,0,0,1-2.92-3c-2.42-3.68-6.53-4.74-10.06-6.68-.45-.25-1.15,0-1.73,0l-.58.72c2.38,2.58,4.35,5.89,7.26,7.54s4.15,4.05,5.83,6.3c1.28,1.7.21,3.56-1.38,4.82-1.41,1.1-2.6,1.86-4.08-.38-.6-.92-2.89-1-4.36-.92-.66.06-1.43,1.59-1.7,2.57-.76,2.76-2.27,3.6-4.21,1.71s-3.91-4.31-3.83-7.57a33.22,33.22,0,0,0-.52-5.24c-.37-2.9-1.22-5.82-1.05-8.68.12-2.12-.16-3.58-1.74-4.9a22.3,22.3,0,0,1-1.77-2q-3.89-4.17-7.79-8.32c-1-1-2.17-1.94-3.35-.59-.27.32.62,1.89,1.23,2.68,1.71,2.23,3.61,4.31,5.29,6.55a17.51,17.51,0,0,1,1.64,3.3,65.82,65.82,0,0,1,3.51,8c.63,2.07.4,4.4.61,6.61.29,2.87-.42,3.54-3.33,3.76-1,.07-2.7.84-2.79,1.47-.22,1.61.11,3.49,2.34,3.79s2.25,1.88,1.81,3.36c-.26.88-1.3,1.54-2,2.3-.71-1.07-1.42-2.13-2.11-3.22a3.08,3.08,0,0,1-.17-.85,6.55,6.55,0,0,1-1.6,0c-4.87-1.3-8-2.56-8.48-6.16a46.48,46.48,0,0,1-.4-11.41c.56-4.39-1-7.75-3.31-11.12-1.66-2.42-4.13-4.76-1-8.59-2,0-3.28.28-4.36,0-2.91-.91-5.73-2.12-8.61-3.14a32.87,32.87,0,0,0-3.29-.8c2.66,2.73,5.86,4.44,8,7a59.63,59.63,0,0,1,6.79,11c2.41,4.69,1.17,7.73-1.8,10.55a11.81,11.81,0,0,0-1.62,2.35,32.87,32.87,0,0,1-2,3.2c-.82,1-1.91,1.8-2.8,2.75-1.6,1.69-3.62,1.18-4.57-1a6.64,6.64,0,0,0-2.35-2.76c-4.16-2.62-5.86-6.86-7.23-11.13a26.07,26.07,0,0,0-7.43-12c-2.4-2.11-4.12-4-3.36-7.36a5.68,5.68,0,0,0-2.25.45c-3,2.05-5.95,1.85-9.14.63-2.55-1-5-.42-7.51.61-1.51.63-3.16.92-4.71,1.47-1.87.65-4.35.89-5.42,2.23-2.82,3.54-6.92,4.83-10.51,7-1,.61-2.61.21-3.91.44-1.69.29-3.69.28-5,1.2-3.78,2.75-7.13,6.09-10.94,8.81-2.73,1.94-4.28,4.55-5.87,7.32-2.9,5-6.56,9.38-12.21,11.62a2.06,2.06,0,0,0-.89,1.42c-.89,5.13-1.64,10.29-2.59,15.41a10.79,10.79,0,0,0,2,8.72c1.71,2.41,2.75,4.94,1.1,8.16-1.56,3-3.11,6.44-3.22,9.74-.22,6.55.53,13.13,1,19.69a4.43,4.43,0,0,0,1.05,2.38c3.17,3.68,6.46,7.25,9.62,10.94,1.31,1.52,3,3.07,3.48,4.88,1.59,5.65,3.54,11,7,15.81,4.11,5.64,9.21,9.52,16.06,11.28a45.1,45.1,0,0,1,10.37,4c2.81,1.53,5,4.18,7.72,5.91A35.92,35.92,0,0,0,381,831c6.37,1.84,12.68,1.91,18.89-1.38,2.5-1.32,5.75-1.59,7.91,1.54a3.41,3.41,0,0,0,1.83,1c4.53,1.25,9.31,1.94,13.57,3.79,4.76,2.08,8.58.31,12.3-1.79,4.1-2.32,6.43-2.49,10.5.12,2.64,1.7,5.23,3.53,8.86,2.06,1.57-.64,3.68.17,5.51,0,3.05-.29,6.62,0,9-1.51,3.61-2.33,7.26-5.22,8.51-9.9.54-2,1.91-3,4.06-2.35,4.55,1.32,9.13.42,13.7.17a5.44,5.44,0,0,0,2.29-.59c7-3.82,12.54-8.87,14.85-16.84.25-.84,1.35-2,2.09-2,2.79-.08,5.74-.22,8.37.56,3.52,1,6.79,2.92,10.17,4.43a7.09,7.09,0,0,0,6.85-.24c3.31-1.87,5.92-.22,6.2,3.63.09,1.27.25,2.54.37,3.82l.69-.76c2.22.74,4.61,1.15,6.61,2.27,3.57,2,4.5,7,2.44,10.49a5.8,5.8,0,0,0-.72,2.74c0,5.46-.27,5.64-5.26,3.88-.14-.05-.33.07-.5.11-2.49,3.31-5,7-8.42,8.91-5.21,2.84-10.32,5.67-14.91,9.45-1.37,1.13-5.31.3-6.42-1.27-.7-1,.49-3.82,2.14-4.69,3.89-2,7.86-3.93,11.74-6a5.7,5.7,0,0,0,2.19-2.14c2.57-4.67,5-9.41,9.28-12.87,2.5-2,2-4.58,1.52-7.5-.56.42-.94.56-1.09.82-1.13,2.13-1.81,4.67-3.41,6.34-3.4,3.58-5.62,8-9.62,11.28a66.14,66.14,0,0,1-17.26,10.7c-1.53.63-3.42.4-5.15.5-2,.11-4-.17-5.88.29a2.76,2.76,0,0,0-.69,5,46.71,46.71,0,0,0,9.19,4.72c6.22,2,12.53,3.13,18.84-.36,3.07-1.7,6.84-2.2,9.77-4.07,6.78-4.33,13.59-8.7,17.8-16,2.81-4.88,7.27-8.64,9.24-14.19,1.22-3.39,4.07-4.47,7.46-3.1s7.69.73,10.65,3.71c.32.32,1.19.19,1.79.14,4.58-.34,9.17-1,13.74-1,8.6.08,16.86-2,24.77-4.63,9.64-3.21,18.67-8,26.3-15.13,4.23-4,8.24-8,11-13.08a85.8,85.8,0,0,0,6.85-14.56,103.7,103.7,0,0,0,4.58-19.62C676.71,750.49,675.64,744.93,675.56,739.45ZM480,583.43c1.1,2.13,2.21,3.48,2.37,4.93.08.73-1.57,1.65-2.44,2.49-1.07-1.13-2.72-2.14-3-3.44C476.73,586.54,478.49,585.25,480,583.43Zm-8.87,3.33c-.57-1-1.63-1.94-1.58-2.87s1.24-1.73,1.92-2.59l2.52,2.26Zm35.71,180.29c1,.14,1.79,1.14,2.69,1.76l-3.9,4c-1-1.3-2.1-2.07-2-2.71C503.77,768.33,504.74,766.74,506.82,767.05Zm-16.29-56.82c2-.72,4-1.35,6.1-1.87.46-.12,1.06.35,1.45.5l-3.47,5.82c0,.08-.07.2-.13.23-.52.23-1.36.78-1.5.63a42.39,42.39,0,0,1-3.51-4.06A2.45,2.45,0,0,1,490.53,710.23ZM465.74,706c1.79-.21,2.46,1.24,2.53,2.76s-.73,2.85-2.35,2.45c-1-.25-1.82-1.51-3.41-2.95C464.09,707.08,464.86,706.08,465.74,706Zm-10.26,1.53c.25-.23,1.39.06,1.77.45,1.35,1.37,2.54,2.89,3.78,4.34,0,.28,0,.56,0,.84a19.24,19.24,0,0,1-3.15-.4,10.87,10.87,0,0,1-2.76-1.35c-.52-.33-1.32-1.08-1.22-1.38A6.25,6.25,0,0,1,455.48,707.5Zm-31.76-4.69a7.61,7.61,0,0,1,1.35,2.53c.05.53-.93,1.18-1.45,1.77l-2-2.19Zm-91.15,10.27a8.85,8.85,0,0,1,1.69-2.25,7.81,7.81,0,0,1,1.66,1.52c.3.47.2,1.19.34,2.36-.13.31-.45,1.07-.78,1.83a13.31,13.31,0,0,1-2.1-1.59C332.93,714.45,332.4,713.56,332.57,713.08Zm41.36,102.5c-.08.25-.75.5-1.1.45-2-.3-4.26-4.24-3.53-6.13.26-.66.55-1.3.82-1.95l1,.53a26.51,26.51,0,0,1,3.31,4.16C374.84,813.33,374.23,814.61,373.93,815.58Zm6.26,5.82-1.52-.09v-2.8l1.88,0Zm19.24-6a13,13,0,0,1-1.74,2.35c-.49-.49-1.47-1.09-1.39-1.46a12.06,12.06,0,0,1,1.74-3C398.82,814.48,399.56,815.16,399.43,815.43ZM407,827.71c-.33.09-.9-.72-1.35-1.13a15.29,15.29,0,0,1,2.52-1.86c.31-.15,1,.53,2.32,1.28A20.92,20.92,0,0,1,407,827.71Zm50-1.1a24.57,24.57,0,0,1-3.52-2.8c-1-.87-2.05-1.77-3.07-2.67v0l-.07,0c-.17,1.55-.34,3.09-.53,4.79-2-.26-2.44-1.33-2.69-2.89a4.88,4.88,0,0,0-1.65-2.77c-1.64-1.28-2.44-4.37-1.1-5.85.34-.38,1.57-.59,1.77-.35.84,1,2.1,2.26,2,3.27-.28,2.13.49,3.14,2.23,3.8v0l.06,0a22.72,22.72,0,0,1,.73-4.4,3.5,3.5,0,0,1,2.14-1.77c.42-.12,1.36.79,1.76,1.43,1.46,2.38,2.88,4.8,4.12,7.3a11.13,11.13,0,0,1,.56,3.16C458.88,826.8,457.79,827,457.07,826.61Zm58.81-39.83c-1.68,1.88-1.67,3.89-1.82,6.1-.1,1.35-.68,3.38-1.61,3.77s-2.69-.61-4-1.17a17.57,17.57,0,0,1-2.54-1.62c-.38,1-.72,2-1.16,3-.31.69-.64,1.68-1.18,1.86s-1.43-.4-2-.84c-4.6-3.34-9.15-6.75-13.75-10.09a25,25,0,0,0-3.07-1.55,26.28,26.28,0,0,0,0,3.5c.35,2.2.37,4.62,1.36,6.5,1.33,2.51,3.46,4.59,5.25,6.85.28.34.65.61,1,.93,3.2,3.19,3.16,3.15-.37,5.81a3.64,3.64,0,0,0-1.28,2.37c-.18,1.94-1,2.49-2.82,2a6.48,6.48,0,0,0-2.11-.14c-2,.14-3.13-.45-3.34-2.75-.11-1.14-1.23-2.19-1.89-3.28l-.88.35V813l-.8.53a20.4,20.4,0,0,1-3.13-2.11c-1.51-1.47-2.76-2.63-5-1.06-.7.48-2.47,0-3.35-.63-.49-.34-.35-1.89-.14-2.82.16-.72,1-1.26,1.29-2s.74-2.1.36-2.65a3.72,3.72,0,0,0-2.64-1c-2.25-.07-3.88-1.64-4.56-4.75-.16-.73-.29-1.47-.44-2.21l-.78,0c.14,3.07-.1,6.21.54,9.17.57,2.63,1.24,5.24,3.73,7.35,1.85,1.57,2.38,4.79,3.2,7.37.19.59-.7,1.76-1.39,2.28-.37.29-1.41-.12-2.05-.43-.43-.21-.72-.77-1-1.2-1.64-2.35-3.16-4.8-5-7a2.8,2.8,0,0,0-2.74.14c-1.67,1.88-3.4,1.43-5.33.78-1.25-.42-2.58-.56-3.84-.93-2.59-.73-4.65-.7-5.56,2.55-.15.52-2.18.94-3.19.71-2-.46-3.92-1.73-6-2.06-3.2-.52-3.84.29-4.07,3.52-.12,1.53,1.2,5.07-2.74,2.24-.36-.25-1.8.56-2.41,1.19-1.39,1.42-2.6,1.82-4,.08-1.14-1.44-2.26-.86-3.49-.06a6.93,6.93,0,0,1-2.09.58,22.64,22.64,0,0,1-.56-3.8c0-.37,1.12-1.13,1.59-1,1.44.29,1.91-.27,2.21-1.55a2.8,2.8,0,0,1,3.57-2.33c1.82.32,2.94-.25,3.6-2.21.39-1.15,1.8-1.91,2.53-3a7.7,7.7,0,0,0,.67-2.36c-.89-.15-1.95-.69-2.64-.39-4.4,1.93-8.7,4.11-13.09,6.07a22.27,22.27,0,0,1-4,1,26.13,26.13,0,0,0-3.15.85c-1.11.43-2.15,1-3.54,1.75a35.86,35.86,0,0,0-.55-4.26,2.59,2.59,0,0,0-1.26-1.5c-.24-.13-.92.59-1.39.94l-2.4,1.73a13.83,13.83,0,0,1-.54-2.93,70.27,70.27,0,0,1,.55-10.07c.71-4.22,2.12-8.31,2.94-12.51.2-1-.44-2.92-1.18-3.21-1.87-.73-2.62.81-2.91,2.46-1,5.54-1.9,11.09-3,16.6a5,5,0,0,1-2,3.12c-3.41,1.9-3.48,1.77-2.82,5.78-2.08,1-4.08,1.09-5.64-.88-1.28-1.61-2.31-3.41-3.44-5.12-4.52,3.68-4.52,3.68-7.43-1.6-.25-.46-.42-1.14-.82-1.34-3.38-1.71-2.78-4.42-2.12-7.32a3.48,3.48,0,0,0-.56-2.86c-1.71-1.6-1.62-3.42-1.4-5.41.18-1.71.93-2.47,2.74-2.53,3.71-.12,3.7-.34,3.55-4.15a19.56,19.56,0,0,1,.81-4.67,5.2,5.2,0,0,0,.23-2.43c-3,2.52-5.71,5-7.69,8.5s-2.53,7.82-6.64,10.58a46,46,0,0,0-2.51-4.44,13.92,13.92,0,0,0-2.54-2.13c-1-.84-2.59-1.51-2.93-2.56A49,49,0,0,1,348,774.2c-.11-.73-.16-1.91-.56-2.07a3.39,3.39,0,0,0-2.49.22,48.19,48.19,0,0,0-4.33,2.82,4,4,0,0,1,.44-4.55c1-1.27,2.25-2.31,3.15-3.61a3.57,3.57,0,0,0,.57-2.59c-.81-3-.12-4.75,2.86-6.17a36.09,36.09,0,0,0,5.27-2.81c-3.42,0-6.79-.29-9.18,3-.84,1.17-2.86,1.43-4.21,2.3a23.27,23.27,0,0,0-2.84,2.53c-.68.61-1.36,1.22-2,1.84-.37-.46-1.1-1-1-1.36a11,11,0,0,1,1.09-3.07c.15-.31.81-.33,1.17-.57,2-1.34,1.92-3.84-.1-4.9a3,3,0,0,1-.62-4.54,13.08,13.08,0,0,1,1.83-1.54c1.91-1.56,1.83-2.57.17-4.37-2.39-2.58-4.65-5.29-6.84-8-1.33-1.68-.7-2.92,1.77-4.36a15.23,15.23,0,0,0,2.12-1.76c.86-.72,2-2.21,2.52-2,1,.38,1.68,1.68,2.46,2.63.56.68,1.27,2.07,1.56,2a5.48,5.48,0,0,0,2.64-1.79c.3-.38,0-1.54-.43-2.14a35.39,35.39,0,0,0-2.9-3.46c2.38-.61,4.36-1.06,6.29-1.64a13.64,13.64,0,0,0,2.2-1.09c-.41-.76-.82-1.52-1.22-2.28-.75-1.41-1.44-2.85-2.25-4.22-.44-.73-1.13-1.32-1.63-2-.7-1-1.88-2-1.89-3,0-2-.4-3.14-2.48-3.73-1.81-.51-2-1.83-.73-3.26a8.48,8.48,0,0,1,1-.89c3.43-2.71,3.35-2.65,1-6.18a3.32,3.32,0,0,1-.16-3,3.63,3.63,0,0,1,2.78-1.6,7,7,0,0,1,4.2,1.78,6.63,6.63,0,0,0,6.38,2.43,41,41,0,0,1,4.41,0c-2.86-1.9-5.09-3.62-7.53-5-2-1.11-3.67-2.34-3.38-4.84.23-2,3.57-4.68,5.44-4.7,3.65,0,7.43.3,10.51-2.13a9.31,9.31,0,0,0,2.86-3.83,4,4,0,0,1,2.7-2.9c3.85-1.28,7.57-3.12,11.51-4a12.18,12.18,0,0,1,7.43.93c4.93,2.44,9.46,5.65,12.69,10.26a34.92,34.92,0,0,1,3.85,6.66,5.28,5.28,0,0,1-.45,4c-.72,1.35-1.08,2.29,0,3.58.41.5.68,1.76.39,2.07a2.8,2.8,0,0,1-2.27.73c-2.57-.68-4.34.19-6.17,2-3.25,3.28-6.6,6.4-7.39,11.42-3-2.91-5.34-6-8.4-7.81s-6.81-2.35-10.89-3c1.86,2.21,3.62,4.52,5.62,6.59a24.9,24.9,0,0,0,4.1,3c2.69,1.82,3,3.75.94,6.21-2.55,3-5.17,6-7.7,9a4.08,4.08,0,0,0-1,2.11c-.31,3.95-1.26,8,.91,11.76a1.87,1.87,0,0,1,.18,1.53c-1.57,2.71-.16,5,1,7.25a3.56,3.56,0,0,1,.6,1.47c-.08,3.17,2,4.63,4.36,6.09A5.85,5.85,0,0,1,380,759c.47,1.84,1.5,2.53,3.18,3.11,3.48,1.2,6.82,2.78,10.27,4.06,1.22.45,2.62.39,3.87.79a6.93,6.93,0,0,1,3.23,1.74c.37.44-.45,1.91-.84,2.87-.2.48-.89.85-.9,1.28a14.37,14.37,0,0,0,.39,3.51c.05.24,1.25.51,1.31.42.53-.92,1.3-1.93,1.29-2.9A2.55,2.55,0,0,1,403.9,771c4-1.15,7.92-2.91,11.89.13a5.13,5.13,0,0,0,2.8.72c2.48.12,5.09-.21,5.63,3.29,0,.2,2.14.49,2.29.21a32.62,32.62,0,0,0,2.39-5.8c.07-.24-1.47-1.46-2-1.32a7.71,7.71,0,0,1-6.38-.75.39.39,0,0,0-.26,0c-5.48,1.27-10.53-1.35-15.83-1.77a17.08,17.08,0,0,1-4.76-1.4,34,34,0,0,1-6.75-3,117.28,117.28,0,0,1-9.3-7.21,35.22,35.22,0,0,1-3.72-3.71c-2.69-3-3.82-9.3-1.6-12.63A95,95,0,0,1,387.78,726c1.3-1.38,3.54-2,5.46-2.67a86.21,86.21,0,0,1,12.12-3.87c3.26-.64,6.73-.22,10.1-.24,2.67,0,5.35-.1,8,.05a30.39,30.39,0,0,1,4.58.9,9.23,9.23,0,0,0,2,.51,28.71,28.71,0,0,1,16.08,3.92c3.65,2.24,6.56,5.91,9.32,9.33s4.81,7.18,7.15,10.82c1.76,2.74,1,7.19-1.91,10.6s-6.17,7-10.57,8.75a73.58,73.58,0,0,1-9.56,2.88c-2.14.54-4.38.71-6.55,1.12a1.75,1.75,0,0,0-1.22.81,1.68,1.68,0,0,0,.58,1.31c1.12,1,3.23,1.93,3.31,3,.17,2.28-.68,4.65-1.14,7-.15.78-.36,1.55-.72,3.06,1.09-.73,1.8-1,1.83-1.27.44-4.38,5-5.83,6.66-9.42.32-.71,2.4-1,3.61-.85a28.8,28.8,0,0,1,7.82,1.48c1.78.71,3.12,2.52,5,4.14a14.18,14.18,0,0,0-.31-3c-1.51-4.57-1.16-5.36,3.15-7.31a10.69,10.69,0,0,0,2.25-1.83c1.83-1.55,3-1.11,4.73.5,2.34,2.12,2.94,5.84,6.39,6.84a11.45,11.45,0,0,0,2.43.19,11.72,11.72,0,0,0-.07-2.72,3.9,3.9,0,0,0-1.25-1.69c-3.33-3.09-3.66-5.52-1.64-9.72.39-.8,0-2.14-.38-3.12a37,37,0,0,0-2-4c5.22-.4,5.15-.42,6.75-5.19a3,3,0,0,1,2.18-1.72c5.21,0,10.42.17,15.61.6,4,.32,4.38,1.43,2.9,5.21-.89,2.31-1.44,4.76-2.14,7.14-.17.59-.15,1.36-.53,1.76-2.16,2.35-2.64,4.51-.07,7,.4.39-.63,2.25-1,3.42a27.93,27.93,0,0,1-2.9-1.44c-1.26-.82-2.42-2.44-3.65-2.47s-2.46,1.47-3.3,2.6c-1.26,1.68-2,3.8-3.26,5.43-2.08,2.59-1.52,5.37-1,8.14.34,1.89,1.45,2.4,3,.94,1.9-1.8,3.77-3.46,1.93-6.56-.55-.92-.25-3.43.42-3.77a5.7,5.7,0,0,1,4.49-.13c5.85,2.69,11.54,5.73,17.33,8.55,1.5.74,3.2,1.06,4.75,1.7C517.18,783.72,517.66,784.8,515.88,786.78ZM405.81,705.23c-1.56,1.24-2.37,2.35-3.27,2.43-.72.07-1.56-1.12-2.34-1.74.73-.86,1.32-2.1,2.24-2.45C403,703.24,404.13,704.3,405.81,705.23Zm126.06,97c-.8-.89-1.61-1.78-2.8-3.08,2.76-.74,3.77-.11,3.86,1.53C533,801.13,532.25,801.67,531.87,802.19Zm11.62-3.65a2.14,2.14,0,0,1-3.33.93c-2-1.11-3.09-3.23-3.35-6.08l.7-2.41c.84.32,1.68.63,2.51,1,.57.23,1.13.49,1.69.76A4,4,0,0,1,543.49,798.54Zm94.85-73.12c3.6-5.07,7.12-10.19,12.65-13.48,2.81-1.68,5-1.65,6.93,1.09,2.72,3.92,5.16,8.05,7.56,12.18.93,1.59.17,3-1.49,3.64-1.49.57-3.09.84-4.6,1.34-3.66,1.19-7.32,2.38-10.92,3.72-.58.22-.76,1.35-1.3,1.86-.9.83-2.26,2.31-2.85,2.07-1.17-.47-2-1.91-2.83-2.88,1.66-3-.08-3.54-2-4.35C636.68,729.4,636.54,727.94,638.34,725.42Zm-51.41,76.32-1.07-.06c-.57-1-1.63-2.09-1.56-3.08s1.65-2.5,2.07-2.36c1.11.38,2.65,1.5,2.7,2.4S587.71,800.7,586.93,801.74Zm7.49,6.52c-.36.4-2.08-.26-3-.73a2.15,2.15,0,0,1-.16-1.83,32.55,32.55,0,0,1,3.86-1.84l.76.83C595.41,805.92,595.24,807.39,594.42,808.26Zm72.27-40.84a10.7,10.7,0,0,1-2.37-2l2.21-1.83c.8,1,1.63,1.62,1.82,2.42C668.44,766.33,667,767.56,666.69,767.42Zm-1.86-16a2.32,2.32,0,0,0-1.94-.06c-.36.28-.37,1.31-.18,1.9,1.92,5.9.48,11.41-2.14,16.67-.53,1-2.11,1.57-3.49,2.54,1.64,2.51-1.07,4.5-1.61,7-.93,4.24-3.45,5.39-7.22,5.46-3.39.07-4,2.93-4.68,5.28a8.37,8.37,0,0,1-6.17,6,15.74,15.74,0,0,0-4.29,2.52c-2,1.41-4,1-4.05-1.42a6,6,0,0,0-3-4.94c-2.07-1.45-2.52-3.55-2.81-5.74-.26-2-1.39-2.29-3-1.71s-3.35,1.31-5,2l-.1.77c2,1,4,2.13,6,3.12,1.86.91,5,6.68,4.44,8.61a4.4,4.4,0,0,1-1.13,1.76,61.26,61.26,0,0,1-5.32,5.13c-.51.42-1.84.1-2.68-.2-2-.72-3.78-2-5.79-2.4-4.38-1-4.74-1.11-5.79-5.43a3.06,3.06,0,0,0-1.1-1.39c.25,3.22-1.1,5.19-3.93,6.22-1.73.63-3.29,1-4.27-1.1a2.53,2.53,0,0,0-.33-.42c-1.07-1.41-3.26-3.12-3-4.17a18,18,0,0,1,4-7.23c2.4-2.64,5-1.82,6.4,1.46a13.66,13.66,0,0,0,1.54,2.23c.39-.43,1.08-.85,1.1-1.3.07-1.2.24-3.2-.34-3.5-3.24-1.67-2.39-4-1.36-6.36.89-2,2.15-3.85,3.18-5.8,5-9.44,9.57-19,8.49-30.16-.47-4.86,4.07-13.1,10.77-13.94a3.68,3.68,0,0,1,1.32,0c7.37,2,13.65,5.46,16.83,12.9a4.26,4.26,0,0,1,.35,2.58c-2.27,8-4.52,16.05-9.43,23-1.78,2.5-3.84,4.79-5.73,7.22a12.06,12.06,0,0,0-1.05,1.94l.23.72c5.08-2.57,9.43-.37,13.73,2.09.14-.32.27-.64.41-1-.95-.64-1.85-1.35-2.84-1.9-2.91-1.63-3.71-4.43-1.7-7.12a31.53,31.53,0,0,1,4.13-4.12c1.16-1.06,1.69-2,1-3.71a4.85,4.85,0,0,1,.53-3.61c2-3.46,4.28-6.72,6.26-10.18.44-.77.07-2,0-3.06-.13-3.48-1.22-7.32-.11-10.35.92-2.5,4.17-4.9,6.88-5.77,3-1,6.6-.32,9.87.11.87.11,2.06,2,2.16,3.09.37,4.25.39,8.53.48,12.8C669.44,751.88,668.1,752.72,664.83,751.37Z" transform="translate(-166.57 -212.79)"/><path class="cls-2" d="M469.85,552.22c.54.16,1.37-.64,2.64-1.32-1.18-.81-1.83-1.58-2.49-1.6s-1.37.72-2.06,1.12C468.56,551.06,469.1,552,469.85,552.22Z" transform="translate(-166.57 -212.79)"/><path class="cls-2" d="M450.41,821.13l.07,0v0l-.06,0Z" transform="translate(-166.57 -212.79)"/><path class="cls-2" d="M471.27,414.8c3.47,1.9,4.21,4.45,2.49,7.56-2.18,3.94-4.54,7.79-6.85,11.67-1.52,2.54-2,5.2-.52,7.83A3,3,0,0,0,469,443a16,16,0,0,0,5-2.85,7.23,7.23,0,0,0,1.88-3.65c.45-1.79,1.36-2.72,3.15-2.48,2,.27,2.06,1.89,1.69,3.29a54.62,54.62,0,0,1-2.16,6.27c-1.48,3.74-3.3,7.38-4.5,11.21-1.06,3.39.66,5.25,4.08,5.47,1.87.13,2.44-.54,2.68-2.34.47-3.53,1.78-6.76,5.21-8.47.85-.43,2-.17,3.07-.23,0,1,.5,2.32,0,2.89-2.2,2.66-2.38,5.56-2,8.8.14,1.35-.62,2.82-1.08,4.21-.34,1-.84,2-1.44,3.46a11.93,11.93,0,0,1,2.24-.38c1,0,2.58-.08,2.85.42a5.61,5.61,0,0,1,.26,3.52c-.45,2.05-1.4,4-1.79,6a2.68,2.68,0,0,0,1.33,2.22c3.73,1.49,3.44,1.09,6.42-1.92,2.38-2.4,5.45-4.81,8.6-5.56,5.19-1.24,10.57-2.71,16.07-1.44a5.2,5.2,0,0,1,.91.39l.17.84c-1.2.29-2.46,1-3.6.82a10.3,10.3,0,0,0-8,2.08c-1.88,1.39-4.44,1.84-6.39,3.16-5.87,4-10.93,8.67-13.18,15.73-.62,1.92-1.65,3.73-2.2,5.67a2.79,2.79,0,0,0,.69,2.5c1.59.87,3.46,1.91,5.13,1.78a4.82,4.82,0,0,1,4.38,1.77c1.4,1.51,2.67,1.37,4-.19,1.21-1.4,2.69-2.56,3.92-4a18.09,18.09,0,0,0,3-4c2.19-4.54,6.29-6.12,10.64-3.72a2.62,2.62,0,0,1,.67,2.27c-.15.65-1,1.18-1.61,1.69-3.45,2.88-6.86,5.81-10.4,8.57a47.19,47.19,0,0,1-5.29,3.11c2.32,1.9,2,3.82.19,6.08-1,1.19-.94,3,1.58,3.07a2.68,2.68,0,0,1,1.91.67c1.08,1.6,2.24,2.18,4,1.06a1.41,1.41,0,0,1,1.23.08A44,44,0,0,1,518,524.8a3.14,3.14,0,0,1,.64,2.88,22.11,22.11,0,0,1-3.33,5.3c-1.72,2-3.9,3.61-5.64,5.59a7.8,7.8,0,0,0,0,10.71c.7.78,2.29.74,3.47,1.08a12.43,12.43,0,0,0,.52-3c-.12-1.66-.8-3.29-.79-4.93,0-2.26,1.68-3.09,3.68-2,2.41,1.25,4.11,3,4.39,5.93.24,2.46,4.47,5,6.68,4,.49-.22.78-1.06,1-1.67.83-2.24,2-2.54,4.06-1.38a5.16,5.16,0,0,0,3.58.78c4.11-1.36,7.88.75,11.82.91.44,0,1.34,1.57,1.15,1.91a3.48,3.48,0,0,1-2.19,1.77c-3.64.26-7.3.22-11,.31a2.75,2.75,0,0,0-1.29.28c-2.2,1.4-4.37,2.85-7.21,4.72,1.55.51,2.53.88,3.53,1.16,2.16.61,3.26,3.63,1.84,5.37-1,1.26-2.3,1.7-3.62.29-1-1.11-2-2.27-3.08-3.34-1.65-1.66-2.58-1.46-3.52.71a9.72,9.72,0,0,1-3.85,5.88c-.05.06-.2,0-.24.1-1.47,2.63-3.31,5.13-4.28,7.94-.68,2,.12,4,2.07,5.63,1,.84,1.31,2.62,2.09,3.87,1,1.61,1.85,3.7,3.34,4.52a5.4,5.4,0,0,1,2.81,4.19,3.72,3.72,0,0,1-1.29,2.7,7.11,7.11,0,0,1-2.71,1.05c-2.36.76-2.86,2.33-2.22,4.6.91,3.23,1.56,6.53,2.56,9.73.52,1.66,1.69,3.11,2.27,4.76a21.47,21.47,0,0,1,.66,4.12c-1.41.06-3,.57-4.19.1-3.3-1.3-5.51-6.68-4.94-11,.13-.91.27-2.14-.2-2.77-1.84-2.49-1.22-5.22-1.33-7.95a25,25,0,0,0-1.23-6.32c-1.71-5.46-3.27-10.91-2.26-16.71a4.72,4.72,0,0,1,.88-1.9,7.32,7.32,0,0,0,.41-8.92q-2-3.15-4-6.25a17.66,17.66,0,0,1-2.61-11.22,15,15,0,0,0-3.14-10.18c-2.19-3-4-6-4.35-9.83a3.1,3.1,0,0,0-.55-1.46c-2-2.7-1.78-5.54-.4-8.33,1-2,.4-3.11-1.31-4.2-4.48-2.86-8.3-6.46-10.22-11.49-.62-1.61-.09-3.81.35-5.65a38.66,38.66,0,0,1,2.15-5.44c.89-2.21-.19-4.26-2-4.5-4.28-.55-6.36-3.56-8.81-6.35s-5.22-5.51-7.49-8.53c-1-1.34-1.26-3.31-1.68-5a24,24,0,0,1-.19-3.19c-.31-3.21-1-3.5-3.77-1.66a3.86,3.86,0,0,1-1.69.67c-2.37.2-7.21-3.44-7.65-5.74-.41-2.1-.57-4.35-3.75-2.87a1.55,1.55,0,0,1-1.4-.51c-2.62-3.55-6-6.86-7.45-10.86-1.05-2.87.42-6.7.89-10.08.22-1.55,1.14-3.09,1.05-4.59-.33-5.11,2.48-9,4.89-13,.48-.8,1.92-1.21,3-1.42,2.32-.48,3.73-1.53,3.62-4.11a3.26,3.26,0,0,1,.5-2c.66-.85,1.82-2.25,2.35-2.08,1.6.5,4,1.47,2.82,3.64-1.81,3.46-1.72,7.11-2.34,10.73-.28,1.64-2.38,3.26-4,4.28s-2.28,2.28-1.62,3.93,2.22,2.14,4,1.46a3.64,3.64,0,0,1,1.54-.4c3,.35,5.11-.59,6.23-3.59.19-.53,1.3-.92,2-1,2.84-.34,3.85-2.12,4.18-4.7C470.36,418.46,470.84,416.79,471.27,414.8Zm28.94,110.88c2.46,1.39,4.73,2.86,7.18,3.94a4,4,0,0,0,3.12-.52,2.36,2.36,0,0,0,.53-2.28c-.67-1.09-1.91-2.75-2.72-2.64-2.79.35-4.86,0-5.75-3.45ZM448,438.87l2.38,3.76c.89-.8,2.09-1.45,2.59-2.44s.9-2.84.36-3.53a4.85,4.85,0,0,0-3.68-1.5C449.07,435.2,448.64,437.28,448,438.87Zm67.75,118.67c-.61,1.1-1.25,1.71-1.16,2.2s.82,1.08,1.26,1.61c.43-.46,1.22-.93,1.2-1.37C517,559.33,516.39,558.7,515.73,557.54Z" transform="translate(-166.57 -212.79)"/><path class="cls-2" d="M526.3,701.31c-.59,1.61-.87,3.44-1.82,4.8-2,2.9-.62,8,2.63,9.45,1.46.64,3.26,1.72,3.79,3,1.55,3.85,4.92,5.9,7.43,8.79.92,1.06,1.19,2.81,1.36,4.3,0,.44-1.43,1.61-2,1.47-2.45-.67-5-1.28-6-4.19a28.83,28.83,0,0,0-2.79-4.82c-.74-1.21-1.45-1.14-2.55-.2a26.76,26.76,0,0,1-4.72,3.22c-2.16,1.17-2.45,2.9-.54,4.33,2.17,1.61,1.7,5.37-.82,6.69-3,1.58-2.79,1.38-.74,3.82,1.51,1.79,3.26,3.53,3.41,6.39.07,1.35,2.26,2.61,3.55,3.84.28.27.91.14,1.26.37a16,16,0,0,1,3.78,2.88c.33.43-.49,2.62-1.16,2.83-1.67.52-3.92,1.07-5.27.35a57.79,57.79,0,0,1-8.83-6.27c-1.46-1.18-2.49-2.55-.92-4.79.68-1,.42-3.32-.32-4.45-2.69-4.12-2.47-8.7-1.8-13,.62-4.06,4-6.79,7.24-9.2,1.21-.89,2.3-2,3.42-3,1.31-1.17.88-2.08-.4-3a10,10,0,0,1-2.76-2.35C517.68,708,519.86,702.62,526.3,701.31Z" transform="translate(-166.57 -212.79)"/><path class="cls-2" d="M549.34,699.7c-4.92,3.17-6.62,2.89-9.51-.89-4-5.18-8-5-12.88-.93a8,8,0,0,1-1.87.88c-.33-.76-1.13-1.71-.91-2.26a11.07,11.07,0,0,1,2.64-4.44c3.66-3,3.87-3.1,2.09-7.3-2.43-5.7-1.29-10.94,2-15.88a3.78,3.78,0,0,1,2.25-1.17c1.82-.39,3.71-.47,5.53-.87s2.83.28,3.08,2c.33,2.37,1.9,2.84,3.84,2.68a6.22,6.22,0,0,1,5.42,2.16c1,1,2.69,1.33,3.88,2.21a12.08,12.08,0,0,1,2,2.56c-1,.43-2,1.38-2.87,1.2-4.13-.87-8.2-2-12.28-3.11l-5.46-1.44a6.91,6.91,0,0,0-.39.9c3,3.57,1.91,7.31.68,11.18a3.16,3.16,0,0,0,1.48,2.71,5.11,5.11,0,0,1,3.19,2.82c.58,1.06,2.06,1.6,3.06,2.46C545.91,696.56,547.5,698,549.34,699.7Z" transform="translate(-166.57 -212.79)"/><path class="cls-2" d="M575.74,687.67a16,16,0,0,1-.6-2.31c-.12-1,.19-2.07-.15-2.92-1.91-4.68-.87-9.4-.18-14.06a27.33,27.33,0,0,1,2.17-7.61c1.76-3.73,2.83-7.14,1.46-11.45-2.36-7.48-1.43-15,2-22,2.36-4.75,1.19-8.88-1.56-13a120.86,120.86,0,0,1-7-11.29,9.57,9.57,0,0,1,.63-9.72c3.18-5,2.35-9.91-.09-14.88-2.22-4.51-3.87-9.12-1.32-14.24a21.25,21.25,0,0,0,.4,2.41c.89,3.11,1.35,6.47,2.85,9.26,2.94,5.43,3.55,10.86,1.07,16.39-1.54,3.42-.81,6.39,0,9.77,1.14,4.76,4.64,8.11,6.36,12.46,1.45,3.66,2.76,7.27,1.5,11.31a115.45,115.45,0,0,0-3.22,11.75,26.11,26.11,0,0,0,0,6.84c.36,5.67.94,11.33,1.14,17,0,1.06-1,2.43-2,3.19a7.74,7.74,0,0,0-3.12,7.67c.53,4.22.63,8.51.83,12.77a12.09,12.09,0,0,1-.45,2.62Z" transform="translate(-166.57 -212.79)"/><path class="cls-2" d="M529.48,643c.67,1.11,1.62,2,1.64,2.83.06,3,1.74,3.38,4.23,3.41a8.14,8.14,0,0,1,4.49,1.31c1.46,1.06,2,2.73,0,4.17-.45.33-.65,1-1,1.52,2.68,2.48,2.59,2.65-.79,4.32-2.13,1.05-4.15,2.34-6.19,3.58-1.74,1-3,.55-3.45-1.3-.66-2.8-1.1-5.66-1.48-8.52a12.83,12.83,0,0,1,.08-4c.82-4.58-1.35-8.76-1.62-13.15a15.16,15.16,0,0,1,1.38-6.51c1.17-2.8,2.26-5.85,5.15-7.46a6,6,0,0,1,3.62-.9c.64.12,1,1.76,1.43,2.75a17.47,17.47,0,0,1,.47,2.08c.37,1.5-.1,2.42-1.71,2.65a13.32,13.32,0,0,0-2.09.41c-3.8,1.21-4.51,2.82-2.61,6.29,1.12,2,1.49,3.78-.76,5.29A3.44,3.44,0,0,0,529.48,643Zm5.8,17.43,2.22-2.62c-1.26-1-2.48-2-3.82-2.9-.09-.06-1.53,1.41-1.4,1.62A36.62,36.62,0,0,0,535.28,660.41Z" transform="translate(-166.57 -212.79)"/><path class="cls-2" d="M540.64,586.83c.74,3-.86,5.14-3.46,4.28a66.7,66.7,0,0,1-10.37-4.63c-1.56-.83-1.6-2.25.27-3.22,3.35-1.74,6.6-3.7,10-5.24,1.46-.65,3.3-.51,5-.68,2.29-.23,4.58-.55,6.87-.57.91,0,1.82.68,2.73,1-.43,1-.66,2.64-1.3,2.81-3.55,1-7.2,1.5-10.79,2.26a7.07,7.07,0,0,0-3.14,1.2c-.53.47-.38,1.71-.54,2.61,1.17.12,2.33.26,3.5.35A6.08,6.08,0,0,0,540.64,586.83Z" transform="translate(-166.57 -212.79)"/><path class="cls-2" d="M549.94,621.6a17.36,17.36,0,0,1,3.06-2.24c3.21-1.31,3.62-1,4.26,2.33a11.35,11.35,0,0,0,.66,2c1.19,2.89,1,3.27-2,3.37-2.3.09-4.5-.37-6.65,1.48-.84.72-3.86.07-4.95-1-1.62-1.53-.43-3.71.76-5.28C546.42,620.56,548.18,619.92,549.94,621.6Z" transform="translate(-166.57 -212.79)"/><path class="cls-2" d="M563.57,516.86c-.53.69-.82,1.43-1.23,1.51a2.06,2.06,0,0,1-1.53-.74c-4.4-5.3-8.68-10.69-13.15-15.93-1.24-1.45-3-2.4-4.45-3.73-.6-.57-1.32-1.79-1.08-2.29.55-1.17,1.64-2.38,3.16-1.19a25.51,25.51,0,0,1,3,3c3.78,4.22,7.65,8.36,11.26,12.72A54,54,0,0,1,563.57,516.86Z" transform="translate(-166.57 -212.79)"/><path class="cls-2" d="M530.3,519.14c2.2.22,3.74.08,5,.61.93.39,2.27,2,2.06,2.47-.54,1.18-2.14,3-2.77,2.82-3.28-1-5.86.74-8.67,1.57-.34.1-.72.45-1,.36-1.36-.46-2.69-1-4-1.56.55-1.06.82-2.61,1.68-3.07C525.23,520.93,527.63,518.54,530.3,519.14Z" transform="translate(-166.57 -212.79)"/><path class="cls-2" d="M547.46,483.8c-1.08,1.65-2.26,3.43-4,6.07-2-3.74-3.5-7.06-5.53-10s-4.57-5.33-6.89-8l.59-.75c2.5.87,5.07,1.59,7.47,2.69a3.63,3.63,0,0,1,1.46,2.59c.47,4.74.4,4.75,5,6.09a7.83,7.83,0,0,1,1.25.47C546.92,483.05,547,483.25,547.46,483.8Z" transform="translate(-166.57 -212.79)"/><path class="cls-2" d="M607,704c-1.94,1.89-3.58,3.71-5.44,5.25a5.94,5.94,0,0,0-2.49,5.26,11.24,11.24,0,0,1-.2,2.65c-.47,2.73-1.24,3.18-3.89,2.47a17.47,17.47,0,0,0-2-.31C594.07,713.75,600.86,703.71,607,704Z" transform="translate(-166.57 -212.79)"/><path class="cls-2" d="M617,709.27c-.13-1.51-.22-2.35-.28-3.2-.21-2.76-1.06-3.25-3.83-2.55a29.64,29.64,0,0,1-4.55.41,6.8,6.8,0,0,1,7.17-3.75c1.52.23,3.18-.46,4.77-.78,1.16-.24,2.32-.56,3.47-.85l.32.73Z" transform="translate(-166.57 -212.79)"/><path class="cls-2" d="M576.44,691c1.13,2.84.23,5.39-.84,7.8-1.34,3-3,5.87-4.43,8.81a8.6,8.6,0,0,0-.51,7c.29.85,0,1.89,0,3.47-.89-.74-1.36-.94-1.36-1.16-.07-3.61-1.46-7.13.51-10.85C572.35,701.3,574.17,696.23,576.44,691Z" transform="translate(-166.57 -212.79)"/><path class="cls-2" d="M520.56,459.65c-3.26-3.08-4.26-9.94-2.22-14.2C521.83,447.41,523.15,455.34,520.56,459.65Z" transform="translate(-166.57 -212.79)"/><path class="cls-2" d="M570.51,551.35c-4.2-2.89-7.35-11.32-6-14,1.92,3.23,4,6.32,5.59,9.6C570.72,548.15,570.4,549.86,570.51,551.35Z" transform="translate(-166.57 -212.79)"/><path class="cls-2" d="M508.54,517a4.22,4.22,0,0,1-.08-1.68c.59-1.49,7.92-5.41,9.63-5.12.78.14,2,.57,2.13,1a3.48,3.48,0,0,1-.77,2.63c-.34.39-1.57.29-2.25,0a5.19,5.19,0,0,0-6.23,1.51c-.58.62-1.14,1.24-1.71,1.87Z" transform="translate(-166.57 -212.79)"/><path class="cls-2" d="M545.54,652.59c3.25,0,4.43,1.75,5.37,3.56.16.3-1.13,2-1.57,1.87a24.68,24.68,0,0,1-5.76-1.73c-.48-.21-.91-1.95-.64-2.18A11.3,11.3,0,0,1,545.54,652.59Z" transform="translate(-166.57 -212.79)"/><path class="cls-2" d="M396.87,666.56c3.26-3.49,8.91-4.6,11.64-2.06-3.55,3-7.89,1.11-11.7,2Z" transform="translate(-166.57 -212.79)"/><path class="cls-2" d="M628.49,699.48c4.69-1.85,9.57-1.86,12.46,2Z" transform="translate(-166.57 -212.79)"/><path class="cls-2" d="M468.58,695.31l-3.58,4-2.7-3.42c1.55-.9,3.08-1.84,4.69-2.62A13.37,13.37,0,0,1,468.58,695.31Z" transform="translate(-166.57 -212.79)"/><path class="cls-2" d="M487,431.23c2.12,1.67,4.27,3.31,6.33,5,.29.24.29,1,.16,1.45-.06.23-.87.51-1.07.38-2-1.31-3.91-2.64-5.73-4.13-.43-.36-.33-1.36-.48-2.07Z" transform="translate(-166.57 -212.79)"/><path class="cls-2" d="M530.79,493.58c-1.58,1.62-2.94,3.08-4.89,1.28a2.23,2.23,0,0,1,.28-3.69C529.26,489,528.9,493.09,530.79,493.58Z" transform="translate(-166.57 -212.79)"/><path class="cls-2" d="M532.83,509.5c.31,2.86-.48,4.49-2.71,5.08-.59.15-1.37-.42-2.07-.66.22-.6.25-1.43.68-1.77A47,47,0,0,1,532.83,509.5Z" transform="translate(-166.57 -212.79)"/><path class="cls-2" d="M559.68,794.12c1.26,2.7,2.53,5.4,3.79,8.09-3.11-1.81-4.65-4.38-4.5-7.78Z" transform="translate(-166.57 -212.79)"/><path class="cls-2" d="M480.43,427.08a8.58,8.58,0,0,1-1.13-2.77c0-.54,1-1.12,1.55-1.68.66.79,1.63,1.5,1.87,2.41.15.53-.88,1.37-1.37,2.07Z" transform="translate(-166.57 -212.79)"/><path class="cls-2" d="M564.51,530.73a2.48,2.48,0,0,1-.7-3.7c.16-.25.86-.15,1.31-.22l.36,3.84Z" transform="translate(-166.57 -212.79)"/><path class="cls-2" d="M570.36,560l-.31-5.94.83,0v5.95Z" transform="translate(-166.57 -212.79)"/><path class="cls-2" d="M641.49,735c1.66-3-.08-3.54-2-4.35-2.83-1.21-3-2.67-1.17-5.19,3.6-5.07,7.12-10.19,12.65-13.48,2.81-1.68,5-1.65,6.93,1.09,2.72,3.92,5.16,8.05,7.56,12.18.93,1.59.17,3-1.49,3.64-1.49.57-3.09.84-4.6,1.34-3.66,1.19-7.32,2.38-10.92,3.72-.58.22-.76,1.35-1.3,1.86-.9.83-2.26,2.31-2.85,2.07C643.15,737.37,642.37,735.93,641.49,735Z" transform="translate(-166.57 -212.79)"/><path class="cls-2" d="M599,765.45c1.43,5.49-2.48,8.77-5.54,12.1-.75.82-4.18.32-5.43-.72a31.69,31.69,0,0,1-6-7.3,9.06,9.06,0,0,1,1.72-11.35c1.33-1.1,2.74-1.63,4.18,0a19.23,19.23,0,0,0,3.89,3.91,65.81,65.81,0,0,0,7.25,3.42Z" transform="translate(-166.57 -212.79)"/><path class="cls-2" d="M450.48,821.16a22.18,22.18,0,0,1,.73-4.42,3.5,3.5,0,0,1,2.14-1.77c.42-.12,1.36.79,1.76,1.43,1.46,2.38,2.88,4.8,4.12,7.3a11.13,11.13,0,0,1,.56,3.16c-.91-.06-2,.16-2.72-.25a24.57,24.57,0,0,1-3.52-2.8c-1.06-.89-2.09-1.81-3.13-2.72Z" transform="translate(-166.57 -212.79)"/><path class="cls-2" d="M536.81,793.39l.7-2.41c.84.32,1.68.63,2.51,1,.57.23,1.13.49,1.69.76a4,4,0,0,1,1.78,5.83,2.14,2.14,0,0,1-3.33.93C538.2,798.36,537.07,796.24,536.81,793.39Z" transform="translate(-166.57 -212.79)"/><path class="cls-2" d="M450.42,821.09c-.18,1.56-.35,3.12-.54,4.83-2-.26-2.44-1.33-2.69-2.89a4.88,4.88,0,0,0-1.65-2.77c-1.64-1.28-2.44-4.37-1.1-5.85.34-.38,1.57-.59,1.77-.35.84,1,2.1,2.26,2,3.27-.28,2.16.51,3.17,2.3,3.83Z" transform="translate(-166.57 -212.79)"/><path class="cls-2" d="M498.08,708.86l-3.47,5.82c0,.08-.07.2-.13.23-.52.23-1.36.78-1.5.63a42.39,42.39,0,0,1-3.51-4.06,2.45,2.45,0,0,1,1.06-1.25c2-.72,4-1.35,6.1-1.87C497.09,708.24,497.69,708.71,498.08,708.86Z" transform="translate(-166.57 -212.79)"/><path class="cls-2" d="M480,583.43c1.1,2.13,2.21,3.48,2.37,4.93.08.73-1.57,1.65-2.44,2.49-1.07-1.13-2.72-2.14-3-3.44C476.73,586.54,478.49,585.25,480,583.43Z" transform="translate(-166.57 -212.79)"/><path class="cls-2" d="M371.15,808.48a26.51,26.51,0,0,1,3.31,4.16c.38.69-.23,2-.53,2.94-.08.25-.75.5-1.1.45-2-.3-4.26-4.24-3.53-6.13.26-.66.55-1.3.82-1.95Z" transform="translate(-166.57 -212.79)"/><path class="cls-2" d="M448.58,508.37c2.57-.07,4.65,1.8,4.26,3.48a3.46,3.46,0,0,1-2.35,1.86c-1.63.37-3.78-1.58-3.46-3.15C447.22,509.61,448.24,508.83,448.58,508.37Z" transform="translate(-166.57 -212.79)"/><path class="cls-2" d="M461,713.13a19.24,19.24,0,0,1-3.15-.4,10.87,10.87,0,0,1-2.76-1.35c-.52-.33-1.32-1.08-1.22-1.38a6.25,6.25,0,0,1,1.6-2.5c.25-.23,1.39.06,1.77.45,1.35,1.37,2.54,2.89,3.78,4.34Z" transform="translate(-166.57 -212.79)"/><path class="cls-2" d="M505.61,772.8c-1-1.3-2.1-2.07-2-2.71.19-1.76,1.16-3.35,3.24-3,1,.14,1.79,1.14,2.69,1.76Z" transform="translate(-166.57 -212.79)"/><path class="cls-2" d="M462.51,708.23c1.58-1.15,2.35-2.15,3.23-2.26,1.79-.21,2.46,1.24,2.53,2.76s-.73,2.85-2.35,2.45C464.89,710.93,464.1,709.67,462.51,708.23Z" transform="translate(-166.57 -212.79)"/><path class="cls-2" d="M585.86,801.68c-.57-1-1.63-2.09-1.56-3.08s1.65-2.5,2.07-2.36c1.11.38,2.65,1.5,2.7,2.4s-1.36,2.06-2.14,3.1Z" transform="translate(-166.57 -212.79)"/><path class="cls-2" d="M474,583.56l-2.86,3.2c-.57-1-1.63-1.94-1.58-2.87s1.24-1.73,1.92-2.59Z" transform="translate(-166.57 -212.79)"/><path class="cls-2" d="M336.26,714.71l-.78,1.83a13.31,13.31,0,0,1-2.1-1.59c-.45-.5-1-1.39-.81-1.87a8.85,8.85,0,0,1,1.69-2.25,7.81,7.81,0,0,1,1.66,1.52C336.22,712.82,336.12,713.54,336.26,714.71Z" transform="translate(-166.57 -212.79)"/><path class="cls-2" d="M595.84,804.69c-.43,1.23-.6,2.7-1.42,3.57-.36.4-2.08-.26-3-.73a2.15,2.15,0,0,1-.16-1.83,32.55,32.55,0,0,1,3.86-1.84Z" transform="translate(-166.57 -212.79)"/><path class="cls-2" d="M405.81,705.23c-1.56,1.24-2.37,2.35-3.27,2.43-.72.07-1.56-1.12-2.34-1.74.73-.86,1.32-2.1,2.24-2.45C403,703.24,404.13,704.3,405.81,705.23Z" transform="translate(-166.57 -212.79)"/><path class="cls-2" d="M421.65,704.92l2.07-2.11a7.61,7.61,0,0,1,1.35,2.53c.05.53-.93,1.18-1.45,1.77Z" transform="translate(-166.57 -212.79)"/><path class="cls-2" d="M666.53,763.56c.8,1,1.63,1.62,1.82,2.42.09.35-1.36,1.58-1.66,1.44a10.7,10.7,0,0,1-2.37-2Z" transform="translate(-166.57 -212.79)"/><path class="cls-2" d="M398,813.34c.78,1.14,1.52,1.82,1.39,2.09a13,13,0,0,1-1.74,2.35c-.49-.49-1.47-1.09-1.39-1.46A12.06,12.06,0,0,1,398,813.34Z" transform="translate(-166.57 -212.79)"/><path class="cls-2" d="M472.49,550.9c-1.27.68-2.1,1.48-2.64,1.32-.75-.22-1.29-1.16-1.91-1.8.69-.4,1.38-1.13,2.06-1.12S471.31,550.09,472.49,550.9Z" transform="translate(-166.57 -212.79)"/><path class="cls-2" d="M410.53,826a20.92,20.92,0,0,1-3.49,1.71c-.33.09-.9-.72-1.35-1.13a15.29,15.29,0,0,1,2.52-1.86C408.52,824.57,409.24,825.25,410.53,826Z" transform="translate(-166.57 -212.79)"/><path class="cls-2" d="M529.07,799.11c2.76-.74,3.77-.11,3.86,1.53,0,.49-.68,1-1.06,1.55C531.07,801.3,530.26,800.41,529.07,799.11Z" transform="translate(-166.57 -212.79)"/><path class="cls-2" d="M378.67,821.31v-2.8l1.88,0-.36,2.87Z" transform="translate(-166.57 -212.79)"/><path class="cls-2" d="M500.21,525.68l2.36-4.95c.89,3.45,3,3.8,5.75,3.45.81-.11,2.05,1.55,2.72,2.64a2.36,2.36,0,0,1-.53,2.28,4,4,0,0,1-3.12.52C504.94,528.54,502.67,527.07,500.21,525.68Z" transform="translate(-166.57 -212.79)"/><path class="cls-2" d="M448,438.87c.66-1.59,1.09-3.67,1.65-3.71a4.85,4.85,0,0,1,3.68,1.5c.54.69.16,2.49-.36,3.53s-1.7,1.64-2.59,2.44Z" transform="translate(-166.57 -212.79)"/><path class="cls-2" d="M515.73,557.54c.66,1.16,1.26,1.79,1.3,2.44,0,.44-.77.91-1.2,1.37-.44-.53-1.16-1-1.26-1.61S515.12,558.64,515.73,557.54Z" transform="translate(-166.57 -212.79)"/><path class="cls-2" d="M535.28,660.41a36.62,36.62,0,0,1-3-3.9c-.13-.21,1.31-1.68,1.4-1.62,1.34.87,2.56,1.91,3.82,2.9Z" transform="translate(-166.57 -212.79)"/><path class="cls-2" d="M380.83,683.74c4.81,1.56,9.56,6.15,9.51,9.18C388.47,692.74,380.92,685.46,380.83,683.74Z" transform="translate(-166.57 -212.79)"/><path class="cls-2" d="M370.47,683.31l-2.21-2.59c.8-.39,1.6-1.1,2.37-1.07s1.5.82,2.24,1.27Z" transform="translate(-166.57 -212.79)"/></g><g id="Layer_4" data-name="Layer 4"><path class="cls-3" d="M299.55,444.28c-7.07-1.37-14.16-2.69-21.22-4.11-26.71-5.39-50.56-17.44-73.07-32.2-12.79-8.38-24.81-17.92-37.17-26.94l1-1.48,1.78.93c.48-2.64-6.28-3.88-1.8-7.58-7-7.5,3-12.93,3-19.73l2.89,4.58c1.54-2.51,2.87-5,4.49-7.2.7-1,2-1.48,3-2.34,2-1.91,2.93-1.95,4.57.92,1.76,3.08,5,5.28,7.63,7.87l.85-.87c-2-2-4.16-3.95-6-6.09-.69-.78-1.39-2.78-1.12-3,4.93-3.89,9.65-9.9,15.14-10.74,6.72-1,14.11,2.29,21.2,3.75,1,.21,2,.51,3.07.77.07.29.12.58.18.87l.41-.44-.79-.41,1.41-1,.73-.15,4.22,2.12,1.9,1.05-.21,0,.84.78.7.64L239,345l.8-.72.79-.74h-.19l1.31.07-1.69-2-1.31-1.25.09.08c3.79.19,7.61.1,11.34.63,6.81,1,13.55,3,20.37,3.3,12.73.48,25.49,0,38.24-.1.41,0,.82-.18,1.35-.84-29.14-2.51-55.05-16.27-81-22.64l-15.78-15.65c7.14,1.61,6.32-3.58,7.75-6.13,1.67-3,2.22-5.74,6.81-5.91,3.23-.12,6.4-2.66,9.53-4.27a46.06,46.06,0,0,0,4.48-3c-1.93-.77-3.95-2.09-6-2.26-3-.25-6.1.35-9.15.59l-.34-2.08,5.09-1.53-.77-1.9c12.08-5.62,24.81-5,37.55-4.63q50.22,1.47,100.45,2.73a41.44,41.44,0,0,0,4.24-.35l-41.16-21,.52-1.17,5.57,1.95c-2.92-2.9-5-4.77-6.85-6.91-.78-.92-.92-2.39-1.35-3.6l3.43.26c.59,1.32.8,3.15,1.8,3.86,4.24,3,8.66,5.73,13.12,8.38,2.33,1.38,4.88,2.37,7.34,3.54l.1-.46-22.52-15.32-4.51-7.33,8.24,2.41c-.43-1.43-.81-2.74-1.39-4.68L338,237c.4-1.13.8-3.09,1.15-3.08a31.3,31.3,0,0,1,5.65,1.07c-2.47-2.46-4.83-4.47-6.79-6.81-3.06-3.67-.38-9.24,4.92-11.45,8.74-3.66,17.9-4.33,27.11-3.75,28.69,1.8,57.39,3.5,86,6.05,13.91,1.24,27.66,4,40.72,9.68,16.24,7.09,22.12,20,21.26,36.53-.38,7.48-2.36,14.88-3.6,22.23.8-.8,2.08-2,3.29-3.33,6.33-6.76,12.56-13.62,19-20.29,3.82-4,5.67-4.46,11-3.76-9.8,12.95-16.4,27.26-18.65,43.24-1.82,13-1.7,25.95,8,36.31a25.32,25.32,0,0,0,11.27,7c6.16,1.63,12.74,1.63,19.39,2.35l-19.48,8.23c7.12,1.29,11.35-3.3,16.45-5.18,4.5-1.66,9-3.41,13.37-5.31,8-3.45,15.94-7,23.92-10.55a10.33,10.33,0,0,1,1.9-.44c.39,4.25-13.9,19.38-24.5,25.93,6.9.73,2,6.54,4.35,9.27q2.15,5,4.28,10c3.3,10.76,6.14,21.69,10,32.23,3,8.14,4.81,16.2,4.14,24.88-.23,3,.45,6.08.72,9.12l1.19,0c.08-1.52.24-3,.21-4.55-.14-6.49-.34-13-.52-19.48,3.37,12.09,3.4,24.08-1.55,35.77-.79,1.86-2.74,3.22-4.28,5,.92,1.3-1.48,7.34-4.36,7.2-5.42-.27-6.18,4.7-9.33,6.85-2.37,1.62-4,4.35-6,6.59,3.24,3.23,4.07,3.18,11.55.11l-15.06,17,2.47-8.35-7.86-1.93c-1.73,8-8.45,8.61-15.08,9.37l.23,1.32,12-.7c-2.69,4.45-4.93,8.1-7.06,11.8a3.21,3.21,0,0,0-.33,2.32c1.15,3.69,2.53,7.31,3.68,11a12.91,12.91,0,0,1,.15,3.36,1.17,1.17,0,0,1,.11.51c.2.52.39,1,.59,1.57a1.67,1.67,0,0,1,0,.63c.22.49.43,1,.65,1.48,0,.33.07.66.1,1l.13.22-.2.14c.07.37.15.75.23,1.12l.58.89-.48.45c-.91-.6-2.4-1-2.64-1.82-1.83-6.05-3.52-12.16-5-18.29-.94-3.78-1.64-7.5-6.68-6.19Q557,541.1,563.72,571l-1.34.41a7.67,7.67,0,0,1-1.07-1.9c-3.25-14-6.36-27.93-9.74-41.85a133.73,133.73,0,0,0-4.72-14.83c-.55-1.51-2.15-2.63-3.88-3.34,2.83,13.06,6,26,8.38,39.18s8.27,25.69,4.77,38.81c-3.38-15.5-6.79-31.46-10.36-47.39-2.24-10-4.62-20-7.21-29.9a11.56,11.56,0,0,0-3.59-5.88c-10-7.78-16.4-18.35-23.08-28.67-9.48-14.64-15.81-30.74-20.95-47.33-.66-2.11-1.41-4.2-2.12-6.3l-1.23.32c.4,1.68.73,3.38,1.2,5,7.76,27.7,15.72,55.36,23.24,83.12,2.92,10.79,4.89,21.84,7.29,32.77a41.81,41.81,0,0,1-1.95-4.4c-2.47-7.83-4.85-15.68-7.26-23.52-4.23-14.53-8.43-29.07-12.76-43.58-.32-1.07-1.59-1.85-2.42-2.77-4.9-4.61-4.5-11.2-6.07-17-2.5-9.2-4.19-18.63-6.4-27.92-1.38-5.79-3.09-11.5-4.65-17.24l-1.19.29c4.08,19.73,7.68,39.57,12.39,59.15,4.75,19.77,9.87,39.51,16.17,58.83,6.24,19.11,14.17,37.67,20.71,57.17-1.2-1.53-2.83-2.9-3.52-4.63-6.67-16.75-13.17-33.56-19.76-50.33a34.54,34.54,0,0,0-2.08-3.82l-1.95.8c1.57,4.38,3.21,8.73,4.7,13.14,1.63,4.81,3.17,9.65,4.67,14.51.62,2,1,4.05,1.54,6.07l-4-2.81c.27,2.18.43,3.55.59,4.92-3.94-10.12-8.08-20.16-11.77-30.37-2.74-7.59-4.88-15.4-7.35-23.09-.16-.52-.83-.88-2-1.07,8.63,46.83,16.77,93.7,33.84,138.49l-1.34.4q-5-12.44-10-24.88l-3.79-8.25-1.1-1.12,0,.23-.72-2.32v.21l.78-.83c-.2-1.15-.39-2.29-.59-3.44l-2.4-3.21a.54.54,0,0,1-.61.51l.09-.06-1.58-.61-.07,1.31-2.35-4.15-1.75.64c.31,1.68.5,3.4,1,5,1.78,6.38,3.47,12.8,5.55,19.09,1.21,3.65-1,5.9-2.53,8.51h.19l-9.27-.49-2.34,5.67-2.56-2c-.39,1.11-.73,2.09-1.08,3.07l-2.42.09c-1.52-1.55-3.62-2.84-4.44-4.7a39.34,39.34,0,0,0-9.51-13.27c-5.56-5.23-8.74-12.5-10.47-20.23-.65-2.89-2.53-5.5-3.83-8.25a20,20,0,0,1-.87-2.14c-8.5-25.14-17.17-50.21-22.08-76.42-3.85-20.55-7.53-41.1-6.73-62.09.26-6.69,2.25-13.29,3.09-20,1.65-13.28,6.75-25.6,10.38-38.33.89-3.15,2.47-6.12,3-9.78a72.84,72.84,0,0,0-5.16,5.24,154.14,154.14,0,0,1-51.59,40.92c-14.74,7.37-30,13.11-46.32,15.84-3.64.6-7.46.16-11.2.2Zm177.79,76,0-1.39-.55-2-1-.84-.85-2a44.82,44.82,0,0,0-.06-4.64c-1-9-2.13-17.93-3.2-26.9q-1-11.76-1.93-23.52-.62-2.72-1.24-5.43l.06-2.71-.27-1.27c-.08-.78-.16-1.55-.25-2.33s-.12-1.78-.19-2.67l.74-2.16v.21L467.43,441l-.77.63c-.29-1.47-.57-2.94-.91-4.7-8.6,14.67,13.52,147.91,26,157.56-.58-5.89-.55-11.81-1.85-17.42-3-13.1-6.85-26-10-39.09-1.13-4.73-1.2-9.71-1.75-14.57l-.75-.61-.42-1.11ZM341,334.11l.18,0-.92-.91-.88-.93-6-1.55-.65.74-.68.78-2.19-.79-.61.8,1.55,1.22h-.2l1.49,1.48v-.19l-1.67.86.2.71,3-.15h4.07l.78-.64h-.23l1.61,0h-.2l2.31.7-.24,0,1.46,1.3,1.21,1.33,3.7.79,3.75.53,1.77-.45.73-.85,2.21.81-.24,0,1.69-.13a3.64,3.64,0,0,1,.46-.5,1.05,1.05,0,0,1,.75-.47l.86-.2-.46-.38-.37.78L357,337.47l.24,0h-1.39l-2.21-.58-1-1.15-1.48-.72-1.34,1.33-.36.25-3-1.26-1.87-.47-.71-.84-2.07-.65Zm46.75,36.5,0,.16.59-1,10-4,5.23-2.58-.4-1.52-60.59,4.47-22.84-.59-.64-.74-21.94,1.14-4.42-1.16c.1-3.23-1.34-4.38-4.68-4.52-6.44-.25-12.85-1.22-19.29-1.64-2.17-.14-4.39.52-6.59.81-1.17-.74-2.28-1.94-3.54-2.13-4.73-.72-9.52-1.11-14.28-1.62l-21.9-3.88a27.69,27.69,0,0,1,5-.34c20.1,2.26,40.13,5.49,60.28,6.68,20.67,1.23,41.45.75,62.18.49,8.71-.12,17.4-1.62,26.1-2.48l5.95-1.24-.3-1.66L344,354.9a75.49,75.49,0,0,1-8.59.77c-3-.05-6-1-9-1-9.09,0-18.19.82-27.25.44-12.58-.53-25.15-1.62-37.68-2.89s-25.1-3.08-37.65-4.65l-19.6-2.72,2,3.91.17,1.06,4.53,1.76,6,4.46.1,1.41c2,4.68,6.18,5.88,10.67,6.54l-.15-.06,4.78,1.93,1.56,1.34,1.42,0-.27-.68.83,0,.56-.86,1.4,0,3.86.51.06-.07,2.32-.92,1.39-.23,1.37,1.4a8.3,8.3,0,0,1,.54.64l4,.64,1.5-.37,2.39.46.45-.47a15.56,15.56,0,0,0,2.77.74q24.13,1.83,48.26,3.58l23.44,0,7.35-.29c7,2.14,13.87,1.52,20.68-.8,5.11-.45,10.22-1.14,15.34-1.24,2.3,0,4.62,1.1,6.93,1.7.08.31.15.63.23.94l-14.27,2.6,2.72,2.44c-3,.8-6.09,2.21-9.16,2.29-7.83.21-15.67-.16-23.5-.3-20.5-.39-41-.46-61.48-1.32-8-.33-15.88-2.53-23.85-3.68-3.25-.47-6.57-.42-9.87-.61.37,1.45.84,1.91,1.4,2.13q8.67,3.43,17.37,6.81c1.09,1.11,2,2.69,3.28,3.25,20.85,8.91,42.55,12.8,65.21,10.73,5-.45,10-.67,14.91-1.53,3.37-.59,6.53-2.81,9.88-3.06,8.88-.65,16.67-4,24.76-8.18l-8-.33c5.24-1,9.76-3.16,12.92-7.64a49.1,49.1,0,0,0,5.13-1.91c.32-.15.13-1.36.18-2.08ZM306.17,411l-.16,1.08.77-.2,10.76.25,0-1.92-10.9.39Zm172.21,37,.95,2-.29,2.73,1-.09c-.29-.88-.59-1.76-.9-2.63l-.93-2.06.86-1.43-1.16-1.15-.37.56,1.54.61C478.83,447.13,478.61,447.61,478.38,448.08Zm-2.15-15.32c.26.4.53.79,0,.06.79.39.33.16-.08-.07l.76-.69-.85-.67c0-.69,0-1.39,0-2.09l-.11-.67.24.67c0,.69,0,1.39.06,2.08Zm-1.67-6.91c-.14-.65-.29-1.29-.42-2l.28-.15-.25.05c.15.68.29,1.37.47,2l.85.24ZM490.91,491l-.93-2.1-.81-2.09q-.54-2.76-1.09-5.52c-.22-1.15-.45-2.3-.67-3.45l-.71-2.07.78-1.37-1.25-1.25-.17.21c.51.36,1,.71,1.48,1.06l-.69,1.36.7,2-1.31,1,.1-.1c.18,1.34.35,2.69.53,4l.58,2,.83.79c.36.44.71.87,1.09,1.31.27.69.53,1.38.81,2.07l.87,2.1.33,1.75.8-.34Zm42-82.88.06,1.6,1.82.77,3,6.71-2.16-.59c-2.24.21-2.54.35-1.46,2.81,3.9,8.88,7.62,17.88,12.2,26.41,4.28,8,11.23,13.35,19.74,16.66,7.73,3,16.65-.32,18.91-5.91l-10.61,4.48-5.3-2.42c-1.52-17-26.89-62.55-37.42-65.42.16,2.7.3,5.09.44,7.48l-.53.48-.08,1.65,0-.22-1,1-.31.39c.21.68.41,1.37.61,2.06l.69.78,1.44,1.51ZM425.67,307.45l-18.38,1.63-12.43.13-38.83.94v1.19l19.67.36.13,1.14-3.69,1.08a10.34,10.34,0,0,0,2.42,1.38c15,3.1,30,6.05,45,9.27,4.79,1,9.44,2.73,15.92,4.64l14.11-20.68-32.42,2.88-1.86-1.85,10.35-2.24a79.56,79.56,0,0,0,25.45-4.1c0-.64-.07-1.28-.11-1.92l-5.18-.43c-3-.35-6-1.07-9-1-5.81.19-11.61.83-17.42,1.28l-22.25,1.47-14.56.77c-.62-.49-1.25-1.41-1.86-1.41-14.25.16-28.49.42-42.73.66a25.9,25.9,0,0,0,8.35,1.16c9.59.13,19.18.22,28.77.33-4.65.32-9.31.89-14,.88-8.17,0-16.34-.38-24.52-.6l-.05,1.78a19.65,19.65,0,0,0,4.09.73c23.15-.68,46.31-1.22,69.45-2.25,11.19-.5,22.34-1.95,33.51-3-3.5,1-7,2-10.49,3C430.63,305.56,428.16,306.55,425.67,307.45Zm-90,103.37c2.29-.37,4.59-.74,6.89-1.09,6.58-1,13-2.34,16.91-8l-34,8.54.06,1.14,10.28-.59Zm117.6-59.16c-8.16,11.63-16,23.52-24.58,34.83C419,399.22,406.33,408.66,392.8,417c-5.05,3.11-10.16,6.11-15.25,9.16.73-1.2,1.18-2.82,2.24-3.55,10.09-6.92,20.84-13,30.28-20.71a139.34,139.34,0,0,0,22.87-23.5c7.95-10.48,14.58-22,21.15-33.47,2.5-4.36,5.63-9.21,3.6-16.36l-6,13.59.09-3.74c-3.95,5.86-7.08,11.83-10.39,17.71-2.47,4.39-5.16,8.66-7.75,13-4.85,5.25-9.65,10.55-14.56,15.74-19.22,20.26-41.46,35.68-68.92,42.57-8.59,2.16-17.17,4.5-25.9,5.82-6.69,1-13.77,1.6-20.35.47-5.86-1-11.4-2.16-18.12-.75l3.75,2.38-11.95.28c5.73,7,48.68,9.05,57.53,3.79l-10.41-.82c5.61-1.39,11.48-.21,17.1-2.15,8.66-3,17.48-5.57,26.27-8.2,3.11-.93,6.33-1.5,9.5-2.29a26.46,26.46,0,0,0,3.7-1,116.06,116.06,0,0,0,37.13-25.3,256.59,256.59,0,0,0,23.13-26.3c5-6.57,8.28-14.41,12.33-21.68l9-13.25-2-1.14Zm-91-29.21c3.42,1.35,6.83,3.2,9,1.29,7.19,1.59,13.3,2.88,19.38,4.3,4.43,1,9.11,1.61,13.19,3.48,7.41,3.39,14.46,3.71,23.06-.66L357,318.09l4.43,4.4A3.34,3.34,0,0,0,362.24,322.45Zm95.49-31.68,1.29.93,6.21-8.8c4.9,15.21-6,26.89-7.8,41.71,3.16-3.74,6.12-6,7.41-9,5.07-11.69,10.42-23.37,14.08-35.52,2.72-9-.7-17.16-8.91-22.94-6.77-4.77-14.41-6.65-22.31-7.87-9.51-1.47-19.07-2.64-28.61-3.94l-.45,1.85,19.24,7.68c9,3.6,18.1,7.15,27.11,10.82,2.46,1,4.25,2.8,2.76,5.67-2,3.8-4.34,7.39-6.34,11.18C460,285.19,458.94,288,457.73,290.77ZM588.12,458c-11.89,7.81-23.54,11.5-36.57,9.56,2,5.32,6,8.17,11.15,6.5C572,471.06,581.17,467.62,588.12,458ZM565,430.82l.38-.25c-2.3-6.36-4.1-13-7-19s-7.12-11.84-10.67-17.78c-1.72-2.88-3.68-3-5.53-1.53Zm-29.57,28.89-.87.84c-3.42-3.39-7.18-6.51-10.15-10.25s-5.18-8.13-7.72-12.23c4.37,13,12.18,23,24.83,28.71,1,.45,2.64-.61,4-1a75.41,75.41,0,0,1-28.12-32.66A56.59,56.59,0,0,0,535.45,459.71Zm-44.19-96.3,1.64,0q1.25-15.7,2.5-31.41l-.74-.27Q489.4,347,484.15,362.23c3.62.66,4.19.07,6.21-6.92C490.7,358.3,491,360.86,491.26,363.41Zm-82.18-28.15-44-8.79-.45,2c7.23,1.6,14.41,3.58,21.73,4.71C393.52,334.24,400.2,339.11,409.08,335.26Zm57.27-8c-3.47,3.59-3.74,9.23-.59,12.36,3.3,3.27,9.88,3.55,13,.54,3.58-3.5,3.47-10.12-.23-13.67C475,323.13,470.06,323.44,466.35,327.28Zm93.11,98.32,1.07-.46c-6.18-10-12.34-20-18.62-30-.47-.74-1.88-.89-3.74-1.7C545.73,404.88,552.6,415.24,559.46,425.6Zm-235.87,2.18c15.21-1.3,29.26-4.67,41.85-11ZM409,380.17l-.75-.92L381,400.4l.84,1.07ZM273.16,316.36l-.67,1.83,18,5.68.59-1.8Zm62.55,26.21c-3.11-.38-6.25-.63-9.34-1.18-2.9-.52-5.74-1.36-8.62-2.05l-.21,1.51C323,345.57,329.57,342.76,335.71,342.57Zm113.16-19.83,1.49.82q4.5-10.35,9-20.72l-1.06-.46Zm-187.63,78.2-.55,1.74,13.86,4.38.56-1.77Zm285.9,53.62,1.4-1-9.49-13.38-1.31.91ZM202.29,396l-.75.67,18,11.89.67-1Q211.28,401.74,202.29,396Zm320.38-45.51c.26,6.76,2.1,12.48,7.13,15.8C527.67,361.55,525.27,356.23,522.67,350.46ZM239.44,392.77l.69-1.17-15-9-.6,1Zm237.62,75.78-1.41.18,1.23,17.09,1.28-.09Q477.61,477.14,477.06,468.55ZM478.94,344l1,.57,8.38-14.33-1.25-.71Zm-173.6-6.56.32-1-3.17-1.17-.42,1.55Z" transform="translate(-166.57 -212.79)"/><path d="M477,328.12a6.76,6.76,0,0,1-.2,9.92c-2.95,2.8-7.16,3.1-9.6.68a7.39,7.39,0,0,1,.18-10.48A6.92,6.92,0,0,1,477,328.12Z" transform="translate(-166.57 -212.79)"/></g></svg>