<svg id="Layer_1" data-name="Layer 1" xmlns="http://www.w3.org/2000/svg" xmlns:xlink="http://www.w3.org/1999/xlink" viewBox="0 0 465.57 136.87"><defs><style>.cls-1,.cls-2{fill:none;}.cls-2{stroke:#231f20;stroke-linecap:square;stroke-width:0.3px;}.cls-3{font-size:32.91px;fill:#414042;font-family:TektonPro-Bold, Tekton Pro;font-weight:700;}.cls-4{letter-spacing:0em;}.cls-5{fill:url(#USGS_8_Sewage_Disposal);}.cls-6{fill:#f1f2f2;}</style><pattern id="USGS_8_Sewage_Disposal" data-name="USGS 8 Sewage Disposal" width="72" height="74.8" patternUnits="userSpaceOnUse" viewBox="0 0 72 74.8"><rect class="cls-1" width="72" height="74.8"/><line class="cls-2" x1="72" y1="73.95" x2="144" y2="73.95"/><line class="cls-2" x1="72" y1="72.25" x2="144" y2="72.25"/><line class="cls-2" x1="72" y1="70.55" x2="144" y2="70.55"/><line class="cls-2" x1="72" y1="68.85" x2="144" y2="68.85"/><line class="cls-2" x1="72" y1="67.15" x2="144" y2="67.15"/><line class="cls-2" x1="72" y1="65.45" x2="144" y2="65.45"/><line class="cls-2" x1="72" y1="63.75" x2="144" y2="63.75"/><line class="cls-2" x1="72" y1="62.05" x2="144" y2="62.05"/><line class="cls-2" x1="72" y1="60.35" x2="144" y2="60.35"/><line class="cls-2" x1="72" y1="58.65" x2="144" y2="58.65"/><line class="cls-2" x1="72" y1="56.95" x2="144" y2="56.95"/><line class="cls-2" x1="72" y1="55.25" x2="144" y2="55.25"/><line class="cls-2" x1="72" y1="53.55" x2="144" y2="53.55"/><line class="cls-2" x1="72" y1="51.85" x2="144" y2="51.85"/><line class="cls-2" x1="72" y1="50.15" x2="144" y2="50.15"/><line class="cls-2" x1="72" y1="48.45" x2="144" y2="48.45"/><line class="cls-2" x1="72" y1="46.75" x2="144" y2="46.75"/><line class="cls-2" x1="72" y1="45.05" x2="144" y2="45.05"/><line class="cls-2" x1="72" y1="43.35" x2="144" y2="43.35"/><line class="cls-2" x1="72" y1="41.65" x2="144" y2="41.65"/><line class="cls-2" x1="72" y1="39.95" x2="144" y2="39.95"/><line class="cls-2" x1="72" y1="38.25" x2="144" y2="38.25"/><line class="cls-2" x1="72" y1="36.55" x2="144" y2="36.55"/><line class="cls-2" x1="72" y1="34.85" x2="144" y2="34.85"/><line class="cls-2" x1="72" y1="33.15" x2="144" y2="33.15"/><line class="cls-2" x1="72" y1="31.45" x2="144" y2="31.45"/><line class="cls-2" x1="72" y1="29.75" x2="144" y2="29.75"/><line class="cls-2" x1="72" y1="28.05" x2="144" y2="28.05"/><line class="cls-2" x1="72" y1="26.35" x2="144" y2="26.35"/><line class="cls-2" x1="72" y1="24.65" x2="144" y2="24.65"/><line class="cls-2" x1="72" y1="22.95" x2="144" y2="22.95"/><line class="cls-2" x1="72" y1="21.25" x2="144" y2="21.25"/><line class="cls-2" x1="72" y1="19.55" x2="144" y2="19.55"/><line class="cls-2" x1="72" y1="17.85" x2="144" y2="17.85"/><line class="cls-2" x1="72" y1="16.15" x2="144" y2="16.15"/><line class="cls-2" x1="72" y1="14.45" x2="144" y2="14.45"/><line class="cls-2" x1="72" y1="12.75" x2="144" y2="12.75"/><line class="cls-2" x1="72" y1="11.05" x2="144" y2="11.05"/><line class="cls-2" x1="72" y1="9.35" x2="144" y2="9.35"/><line class="cls-2" x1="72" y1="7.65" x2="144" y2="7.65"/><line class="cls-2" x1="72" y1="5.95" x2="144" y2="5.95"/><line class="cls-2" x1="72" y1="4.25" x2="144" y2="4.25"/><line class="cls-2" x1="72" y1="2.55" x2="144" y2="2.55"/><line class="cls-2" x1="72" y1="0.85" x2="144" y2="0.85"/><line class="cls-2" y1="73.95" x2="72" y2="73.95"/><line class="cls-2" y1="72.25" x2="72" y2="72.25"/><line class="cls-2" y1="70.55" x2="72" y2="70.55"/><line class="cls-2" y1="68.85" x2="72" y2="68.85"/><line class="cls-2" y1="67.15" x2="72" y2="67.15"/><line class="cls-2" y1="65.45" x2="72" y2="65.45"/><line class="cls-2" y1="63.75" x2="72" y2="63.75"/><line class="cls-2" y1="62.05" x2="72" y2="62.05"/><line class="cls-2" y1="60.35" x2="72" y2="60.35"/><line class="cls-2" y1="58.65" x2="72" y2="58.65"/><line class="cls-2" y1="56.95" x2="72" y2="56.95"/><line class="cls-2" y1="55.25" x2="72" y2="55.25"/><line class="cls-2" y1="53.55" x2="72" y2="53.55"/><line class="cls-2" y1="51.85" x2="72" y2="51.85"/><line class="cls-2" y1="50.15" x2="72" y2="50.15"/><line class="cls-2" y1="48.45" x2="72" y2="48.45"/><line class="cls-2" y1="46.75" x2="72" y2="46.75"/><line class="cls-2" y1="45.05" x2="72" y2="45.05"/><line class="cls-2" y1="43.35" x2="72" y2="43.35"/><line class="cls-2" y1="41.65" x2="72" y2="41.65"/><line class="cls-2" y1="39.95" x2="72" y2="39.95"/><line class="cls-2" y1="38.25" x2="72" y2="38.25"/><line class="cls-2" y1="36.55" x2="72" y2="36.55"/><line class="cls-2" y1="34.85" x2="72" y2="34.85"/><line class="cls-2" y1="33.15" x2="72" y2="33.15"/><line class="cls-2" y1="31.45" x2="72" y2="31.45"/><line class="cls-2" y1="29.75" x2="72" y2="29.75"/><line class="cls-2" y1="28.05" x2="72" y2="28.05"/><line class="cls-2" y1="26.35" x2="72" y2="26.35"/><line class="cls-2" y1="24.65" x2="72" y2="24.65"/><line class="cls-2" y1="22.95" x2="72" y2="22.95"/><line class="cls-2" y1="21.25" x2="72" y2="21.25"/><line class="cls-2" y1="19.55" x2="72" y2="19.55"/><line class="cls-2" y1="17.85" x2="72" y2="17.85"/><line class="cls-2" y1="16.15" x2="72" y2="16.15"/><line class="cls-2" y1="14.45" x2="72" y2="14.45"/><line class="cls-2" y1="12.75" x2="72" y2="12.75"/><line class="cls-2" y1="11.05" x2="72" y2="11.05"/><line class="cls-2" y1="9.35" x2="72" y2="9.35"/><line class="cls-2" y1="7.65" x2="72" y2="7.65"/><line class="cls-2" y1="5.95" x2="72" y2="5.95"/><line class="cls-2" y1="4.25" x2="72" y2="4.25"/><line class="cls-2" y1="2.55" x2="72" y2="2.55"/><line class="cls-2" y1="0.85" x2="72" y2="0.85"/><line class="cls-2" x1="-72" y1="73.95" y2="73.95"/><line class="cls-2" x1="-72" y1="72.25" y2="72.25"/><line class="cls-2" x1="-72" y1="70.55" y2="70.55"/><line class="cls-2" x1="-72" y1="68.85" y2="68.85"/><line class="cls-2" x1="-72" y1="67.15" y2="67.15"/><line class="cls-2" x1="-72" y1="65.45" y2="65.45"/><line class="cls-2" x1="-72" y1="63.75" y2="63.75"/><line class="cls-2" x1="-72" y1="62.05" y2="62.05"/><line class="cls-2" x1="-72" y1="60.35" y2="60.35"/><line class="cls-2" x1="-72" y1="58.65" y2="58.65"/><line class="cls-2" x1="-72" y1="56.95" y2="56.95"/><line class="cls-2" x1="-72" y1="55.25" y2="55.25"/><line class="cls-2" x1="-72" y1="53.55" y2="53.55"/><line class="cls-2" x1="-72" y1="51.85" y2="51.85"/><line class="cls-2" x1="-72" y1="50.15" y2="50.15"/><line class="cls-2" x1="-72" y1="48.45" y2="48.45"/><line class="cls-2" x1="-72" y1="46.75" y2="46.75"/><line class="cls-2" x1="-72" y1="45.05" y2="45.05"/><line class="cls-2" x1="-72" y1="43.35" y2="43.35"/><line class="cls-2" x1="-72" y1="41.65" y2="41.65"/><line class="cls-2" x1="-72" y1="39.95" y2="39.95"/><line class="cls-2" x1="-72" y1="38.25" y2="38.25"/><line class="cls-2" x1="-72" y1="36.55" y2="36.55"/><line class="cls-2" x1="-72" y1="34.85" y2="34.85"/><line class="cls-2" x1="-72" y1="33.15" y2="33.15"/><line class="cls-2" x1="-72" y1="31.45" y2="31.45"/><line class="cls-2" x1="-72" y1="29.75" y2="29.75"/><line class="cls-2" x1="-72" y1="28.05" y2="28.05"/><line class="cls-2" x1="-72" y1="26.35" y2="26.35"/><line class="cls-2" x1="-72" y1="24.65" y2="24.65"/><line class="cls-2" x1="-72" y1="22.95" y2="22.95"/><line class="cls-2" x1="-72" y1="21.25" y2="21.25"/><line class="cls-2" x1="-72" y1="19.55" y2="19.55"/><line class="cls-2" x1="-72" y1="17.85" y2="17.85"/><line class="cls-2" x1="-72" y1="16.15" y2="16.15"/><line class="cls-2" x1="-72" y1="14.45" y2="14.45"/><line class="cls-2" x1="-72" y1="12.75" y2="12.75"/><line class="cls-2" x1="-72" y1="11.05" y2="11.05"/><line class="cls-2" x1="-72" y1="9.35" y2="9.35"/><line class="cls-2" x1="-72" y1="7.65" y2="7.65"/><line class="cls-2" x1="-72" y1="5.95" y2="5.95"/><line class="cls-2" x1="-72" y1="4.25" y2="4.25"/><line class="cls-2" x1="-72" y1="2.55" y2="2.55"/><line class="cls-2" x1="-72" y1="0.85" y2="0.85"/></pattern></defs><title>abraxas_text</title><text class="cls-3" transform="translate(178.05 126.71)">MURAL . A<tspan class="cls-4" x="141.1" y="0">R</tspan><tspan x="160.97" y="0">T</tspan></text><path class="cls-5" d="M351,494.05c0-3.78-1.31-5.66-5.08-5.66a37.58,37.58,0,0,0-20,6.09c.29,1.16-1.88,4.07-6.09,4.07-3.49,0-6.1-3.92-6.1-6.83,0-2.75,3.63-6.53,6.68-6,7.4-4.78,17.41-8,30.62-8,7.4,0,13.21,4.79,13.21,13.06v44.56a5.05,5.05,0,0,1,1.16,3.34c0,4.35-5.23,5.37-9.58,5.37-4.79,0-6.24-2.18-6.24-4.5a7.14,7.14,0,0,1,1.16-3.49V529.6h-.15c-10.3,11.32-20.31,16.4-32.36,16.4-7.4,0-13.35-4.21-13.35-11.75,0-12.77,15.82-29.17,46.15-32.8Zm-.29,16.54c-19.16,2.18-32.51,13.79-32.51,20.32,0,2.61,2,3.34,4.94,3.34,10.59,0,27.57-12.63,27.57-19.16Z" transform="translate(-301.86 -445.9)"/><path class="cls-5" d="M386.15,491.58l.29.29c7.4-6.24,18.14-11.9,29.89-11.9,8.56,0,14.08,4.5,14.08,14.8,0,20.18-26.56,50.51-52,50.51-5.37,0-8-1.6-8-5.95a6.69,6.69,0,0,1,2.32-4.94v-75.9a7.86,7.86,0,0,1-1.88-5.37c0-3.63,6.38-5.22,9.72-5.22s6.82,1.16,6.82,5.37a6.67,6.67,0,0,1-1.3,3.91Zm0,40.49c14.51-4.93,30.62-20,30.62-36.57,0-3.63-4.94-4.07-6.39-4.07-5.8,0-16,4.07-24.23,12.49Z" transform="translate(-301.86 -445.9)"/><path class="cls-5" d="M432.45,488.39l-1.16-3.78c0-2.75,3.78-5.37,8.42-5.37,4.36,0,7.11,2,7.11,4.94,0,1,.15,2.18-.87,3.19v5.23h.15c8-7.26,16.11-12.92,23.22-12.92,4.5,0,9,4.35,9,17.71,0,3.91-2.32,6.67-7.25,6.67-4.21,0-6.68-1.6-6.68-3.92a14.76,14.76,0,0,1,.58-3.77c0-1.74-.58-3.34-1.74-3.34-2.32,0-9.87,4.94-17.27,13.79v26.56a6.51,6.51,0,0,1,1.74,4.06c0,4.35-2.46,6.53-10.3,6.53-4.64,0-6.82-1.89-6.82-5.66a4.76,4.76,0,0,1,1.88-3.63Z" transform="translate(-301.86 -445.9)"/><path class="cls-5" d="M523.89,494.05c0-3.78-1.31-5.66-5.08-5.66a37.58,37.58,0,0,0-20,6.09c.29,1.16-1.89,4.07-6.09,4.07-3.49,0-6.1-3.92-6.1-6.83,0-2.75,3.63-6.53,6.68-6,7.4-4.78,17.41-8,30.62-8,7.4,0,13.2,4.79,13.2,13.06v44.56a5.05,5.05,0,0,1,1.16,3.34c0,4.35-5.22,5.37-9.57,5.37-4.79,0-6.24-2.18-6.24-4.5a7.14,7.14,0,0,1,1.16-3.49V529.6h-.15c-10.3,11.32-20.32,16.4-32.36,16.4-7.4,0-13.35-4.21-13.35-11.75,0-12.77,15.82-29.17,46.15-32.8Zm-.29,16.54c-19.16,2.18-32.51,13.79-32.51,20.32,0,2.61,2,3.34,4.93,3.34,10.6,0,27.58-12.63,27.58-19.16Z" transform="translate(-301.86 -445.9)"/><path class="cls-5" d="M552.2,540.34c-.14,2.18-.43,4.5-5.51,4.5a7.82,7.82,0,0,1-7.26-7.69c0-3.48,1.74-5.08,3.48-5.08,5.37-6.68,11-13.5,16.11-20a91,91,0,0,1-16.83-20.17c-1.45-.58-2.47-2-2.47-4.79,0-3.63,4.35-7.11,8.71-7.11s5.22,3.19,5.51,5.66c2.76,7,8.86,12.48,13.5,16.69,4.06-5.52,9.72-12.05,14.8-18.29,0-2.32,1-4.93,5.23-4.93,3.62,0,7.83,3.19,7.83,7.11a5.45,5.45,0,0,1-3.33,5.22c-5.08,6.54-10.45,13.07-15.53,19.45,11.17,10.74,21.62,22.93,21.62,28.74,0,3.48-2.61,5.8-6.67,5.8-2.33,0-4.21-.87-5.52-3.92a111.33,111.33,0,0,0-17.41-21.33Z" transform="translate(-301.86 -445.9)"/><path class="cls-5" d="M648.27,494.05c0-3.78-1.3-5.66-5.08-5.66a37.54,37.54,0,0,0-20,6.09c.29,1.16-1.89,4.07-6.1,4.07-3.48,0-6.09-3.92-6.09-6.83,0-2.75,3.62-6.53,6.67-6,7.4-4.78,17.42-8,30.62-8,7.41,0,13.21,4.79,13.21,13.06v44.56a5.05,5.05,0,0,1,1.16,3.34c0,4.35-5.22,5.37-9.58,5.37-4.79,0-6.24-2.18-6.24-4.5a7.14,7.14,0,0,1,1.16-3.49V529.6h-.14c-10.31,11.32-20.32,16.4-32.36,16.4-7.41,0-13.36-4.21-13.36-11.75,0-12.77,15.82-29.17,46.15-32.8ZM648,510.59c-19.15,2.18-32.5,13.79-32.5,20.32,0,2.61,2,3.34,4.93,3.34,10.59,0,27.57-12.63,27.57-19.16Z" transform="translate(-301.86 -445.9)"/><path class="cls-5" d="M679.23,517.1c.48-.26,1-.52,1.46-.77a51.13,51.13,0,0,1,25.62-5.08,17.47,17.47,0,0,1,4-.51c2.47,0,4.18.81,5.15,2.26,5.2,1.77,9.45,4.83,11.77,9.43a15,15,0,0,1,.66,1.49,23.61,23.61,0,0,0,2-9.7c0-9.58-7.11-14.8-15.82-14.8-5.37,0-10.3,1.74-16.25,3.33-5.37,1.31-9.87,3.2-13.35,3.2-2.62,0-4.07-1.45-4.07-3.78,0-6.53,11-14.07,25.4-14.07,6.09,0,7.11.72,7.69,1.59s.87,1.45,3.48,1.45c3.34,0,5.66-2,5.66-5.66,0-5.36-7.54-8.27-17-8.27-17.27,0-38.75,11-38.75,26.42C666.86,511,671.63,516.9,679.23,517.1Z" transform="translate(-301.86 -445.9)"/><path class="cls-5" d="M767.37,532.17c-3.6-4.26-8.24-8.29-14.18-7.78s-11.17,4-15.52,7.85-9.46,8.39-11.3,14a12.14,12.14,0,0,0-.58,3.23c-.7,2.17,1.71,5.64.28,8.11a14.22,14.22,0,0,1-4.83,4c-8.8,4.45-27.29,6.8-32.4-3.3a6.06,6.06,0,0,1-.7-4,6,6,0,0,1,3.52-3.93c3.5-1.77,7.65-1.92,13.36-3.18,5.9-1.19,10.77-1.86,16.85-4.94a12.11,12.11,0,0,0,7-12,15.27,15.27,0,0,0-1.65-5.81c-6.93-13.73-31.08-13.89-46.49-6.1-6.49,3.28-11.19,7.6-11.9,11.6,0-.14-.06-.27-.07-.4a9.39,9.39,0,0,0-.55,3.27c0,4.51,4.38,8.38,10.28,10.49a19.11,19.11,0,0,1,4.74-3.34c4.79-2.43,10-3.1,16-4.36,5.39-1.25,10.25-1.6,13.36-3.17a4.16,4.16,0,0,0,2.25-2.36c.51,1.75-.24,3.34-2.25,4.36-3.11,1.57-8,1.92-13.36,3.17-6,1.26-11.22,1.93-16,4.36-5.25,2.65-8.77,7.11-9.16,12.36a14.94,14.94,0,0,0,1.72,8c10.47,20.73,41,13.78,50.92,8.74a29.05,29.05,0,0,0,9.88-8.12,9.84,9.84,0,0,0,5-.9c4.1-2,6.53-6.15,7.62-10.41,1.34-5.22.23-11.2,2.45-16.18a8.26,8.26,0,0,1,6.94-5.12c3.06-.24,5.43,1.74,8.24,2.54a.47.47,0,0,0,.57-.26A.31.31,0,0,0,767.37,532.17Zm-78.45,1.93a12.79,12.79,0,0,1-8.45-3,24.78,24.78,0,0,1,5-3c10.15-5.13,20.57-5.09,25.93-2C705.46,531.33,695.49,534.1,688.92,534.1Z" transform="translate(-301.86 -445.9)"/><path class="cls-6" d="M348,492.05c0-3.78-1.31-5.66-5.08-5.66a37.58,37.58,0,0,0-20,6.09c.29,1.16-1.88,4.07-6.09,4.07-3.49,0-6.1-3.92-6.1-6.83,0-2.75,3.63-6.53,6.68-6,7.4-4.78,17.41-8,30.62-8,7.4,0,13.21,4.79,13.21,13.06v44.56a5.05,5.05,0,0,1,1.16,3.34c0,4.35-5.23,5.37-9.58,5.37-4.79,0-6.24-2.18-6.24-4.5a7.14,7.14,0,0,1,1.16-3.49V527.6h-.15c-10.3,11.32-20.31,16.4-32.36,16.4-7.4,0-13.35-4.21-13.35-11.75,0-12.77,15.82-29.17,46.15-32.8Zm-.29,16.54c-19.16,2.18-32.51,13.79-32.51,20.32,0,2.61,2,3.34,4.94,3.34,10.59,0,27.57-12.63,27.57-19.16Z" transform="translate(-301.86 -445.9)"/><path class="cls-6" d="M383.15,489.58l.29.29c7.4-6.24,18.14-11.9,29.89-11.9,8.56,0,14.08,4.5,14.08,14.8,0,20.18-26.56,50.51-52,50.51-5.37,0-8-1.6-8-5.95a6.69,6.69,0,0,1,2.32-4.94v-75.9a7.86,7.86,0,0,1-1.88-5.37c0-3.63,6.38-5.22,9.72-5.22s6.82,1.16,6.82,5.37a6.67,6.67,0,0,1-1.3,3.91Zm0,40.49c14.51-4.93,30.62-20,30.62-36.57,0-3.63-4.94-4.07-6.39-4.07-5.8,0-16,4.07-24.23,12.49Z" transform="translate(-301.86 -445.9)"/><path class="cls-6" d="M429.45,486.39l-1.16-3.78c0-2.75,3.78-5.37,8.42-5.37,4.36,0,7.11,2,7.11,4.94,0,1,.15,2.18-.87,3.19v5.23h.15c8-7.26,16.11-12.92,23.22-12.92,4.5,0,9,4.35,9,17.71,0,3.91-2.32,6.67-7.25,6.67-4.21,0-6.68-1.6-6.68-3.92a14.76,14.76,0,0,1,.58-3.77c0-1.74-.58-3.34-1.74-3.34-2.32,0-9.87,4.94-17.27,13.79v26.56a6.51,6.51,0,0,1,1.74,4.06c0,4.35-2.46,6.53-10.3,6.53-4.64,0-6.82-1.89-6.82-5.66a4.76,4.76,0,0,1,1.88-3.63Z" transform="translate(-301.86 -445.9)"/><path class="cls-6" d="M520.89,492.05c0-3.78-1.31-5.66-5.08-5.66a37.58,37.58,0,0,0-20,6.09c.29,1.16-1.89,4.07-6.09,4.07-3.49,0-6.1-3.92-6.1-6.83,0-2.75,3.63-6.53,6.68-6,7.4-4.78,17.41-8,30.62-8,7.4,0,13.2,4.79,13.2,13.06v44.56a5.05,5.05,0,0,1,1.16,3.34c0,4.35-5.22,5.37-9.57,5.37-4.79,0-6.24-2.18-6.24-4.5a7.14,7.14,0,0,1,1.16-3.49V527.6h-.15c-10.3,11.32-20.32,16.4-32.36,16.4-7.4,0-13.35-4.21-13.35-11.75,0-12.77,15.82-29.17,46.15-32.8Zm-.29,16.54c-19.16,2.18-32.51,13.79-32.51,20.32,0,2.61,2,3.34,4.93,3.34,10.6,0,27.58-12.63,27.58-19.16Z" transform="translate(-301.86 -445.9)"/><path class="cls-6" d="M549.2,538.34c-.14,2.18-.43,4.5-5.51,4.5a7.82,7.82,0,0,1-7.26-7.69c0-3.48,1.74-5.08,3.48-5.08,5.37-6.68,11-13.5,16.11-20a91,91,0,0,1-16.83-20.17c-1.45-.58-2.47-2-2.47-4.79,0-3.63,4.35-7.11,8.71-7.11s5.22,3.19,5.51,5.66c2.76,7,8.86,12.48,13.5,16.69,4.06-5.52,9.72-12.05,14.8-18.29,0-2.32,1-4.93,5.23-4.93,3.62,0,7.83,3.19,7.83,7.11a5.45,5.45,0,0,1-3.33,5.22c-5.08,6.54-10.45,13.07-15.53,19.45,11.17,10.74,21.62,22.93,21.62,28.74,0,3.48-2.61,5.8-6.67,5.8-2.33,0-4.21-.87-5.52-3.92a111.33,111.33,0,0,0-17.41-21.33Z" transform="translate(-301.86 -445.9)"/><path class="cls-6" d="M645.27,492.05c0-3.78-1.3-5.66-5.08-5.66a37.54,37.54,0,0,0-20,6.09c.29,1.16-1.89,4.07-6.1,4.07-3.48,0-6.09-3.92-6.09-6.83,0-2.75,3.62-6.53,6.67-6,7.4-4.78,17.42-8,30.62-8,7.41,0,13.21,4.79,13.21,13.06v44.56a5.05,5.05,0,0,1,1.16,3.34c0,4.35-5.22,5.37-9.58,5.37-4.79,0-6.24-2.18-6.24-4.5a7.14,7.14,0,0,1,1.16-3.49V527.6h-.14c-10.31,11.32-20.32,16.4-32.36,16.4-7.41,0-13.36-4.21-13.36-11.75,0-12.77,15.82-29.17,46.15-32.8ZM645,508.59c-19.15,2.18-32.5,13.79-32.5,20.32,0,2.61,2,3.34,4.93,3.34,10.59,0,27.57-12.63,27.57-19.16Z" transform="translate(-301.86 -445.9)"/><path class="cls-6" d="M676.23,515.1c.48-.26,1-.52,1.46-.77a51.13,51.13,0,0,1,25.62-5.08,17.47,17.47,0,0,1,4-.51c2.47,0,4.18.81,5.15,2.26,5.2,1.77,9.45,4.83,11.77,9.43a15,15,0,0,1,.66,1.49,23.61,23.61,0,0,0,2-9.7c0-9.58-7.11-14.8-15.82-14.8-5.37,0-10.3,1.74-16.25,3.33-5.37,1.31-9.87,3.2-13.35,3.2-2.62,0-4.07-1.45-4.07-3.78,0-6.53,11-14.07,25.4-14.07,6.09,0,7.11.72,7.69,1.59s.87,1.45,3.48,1.45c3.34,0,5.66-2,5.66-5.66,0-5.36-7.54-8.27-17-8.27-17.27,0-38.75,11-38.75,26.42C663.86,509,668.63,514.9,676.23,515.1Z" transform="translate(-301.86 -445.9)"/><path class="cls-6" d="M764.37,530.17c-3.6-4.26-8.24-8.29-14.18-7.78s-11.17,4-15.52,7.85-9.46,8.39-11.3,14a12.14,12.14,0,0,0-.58,3.23c-.7,2.17,1.71,5.64.28,8.11a14.22,14.22,0,0,1-4.83,4c-8.8,4.45-27.29,6.8-32.4-3.3a6.06,6.06,0,0,1-.7-4,6,6,0,0,1,3.52-3.93c3.5-1.77,7.65-1.92,13.36-3.18,5.9-1.19,10.77-1.86,16.85-4.94a12.11,12.11,0,0,0,7-12,15.27,15.27,0,0,0-1.65-5.81c-6.93-13.73-31.08-13.89-46.49-6.1-6.49,3.28-11.19,7.6-11.9,11.6,0-.14-.06-.27-.07-.4a9.39,9.39,0,0,0-.55,3.27c0,4.51,4.38,8.38,10.28,10.49a19.11,19.11,0,0,1,4.74-3.34c4.79-2.43,10-3.1,16-4.36,5.39-1.25,10.25-1.6,13.36-3.17a4.16,4.16,0,0,0,2.25-2.36c.51,1.75-.24,3.34-2.25,4.36-3.11,1.57-8,1.92-13.36,3.17-6,1.26-11.22,1.93-16,4.36-5.25,2.65-8.77,7.11-9.16,12.36a14.94,14.94,0,0,0,1.72,8c10.47,20.73,41,13.78,50.92,8.74a29.05,29.05,0,0,0,9.88-8.12,9.84,9.84,0,0,0,5-.9c4.1-2,6.53-6.15,7.62-10.41,1.34-5.22.23-11.2,2.45-16.18a8.26,8.26,0,0,1,6.94-5.12c3.06-.24,5.43,1.74,8.24,2.54a.47.47,0,0,0,.57-.26A.31.31,0,0,0,764.37,530.17Zm-78.45,1.93a12.79,12.79,0,0,1-8.45-3,24.78,24.78,0,0,1,5-3c10.15-5.13,20.57-5.09,25.93-2C702.46,529.33,692.49,532.1,685.92,532.1Z" transform="translate(-301.86 -445.9)"/></svg>