<svg id="Layer_1" data-name="Layer 1" xmlns="http://www.w3.org/2000/svg" viewBox="0 0 360.84 538.57"><defs><style>.cls-1{fill:#231f20;}</style></defs><title>abraxas_icon_sigil</title><polygon class="cls-1" points="203.22 348.08 202.96 348.08 202.96 347.82 203.22 348.08"/><polygon class="cls-1" points="203.22 348.08 202.96 348.08 202.96 347.82 203.22 348.08"/><polygon class="cls-1" points="203.22 348.08 202.96 348.08 202.96 347.82 203.22 348.08"/><polygon class="cls-1" points="11.21 156.07 10.53 156.07 10.53 155.39 11.21 156.07"/><path class="cls-1" d="M615.31,629.63c-.24,1.32-.41,2.46-.75,3.68l-1.17,4c-.83,2.62-1.72,5.22-2.69,7.79A140,140,0,0,1,604,660.11a137,137,0,0,1-18.63,27.24,140.47,140.47,0,0,1-85.51,47,145.62,145.62,0,0,1-33.25,1,139.62,139.62,0,0,1-32.64-6.73,142.19,142.19,0,0,1-15.53-6.18c-1.26-.6-2.5-1.25-3.74-1.87s-2.52-1.22-3.71-1.93c-2.42-1.4-4.89-2.7-7.22-4.24a143.52,143.52,0,0,1-46.67-47.29,143.89,143.89,0,0,1-18.68-97.06,141.56,141.56,0,0,1,9.3-32.33,145.34,145.34,0,0,1,39.59-53.93,4,4,0,0,1,5.38.2l0,0L497.37,588.17l-3.11-1.29,82.74-.15-4.55,4.55,0-96,.13-96v0a4.4,4.4,0,0,1,4.4-4.38h0l69.26.16L642,399.27l.12-48.93,4.12,4.12L577,354.3h0a4,4,0,0,1-3.94-4l.12-54.81v0a3.84,3.84,0,0,1,3.84-3.82h0l69.26.23-3.61,3.61.21-48.93,3.4,3.4-172.34-1-86.18-.47-86.17-.41,1.52-1.52L303,295.53l-1.38-1.38,96.22.1,96.21-.19a1.48,1.48,0,0,1,1.47,1.46h0l.22,54.81A1.69,1.69,0,0,1,494,352h0l-192.43,1.29,3-3,.3,48.25-1-2.32,56.48,56a3.63,3.63,0,0,1,0,5.13,1.21,1.21,0,0,1-.16.16l0,0a182.42,182.42,0,0,0-61.44,145.28A182.48,182.48,0,0,0,568,754.16a187,187,0,0,0,33.72-23.47c2.65-2.18,5.07-4.63,7.56-7l1.87-1.79,1.77-1.87,3.53-3.75a175.16,175.16,0,0,0,13.07-16,185.77,185.77,0,0,0,20.4-35.87l.22,1.14c-5.77-5.89-11.5-11.83-17.27-17.84S621.22,635.69,615.31,629.63Zm-.22-.82,18.12,17.51c6.11,5.87,12.26,11.81,18.37,17.8a1,1,0,0,1,.23,1.12v0A186.53,186.53,0,0,1,631.89,702a179.48,179.48,0,0,1-13,16.47l-3.53,3.88-1.77,1.94-1.87,1.85c-2.5,2.45-4.92,5-7.58,7.27a186.87,186.87,0,0,1-72.85,40.86c-3.38,1-6.8,1.78-10.2,2.68-3.44.73-6.89,1.4-10.34,2.1-3.49.49-7,1-10.45,1.48-3.51.29-7,.64-10.52.89A187.82,187.82,0,0,1,291.27,603.2a191.6,191.6,0,0,1,2.61-42.31A186.43,186.43,0,0,1,306,520.25a188.08,188.08,0,0,1,49.44-68.18l-.18,5.32-56-56.48,0,0a3.22,3.22,0,0,1-.94-2.29l.3-48.25v0a3,3,0,0,1,3-2.94h0L494,348.65l-1.69,1.69.22-54.81L494,297l-96.21-.19-96.22.1a1.38,1.38,0,0,1-1.38-1.38h0l-.14-48.93a1.5,1.5,0,0,1,1.51-1.52h0l86.17-.41,86.18-.47,172.34-1a3.38,3.38,0,0,1,3.4,3.36h0v0l.21,48.93a3.59,3.59,0,0,1-3.58,3.61h0l-69.26.23,3.84-3.84.12,54.81-4-4,69.26-.16a4.1,4.1,0,0,1,4.12,4.1v0l.12,48.93a4.24,4.24,0,0,1-4.22,4.24h0l-69.26.16,4.4-4.4.13,96,0,96h0a4.54,4.54,0,0,1-4.54,4.54h0l-82.74-.15h0a4.42,4.42,0,0,1-3.09-1.29L387,489.7l5.41.23a137.39,137.39,0,0,0-37.81,50.76,134,134,0,0,0-9.12,30.57,138.59,138.59,0,0,0,4,63.38,141,141,0,0,0,12.93,29.29,137.67,137.67,0,0,0,44.22,45.91c2.22,1.52,4.58,2.79,6.89,4.16,1.15.71,2.37,1.27,3.55,1.91s2.38,1.25,3.58,1.84a140.94,140.94,0,0,0,14.89,6.16,134.69,134.69,0,0,0,31.44,7,141,141,0,0,0,32.27-.55,137.68,137.68,0,0,0,84.41-44.48,139.56,139.56,0,0,0,25.89-41.25c1-2.53,2-5.09,2.85-7.67l1.25-3.9C614.05,631.63,614.59,630.12,615.09,628.81Z" transform="translate(-291.04 -243.2)"/><path class="cls-1" d="M494.3,399c.63,8.47,1.18,17.23,1.7,26.13l.74,13.47.64,13.68c.22,4.58.35,9.21.52,13.83s.31,9.28.41,13.94c.22,9.32.31,18.68.23,28v.09a4.52,4.52,0,0,1-7.74,3.12q-13.44-13.75-26.71-27.67c-4.42-4.64-8.83-9.29-13.17-14L438,455.3c-8.58-9.54-17.36-18.89-26.45-27.93s-18.63-17.62-28.24-26.14a2.7,2.7,0,0,1,1.63-4.71l.33,0c9.22-.53,18.57-.94,27.9-1s18.62.21,27.83.48,18.3.72,27.24,1.2S485.9,398.27,494.3,399Zm-.6.6c-9.73.7-19.09,1.27-28.29,1.76s-18.23.93-27.14,1.2-17.76.51-26.55.48-17.58-.44-26.48-1l2-4.73c8.52,9.61,17.06,19.19,26.14,28.24s18.39,17.87,27.93,26.45l14.25,12.94c4.73,4.34,9.38,8.75,14,13.17q13.88,13.31,27.67,26.71L489.46,508c-.08-8.8,0-17.56.23-26.37q.15-6.6.41-13.25c.17-4.44.3-8.87.52-13.36l.64-13.51.74-13.72C492.52,418.59,493.07,409.22,493.7,399.57Z" transform="translate(-291.04 -243.2)"/></svg>