<?xml version="1.0" encoding="iso-8859-1"?>
<!-- Generator: Adobe Illustrator 19.0.0, SVG Export Plug-In . SVG Version: 6.00 Build 0)  -->
<svg version="1.1" id="Capa_1" xmlns="http://www.w3.org/2000/svg" xmlns:xlink="http://www.w3.org/1999/xlink" x="0px" y="0px"
	 viewBox="0 0 512 512" style="enable-background:new 0 0 512 512;" xml:space="preserve">
<g>
	<g>
		<g>
			<path d="M175.661,234.279c0,4.143,3.358,7.5,7.5,7.5h11.557c4.142,0,7.5-3.357,7.5-7.5s-3.358-7.5-7.5-7.5h-11.557
				C179.018,226.779,175.661,230.137,175.661,234.279z"/>
			<path d="M493.19,150.21c-16.147-35.54-40.644-67.413-70.84-92.176c-3.203-2.625-7.929-2.158-10.555,1.044
				c-2.626,3.203-2.159,7.929,1.044,10.556c28.431,23.313,51.493,53.321,66.696,86.781c22.637,49.822,16.401,108.634-16.274,153.482
				c-10.349,14.206-27.836,19.871-44.545,14.424c-16.711-5.441-27.509-20.313-27.509-37.89v-6.546
				c4.927-5.054,9.193-10.511,12.811-16.265v22.811c0,14.49,10.055,22.905,18.667,25.709c8.609,2.8,21.691,1.922,30.222-9.787
				c29.961-41.123,35.695-95.014,14.964-140.64c-17.887-39.37-46.499-72.765-82.742-96.574
				c-37.175-24.42-80.441-37.328-125.118-37.328c-60.798,0-118.059,23.778-161.235,66.953
				C55.598,137.941,31.82,195.202,31.82,256.001c0,60.951,23.736,118.254,66.835,161.353c43.1,43.099,100.403,66.834,161.354,66.834
				c60.686,0,117.811-23.558,160.852-66.334c1.209-1.202,2.812-1.863,4.516-1.863h0.02c1.711,0.006,3.317,0.677,4.523,1.89
				c2.49,2.506,2.477,6.57-0.027,9.061C384.432,472.119,324.1,497,260.008,497c-64.373,0-124.894-25.068-170.413-70.588
				c-45.519-45.52-70.587-106.039-70.587-170.411c0-64.221,25.111-124.699,70.707-170.294C135.31,40.11,195.788,15,260.009,15
				c47.185,0,92.883,13.636,132.152,39.433c3.461,2.274,8.112,1.311,10.386-2.15c2.274-3.462,1.311-8.112-2.151-10.387
				C358.675,14.487,310.129,0,260.009,0C191.782,0,127.536,26.671,79.108,75.1c-48.429,48.429-75.1,112.674-75.1,180.901
				c0,68.379,26.629,132.665,74.981,181.018C127.341,485.371,191.628,512,260.008,512c68.082,0,132.169-26.43,180.457-74.42
				c8.371-8.319,8.413-21.899,0.094-30.273c-4.031-4.056-9.399-6.299-15.117-6.316h-0.067c-5.692,0-11.049,2.209-15.089,6.225
				c-40.212,39.964-93.582,61.973-150.278,61.973c-56.943,0-110.48-22.176-150.747-62.441
				C68.995,366.481,46.82,312.945,46.82,256.001c0-56.792,22.218-110.286,62.561-150.629
				c40.343-40.343,93.837-62.561,150.629-62.561c41.743,0,82.16,12.056,116.883,34.865c33.871,22.251,60.608,53.456,77.321,90.242
				c18.498,40.713,13.352,88.841-13.432,125.602c-4.773,6.552-11.506,4.99-13.456,4.357c-1.949-0.635-8.31-3.336-8.31-11.445
				v-73.591c0-0.077-0.009-0.151-0.011-0.227c0.262-24.915-8.965-49.828-27.74-68.733c-18.21-18.337-42.469-28.46-68.308-28.505
				c-0.058,0-0.114-0.001-0.172-0.001c-23.348,0-45.427,8.235-62.928,23.336c-17.501-15.102-39.578-23.336-62.927-23.336
				c-0.057,0-0.116,0.001-0.172,0.001c-25.838,0.044-50.097,10.168-68.308,28.505c-37.362,37.622-36.948,99.04,0.924,136.912
				l42.7,42.7c2.929,2.927,7.678,2.929,10.607,0c2.929-2.93,2.929-7.678,0-10.607l-42.7-42.7
				c-32.043-32.043-32.441-83.961-0.887-115.734c15.38-15.487,35.868-24.038,57.69-24.075h0.146c21.768,0,42.229,8.474,57.625,23.87
				c2.928,2.927,7.677,2.929,10.606,0c15.397-15.397,35.855-23.87,57.625-23.87h0.146c21.822,0.037,42.31,8.588,57.69,24.075
				c31.554,31.773,31.156,83.691-0.887,115.734L274.264,375.657c-7.943,7.944-20.869,7.944-28.812,0l-42.926-42.927
				c-2.929-2.928-7.678-2.928-10.606,0c-2.929,2.93-2.929,7.678,0,10.607l42.926,42.927c6.896,6.896,15.954,10.343,25.012,10.343
				c9.059,0,18.117-3.447,25.013-10.343l91.89-91.891c2.872,20.652,16.873,37.556,37.308,44.21c5.808,1.893,11.681,2.81,17.449,2.81
				c17.077-0.001,33.217-8.046,43.866-22.664C511.237,269.52,518.06,204.946,493.19,150.21z"/>
			<path d="M188.939,219.792c4.142,0,7.5-3.357,7.5-7.5v-5.19c0-4.143-3.358-7.5-7.5-7.5c-4.142,0-7.5,3.357-7.5,7.5v5.19
				C181.439,216.435,184.797,219.792,188.939,219.792z"/>
			<path d="M330.777,219.792c4.142,0,7.5-3.357,7.5-7.5v-5.19c0-4.143-3.358-7.5-7.5-7.5c-4.142,0-7.5,3.357-7.5,7.5v5.19
				C323.277,216.435,326.635,219.792,330.777,219.792z"/>
			<path d="M259.858,233.04c2.838,1.983,6.289,3.149,10.006,3.149c9.653,0,17.506-7.854,17.506-17.507c0-4.143-3.358-7.5-7.5-7.5
				c-4.142,0-7.5,3.357-7.5,7.5c0,1.382-1.125,2.507-2.506,2.507c-1.382,0-2.506-1.125-2.506-2.507c0-4.143-3.358-7.5-7.5-7.5
				c-4.142,0-7.5,3.357-7.5,7.5c0,1.382-1.124,2.507-2.506,2.507c-1.382,0-2.506-1.125-2.506-2.507c0-4.143-3.358-7.5-7.5-7.5
				c-4.142,0-7.5,3.357-7.5,7.5c0,9.653,7.854,17.507,17.506,17.507C253.57,236.189,257.02,235.023,259.858,233.04z"/>
			<path d="M317.499,234.279c0,4.143,3.358,7.5,7.5,7.5h11.557c4.142,0,7.5-3.357,7.5-7.5s-3.358-7.5-7.5-7.5h-11.557
				C320.857,226.779,317.499,230.137,317.499,234.279z"/>
		</g>
	</g>
</g>
<g>
</g>
<g>
</g>
<g>
</g>
<g>
</g>
<g>
</g>
<g>
</g>
<g>
</g>
<g>
</g>
<g>
</g>
<g>
</g>
<g>
</g>
<g>
</g>
<g>
</g>
<g>
</g>
<g>
</g>
</svg>
